<svg viewBox="0 0 1094.1319580078125 400.0000305175781" xmlns="http://www.w3.org/2000/svg"><g><g><g><g><g><line x1="58" y1="377" x2="53" y2="377" style="visibility: inherit;" fill="rgb(0, 0, 0)" stroke="rgb(204, 204, 204)" stroke-width="1px"></line><line x1="58" y1="351.8666666666667" x2="53" y2="351.8666666666667" style="visibility: inherit;" fill="rgb(0, 0, 0)" stroke="rgb(204, 204, 204)" stroke-width="1px"></line><line x1="58" y1="326.73333333333335" x2="53" y2="326.73333333333335" style="visibility: inherit;" fill="rgb(0, 0, 0)" stroke="rgb(204, 204, 204)" stroke-width="1px"></line><line x1="58" y1="301.59999999999997" x2="53" y2="301.59999999999997" style="visibility: inherit;" fill="rgb(0, 0, 0)" stroke="rgb(204, 204, 204)" stroke-width="1px"></line><line x1="58" y1="276.4666666666667" x2="53" y2="276.4666666666667" style="visibility: inherit;" fill="rgb(0, 0, 0)" stroke="rgb(204, 204, 204)" stroke-width="1px"></line><line x1="58" y1="251.33333333333334" x2="53" y2="251.33333333333334" style="visibility: inherit;" fill="rgb(0, 0, 0)" stroke="rgb(204, 204, 204)" stroke-width="1px"></line><line x1="58" y1="226.19999999999996" x2="53" y2="226.19999999999996" style="visibility: inherit;" fill="rgb(0, 0, 0)" stroke="rgb(204, 204, 204)" stroke-width="1px"></line><line x1="58" y1="201.0666666666667" x2="53" y2="201.0666666666667" style="visibility: inherit;" fill="rgb(0, 0, 0)" stroke="rgb(204, 204, 204)" stroke-width="1px"></line><line x1="58" y1="175.93333333333334" x2="53" y2="175.93333333333334" style="visibility: inherit;" fill="rgb(0, 0, 0)" stroke="rgb(204, 204, 204)" stroke-width="1px"></line><line x1="58" y1="150.8" x2="53" y2="150.8" style="visibility: inherit;" fill="rgb(0, 0, 0)" stroke="rgb(204, 204, 204)" stroke-width="1px"></line><line x1="58" y1="125.66666666666669" x2="53" y2="125.66666666666669" style="visibility: inherit;" fill="rgb(0, 0, 0)" stroke="rgb(204, 204, 204)" stroke-width="1px"></line><line x1="58" y1="100.5333333333333" x2="53" y2="100.5333333333333" style="visibility: inherit;" fill="rgb(0, 0, 0)" stroke="rgb(204, 204, 204)" stroke-width="1px"></line><line x1="58" y1="75.40000000000003" x2="53" y2="75.40000000000003" style="visibility: inherit;" fill="rgb(0, 0, 0)" stroke="rgb(204, 204, 204)" stroke-width="1px"></line><line x1="58" y1="50.26666666666665" x2="53" y2="50.26666666666665" style="visibility: inherit;" fill="rgb(0, 0, 0)" stroke="rgb(204, 204, 204)" stroke-width="1px"></line><line x1="58" y1="25.133333333333383" x2="53" y2="25.133333333333383" style="visibility: inherit;" fill="rgb(0, 0, 0)" stroke="rgb(204, 204, 204)" stroke-width="1px"></line><line x1="58" y1="0" x2="53" y2="0" style="visibility: inherit;" fill="rgb(0, 0, 0)" stroke="rgb(204, 204, 204)" stroke-width="1px"></line></g><g transform="translate(48, 0)"><text x="0" y="377" dx="0em" dy="0.3em" style="text-anchor: end; visibility: hidden; font-family: &quot;Helvetica Neue&quot;, sans-serif; font-size: 12px; font-weight: 200;" fill="rgb(50, 49, 63)" stroke="none" stroke-width="1px">-0.4</text><text x="0" y="351.8666666666667" dx="0em" dy="0.3em" style="text-anchor: end; visibility: inherit; font-family: &quot;Helvetica Neue&quot;, sans-serif; font-size: 12px; font-weight: 200;" fill="rgb(50, 49, 63)" stroke="none" stroke-width="1px">-0.2</text><text x="0" y="326.73333333333335" dx="0em" dy="0.3em" style="text-anchor: end; visibility: inherit; font-family: &quot;Helvetica Neue&quot;, sans-serif; font-size: 12px; font-weight: 200;" fill="rgb(50, 49, 63)" stroke="none" stroke-width="1px">0</text><text x="0" y="301.59999999999997" dx="0em" dy="0.3em" style="text-anchor: end; visibility: inherit; font-family: &quot;Helvetica Neue&quot;, sans-serif; font-size: 12px; font-weight: 200;" fill="rgb(50, 49, 63)" stroke="none" stroke-width="1px">0.2</text><text x="0" y="276.4666666666667" dx="0em" dy="0.3em" style="text-anchor: end; visibility: inherit; font-family: &quot;Helvetica Neue&quot;, sans-serif; font-size: 12px; font-weight: 200;" fill="rgb(50, 49, 63)" stroke="none" stroke-width="1px">0.4</text><text x="0" y="251.33333333333334" dx="0em" dy="0.3em" style="text-anchor: end; visibility: inherit; font-family: &quot;Helvetica Neue&quot;, sans-serif; font-size: 12px; font-weight: 200;" fill="rgb(50, 49, 63)" stroke="none" stroke-width="1px">0.6</text><text x="0" y="226.19999999999996" dx="0em" dy="0.3em" style="text-anchor: end; visibility: inherit; font-family: &quot;Helvetica Neue&quot;, sans-serif; font-size: 12px; font-weight: 200;" fill="rgb(50, 49, 63)" stroke="none" stroke-width="1px">0.8</text><text x="0" y="201.0666666666667" dx="0em" dy="0.3em" style="text-anchor: end; visibility: inherit; font-family: &quot;Helvetica Neue&quot;, sans-serif; font-size: 12px; font-weight: 200;" fill="rgb(50, 49, 63)" stroke="none" stroke-width="1px">1</text><text x="0" y="175.93333333333334" dx="0em" dy="0.3em" style="text-anchor: end; visibility: inherit; font-family: &quot;Helvetica Neue&quot;, sans-serif; font-size: 12px; font-weight: 200;" fill="rgb(50, 49, 63)" stroke="none" stroke-width="1px">1.2</text><text x="0" y="150.8" dx="0em" dy="0.3em" style="text-anchor: end; visibility: inherit; font-family: &quot;Helvetica Neue&quot;, sans-serif; font-size: 12px; font-weight: 200;" fill="rgb(50, 49, 63)" stroke="none" stroke-width="1px">1.4</text><text x="0" y="125.66666666666669" dx="0em" dy="0.3em" style="text-anchor: end; visibility: inherit; font-family: &quot;Helvetica Neue&quot;, sans-serif; font-size: 12px; font-weight: 200;" fill="rgb(50, 49, 63)" stroke="none" stroke-width="1px">1.6</text><text x="0" y="100.5333333333333" dx="0em" dy="0.3em" style="text-anchor: end; visibility: inherit; font-family: &quot;Helvetica Neue&quot;, sans-serif; font-size: 12px; font-weight: 200;" fill="rgb(50, 49, 63)" stroke="none" stroke-width="1px">1.8</text><text x="0" y="75.40000000000003" dx="0em" dy="0.3em" style="text-anchor: end; visibility: inherit; font-family: &quot;Helvetica Neue&quot;, sans-serif; font-size: 12px; font-weight: 200;" fill="rgb(50, 49, 63)" stroke="none" stroke-width="1px">2</text><text x="0" y="50.26666666666665" dx="0em" dy="0.3em" style="text-anchor: end; visibility: inherit; font-family: &quot;Helvetica Neue&quot;, sans-serif; font-size: 12px; font-weight: 200;" fill="rgb(50, 49, 63)" stroke="none" stroke-width="1px">2.2</text><text x="0" y="25.133333333333383" dx="0em" dy="0.3em" style="text-anchor: end; visibility: inherit; font-family: &quot;Helvetica Neue&quot;, sans-serif; font-size: 12px; font-weight: 200;" fill="rgb(50, 49, 63)" stroke="none" stroke-width="1px">2.4</text><text x="0" y="0" dx="0em" dy="0.3em" style="text-anchor: end; visibility: hidden; font-family: &quot;Helvetica Neue&quot;, sans-serif; font-size: 12px; font-weight: 200;" fill="rgb(50, 49, 63)" stroke="none" stroke-width="1px">2.6</text></g><line x1="58" y1="0" x2="58" y2="377" fill="rgb(0, 0, 0)" stroke="rgb(204, 204, 204)" stroke-width="1px"></line></g></g><g transform="translate(58, 0)" clip-path="url(#clip_0)"><clipPath id="clip_0"><rect width="1036" height="376"></rect></clipPath><g><g><g><line x1="0" y1="0" x2="0" y2="377" fill="rgb(0, 0, 0)" stroke="rgb(60, 60, 60)" stroke-width="1px" opacity="0.25"></line><line x1="129.51625" y1="0" x2="129.51625" y2="377" fill="rgb(0, 0, 0)" stroke="rgb(60, 60, 60)" stroke-width="1px" opacity="0.25"></line><line x1="259.0325" y1="0" x2="259.0325" y2="377" fill="rgb(0, 0, 0)" stroke="rgb(60, 60, 60)" stroke-width="1px" opacity="0.25"></line><line x1="388.54875000000004" y1="0" x2="388.54875000000004" y2="377" fill="rgb(0, 0, 0)" stroke="rgb(60, 60, 60)" stroke-width="1px" opacity="0.25"></line><line x1="518.065" y1="0" x2="518.065" y2="377" fill="rgb(0, 0, 0)" stroke="rgb(60, 60, 60)" stroke-width="1px" opacity="0.25"></line><line x1="647.5812500000001" y1="0" x2="647.5812500000001" y2="377" fill="rgb(0, 0, 0)" stroke="rgb(60, 60, 60)" stroke-width="1px" opacity="0.25"></line><line x1="777.0975000000001" y1="0" x2="777.0975000000001" y2="377" fill="rgb(0, 0, 0)" stroke="rgb(60, 60, 60)" stroke-width="1px" opacity="0.25"></line><line x1="906.6137500000001" y1="0" x2="906.6137500000001" y2="377" fill="rgb(0, 0, 0)" stroke="rgb(60, 60, 60)" stroke-width="1px" opacity="0.25"></line><line x1="1036.13" y1="0" x2="1036.13" y2="377" fill="rgb(0, 0, 0)" stroke="rgb(60, 60, 60)" stroke-width="1px" opacity="0.25"></line></g><g><line x1="0" y1="377" x2="1036.13" y2="377" fill="rgb(0, 0, 0)" stroke="rgb(60, 60, 60)" stroke-width="1px" opacity="0.25"></line><line x1="0" y1="351.8666666666667" x2="1036.13" y2="351.8666666666667" fill="rgb(0, 0, 0)" stroke="rgb(60, 60, 60)" stroke-width="1px" opacity="0.25"></line><line x1="0" y1="326.73333333333335" x2="1036.13" y2="326.73333333333335" fill="rgb(0, 0, 0)" stroke="rgb(60, 60, 60)" stroke-width="1px" opacity="0.25"></line><line x1="0" y1="301.59999999999997" x2="1036.13" y2="301.59999999999997" fill="rgb(0, 0, 0)" stroke="rgb(60, 60, 60)" stroke-width="1px" opacity="0.25"></line><line x1="0" y1="276.4666666666667" x2="1036.13" y2="276.4666666666667" fill="rgb(0, 0, 0)" stroke="rgb(60, 60, 60)" stroke-width="1px" opacity="0.25"></line><line x1="0" y1="251.33333333333334" x2="1036.13" y2="251.33333333333334" fill="rgb(0, 0, 0)" stroke="rgb(60, 60, 60)" stroke-width="1px" opacity="0.25"></line><line x1="0" y1="226.19999999999996" x2="1036.13" y2="226.19999999999996" fill="rgb(0, 0, 0)" stroke="rgb(60, 60, 60)" stroke-width="1px" opacity="0.25"></line><line x1="0" y1="201.0666666666667" x2="1036.13" y2="201.0666666666667" fill="rgb(0, 0, 0)" stroke="rgb(60, 60, 60)" stroke-width="1px" opacity="0.25"></line><line x1="0" y1="175.93333333333334" x2="1036.13" y2="175.93333333333334" fill="rgb(0, 0, 0)" stroke="rgb(60, 60, 60)" stroke-width="1px" opacity="0.25"></line><line x1="0" y1="150.8" x2="1036.13" y2="150.8" fill="rgb(0, 0, 0)" stroke="rgb(60, 60, 60)" stroke-width="1px" opacity="0.25"></line><line x1="0" y1="125.66666666666669" x2="1036.13" y2="125.66666666666669" fill="rgb(0, 0, 0)" stroke="rgb(60, 60, 60)" stroke-width="1px" opacity="0.25"></line><line x1="0" y1="100.5333333333333" x2="1036.13" y2="100.5333333333333" fill="rgb(0, 0, 0)" stroke="rgb(60, 60, 60)" stroke-width="1px" opacity="0.25"></line><line x1="0" y1="75.40000000000003" x2="1036.13" y2="75.40000000000003" fill="rgb(0, 0, 0)" stroke="rgb(60, 60, 60)" stroke-width="1px" opacity="0.25"></line><line x1="0" y1="50.26666666666665" x2="1036.13" y2="50.26666666666665" fill="rgb(0, 0, 0)" stroke="rgb(60, 60, 60)" stroke-width="1px" opacity="0.25"></line><line x1="0" y1="25.133333333333383" x2="1036.13" y2="25.133333333333383" fill="rgb(0, 0, 0)" stroke="rgb(60, 60, 60)" stroke-width="1px" opacity="0.25"></line><line x1="0" y1="0" x2="1036.13" y2="0" fill="rgb(0, 0, 0)" stroke="rgb(60, 60, 60)" stroke-width="1px" opacity="0.25"></line></g></g></g><g><g><line x1="0" y1="326.73333333333335" x2="1036.13" y2="326.73333333333335" fill="rgb(0, 0, 0)" stroke="rgb(153, 153, 153)" stroke-width="1.5px"></line></g></g><g><g><line x1="129.51625" y1="0" x2="129.51625" y2="377" fill="rgb(0, 0, 0)" stroke="rgb(153, 153, 153)" stroke-width="1.5px"></line></g></g><g><g><g><g><g><path stroke="rgb(255, 112, 67)" stroke-width="2px" d="M136.40651450000001,-2.2654835279081453L138.737807,2.2992583494673795L141.06909950000002,7.006318406304615L143.16726275000002,11.44194451084013L145.5244585,16.145323581435548L147.88165425,21.262676748177853L150.18704350000002,26.14136292153455L152.5701425,31.159110211053587L154.90143500000002,36.07909012813218L157.25863075,40.95651992458153L159.64172975,45.96343852935246L162.05073200000004,50.82789026873144L164.43383100000003,55.862038442734445L166.81693,60.7370261918079L169.20002900000003,65.59018552281765L171.55722475000002,70.04201250597708L173.88851725,74.5242438455636L176.27161625000002,78.99001619939145L178.5770055,83.04303929047887L180.96010450000003,86.66141443606642L183.31730025000002,90.95682902420913L185.62268950000004,95.41699798286902L187.90217550000003,99.70441099001897L190.20756475000002,103.95387189755292L192.512954,108.31220665653302L194.81834325000003,112.6012443332719L197.14963575000002,115.83180656657726L199.42912175000004,119.46131943661408L201.70860775,123.16961633034447L203.98809375000002,126.3376731744327L206.293483,128.08249885656238L208.65067875000003,132.99820296721828L211.03377775,134.70940405518832L213.36507025000003,138.07549453270025L215.72226600000002,140.99045142277586L218.105365,144.18144940259407L220.48846400000002,145.48420912910214L222.87156300000004,148.04157344996634L225.22875875000003,150.8158132850549L227.58595450000004,155.09504709244672L229.917247,157.31977054635027L232.27444275000005,161.38109799323573L234.68344500000003,164.97115760089352L237.06654400000002,169.1456554492371L239.47554625000004,170.842340703052L241.85864525000002,171.60774241164864L244.24174425,171.55742016559128L246.65074650000003,173.84796672300783L249.03384550000004,173.3453530401153L251.46875100000003,179.21993472319846L253.87775325,182.32144486750698L256.26085225,183.6310576286654L258.69575775000004,183.24506405870542L261.10476000000006,185.96244767594658L263.53966550000007,186.66674508783225L265.974571,187.8528504991512L268.38357325000004,186.8078546355554L270.79257550000005,186.15711580854978L273.20157775,182.63461142823488L275.61058,192.28825303502126L278.01958225,190.6073307247196L280.42858450000006,194.17271246579696L282.8116835000001,198.54350170096205L285.19478250000003,199.46149368008247L287.60378475000005,194.25275640003045L290.03869025,195.48333112743794L292.42178925,198.18786920277654L294.83079150000003,202.03334961792856L297.21389050000005,204.3254055583141L299.62289275000006,205.7770193833308L302.05779825,209.95363236535772L304.44089725000003,215.03438464802014L306.84989950000005,219.32836188635136L309.2329985,220.37588164425435L311.69380725,218.78885959078795L314.10280950000003,215.65312306934553L316.46000525000005,214.32797801367812L318.86900750000007,217.35971791827103L321.27800975,214.9576026889687L323.68701200000004,220.35257512249578L326.1219175,217.97686329395393L328.5050165,220.6438248346894L330.9140187500001,224.40768170062594L333.32302100000004,220.95516239784496L335.73202325000005,217.91073054144184L338.11512225,224.37205029131613L340.44641475000003,229.68390299201988L342.88132025000004,227.16415405425022L345.2903225,217.7902582114096L347.6734215000001,224.2793842426035L350.08242375000003,231.631843322382L352.49142600000005,231.58714041503205L354.87452500000006,230.05190664326312L357.257624,234.1960872773041L359.61481975000004,236.54074403387565L361.99791875000005,241.86444058224913L364.40692100000007,243.6954747426829L366.81592325,241.08986381779042L369.25082875000004,244.6981776656107L371.65983100000005,242.61138638623927L374.04293,239.85652631740794L376.45193225,234.63424351108685L378.83503125000004,239.85099535719124L381.26993675000006,248.67766626160682L383.54942275,244.45880597282252L385.82890875000004,246.87398131121478L388.10839475000006,243.06964181083012L390.3878807500001,241.5587265242193L392.66736675000004,247.7217812483939L394.94685275,242.20267711314156L397.2004355000001,240.8481048971371L399.55763125000004,236.1074303303136L401.96663350000006,237.25761765285174L404.32382925,241.07147388245963L406.52560550000004,233.47978381824277L408.75328500000006,245.4381953444786L411.032771,250.85916281501693L413.33816025000004,259.36629357155306L415.72125925000006,247.30182461629L418.0784550000001,244.53015559289665L419.2181980000001,244.87167986417103L421.29045800000006,247.67707370391062L423.4145245000001,245.80889004232827L425.38317150000006,234.52908757147597L427.5849477500001,229.22314519336265L429.83853050000005,236.57580724706517L432.04030675,239.0039385693288L434.2938895000001,243.21050075870846L436.54747225000006,249.91661164233346L438.801055,246.09376960596992L441.0805410000001,241.60205781778623L443.36002700000006,248.41218912156978L445.639513,241.07896799933448L447.89309575000004,246.42193336899004L450.19848500000006,244.81848263669963L452.477971,249.63202188131584L454.75745700000004,246.04645917008742L457.06284625000006,249.5049615231579L459.3682355000001,252.26272443656674L461.64772150000005,239.1095077990962L463.90130425,242.75635127382319L466.2066935000001,246.061506313623L468.51208275000005,246.13509281786742L470.73976225,245.27830639230686L472.9933450000001,248.63288740524138L475.19512125000006,248.8106251903881L477.42280075,249.27927488338008L479.67638350000004,256.84813569298024L481.90406300000006,249.04084362135706L484.13174250000003,250.9200024871809L486.38532525000005,241.2232766248057L488.6130047500001,248.93432063205657L490.89249075000004,253.85289562509627L493.14607350000006,251.77554811457497L494.77797825000005,251.7880671522202L496.79843175,250.23412311839155L498.97430475000004,252.55830685119085L501.04656475,252.46280727438284L503.17063125000004,243.36380203119208L505.52782700000006,250.88464190851425L507.8850227500001,253.41339529290263L510.21631525000004,257.81230710944214L512.54760775,250.7024792707007L514.87890025,251.33590006248397L517.236096,244.04066962212073L519.5673885,244.74034539745102L521.8986810000001,247.25300835859287L524.2299735,253.4832630051663L526.5871692500001,252.6654005003069L528.8666552500001,250.38956967068276L531.2238510000001,245.19837077859583L533.58104675,255.84904447796072L535.9123392500001,249.26458072584143L538.2436317500001,251.07846244288254L540.6008275000002,249.8569215161369L542.93212,256.65065700507756L545.2634125000001,264.01340372739196L547.594705,259.51314322736636L549.90009425,263.62404006036184L552.2313867500001,263.5690378362659L554.61448575,265.6122654939527L557.023488,256.723736383011L559.43249025,264.98670831530694L561.7896860000001,261.33869995758573L564.1468817500001,259.10573502989L566.52998075,258.858553637334L568.9389830000001,262.9195273271809L571.322082,263.63252817262867L573.6792777500001,258.8251288906912L576.0623767500001,256.08043466823375L578.4713790000001,249.5511358762805L580.8803812500001,250.37854959637076L583.237577,248.50171185137913L585.6206760000001,249.54188079557073L588.003775,254.1966835450406L590.3609707500001,258.06027006017814L592.7440697500001,253.84042085314383L595.12716875,263.4484261713699L597.5102677500001,263.0095974963273L599.8674635,258.73549618649673L602.2505625000001,257.651817146509L604.6336615000001,257.35912555033116L607.068567,255.0651830226629L609.451666,253.30877679688427L611.8347650000001,258.89577023805793L614.2178640000001,255.8866947227018L616.62686625,256.78664406299373L618.9840620000001,252.42967210070162L621.3412577500001,252.29165290667137L623.7243567500001,253.5848306048325L626.1074557500001,255.47187482049532L628.4646515000001,250.96238258081954L630.8477505000001,252.68431250372498L633.2567527500001,257.96074853570644L635.58804525,250.95201368231403L637.9711442500001,249.44294534146087L640.3024367500001,245.9957281725762L642.6337292500001,246.65704017503012L644.9391185000001,256.1984423392392L647.19270125,252.20541973233483L647.6071532500001,258.6005283609247L649.9643490000001,257.5160882259537L652.0884155,249.64487837623335L654.316095,254.68587958298588L656.6991940000001,262.0442803646076L659.05638975,261.9940806928246L661.4653920000001,261.52184342918605L663.87439425,256.18987159636305L666.25749325,250.56403550887123L668.6664955,250.94433760832158L671.0495945,254.5979756700421L673.4067902500001,254.32436411862122L675.8157925,242.56408085952924L678.2247947500001,246.20150694925027L680.60789375,248.43569372859662L682.9650895000001,251.59602925201494L685.3222852500002,248.6353142576629L687.7053842500001,241.48776767714108L690.0884832500001,254.40580874480776L692.47158225,256.73939192730967L694.828778,251.1576555453069L697.2118770000001,249.83388158732615L699.56907275,259.06636531345424L701.9780750000001,255.6881447600864L704.361174,262.1093477523849L706.7442730000001,254.57367319324766L709.127372,256.20504556532194L711.5363742500001,255.21937754970088L713.9453765000002,256.5572457124072L716.35437875,260.8792306444612L718.7374777500002,259.0421342783113L721.14648,253.64319991029936L723.5554822500001,254.75597414508047L725.9644845,251.1202717864588L728.3734867500001,253.65704301222613L730.7824890000002,259.502200644162L733.19149125,249.91324440853597L735.6263967500001,254.4110945809889L738.06130225,256.2209856893028L740.5221110000001,255.66777233354676L742.9311132500001,255.247287799949L745.3401155000001,260.07977632246485L747.7232145,253.748147303832L750.1322167500001,256.88450236577137L752.4894125000001,253.48419776593653L754.84660825,258.8005804377894L757.22970725,260.7185826729596L759.6128062500001,265.228488591762L761.9700020000001,264.6509168486505L764.3271977500001,261.85109723214566L766.7102967500001,268.7564240745957L769.0933957500001,259.9203329212818L771.42468825,266.0736260505927L773.7818840000001,264.0913751832095L776.1649830000001,264.11560582745756L778.548082,266.67078934050807L780.9311810000002,272.3052839569482L783.31428,265.09129881216484L785.6714757500001,250.5584173974597L788.0286715,251.14893689178643L790.4117705000001,254.451323517302L792.8207727500002,259.0870556935505L795.229775,255.88564472187574L797.6387772500001,259.8492780827821L799.3742950000001,258.738636211356L801.4206517500002,257.0676887185179L803.7778475000001,247.82347046797292L806.1609465000001,244.26666433651138L808.5181422500001,248.78638806723887L810.8494347500001,252.88613310883443L813.1807272500001,257.11252945878107L815.5379230000001,252.0992542494416L817.8951187500002,251.3057114689994L820.2264112500001,257.9486902059782L822.5577037500001,256.53206382165365L824.8889962500001,258.3134573354523L827.1943855000001,254.76487253194256L829.4997747500001,251.20960423758748L831.83106725,248.3469373167224L834.1623597500001,250.6630077088277L836.4936522500001,250.69971892144682L838.850848,253.57938848241014L841.2080437500001,246.21381951115833L843.53933625,252.9821714381912L845.87062875,261.40860826853145L848.2278245000001,258.2449380200102L850.5850202500001,249.54027879641416L852.9422160000001,260.9581153830248L855.2735085000002,258.41274793547535L857.6048010000001,265.0878006251781L859.9619967500001,260.56141956997686L862.34509575,260.70253567270106L864.7281947500001,268.68381363533933L867.0594872500002,263.28846524546344L869.3907797500001,269.7937198161471L871.7479755000002,269.47205062147304L874.15697775,270.14931758067803L876.5141735000001,271.7337653046159L878.87136925,273.8822255153641L881.2285650000001,276.94335035756336L883.6116640000001,272.88856284543937L885.9688597500001,268.2496646383905L888.3001522500001,269.1320209522746L890.68325125,272.01205501832777L893.0404470000001,272.3094593613041L895.3976427500002,268.37356220615067L897.7548385000001,262.5137192837327L900.1379375000001,259.7168540035841L902.4951332500001,259.14844327977244L904.7487160000001,259.7982129856603L907.0282020000001,260.9237497785483L909.17817175,259.4278057197011L911.5353675000001,259.9146146579152L913.8925632500001,264.9692263502021L916.249759,256.8288762127244L918.6069547500001,265.19638520766597L920.99005375,254.68065779143154L923.2954430000001,252.20443602204472L925.4713160000001,257.2669238650808L927.5435760000001,252.58008705957786" style="fill: none;" fill="none"></path></g></g></g></g><g opacity="0.2"><g><g><g><path stroke="rgb(255, 112, 67)" stroke-width="2px" d="M134.0234155,-2.8714459896087874L136.40651450000001,2.647988859812415L138.737807,8.258985344568885L141.06909950000002,13.517877006530796L143.16726275000002,17.78496081034342L145.5244585,23.002895418802893L147.88165425,28.809778674443578L150.18704350000002,33.38564330736796L152.5701425,38.640220546722446L154.90143500000002,43.43228569030765L157.25863075,48.25673896471659L159.64172975,53.464007361729955L162.05073200000004,58.11884989738468L164.43383100000003,63.409710232416785L166.81693,68.04744488398234L169.20002900000003,72.86869230270389L171.55722475000002,76.71907478968302L173.88851725,81.24718116124473L176.27161625000002,85.68842981656394L178.5770055,89.12244056065879L180.96010450000003,92.08890571594242L183.31730025000002,97.3999000231425L185.62268950000004,102.10721971988681L187.90217550000003,106.1355122168859L190.20756475000002,110.3280523856481L192.512954,114.84970210393271L194.81834325000003,119.03479689757029L197.14963575000002,120.67764813105265L199.42912175000004,124.90558753808341L201.70860775,128.73206093311313L203.98809375000002,131.0897580623627L206.293483,130.69973725477854L208.65067875000003,140.37175892194114L211.03377775,137.2762056430181L213.36507025000003,143.12463019688926L215.72226600000002,145.36288673082987L218.105365,148.96794635454813L220.48846400000002,147.4383487145106L222.87156300000004,151.87761992613474L225.22875875000003,154.97717303435007L227.58595450000004,161.5138978004456L229.917247,160.6568557262421L232.27444275000005,167.47308916250864L234.68344500000003,170.35624701182047L237.06654400000002,175.4074022213618L239.47554625000004,173.38736858367923L241.85864525000002,172.75584497451786L244.24174425,171.48193679650626L246.65074650000003,177.28378655910495L249.03384550000004,172.59143251578013L251.46875100000003,188.03180724779764L253.87775325,186.97371008396152L256.26085225,185.59547677040104L258.69575775000004,182.6660737037659L261.10476000000006,190.03852310180665L263.53966550000007,187.7231912056605L265.974571,189.63200861612958L268.38357325000004,185.24036084016166L270.79257550000005,185.18100756804148L273.20157775,177.35085485776267L275.61058,206.76871544520063L278.01958225,188.0859472592672L280.42858450000006,199.52078507741294L282.8116835000001,205.0996855537097L285.19478250000003,200.83848164876304L287.60378475000005,186.4396504799525L290.03869025,197.3291932185491L292.42178925,202.24467631578446L294.83079150000003,207.80157024065656L297.21389050000005,207.76348946889243L299.62289275000006,207.954440120856L302.05779825,216.21855183839799L304.44089725000003,222.65551307201386L306.84989950000005,225.76932774384818L309.2329985,221.94716128110886L311.69380725,216.40832651058835L314.10280950000003,210.94951828718186L316.46000525000005,212.34026043017707L318.86900750000007,221.9073277751605L321.27800975,211.35442984501523L323.68701200000004,228.44503377278647L326.1219175,214.41329555114112L328.5050165,224.64426714579267L330.9140187500001,230.0534669995308L333.32302100000004,215.77638344367347L335.73202325000005,213.34408275683722L338.11512225,234.06402991612754L340.44641475000003,237.65168204307557L342.88132025000004,223.38453064759574L345.2903225,203.72941444714866L347.6734215000001,234.01307328939438L350.08242375000003,242.6605319420497L352.49142600000005,231.52008605400724L354.87452500000006,227.74905598560971L357.257624,240.4123582283656L359.61481975000004,240.05772916873298L361.99791875000005,249.84998540480933L364.40692100000007,246.4420259833336L366.81592325,237.18144743045173L369.25082875000004,250.11064843734107L371.65983100000005,239.48119946718217L374.04293,235.72423621416092L376.45193225,226.80081930160523L378.83503125000004,247.67612312634787L381.26993675000006,261.9176726182302L383.54942275,238.13051553964615L385.82890875000004,250.49674431880317L388.10839475000006,237.36313256025315L390.3878807500001,239.29235359430314L392.66736675000004,256.96636333465574L394.94685275,233.92402091026307L397.2004355000001,238.81624657313031L399.55763125000004,228.9964184800784L401.96663350000006,238.982898636659L404.32382925,246.7922582268715L406.52560550000004,222.09224872191749L408.75328500000006,263.3758126338323L411.032771,258.9906140208244L413.33816025000004,272.12698970635734L415.72125925000006,229.2051211833954L418.0784550000001,240.37265205780668L419.2181980000001,245.38396627108258L421.29045800000006,251.88516446352006L423.4145245000001,243.00661454995475L425.38317150000006,217.60938386519751L427.5849477500001,221.26423162619275L429.83853050000005,247.60480032761893L432.04030675,242.64613555272422L434.2938895000001,249.52034404277802L436.54747225000006,259.9757779677709L438.801055,240.3595065514247L441.0805410000001,234.86449013551078L443.36002700000006,258.6273860772451L445.639513,230.07913631598157L447.89309575000004,254.43638142347336L450.19848500000006,242.41330653826398L452.477971,256.85233074824015L454.75745700000004,240.6681151032448L457.06284625000006,254.69271505276362L459.3682355000001,256.39936880668006L461.64772150000005,219.37968284289045L463.90130425,248.2266164859136L466.2066935000001,251.01923887332282L468.51208275000005,246.24547257423401L470.73976225,243.99312675396604L472.9933450000001,253.6647589246432L475.19512125000006,249.07723186810813L477.42280075,249.9822494228681L479.67638350000004,268.20142690738044L481.90406300000006,237.3299055139224L484.13174250000003,253.73874078591663L486.38532525000005,226.6781878312429L488.6130047500001,260.50088664293287L490.89249075000004,261.2307581146558L493.14607350000006,248.65952684879304L494.77797825000005,251.8068457086881L496.79843175,247.9032070676486L498.97430475000004,256.04458245038984L501.04656475,252.31955790917078L503.17063125000004,229.715294166406L505.52782700000006,262.1659017244975L507.8850227500001,257.20652536948523L510.21631525000004,264.4106748342514L512.54760775,240.0377375125885L514.87890025,252.28603125015894L517.236096,233.09782396157584L519.5673885,245.78985906044645L521.8986810000001,251.0220028003057L524.2299735,262.82864497502646L526.5871692500001,251.43860674301783L528.8666552500001,246.97582342624665L531.2238510000001,237.4115724404653L533.58104675,271.82505502700803L535.9123392500001,239.38788509766263L538.2436317500001,253.79928501844407L540.6008275000002,248.02461012601853L542.93212,266.84126023848853L545.2634125000001,275.0575238108635L547.594705,252.76275247732798L549.90009425,269.79038530985514L552.2313867500001,263.48653450012205L554.61448575,268.67710698048273L557.023488,243.39094271659852L559.43249025,277.3811662137508L561.7896860000001,255.86668742100397L564.1468817500001,255.75628763834635L566.52998075,258.48778154850004L568.9389830000001,269.0109878619512L571.322082,264.70202944080035L573.6792777500001,251.6140299677849L576.0623767500001,251.96339333454767L578.4713790000001,239.75718768835068L580.8803812500001,251.61967017650605L583.237577,245.68645523389182L585.6206760000001,251.10213421185813L588.003775,261.1788876692454L590.3609707500001,263.85564983288447L592.7440697500001,247.51064704259238L595.12716875,277.860434148709L597.5102677500001,262.3513544837634L599.8674635,252.3243442217509L602.2505625000001,256.0262985865275L604.6336615000001,256.92008815606437L607.068567,251.62426923116047L609.451666,250.67416745821637L611.8347650000001,267.2762603998184L614.2178640000001,251.3730814496676L616.62686625,258.13656807343165L618.9840620000001,245.89421415726346L621.3412577500001,252.084624115626L623.7243567500001,255.52459715207416L626.1074557500001,258.30244114398954L628.4646515000001,244.19814422130585L630.8477505000001,255.26720738808314L633.2567527500001,265.8754025836786L635.58804525,240.4389114022255L637.9711442500001,247.17934283018113L640.3024367500001,240.82490241924924L642.6337292500001,247.64900817871094L644.9391185000001,270.51054558555285L647.19270125,246.21588582197828L647.6071532500001,268.1931913038095L649.9643490000001,255.88942802349726L652.0884155,237.8380636016528L654.316095,262.2473813931147L656.6991940000001,273.0818815370401L659.05638975,261.9187811851501L661.4653920000001,260.8134875337283L663.87439425,248.19191384712857L666.25749325,242.12528137763343L668.6664955,251.51479075749714L671.0495945,260.0784327626228L673.4067902500001,253.9139467914899L675.8157925,224.92365597089133L678.2247947500001,251.6576460838318L680.60789375,251.78697389761606L682.9650895000001,256.33653253714243L685.3222852500002,244.19424176613492L687.7053842500001,230.76644780635834L690.0884832500001,273.78287034630773L692.47158225,260.23976670106254L694.828778,242.78505097230277L697.2118770000001,247.84822065035505L699.56907275,272.9150909026464L701.9780750000001,250.62081393003464L704.361174,271.74115224083266L706.7442730000001,243.27016135454178L709.127372,258.65210412343345L711.5363742500001,253.74087552626926L713.9453765000002,258.56404795646665L716.35437875,267.36220804254214L718.7374777500002,256.28648972908655L721.14648,245.54479835828147L723.5554822500001,256.42513549725214L725.9644845,245.66671824852628L728.3734867500001,257.46219985087714L730.7824890000002,268.2699370920658L733.19149125,235.52981005509696L735.6263967500001,261.15786983966825L738.06130225,258.9358223517736L740.5221110000001,254.83795229991276L742.9311132500001,254.6165609995524L745.3401155000001,267.3285091062387L747.7232145,244.25070377588273L750.1322167500001,261.5890349586805L752.4894125000001,248.38374086618424L754.84660825,266.7751544455687L757.22970725,263.59558602571485L759.6128062500001,271.9933474699656L761.9700020000001,263.7845592339834L764.3271977500001,257.6513678073883L766.7102967500001,279.1144143382708L769.0933957500001,246.6661961913109L771.42468825,275.30356574455897L773.7818840000001,261.11799888213477L776.1649830000001,264.1519517938296L778.548082,270.5035646100839L780.9311810000002,280.75702588160834L783.31428,254.27032109498978L785.6714757500001,228.75909527540207L788.0286715,252.03471613327662L790.4117705000001,259.4049034555753L792.8207727500002,266.04065395792327L795.229775,251.08352826436362L797.6387772500001,265.79472812414167L799.3742950000001,257.07267340421674L801.4206517500002,254.56126747926075L803.7778475000001,233.95714309215546L806.1609465000001,238.93145513931913L808.5181422500001,255.56597366333008L810.8494347500001,259.0357506712278L813.1807272500001,263.4521239837011L815.5379230000001,244.57934143543244L817.8951187500002,250.11539729833603L820.2264112500001,267.9131583114465L822.5577037500001,254.40712424516678L824.8889962500001,260.9855476061503L827.1943855000001,249.44199532667798L829.4997747500001,245.87670179605485L831.83106725,244.0529369354248L834.1623597500001,254.13711329698563L836.4936522500001,250.75478574037552L838.850848,257.8988928238551L841.2080437500001,235.1654660542806L843.53933625,263.13469932874045L845.87062875,274.0482635140419L848.2278245000001,253.49943264722825L850.5850202500001,236.48328996102018L852.9422160000001,278.08487026294074L855.2735085000002,254.59469676415125L857.6048010000001,275.1003796597322L859.9619967500001,253.771847987175L862.34509575,260.9142098267873L864.7281947500001,280.65573057929674L867.0594872500002,255.1954426606496L869.3907797500001,279.5516016721725L871.7479755000002,268.98954682946203L874.15697775,271.16521801948545L876.5141735000001,274.11043689052264L878.87136925,277.1049158314864L881.2285650000001,281.53503762086234L883.6116640000001,266.8063815772533L885.9688597500001,261.2913173278173L888.3001522500001,270.4555554231008L890.68325125,276.3321061174075L893.0404470000001,272.75556587576864L895.3976427500002,262.4697164734205L897.7548385000001,253.72395490010578L900.1379375000001,255.5215560833613L902.4951332500001,258.29582719405494L904.7487160000001,260.7728675444921L907.0282020000001,262.6120549678802L909.17817175,257.1838896314303L911.5353675000001,260.6448280652364L913.8925632500001,272.55114388863245L916.249759,244.61835100650788L918.6069547500001,277.74764870007834L920.99005375,238.90706666707993L923.2954430000001,248.49010336796445L925.4713160000001,264.86065562963483L927.5435760000001,245.54983185132346" style="fill: none;" fill="none"></path></g></g></g></g></g></g><g transform="translate(58, 377)" clip-path="url(#clip_1)"><clipPath id="clip_1"><rect width="1036" height="22"></rect></clipPath><g><g><line x1="0" y1="0" x2="0" y2="5" style="visibility: inherit;" fill="rgb(0, 0, 0)" stroke="rgb(204, 204, 204)" stroke-width="1px"></line><line x1="129.51625" y1="0" x2="129.51625" y2="5" style="visibility: inherit;" fill="rgb(0, 0, 0)" stroke="rgb(204, 204, 204)" stroke-width="1px"></line><line x1="259.0325" y1="0" x2="259.0325" y2="5" style="visibility: inherit;" fill="rgb(0, 0, 0)" stroke="rgb(204, 204, 204)" stroke-width="1px"></line><line x1="388.54875000000004" y1="0" x2="388.54875000000004" y2="5" style="visibility: inherit;" fill="rgb(0, 0, 0)" stroke="rgb(204, 204, 204)" stroke-width="1px"></line><line x1="518.065" y1="0" x2="518.065" y2="5" style="visibility: inherit;" fill="rgb(0, 0, 0)" stroke="rgb(204, 204, 204)" stroke-width="1px"></line><line x1="647.5812500000001" y1="0" x2="647.5812500000001" y2="5" style="visibility: inherit;" fill="rgb(0, 0, 0)" stroke="rgb(204, 204, 204)" stroke-width="1px"></line><line x1="777.0975000000001" y1="0" x2="777.0975000000001" y2="5" style="visibility: inherit;" fill="rgb(0, 0, 0)" stroke="rgb(204, 204, 204)" stroke-width="1px"></line><line x1="906.6137500000001" y1="0" x2="906.6137500000001" y2="5" style="visibility: inherit;" fill="rgb(0, 0, 0)" stroke="rgb(204, 204, 204)" stroke-width="1px"></line><line x1="1036.13" y1="0" x2="1036.13" y2="5" style="visibility: inherit;" fill="rgb(0, 0, 0)" stroke="rgb(204, 204, 204)" stroke-width="1px"></line></g><g transform="translate(0, 8)"><text x="0" y="0" dx="0em" dy="0.95em" style="text-anchor: middle; visibility: hidden; font-family: &quot;Helvetica Neue&quot;, sans-serif; font-size: 12px; font-weight: 200;" fill="rgb(50, 49, 63)" stroke="none" stroke-width="1px">-5k</text><text x="129.51625" y="0" dx="0em" dy="0.95em" style="text-anchor: middle; visibility: inherit; font-family: &quot;Helvetica Neue&quot;, sans-serif; font-size: 12px; font-weight: 200;" fill="rgb(50, 49, 63)" stroke="none" stroke-width="1px">0</text><text x="259.0325" y="0" dx="0em" dy="0.95em" style="text-anchor: middle; visibility: inherit; font-family: &quot;Helvetica Neue&quot;, sans-serif; font-size: 12px; font-weight: 200;" fill="rgb(50, 49, 63)" stroke="none" stroke-width="1px">5k</text><text x="388.54875000000004" y="0" dx="0em" dy="0.95em" style="text-anchor: middle; visibility: inherit; font-family: &quot;Helvetica Neue&quot;, sans-serif; font-size: 12px; font-weight: 200;" fill="rgb(50, 49, 63)" stroke="none" stroke-width="1px">10k</text><text x="518.065" y="0" dx="0em" dy="0.95em" style="text-anchor: middle; visibility: inherit; font-family: &quot;Helvetica Neue&quot;, sans-serif; font-size: 12px; font-weight: 200;" fill="rgb(50, 49, 63)" stroke="none" stroke-width="1px">15k</text><text x="647.5812500000001" y="0" dx="0em" dy="0.95em" style="text-anchor: middle; visibility: inherit; font-family: &quot;Helvetica Neue&quot;, sans-serif; font-size: 12px; font-weight: 200;" fill="rgb(50, 49, 63)" stroke="none" stroke-width="1px">20k</text><text x="777.0975000000001" y="0" dx="0em" dy="0.95em" style="text-anchor: middle; visibility: inherit; font-family: &quot;Helvetica Neue&quot;, sans-serif; font-size: 12px; font-weight: 200;" fill="rgb(50, 49, 63)" stroke="none" stroke-width="1px">25k</text><text x="906.6137500000001" y="0" dx="0em" dy="0.95em" style="text-anchor: middle; visibility: inherit; font-family: &quot;Helvetica Neue&quot;, sans-serif; font-size: 12px; font-weight: 200;" fill="rgb(50, 49, 63)" stroke="none" stroke-width="1px">30k</text><text x="1036.13" y="0" dx="0em" dy="0.95em" style="text-anchor: middle; visibility: hidden; font-family: &quot;Helvetica Neue&quot;, sans-serif; font-size: 12px; font-weight: 200;" fill="rgb(50, 49, 63)" stroke="none" stroke-width="1px">35k</text></g><line x1="0" y1="0" x2="1036.13" y2="0" fill="rgb(0, 0, 0)" stroke="rgb(204, 204, 204)" stroke-width="1px"></line></g></g></g></g></svg>