<svg viewBox="0 0 1094.1319580078125 400.0000305175781" xmlns="http://www.w3.org/2000/svg"><g><g><g><g><g><line x1="58" y1="377" x2="53" y2="377" style="visibility: inherit;" fill="rgb(0, 0, 0)" stroke="rgb(204, 204, 204)" stroke-width="1px"></line><line x1="58" y1="342.72727272727275" x2="53" y2="342.72727272727275" style="visibility: inherit;" fill="rgb(0, 0, 0)" stroke="rgb(204, 204, 204)" stroke-width="1px"></line><line x1="58" y1="308.45454545454544" x2="53" y2="308.45454545454544" style="visibility: inherit;" fill="rgb(0, 0, 0)" stroke="rgb(204, 204, 204)" stroke-width="1px"></line><line x1="58" y1="274.1818181818182" x2="53" y2="274.1818181818182" style="visibility: inherit;" fill="rgb(0, 0, 0)" stroke="rgb(204, 204, 204)" stroke-width="1px"></line><line x1="58" y1="239.9090909090909" x2="53" y2="239.9090909090909" style="visibility: inherit;" fill="rgb(0, 0, 0)" stroke="rgb(204, 204, 204)" stroke-width="1px"></line><line x1="58" y1="205.63636363636365" x2="53" y2="205.63636363636365" style="visibility: inherit;" fill="rgb(0, 0, 0)" stroke="rgb(204, 204, 204)" stroke-width="1px"></line><line x1="58" y1="171.36363636363637" x2="53" y2="171.36363636363637" style="visibility: inherit;" fill="rgb(0, 0, 0)" stroke="rgb(204, 204, 204)" stroke-width="1px"></line><line x1="58" y1="137.09090909090915" x2="53" y2="137.09090909090915" style="visibility: inherit;" fill="rgb(0, 0, 0)" stroke="rgb(204, 204, 204)" stroke-width="1px"></line><line x1="58" y1="102.81818181818187" x2="53" y2="102.81818181818187" style="visibility: inherit;" fill="rgb(0, 0, 0)" stroke="rgb(204, 204, 204)" stroke-width="1px"></line><line x1="58" y1="68.54545454545456" x2="53" y2="68.54545454545456" style="visibility: inherit;" fill="rgb(0, 0, 0)" stroke="rgb(204, 204, 204)" stroke-width="1px"></line><line x1="58" y1="34.27272727272731" x2="53" y2="34.27272727272731" style="visibility: inherit;" fill="rgb(0, 0, 0)" stroke="rgb(204, 204, 204)" stroke-width="1px"></line><line x1="58" y1="0" x2="53" y2="0" style="visibility: inherit;" fill="rgb(0, 0, 0)" stroke="rgb(204, 204, 204)" stroke-width="1px"></line></g><g transform="translate(48, 0)"><text x="0" y="377" dx="0em" dy="0.3em" style="text-anchor: end; visibility: hidden; font-family: &quot;Helvetica Neue&quot;, sans-serif; font-size: 12px; font-weight: 200;" fill="rgb(50, 49, 63)" stroke="none" stroke-width="1px">-0.1</text><text x="0" y="342.72727272727275" dx="0em" dy="0.3em" style="text-anchor: end; visibility: inherit; font-family: &quot;Helvetica Neue&quot;, sans-serif; font-size: 12px; font-weight: 200;" fill="rgb(50, 49, 63)" stroke="none" stroke-width="1px">0</text><text x="0" y="308.45454545454544" dx="0em" dy="0.3em" style="text-anchor: end; visibility: inherit; font-family: &quot;Helvetica Neue&quot;, sans-serif; font-size: 12px; font-weight: 200;" fill="rgb(50, 49, 63)" stroke="none" stroke-width="1px">0.1</text><text x="0" y="274.1818181818182" dx="0em" dy="0.3em" style="text-anchor: end; visibility: inherit; font-family: &quot;Helvetica Neue&quot;, sans-serif; font-size: 12px; font-weight: 200;" fill="rgb(50, 49, 63)" stroke="none" stroke-width="1px">0.2</text><text x="0" y="239.9090909090909" dx="0em" dy="0.3em" style="text-anchor: end; visibility: inherit; font-family: &quot;Helvetica Neue&quot;, sans-serif; font-size: 12px; font-weight: 200;" fill="rgb(50, 49, 63)" stroke="none" stroke-width="1px">0.3</text><text x="0" y="205.63636363636365" dx="0em" dy="0.3em" style="text-anchor: end; visibility: inherit; font-family: &quot;Helvetica Neue&quot;, sans-serif; font-size: 12px; font-weight: 200;" fill="rgb(50, 49, 63)" stroke="none" stroke-width="1px">0.4</text><text x="0" y="171.36363636363637" dx="0em" dy="0.3em" style="text-anchor: end; visibility: inherit; font-family: &quot;Helvetica Neue&quot;, sans-serif; font-size: 12px; font-weight: 200;" fill="rgb(50, 49, 63)" stroke="none" stroke-width="1px">0.5</text><text x="0" y="137.09090909090915" dx="0em" dy="0.3em" style="text-anchor: end; visibility: inherit; font-family: &quot;Helvetica Neue&quot;, sans-serif; font-size: 12px; font-weight: 200;" fill="rgb(50, 49, 63)" stroke="none" stroke-width="1px">0.6</text><text x="0" y="102.81818181818187" dx="0em" dy="0.3em" style="text-anchor: end; visibility: inherit; font-family: &quot;Helvetica Neue&quot;, sans-serif; font-size: 12px; font-weight: 200;" fill="rgb(50, 49, 63)" stroke="none" stroke-width="1px">0.7</text><text x="0" y="68.54545454545456" dx="0em" dy="0.3em" style="text-anchor: end; visibility: inherit; font-family: &quot;Helvetica Neue&quot;, sans-serif; font-size: 12px; font-weight: 200;" fill="rgb(50, 49, 63)" stroke="none" stroke-width="1px">0.8</text><text x="0" y="34.27272727272731" dx="0em" dy="0.3em" style="text-anchor: end; visibility: inherit; font-family: &quot;Helvetica Neue&quot;, sans-serif; font-size: 12px; font-weight: 200;" fill="rgb(50, 49, 63)" stroke="none" stroke-width="1px">0.9</text><text x="0" y="0" dx="0em" dy="0.3em" style="text-anchor: end; visibility: hidden; font-family: &quot;Helvetica Neue&quot;, sans-serif; font-size: 12px; font-weight: 200;" fill="rgb(50, 49, 63)" stroke="none" stroke-width="1px">1</text></g><line x1="58" y1="0" x2="58" y2="377" fill="rgb(0, 0, 0)" stroke="rgb(204, 204, 204)" stroke-width="1px"></line></g></g><g transform="translate(58, 0)" clip-path="url(#clip_0)"><clipPath id="clip_0"><rect width="1036" height="376"></rect></clipPath><g><g><g><line x1="0" y1="0" x2="0" y2="377" fill="rgb(0, 0, 0)" stroke="rgb(60, 60, 60)" stroke-width="1px" opacity="0.25"></line><line x1="74.00928571428572" y1="0" x2="74.00928571428572" y2="377" fill="rgb(0, 0, 0)" stroke="rgb(60, 60, 60)" stroke-width="1px" opacity="0.25"></line><line x1="148.01857142857145" y1="0" x2="148.01857142857145" y2="377" fill="rgb(0, 0, 0)" stroke="rgb(60, 60, 60)" stroke-width="1px" opacity="0.25"></line><line x1="222.02785714285716" y1="0" x2="222.02785714285716" y2="377" fill="rgb(0, 0, 0)" stroke="rgb(60, 60, 60)" stroke-width="1px" opacity="0.25"></line><line x1="296.0371428571429" y1="0" x2="296.0371428571429" y2="377" fill="rgb(0, 0, 0)" stroke="rgb(60, 60, 60)" stroke-width="1px" opacity="0.25"></line><line x1="370.04642857142863" y1="0" x2="370.04642857142863" y2="377" fill="rgb(0, 0, 0)" stroke="rgb(60, 60, 60)" stroke-width="1px" opacity="0.25"></line><line x1="444.0557142857143" y1="0" x2="444.0557142857143" y2="377" fill="rgb(0, 0, 0)" stroke="rgb(60, 60, 60)" stroke-width="1px" opacity="0.25"></line><line x1="518.065" y1="0" x2="518.065" y2="377" fill="rgb(0, 0, 0)" stroke="rgb(60, 60, 60)" stroke-width="1px" opacity="0.25"></line><line x1="592.0742857142858" y1="0" x2="592.0742857142858" y2="377" fill="rgb(0, 0, 0)" stroke="rgb(60, 60, 60)" stroke-width="1px" opacity="0.25"></line><line x1="666.0835714285715" y1="0" x2="666.0835714285715" y2="377" fill="rgb(0, 0, 0)" stroke="rgb(60, 60, 60)" stroke-width="1px" opacity="0.25"></line><line x1="740.0928571428573" y1="0" x2="740.0928571428573" y2="377" fill="rgb(0, 0, 0)" stroke="rgb(60, 60, 60)" stroke-width="1px" opacity="0.25"></line><line x1="814.1021428571429" y1="0" x2="814.1021428571429" y2="377" fill="rgb(0, 0, 0)" stroke="rgb(60, 60, 60)" stroke-width="1px" opacity="0.25"></line><line x1="888.1114285714286" y1="0" x2="888.1114285714286" y2="377" fill="rgb(0, 0, 0)" stroke="rgb(60, 60, 60)" stroke-width="1px" opacity="0.25"></line><line x1="962.1207142857144" y1="0" x2="962.1207142857144" y2="377" fill="rgb(0, 0, 0)" stroke="rgb(60, 60, 60)" stroke-width="1px" opacity="0.25"></line><line x1="1036.13" y1="0" x2="1036.13" y2="377" fill="rgb(0, 0, 0)" stroke="rgb(60, 60, 60)" stroke-width="1px" opacity="0.25"></line></g><g><line x1="0" y1="377" x2="1036.13" y2="377" fill="rgb(0, 0, 0)" stroke="rgb(60, 60, 60)" stroke-width="1px" opacity="0.25"></line><line x1="0" y1="342.72727272727275" x2="1036.13" y2="342.72727272727275" fill="rgb(0, 0, 0)" stroke="rgb(60, 60, 60)" stroke-width="1px" opacity="0.25"></line><line x1="0" y1="308.45454545454544" x2="1036.13" y2="308.45454545454544" fill="rgb(0, 0, 0)" stroke="rgb(60, 60, 60)" stroke-width="1px" opacity="0.25"></line><line x1="0" y1="274.1818181818182" x2="1036.13" y2="274.1818181818182" fill="rgb(0, 0, 0)" stroke="rgb(60, 60, 60)" stroke-width="1px" opacity="0.25"></line><line x1="0" y1="239.9090909090909" x2="1036.13" y2="239.9090909090909" fill="rgb(0, 0, 0)" stroke="rgb(60, 60, 60)" stroke-width="1px" opacity="0.25"></line><line x1="0" y1="205.63636363636365" x2="1036.13" y2="205.63636363636365" fill="rgb(0, 0, 0)" stroke="rgb(60, 60, 60)" stroke-width="1px" opacity="0.25"></line><line x1="0" y1="171.36363636363637" x2="1036.13" y2="171.36363636363637" fill="rgb(0, 0, 0)" stroke="rgb(60, 60, 60)" stroke-width="1px" opacity="0.25"></line><line x1="0" y1="137.09090909090915" x2="1036.13" y2="137.09090909090915" fill="rgb(0, 0, 0)" stroke="rgb(60, 60, 60)" stroke-width="1px" opacity="0.25"></line><line x1="0" y1="102.81818181818187" x2="1036.13" y2="102.81818181818187" fill="rgb(0, 0, 0)" stroke="rgb(60, 60, 60)" stroke-width="1px" opacity="0.25"></line><line x1="0" y1="68.54545454545456" x2="1036.13" y2="68.54545454545456" fill="rgb(0, 0, 0)" stroke="rgb(60, 60, 60)" stroke-width="1px" opacity="0.25"></line><line x1="0" y1="34.27272727272731" x2="1036.13" y2="34.27272727272731" fill="rgb(0, 0, 0)" stroke="rgb(60, 60, 60)" stroke-width="1px" opacity="0.25"></line><line x1="0" y1="0" x2="1036.13" y2="0" fill="rgb(0, 0, 0)" stroke="rgb(60, 60, 60)" stroke-width="1px" opacity="0.25"></line></g></g></g><g><g><line x1="0" y1="342.72727272727275" x2="1036.13" y2="342.72727272727275" fill="rgb(0, 0, 0)" stroke="rgb(153, 153, 153)" stroke-width="1.5px"></line></g></g><g><g><line x1="74.00928571428572" y1="0" x2="74.00928571428572" y2="377" fill="rgb(0, 0, 0)" stroke="rgb(153, 153, 153)" stroke-width="1.5px"></line></g></g><g><g><g><g><g><path stroke="rgb(255, 112, 67)" stroke-width="2px" d="M120.55372550000001,-8.606498047290756L121.9228972857143,2.1417260470223027L122.61118364285716,8.798970305600449L123.30687092857144,21.80871146171785L123.98775635714287,36.63669568293591L125.35692814285714,44.76073880735851L126.74830271428573,37.6377359613283L127.42178721428573,34.881107500623614L128.79835992857144,32.15167887675267L129.4866462857143,49.158316896370536L130.86321900000002,55.216008842324754L131.55150535714287,64.75156930488436L132.23979171428573,54.89790533966453L132.9280780714286,46.33228802943887L133.60896350000002,63.79649636253026L134.2750470714286,78.1888236826918L135.65902071428573,49.81810997014054L136.33990614285716,65.83240047960561L137.02819250000002,84.87456604272666L137.71647885714287,84.14665168455298L141.120906,99.98838299255033L141.80919235714288,99.3909724469321L143.193166,101.54134652326707L144.5623377857143,88.9984289702569L145.24322321428573,104.24573715635182L145.93891050000002,128.9303578773349L150.4904815714286,118.53957462436125L152.52573692857146,121.0062082948402L153.79129571428575,140.57733875926664L154.44257742857144,147.5361640055503L155.1012600714286,166.04205081026544L157.37334514285718,155.06359171909025L157.9802212857143,138.79082544958658L158.54269185714287,101.32109584996743L159.1717707857143,82.82636473855433L160.4447305,95.05523944610451L161.0886112857143,109.89170080523871L163.0276545714286,102.8053733582459L164.9740987857143,119.90473102237297L165.63278142857146,117.04826392789357L166.93534485714287,113.43053846936681L168.25271014285715,128.42127087072566L168.90399185714287,97.03059835104312L169.54787264285716,109.6655769952589L170.2065552857143,120.29306133168933L170.86523792857145,121.46180687999617L171.5017177857143,119.70594967777879L172.77467750000002,124.19873184460343L173.41115735714288,127.88169302261815L174.05503814285717,149.96693607616774L174.69151800000003,129.5400585699796L175.97187864285715,105.66387641243455L176.6083585,128.23565673066025L177.25964021428575,142.57494834529342L178.36977950000002,140.89789159847217L178.94705192857145,135.63314266924536L179.56872992857146,141.35579372924525L180.76768035714286,116.06652441908096L181.4411648571429,136.2936256236276L182.78073292857144,150.87872973881446L183.44681650000004,133.04113331156702L184.78638457142858,114.76776067229565L185.45246814285716,117.64959356022808L186.11855171428573,125.08648646374306L187.4581197857143,130.0030992342653L190.1224540714286,119.80682510164564L190.78853764285716,129.41058780838088L191.46202214285717,128.8732000952306L192.1281057142857,149.0780221354895L193.46027285714288,145.84254325656056L194.1189555,162.47685538286922L195.46592450000003,171.24295720843L196.84249721428574,185.99795564914984L197.51598171428574,171.38061421240332L198.18946621428574,162.4897732238198L198.87035164285717,160.13508016901923L200.23952342857143,165.50144385501193L200.91300792857146,154.44344445968161L205.67920592857143,161.16313922077384L208.39534671428575,152.61534995619255L210.4528048571429,146.72295822589064L211.13369028571432,142.15104852631583L211.81457571428575,157.51927682468232L212.49546114285718,149.39129131262862L215.21160192857147,149.04342622620354L215.8924873571429,151.86508243825622L216.56597185714287,138.17157043165102L217.2468572857143,142.03080486417224L219.28211264285716,135.5232205514282L219.94819621428573,124.68655315185609L220.6142797857143,125.62903172243466L221.27296242857145,151.13437785406393L221.91684321428576,139.93432033641463L222.0352580714286,157.18952816964097L223.31561871428573,134.42796810358763L223.9520985714286,147.39937874555048L224.63298400000002,167.00167983319218L225.99475485714288,165.37935793670982L226.68304121428574,150.6369753225298L227.36392664285717,135.17340124184526L228.05221300000002,136.13835793510404L228.73309842857145,146.05948686574192L229.40658292857145,145.28727043743413L231.4640410714286,142.50360651440528L232.1375255714286,145.79656304007128L233.49189550000003,119.87769906734275L236.20803628571431,122.96104196806573L236.8815207857143,152.15672434736277L238.2506925714286,168.39347341659874L238.93157800000003,147.07626007309577L239.61246342857146,151.06623326942122L240.30074978571432,148.1025132630374L240.98903614285717,151.58592391033153L241.67732250000003,163.27396311988122L243.73478064285717,158.35543477802204L245.79963971428575,168.32591951270322L246.4879260714286,138.59170813136407L247.18361335714286,148.70906470391114L247.87930064285715,152.35542684246332L249.27067521428572,149.8313226504443L252.0016178571429,141.5174199897403L253.35598778571432,153.12381856735135L254.71035771428575,160.2938103047563L255.38384221428575,157.90505106364105L256.0647276428572,179.8860280981164L256.7456130714286,157.67655815848178L257.4116966428572,175.5916429800625L258.7660665714286,174.1752968358516L259.44695200000007,180.2545213125116L260.80872285714287,166.19306307295034L262.15569185714287,155.31734635279926L263.52486364285716,164.07112122032308L266.6554564285714,134.3231924690907L268.0098263571429,140.04770493236L268.67590992857146,147.26762369166448L270.01547800000003,135.82894669001587L270.6889625,135.00507415764886L271.3550460714286,153.92648992525827L272.02112964285715,150.5454840407914L272.68721321428575,155.693342358457L273.3458958571429,146.1890912259956L274.00457850000004,136.59712942220267L274.6706620714286,128.85239067378504L275.3367456428572,135.20646709189174L276.0028292142857,135.32910106281747L278.6819653571429,160.81374810755437L279.35544985714284,153.68762993423618L280.7024188571429,176.23243642920434L282.7080705,163.2360232980771L285.4020085,183.5615430757618L286.07549300000005,184.2346132957793L286.76377935714294,187.01191490781537L287.4372638571429,191.8912619161685L288.78423285714285,202.9184345542782L289.4651182857143,193.46711336229782L290.13860278571434,181.77988692045213L290.8046863571429,184.76490170474486L291.4855717857143,192.96669315092777L292.1590562857143,193.9860877550316L294.1869107142857,175.79698656214038L294.86039521428575,167.91000342170778L296.15555771428575,167.88642565434859L297.4433192857143,165.72621328195797L298.7902882857143,146.94665633991067L300.14465821428576,129.44843016803367L301.10677892857143,112.23584432501207L301.7062541428572,109.87988314308069L302.3723377142858,143.54379200613002L303.04582221428575,153.28408723551067L303.68230207142864,163.9932211964013L304.31138100000004,161.4464062561528L304.9256580714286,146.6942116087637L305.60654350000004,137.25081385875606L306.2948298571429,149.01322852413952L307.6714025714286,159.18258536905165L309.0553762142858,161.31389292779363L309.75106350000004,152.66008400902467L311.12023528571433,171.67434471511757L312.42279871428576,149.0681117850559L313.10368414285716,160.8345310084288L313.79197050000005,160.1121406236286L314.47285592857145,164.42635259448912L315.1537413571429,141.06703520667213L315.84942864285716,133.90941561859754L316.53771500000005,154.29503671560556L317.2260013571429,168.4552055026036L317.92168864285713,159.15951043732795L318.609975,170.26927089368544L319.30566228571433,170.57507582817718L320.6674331428572,163.30013144637059L321.3557195,168.43542125814284L322.7174903571429,153.9665494707088L324.07186028571437,167.7587922801509L324.75274571428577,178.65456136946935L325.43363114285717,141.6876078311615L326.1071156428572,155.19124065368905L326.78060014285717,154.74636122303923L328.13497007142865,133.63292796606092L328.81585550000005,146.11288563508174L330.1776263571429,135.61653279016355L330.87331364285717,153.24606353058022L331.5690009285715,163.86208881798098L332.24248542857146,180.60416018339166L332.9233708571429,170.2259151009505L334.27033985714286,177.99398669625216L334.95862621428574,162.66809124257017L335.63951164285714,172.56520592275768L336.3203970714286,173.12717711607903L339.73222514285715,171.41131977194175L340.4131105714286,163.5742348213033L342.45576685714286,161.4369489473072L343.1292513571429,170.12895867467816L344.4836212857143,172.89474095954128L345.1645067142858,164.8053638862425L346.53367850000006,161.21476034682118L347.9102512142857,171.48074658565758L351.35168300000004,163.72379233099298L352.0473702857143,146.76178959620546L354.1196302857143,140.53090369903938L354.8079166428572,144.0283697725658L355.49620300000004,160.8468667414761L356.18448935714287,143.86217666331606L356.8801766428572,143.4197187853404L357.56846300000007,149.50728037551335L358.9450357142857,155.92383419630104L360.32900935714287,142.6862097581565L361.72038392857144,158.17947247247122L363.0969566428572,176.20316384316706L365.17661757142866,158.42600238263253L365.86490392857144,155.2106071230152L367.9297630000001,167.6845959093363L368.62545028571435,155.7933993552387L369.3211375714286,180.2116432599418L370.0168248571429,164.32563343337515L371.3933975714286,183.22139856252062L372.0890848571429,152.4824838461458L374.16874578571435,146.037429889992L374.8570321428572,151.17844615906512L376.2336048571429,151.64787029127126L378.3058648571429,141.66164838395247L380.3855257857144,158.17724474686875L381.08121307142864,171.42408218849974L381.76949942857146,154.0969937040384L382.4651867142857,157.75903337074263L383.16087400000004,158.2449267352724L384.55964950000003,162.7695650322662L385.24793585714286,158.57973564265907L385.93622221428575,163.48240401234742L386.62450857142863,155.46430934816692L387.3201958571429,167.65394047328076L388.0158831428572,160.07498192229633L388.70416950000003,139.6994855847285L390.08814314285723,145.89410031551438L391.47951771428575,142.0530711801797L392.16040314285715,135.05287473370515L394.2548659285715,125.55132020314642L394.9505532142858,134.3598969398852L397.71850050000006,153.09665683078805L399.79816142857146,147.85924857033842L400.4938487142858,148.1088631353103L401.8778223571429,137.56285955155195L402.5809105714286,152.2244167685982L403.9722851428572,145.85807587864855L405.34885785714295,153.63583153366577L407.4137169285715,164.39367746476415L408.10940421428575,172.16751973564243L409.5007787857143,171.81260315292693L412.27612700000003,180.54857055970203L414.34098607142863,178.7615520991574L415.0366733571429,177.6832697804115L415.7249597142858,163.57020299092616L416.42064700000003,188.4113682969118L417.1089333571429,187.54755149267348L417.80462064285723,170.17626055251714L418.492907,166.74935493137764L419.8694797142858,169.24199392900124L420.56516700000003,171.4502047276268L421.2534533571429,174.01017962007884L421.94914064285723,172.38955974535554L422.637427,155.65879193193294L423.3257133571429,170.59522857433683L424.02140064285715,160.18373557211456L426.7967488571429,177.68855743575992L427.48503521428574,165.17736024350356L431.6443570714286,172.78022383212758L433.01352885714294,141.52680045916648L433.7018152142857,177.07232693763982L434.39750250000003,182.63565779775735L435.09318978571434,184.93540849011265L435.78887707142866,150.27986937378338L436.4845643571429,130.44779599241747L437.18025164285723,158.0201217076213L437.86113707142863,165.32655487250923L438.54942342857146,157.4820827287479L439.2451107142858,166.99990369657212L439.9259961428572,169.67571048063303L440.61428250000006,172.96295321494065L441.3099697857143,166.76676494512068L441.9982561428572,178.85545399457985L442.69394342857146,184.64585345082855L443.38222978571434,170.92998305885743L444.08531800000003,176.68135953990776L445.4766925714286,176.2026411855924L446.1723798571429,174.0584843170198L446.8606662142858,174.9484938324965L448.2520407857143,176.7876287230375L449.62861350000003,179.14233306978912L451.00518621428574,169.57796533502366L451.70087350000006,153.52085555443415L453.7879353571429,168.83810905615942L454.4836226428572,186.09905032028126L455.1867108571429,183.17281527129248L456.5558826428572,180.1596284188367L457.2515699285715,189.22668016527408L457.9398562857143,185.6248415504355L459.32382992857146,167.4053062684918L460.69300171428574,190.37876523930066L461.3812880714286,176.41891744536733L462.75786078571434,146.0904012456961L463.44614714285717,145.3663762357544L464.1418344285714,134.3113562812254L464.83752171428574,154.18140522376135L465.5184071428572,154.19391631488898L466.2066935000001,166.00328087451996L466.8875789285715,168.3810147350877L467.56106342857146,155.76232190437935L468.2419488571429,163.76222918823964L469.6111206428572,171.3965285877486L470.29200607142866,149.94661549904728L470.97289150000006,154.56171507291722L473.0081468571429,159.5326420291879L473.68163135714286,169.13731803065428L474.3625167857143,167.13197712747876L475.7094857857143,164.34661334814535L476.3977721428572,147.371198397702L476.9454408571429,148.69301296798136L477.3524919285715,162.622730023647L478.15179221428576,153.75382662669264L478.8622813571429,169.294617712178L479.21752592857143,164.84956766998008L479.57277050000005,170.997466848215L480.26105685714293,177.6181670245867L480.9641450714286,158.24940557041361L481.6524314285715,171.8318738516594L482.00027507142863,156.72408796299953L482.34071778571433,154.0928252103351L483.39905057142863,162.32784279469274L484.7904251428572,180.63570676669198L485.13826878571433,170.50213952642784L485.48611242857146,179.2117499967072L485.8265551428572,196.05944315008784L486.1817997142858,190.54507310473767L486.87008607142866,172.65351063995055L487.21052878571436,191.5507671274236L488.22445600000003,183.56672197803806L488.55749778571436,173.1725463067805L489.26058600000005,177.37875354695575L489.9562732857143,168.75784627767626L490.3115178571429,167.15581347394777L491.3402469285715,171.34989573106807L492.02853328571433,178.8677618660721L492.3763769285715,189.0254233823046L492.72422057142865,190.4164334969308L493.4421106428572,169.17574473512414L493.7899542857144,167.12975128738162L494.1377979285715,175.15820962013376L494.48564157142863,166.14376870070657L494.8408861428572,183.60709633611677L495.18132885714294,191.96101605242674L495.5439743571429,165.1546441494379L495.9066198571429,144.27549553333893L496.24706257142867,154.54387922536836L497.6384371428572,157.26090525170162L497.9788798571429,157.0291370047114L498.65976528571434,146.7389505604332L499.34065071428574,168.70161946520847L499.6810934285715,183.19663547112836L500.0215361428572,190.5394148225011L500.36937978571433,179.15882256539646L500.71722342857146,172.46696802487796L501.06506707142864,183.51364353441056L501.4129107142858,167.78253772614843L501.7533534285715,167.92828235102942L502.11599892857146,152.12745931138005L502.80428528571434,160.71407183207353L503.14472800000004,157.39978984603562L503.4777697857143,149.97365088446685L503.8182125000001,159.00115099983933L504.1586552142858,161.97957739061266L504.8395406428572,166.60716163737538L505.2021861428572,166.7357965945399L505.52782700000006,157.83117499693503L506.2235142857143,147.61493485309154L506.5713579285715,167.78825204616905L506.9043997142857,156.55012519332897L507.2448424285715,154.1035887018683L507.6074879285715,167.93959383842224L507.94793064285716,158.3049981656105L508.2809724285715,172.2842350195036L508.6288160714286,169.5902276065785L508.9692587857144,162.97172407830428L509.9683841428572,173.83878746128696L510.6862742142858,167.57991818052142L511.38196150000005,159.76655529958427L512.4106905714286,151.72750592082556L512.7511332857143,168.1260919128483L513.091576,187.74719987728858L513.4246177857143,189.48313672900485L513.7798623571429,177.92534279561218L514.1203050714287,182.49325621404319L514.4755496428572,186.26500418568676L514.8233932857144,167.65092559220318L515.1564350714286,175.34216791021885L515.5042787142858,168.48430794255773L515.8669242142857,168.6478240812612L516.2073669285714,146.8900412146217L516.5552105714286,160.4718404036415L517.5839396428572,172.86934329833863L517.9317832857143,185.62248644581118L518.9531114285716,197.02153416701745L519.2861532142858,188.14544965706875L519.9818405000001,176.22941627757592L520.3296841428571,188.33650657330062L520.6627259285715,181.34576545885218L521.0031686428572,176.33761905217233L521.3510122857143,169.64471700431258L521.6988559285714,179.8181230095597L522.7349859285714,181.79916382347068L523.0976314285715,169.91245666723887L523.4380741428572,185.75369909427158L524.799845,178.81421480679379L525.1476886428572,163.47114435929743L525.835975,182.2435727732212L526.1764177142858,171.6457687572194L526.5316622857143,185.2905717454774L526.872105,166.3266940148671L527.560391357143,181.44375548336717L528.5891204285715,166.0616549585689L528.9295631428572,142.65076496427017L529.6326513571429,164.54297906727808L529.9656931428573,171.00666989645273L530.3061358571429,135.78472270064464L530.6539795000001,148.75882191464146L531.0018231428572,158.43835480270238L531.3496667857144,175.30324920731888L531.7049113571429,178.3769053285226L532.052755,164.28234717365802L533.0740831428573,161.17070795854855L533.4219267857143,133.42147869379428L534.1102131428572,139.1260105846265L534.7910985714286,150.56668374352742L535.1389422142857,166.08671414177203L535.4793849285716,169.2605346985982L535.8346295,159.68000156246308L536.5229158571428,175.1449663141584L536.8781604285715,151.31117247284206L537.2260040714285,160.7906003811946L537.5738477142858,170.77388176164246L537.9290922857144,165.87988609468576L538.269535,170.83225517833884L538.6173786428571,165.73619662794806L538.9652222857144,184.32753335877265L539.9791495000001,176.8658469838901L540.3195922142858,183.44949487097176L541.3409203571429,191.2350990749046L541.6961649285714,171.5270403848079L542.0440085714287,189.86434179049115L542.7470967857143,189.42133572562997L543.4353831428573,194.2151363738608L543.7758258571429,198.57223609648264L544.1236695000001,188.95108758058507L544.4715131428572,171.8150305342186L544.8119558571428,171.73400692238917L545.1523985714286,158.91967813158018L545.5076431428572,165.88540129218524L545.8628877142858,163.19732031816477L546.558575,158.88459921833416L546.9064186428573,165.77110766850927L547.2542622857144,164.72230228202625L547.9129449285714,172.5670108126445L548.9638767857143,165.41990261833922L549.3117204285716,163.18240206738582L549.6447622142858,169.9152138852548L549.9852049285714,138.12195837095751L550.3256476428572,150.7663264575596L551.0213349285715,163.76413618289857L551.3543767142858,173.4605265218549L551.7022203571429,187.52743052430512L552.3831057857143,170.94503309339999L552.7235485,180.8193491947206L553.4118348571429,170.66694165125264L554.4257620714286,166.04280937444216L555.1288502857143,158.2549382535119L555.4766939285715,158.3197539403357L555.8097357142858,176.56958829759193L556.8384647857143,150.3260977297398L557.1937093571429,158.32044063656494L557.8893966428572,175.68789291660278L558.2298393571429,181.13922804652734L558.9255266428571,173.3635383685339L559.2733702857143,153.29374012209612L559.628614857143,174.9178441683997L560.3169012142857,140.49362266890594L560.6647448571429,142.97676622496752L561.7008748571428,142.44907145927917L562.0487185000001,139.40653212370452L562.7444057857143,157.88477936794638L563.099650357143,166.6152644447376L563.447494,170.9852615985588L563.7953376428572,174.39273811430533L564.483624,160.19095110219112L564.8388685714286,176.84785233873419L565.1941131428572,177.11131950742612L565.5493577142857,170.46093859769687L566.2524459285714,160.15502454122398L566.9259304285715,160.88720138185965L567.6364195714286,163.12120923586934L567.9842632142858,162.3084801007784L568.3247059285715,137.9949830730625L568.6799505,149.24297117297516L569.0277941428571,155.59189550126212L570.4191687142858,164.68787227570513L570.7670123571429,159.99961964623196L571.1000541428572,164.92679942504745L571.440496857143,168.05972488220067L572.4840277857144,158.06952709850987L572.8244705,148.52352733171554L573.1723141428572,149.36266661899865L573.5201577857143,154.33281962080076L573.8680014285715,149.11956762402497L574.5636887142858,139.74458579931567L574.9115323571428,136.58015767653043L575.2445741428572,142.61297026499392L575.5850168571429,154.12531381924973L576.2659022857143,141.108454870571L576.9689905,149.16660608385274L577.3094332142857,155.6188986717988L577.657276857143,163.62514167597413L578.0347242142858,171.37727237033613L578.3751669285715,178.54803059272626L579.0338495714287,170.7514186509627L579.3594904285716,169.84845686982956L579.677730357143,169.8880400762449L580.3068092857143,156.11626028776382L580.6472520000001,168.45525492178436L581.3577411428572,149.98054879276177L581.6981838571429,164.94750396286926L583.1043602857144,153.02504720180158L583.4596048571428,156.87295857384976L584.1626930714286,163.5567628017702L584.5253385714286,173.69655289101613L584.8731822142857,156.04461462732237L585.2358277142858,144.71270289518452L585.5984732142857,159.08967762181874L585.9537177857144,175.60132775463134L586.5531930000001,183.68493906548468L587.8557564285716,185.02798688996887L588.4848353571429,184.5271216080837L589.1361170714287,148.8220378740743L591.2009761428571,165.94122829667694L591.8966634285715,167.34854885066187L592.5627470000001,179.23200426826207L593.199226857143,160.9641910908562L594.4647856428571,171.13913638211037L598.5426972857144,190.64941907524204L599.2161817857143,185.33836603738533L599.8970672142858,154.32347551603445L600.5779526428572,148.2240379570899L601.2662390000002,150.69037342022094L603.9749788571429,152.28628823077275L606.0176351428571,176.74676866860364L606.6985205714286,175.85325360668946L608.067692357143,160.35753787870073L610.1547542142858,150.15425946195745L610.8504415000001,159.1890183712559L612.2344151428572,162.50925243919917L612.9301024285716,146.60760293835085L613.6257897142858,169.52169796270158L614.3214770000001,179.00040053501039L615.7128515714287,192.34981600529355L616.408538857143,189.04360502684682L617.1116270714286,179.10353159198448L617.8073143571429,156.372546330464L618.5030016428572,158.60931440532713L619.1986889285715,166.34234661825442L619.8943762142858,174.15957885690568L620.5826625714286,177.54200670653495L621.278349857143,149.83752915473045L622.6697244285715,141.58759253747021L623.3728126428572,151.87662063554978L624.749385357143,150.5365849211414L626.133359,158.6757732273264L626.8290462857144,170.33816747910518L628.1908171428572,180.6388256677249L629.5525880000001,178.8502491442228L630.2334734285714,167.31646285385713L630.9143588571429,176.87253385524272L631.5952442857143,175.89044264616942L633.6304996428572,184.51864539942207L634.3113850714286,160.06500325038854L634.9848695714286,149.186020729641L635.6583540714287,158.51415881323263L637.0053230714286,165.24953035705843L637.6862085000001,165.66373341198897L639.0479793571429,162.05856067596648L639.7288647857143,166.48777220966952L643.1628956428572,177.97674652530276L643.851182,126.92967850648748L645.2277547142858,119.05927336514935L645.923442,135.69045602154213L647.3148165714287,153.6266605244909L648.0031029285715,156.6922377350936L648.7061911428572,161.37726444999254L649.4092793571429,158.47943321628935L650.8006539285715,159.32611953854519L651.4889402857143,141.12483380493222L652.1846275714287,146.8428292604055L653.5389975,136.69340121772845L654.2272838571429,142.98683183209278L654.900768357143,146.41454960269166L655.5816537857144,160.41578590814999L657.6169091428573,174.42166130076325L658.9860809285715,185.99542099976284L661.0509400000001,171.94414387300944L662.4053099285715,169.36340780242398L663.086195357143,157.85925622583804L663.7744817142858,147.37144740809916L664.4627680714286,159.67269378157593L665.8245389285714,148.99625516467393L667.2085125714286,124.82869038899602L667.9041998571429,155.18763432129867L668.5924862142858,148.365168344688L669.9690589285715,169.72520917593496L670.6647462142859,180.72117243535394L671.3530325714287,161.29444738821434L672.0487198571429,165.4842120769667L672.7370062142859,155.07369092374242L674.8314690000001,161.75427903043206L675.5271562857143,171.06395007392317L676.2154426428573,164.6764904658502L679.7012800000001,177.24807864105463L680.4043682142858,176.36263538622495L681.0926545714286,163.21657788832627L681.7883418571429,175.0459813599565L683.1723155000001,164.73866657112166L683.8680027857143,159.0746150410367L684.571091,165.52480976125392L685.259377357143,163.10824903777987L685.9550646428572,160.0603501592166L689.4186992142858,159.52959833651758L690.1143865000001,159.7566357088142L690.8174747142858,151.04907622745137L691.5057610714287,149.58112791392782L692.2014483571429,157.52193135963208L692.8897347142859,153.75520653746864L694.2663074285715,160.08647811382784L694.9693956428573,158.21211852359096L695.6650829285716,160.18641034852402L696.3533692857143,154.06754229339703L697.0564575000001,136.98842596606787L697.7521447857144,176.81407549574166L698.4478320714287,166.91041333270948L699.143519357143,179.31414602600535L699.8392066428572,188.30034834820196L701.2305812142858,174.92517712412086L701.9262685000001,186.84077595021282L702.6293567142858,199.96550024520567L703.3176430714287,176.8392309441801L704.0059294285716,157.990182127958L704.6942157857143,171.17405683075626L705.3825021428572,147.60880568516663L706.7738767142857,133.95257616466637L708.1430485000001,153.69862252402842L709.541824,147.99862744223745L710.2375112857144,161.51143989775852L712.3171722142857,163.07081440359735L713.7159477142858,170.03171413160143L714.4042340714286,150.3523854879816L715.7882077142858,144.48793812855308L717.1869832142858,170.6990979188716L717.8826705,186.64444431832914L718.570956857143,180.9369373629778L719.9475295714286,181.07950056364956L722.0345914285715,199.32895785704477L722.7302787142858,196.62567866254258L724.8099396428572,178.54561886814102L726.1939132857144,186.31080290290203L728.2587723571429,165.0301419533043L730.3458342142858,152.15019958238298L731.0341205714286,165.32239630397098L731.7224069285714,155.66003705172932L732.4180942142858,169.3212639614675L733.1137815000001,173.2536672926603L733.8168697142858,166.94385722086238L734.5051560714286,148.74060896464886L735.2082442857143,146.00488468826669L735.9039315714286,153.58798799353812L736.5996188571429,163.1999260684673L737.9909934285714,147.67022459891203L738.6792797857144,150.7140661267012L739.3749670714286,144.7636079509869L741.4694298571429,146.9975878808605L742.1577162142858,169.00544924167494L743.541689857143,157.31179661583073L744.2447780714286,158.6260932236058L744.9330644285715,157.14392846844723L745.6287517142857,118.7943529899789L747.0127253571429,129.84398350918624L749.1071881428571,138.3771576035281L749.7954745000001,143.13421748459805L750.4837608571429,140.57696628905708L751.1794481428572,151.69064778182246L751.8677345000001,159.41201704145925L752.5634217857144,156.56222434012244L753.2591090714286,168.60670347801647L753.9621972857143,174.87497221215736L754.6578845714287,167.51583194658213L755.3535718571429,156.7461593233323L756.0492591428572,163.05423771311234L756.7523473571429,139.00656473889313L757.4480346428571,167.48443619489564L758.151122857143,166.43804124099492L759.5350965,185.2414771113218L760.2307837857143,177.18060522798862L760.9190701428572,181.85671390444898L761.6147574285715,179.389051564639L768.5790312142858,185.97727424714552L770.6586921428573,185.40857448087468L771.3543794285715,175.48228872525132L772.0426657857143,181.0335031855008L772.7457540000001,185.28005794388008L774.1297276428571,178.8275128238426L774.8254149285715,191.03203100488017L775.5137012857143,171.29413584567186L776.1945867142858,158.63161759846201L776.8902740000001,146.1006706248634L778.2890495,145.60288553996543L778.9847367857143,148.40850692510622L779.6730231428572,158.05624669070687L780.3687104285715,183.47718852109915L781.0643977142857,193.66606779034532L781.7674859285714,191.877644743969L782.4631732142858,181.86217379304225L783.1514595714286,187.56175207498777L783.8471468571429,173.22666129276655L785.2311205000001,171.68669872330562L786.6224950714286,164.2663855668178L787.3107814285715,144.8195934971841L788.6725522857145,139.93649527965565L789.3534377142857,134.90369034947284L790.0417240714287,155.18585661571385L791.4108958571429,161.02564101584002L792.0991822142859,151.13422635297326L792.7800676428571,166.90777895347847L793.4683540000001,162.69439823652525L794.1566403571429,187.63191875516142L794.8375257857144,171.43149548426894L797.5758693571429,185.30967870095205L798.9450411428572,159.54414375593834L801.0024992857143,145.13652049827377L801.6907856428572,157.7846108331495L803.067358357143,135.73507317085887L803.7556447142858,165.10299731925295L804.4439310714287,172.41917831571908L805.8131028571429,191.84828182328405L806.4939882857144,196.23516556509801L807.1822746428572,169.28943660355327L807.8705610000001,172.96683562423095L808.558847357143,158.61454149748974L809.2471337142857,159.16228382550972L809.9502219285715,141.59403420383077L810.6459092142859,149.77508008796397L811.3341955714287,168.94656774320535L813.3990546428572,181.31241022787404L814.1021428571429,173.17373191858474L814.8052310714286,172.3997264726577L816.1966056428572,145.93120320200808L816.8922929285715,156.58272601212093L817.5879802142857,160.12627603113398L818.2836675000001,168.94998740960102L818.9719538571429,173.0351953560105L821.0590157142858,186.6095512205574L821.7473020714286,197.39109816354159L822.4503902857143,171.10669897047936L823.1460775714286,159.68203944863563L823.8417648571428,149.90439401535477L824.5374521428573,172.50333345540605L825.2331394285716,165.1923191995462L826.6171130714287,161.71024405393516L827.3053994285715,163.28399278779935L828.0084876428572,181.29013693260129L828.7041749285714,198.0659158312173L829.3924612857144,158.3769182731445L830.0881485714286,161.1135204275472L831.4721222142857,145.23475042278255L833.529580357143,156.1338240039574L834.2104657857143,140.99002196276456L835.5796375714286,156.7773512779187L838.3179811428572,167.42012996870616L839.0062675,143.74404851598183L840.3754392857144,157.09686801868625L841.0563247142859,168.15151054556665L843.0989810000001,163.04905431262497L844.4681527857143,157.61490144768104L845.1564391428572,148.5055643552142L845.8447255000001,164.04255909578134L847.206496357143,150.73621812268684L847.8873817857143,147.5923704076087L848.5682672142858,162.90240242617259L849.2491526428572,182.30251482394942L850.6109235,161.48574480357158L851.299209857143,167.9893154763993L851.9800952857144,183.05778417534162L852.6609807142859,166.95737251856755L853.3418661428572,167.93604225538382L854.7184388571429,151.96425316379523L855.3993242857144,162.20716502130392L856.0802097142858,173.31761138247577L857.4493815000001,158.42911782193102L858.1376678571429,167.96871644020464L860.1803241428572,180.48112152888785L861.5420950000001,194.7580080507119L862.2155795,193.1125267530415L863.577350357143,177.59185211243562L864.2582357857144,182.3734116988863L864.9391212142858,184.14101345329036L865.6274075714286,180.84764796651174L866.3156939285715,158.69431208465562L867.0039802857144,177.5065747065082L867.6922666428572,170.79656351040757L869.7497247857143,166.9873810425349L870.4306102142858,175.7204615677727L871.1188965714286,194.32389071669718L871.7997820000002,191.52425193892392L872.488068357143,180.8330371299501L873.1763547142857,170.5443898196127L873.8498392142858,179.6227302925487L875.233812857143,168.0408188567579L875.9369010714287,165.0896382414548L876.6399892857144,165.36658098977117L877.3282756428572,162.16043704070532L878.0239629285714,147.2524794917197L878.7270511428572,157.02471206832908L880.814113,172.90818780809033L882.2054875714286,190.56336877109968L882.9011748571429,156.21191953040577L883.6042630714287,150.37191703026488L884.299950357143,162.92499121490115L884.9882367142858,166.91197373709517L885.683924,175.8641202561724L886.3722103571429,175.08590555429103L887.0604967142858,199.90501502353283L887.7487830714286,199.79876328120537L888.4444703571429,206.3554406137407L890.5315322142858,190.5625626806917L891.2198185714286,171.9825380661787L893.3142813571429,177.31978091221353L894.0025677142858,165.6562973362935L895.386541357143,154.24104739498043L896.0822286428572,164.1254549687453L896.7779159285715,137.1182897314095L898.1692905000001,140.999458187663L898.8575768571429,144.295864641248L899.5532641428573,150.68044178785883L900.9520396428572,143.81537489680923L901.6477269285715,163.75659901362832L902.3434142142858,169.44742351395647L903.7347887857144,164.40101680205643L904.4230751428572,173.33966920999515L905.1261633571429,145.24764701047062L906.5175379285715,156.19678329744323L907.2132252142858,148.91524845063807L907.9089125,160.85688781234424L909.3002870714287,158.27131719286922L909.9959743571429,171.1548112630045L911.3799480000001,166.19036879751442L912.0756352857144,160.61446176482707L912.7713225714286,168.96995033548538L913.4670098571429,170.64942457621146L914.1626971428573,179.96142885998884L914.8583844285715,184.33503664681913L916.2349571428572,170.07507615124402L916.9306444285716,176.58524745225225L919.0029044285716,174.10185786199162L920.3942790000001,174.90869032969664L922.481340857143,162.83458420576645L925.2492881428573,162.87380558705436L928.7351255000001,177.9542810954924L930.8295882857144,194.79802123861435L931.5326765000001,181.5059789493551L932.2283637857144,162.9620687811135L932.9166501428572,175.8669013496645L933.619738357143,177.36973217335878L935.691998357143,186.02047686321248L936.3876856428573,207.10082365706282L937.7716592857143,183.9185159910711L938.4673465714287,175.16456407091243L939.8587211428572,166.1090702466496L940.5470075000001,162.50124864781773L941.2500957142859,165.79223295940793L941.9161792857143,187.64394865785525L943.2779501428572,170.11093352594122L943.9662365000002,139.6274085467185L944.6471219285716,148.30091500215303L945.3354082857144,170.72919081734437L946.0088927857144,179.54752690247784L947.3632627142857,167.26953373885863L948.0515490714287,165.91923285175662L948.7398354285715,185.3373575400994L950.1090072142858,181.21290153865678L951.4855799285715,193.80637749360437L952.1738662857143,156.80084702512934L953.5430380714287,167.14076088155102L955.6226990000001,157.03284152482465L957.0140735714286,159.42299362176095L959.7894217857144,161.51605573442188L960.4851090714287,167.4836878227173L961.180796357143,176.28314546409933L961.8764836428572,170.69081009967795L963.9635455000001,146.0655260503186L964.6666337142858,150.27127383307342L965.3623210000001,155.1058802494748L967.449382857143,145.2430049743586L968.1450701428572,147.0948930536057L969.5290437857144,155.28215291011227L970.2247310714287,132.15360547249253L970.9130174285715,148.67699773560446L972.9852774285715,136.30861329271323L973.6809647142859,157.22187897268924L975.7532247142858,135.81934863206686L976.4489120000001,154.07393740125482L977.1445992857143,158.64397226224588L977.8402865714287,169.050229919473L978.5433747857144,167.75630416966115L979.2390620714287,157.8468226776681L979.934749357143,178.8139381909792L981.333524857143,152.21429027182765L982.0292121428572,142.06164897988708L982.7248994285716,160.0144435365716L983.4205867142858,149.1599666389385L984.1236749285715,156.06819903004254L984.8193622142858,144.29795253636024L985.5150495000001,142.39503695313354L986.2181377142858,151.5846137844359L986.9138250000001,157.6315669529611L989.7039750714287,154.678904291948L991.7910369285714,175.00861063039102L992.4867242142859,150.37801235307012L993.1824115000002,152.56033504186775L993.8632969285715,138.16015601481402L995.269473357143,141.53185872792085L995.9577597142858,154.78435002356645L996.6386451428572,151.4673328770771L997.2677240714287,165.51417052805056" style="fill: none;" fill="none"></path></g></g></g></g><g opacity="0.2"><g><g><g><path stroke="rgb(255, 112, 67)" stroke-width="2px" d="M117.12709557142858,-4.216040697964729L117.80798100000001,10.99914241920817L118.48886642857144,-0.6223227761008729L119.87284007142858,-10.19310940395701L120.55372550000001,3.2127535885030625L121.9228972857143,18.26406218788844L122.61118364285716,18.784836693243506L123.30687092857144,41.323323195630906L123.98775635714287,58.87867201458329L125.35692814285714,56.94680349393326L126.74830271428573,26.953231692314148L127.42178721428573,30.74616480957377L128.79835992857144,28.057535940950572L129.4866462857143,74.6682739257813L130.86321900000002,64.3025467612527L131.55150535714287,79.0549099987204L132.23979171428573,40.1174093918367L132.9280780714286,33.483862064101515L133.60896350000002,89.99280886216599L134.2750470714286,99.7773146629334L135.65902071428573,7.262039401314439L136.33990614285716,89.8538362438029L137.02819250000002,113.4378143874082L137.71647885714287,83.05478014729243L141.120906,123.75097995454615L141.80919235714288,98.49485662850469L143.193166,104.76690763776958L144.5623377857143,70.18405264074158L145.24322321428573,127.11669943549418L145.93891050000002,165.9572889588096L150.4904815714286,102.95339974490082L152.52573692857146,124.70615880055863L153.79129571428575,169.93403445590627L154.44257742857144,157.97440187497574L155.1012600714286,193.80088101733816L157.37334514285718,138.59590308232742L157.9802212857143,114.38167604533112L158.54269185714287,45.11650145053869L159.1717707857143,55.084268071434735L160.4447305,113.39855150742966L161.0886112857143,132.14639284394005L163.0276545714286,92.17588218775666L164.9740987857143,145.55376751856372L165.63278142857146,112.76356328617447L166.93534485714287,108.00395028157669L168.25271014285715,150.90736947276378L168.90399185714287,49.94458957151937L169.54787264285716,128.61804496158254L170.2065552857143,136.23428783633494L170.86523792857145,123.21492520245641L171.5017177857143,117.07216387445283L172.77467750000002,130.93790509484032L173.41115735714288,133.40613478964028L174.05503814285717,183.09480065649208L174.69151800000003,98.89974231069743L175.97187864285715,69.849603176117L176.6083585,162.0933272079988L177.25964021428575,164.08388576724315L178.36977950000002,138.38230647824028L178.94705192857145,127.7360192754052L179.56872992857146,149.9397703192451L180.76768035714286,78.13262045383459L181.4411648571429,166.63427743044767L182.78073292857144,172.75638591159475L183.44681650000004,106.28473867069596L184.78638457142858,87.35770171338868L185.45246814285716,121.97234289212662L186.11855171428573,136.24182581901553L187.4581197857143,137.37801839004865L190.1224540714286,104.51241390271622L190.78853764285716,143.8162318684838L191.46202214285717,128.0671185255051L192.1281057142857,179.3852551958778L193.46027285714288,140.98932493816724L194.1189555,187.42832357233223L195.46592450000003,184.39210994677111L196.84249721428574,208.13045331022957L197.51598171428574,149.45460205728358L198.18946621428574,149.15351174094462L198.87035164285717,156.60304058681837L200.23952342857143,173.55098938400096L200.91300792857146,137.85644536668605L205.67920592857143,171.2426813624122L208.39534671428575,139.79366605932063L210.4528048571429,137.8843706304377L211.13369028571432,135.29318397695369L211.81457571428575,180.57161927223208L212.49546114285718,137.19931304454806L215.21160192857147,148.52162859656596L215.8924873571429,156.0975667563352L216.56597185714287,117.63130242174327L217.2468572857143,147.81965651295403L219.28211264285716,125.76184408231217L219.94819621428573,108.43155205249792L220.6142797857143,127.04274957830256L221.27296242857145,189.3923970515078L221.91684321428576,123.1342340599407L222.0352580714286,183.0723399194804L223.31561871428573,100.2856280045076L223.9520985714286,166.85649470849472L224.63298400000002,196.40513146465477L225.99475485714288,162.94587509198624L226.68304121428574,128.5234014012597L227.36392664285717,111.97804012081843L228.05221300000002,137.58579297499224L228.73309842857145,160.94118026169866L229.40658292857145,144.12894579497257L231.4640410714286,138.328110629862L232.1375255714286,150.7359978285703L233.49189550000003,80.99940310825002L236.20803628571431,127.58605631915012L236.8815207857143,195.95024791630834L238.2506925714286,192.7485970204527L238.93157800000003,115.10044005784124L239.61246342857146,157.05119306390938L240.30074978571432,143.6569332534617L240.98903614285717,156.81103988127276L241.67732250000003,180.80602193420586L243.73478064285717,150.9776422652332L245.79963971428575,183.28164661472496L246.4879260714286,93.99039105935532L247.18361335714286,163.88509956273168L247.87930064285715,157.8249700502916L249.27067521428572,146.04516636241567L252.0016178571429,129.0465659986843L253.35598778571432,170.53341643376785L254.71035771428575,171.04879791086373L255.38384221428575,154.32191220196813L256.0647276428572,212.85749364982954L256.7456130714286,124.3623532490297L257.4116966428572,202.46427021243358L258.7660665714286,172.0507776195353L259.44695200000007,189.37335802750155L260.80872285714287,145.1008757136085L262.15569185714287,139.00377127257266L263.52486364285716,177.2017835216089L266.6554564285714,89.70129934224218L268.0098263571429,148.63447362726387L268.67590992857146,158.0975018306212L270.01547800000003,118.67093118754303L270.6889625,133.76926535909828L271.3550460714286,182.30861357667231L272.02112964285715,145.47397521409124L272.68721321428575,163.4151298349554L273.3458958571429,131.93271452730355L274.00457850000004,122.20918671651322L274.6706620714286,117.2352825511586L275.3367456428572,144.73758171905172L276.0028292142857,135.513052019206L278.6819653571429,199.04071867465976L279.35544985714284,142.99845267425886L280.7024188571429,210.04964617165655L282.7080705,143.74140360138634L285.4020085,214.0498227422888L286.07549300000005,185.24421862580562L286.76377935714294,191.1778673258695L287.4372638571429,199.21028242869812L288.78423285714285,219.45919351144272L289.4651182857143,179.29013157432732L290.13860278571434,164.24904725768351L290.8046863571429,189.24242388118398L291.4855717857143,205.26938032020223L292.1590562857143,195.5151796611873L294.1869107142857,148.51333477280357L294.86039521428575,156.07952871105888L296.15555771428575,167.85105900330979L297.4433192857143,162.48589472337204L298.7902882857143,118.7773209268397L300.14465821428576,103.201090910218L301.10677892857143,86.41696556047964L301.7062541428572,106.34594137018382L302.3723377142858,194.03965530070394L303.04582221428575,167.89453007958153L303.68230207142864,180.0569221377373L304.31138100000004,157.62618384578013L304.9256580714286,124.56591963768008L305.60654350000004,123.08571723374456L306.2948298571429,166.65685052221474L307.6714025714286,174.43662063641983L309.0553762142858,164.5108542659066L309.75106350000004,139.67937063087118L311.12023528571433,200.195735774257L312.42279871428576,115.15876238996339L313.10368414285716,178.4841598434882L313.79197050000005,159.02855504642835L314.47285592857145,170.89767055077988L315.1537413571429,106.02805912494665L315.84942864285716,123.17298623648563L316.53771500000005,184.87346836111763L317.2260013571429,189.69545868310064L317.92168864285713,145.21596783941445L318.609975,186.93391157822177L319.30566228571433,171.0337832299146L320.6674331428572,152.3877148736607L321.3557195,176.13835597580132L322.7174903571429,132.26324178955772L324.07186028571437,188.44715649431404L324.75274571428577,194.99821500344711L325.43363114285717,86.2371775236997L326.1071156428572,175.44668988748032L326.78060014285717,154.07904207706454L328.13497007142865,101.96277808059347L328.81585550000005,164.83282213861293L330.1776263571429,119.87200352278626L330.87331364285717,179.6903596412052L331.5690009285715,179.78612674908206L332.24248542857146,205.71726723150775L332.9233708571429,154.6585474772887L334.27033985714286,189.64609408920464L334.95862621428574,139.67924806204715L335.63951164285714,187.41087794303897L336.3203970714286,173.97013390606102L339.73222514285715,168.83753375573593L340.4131105714286,151.81860739534554L342.45576685714286,158.23102013631302L343.1292513571429,183.1669732657346L344.4836212857143,177.043414386836L345.1645067142858,152.67129827629438L346.53367850000006,155.82885503768924L347.9102512142857,186.87972594391218L351.35168300000004,152.08836094899613L352.0473702857143,121.31878549402413L354.1196302857143,131.18457485329023L354.8079166428572,149.27456888285556L355.49620300000004,186.07461219484156L356.18448935714287,118.385141546076L356.8801766428572,142.75603196837687L357.56846300000007,158.63862276077273L358.9450357142857,165.54866492748263L360.32900935714287,122.82977310093969L361.72038392857144,181.41936654394326L363.0969566428572,203.23870089921087L365.17661757142866,131.76026019183078L365.86490392857144,150.3875142335892L367.9297630000001,186.39557908881795L368.62545028571435,137.95660452409226L369.3211375714286,216.83900911699644L370.0168248571429,140.49661869352516L371.3933975714286,211.5650462562388L372.0890848571429,106.37411177158361L374.16874578571435,136.3698489557613L374.8570321428572,158.8899705626748L376.2336048571429,152.35200648958033L378.3058648571429,126.68231552297419L380.3855257857144,182.95063929124314L381.08121307142864,191.29433835094628L381.76949942857146,128.10636097734627L382.4651867142857,163.252092870799L383.16087400000004,158.97376678206706L384.55964950000003,169.55652247775686L385.24793585714286,152.29499155824837L385.93622221428575,170.83640656688L386.62450857142863,143.43716735189614L387.3201958571429,185.93838716095146L388.0158831428572,148.70654409581965L388.70416950000003,109.13624107837683L390.08814314285723,155.18602241169324L391.47951771428575,136.29152747717777L392.16040314285715,124.5525800639933L394.2548659285715,111.29898840730846L394.9505532142858,147.57276204499334L397.71850050000006,181.20179666714236L399.79816142857146,140.00313617966393L400.4938487142858,148.483284982768L401.8778223571429,121.74385417591444L402.5809105714286,174.21675259416756L403.9722851428572,136.3085645437241L405.34885785714295,165.30246501619166L407.4137169285715,180.53044636141172L408.10940421428575,183.82828314195982L409.5007787857143,171.28022827885368L412.27612700000003,193.65252166986468L414.34098607142863,176.08102440834048L415.0366733571429,176.06584630229258L415.7249597142858,142.4006028066982L416.42064700000003,225.67311625589025L417.1089333571429,186.25182628631595L417.80462064285723,144.11932414228266L418.492907,161.60899649966848L419.8694797142858,172.98095242543656L420.56516700000003,174.7625209255652L421.2534533571429,177.8501419587569L421.94914064285723,169.95862993327054L422.637427,130.56264021179894L423.3257133571429,192.99988353794274L424.02140064285715,144.56649606878108L426.7967488571429,203.9457902312279L427.48503521428574,146.41056445511907L431.6443570714286,184.18451921506363L433.01352885714294,94.64666539972484L433.7018152142857,230.39061665534976L434.39750250000003,190.98065408793366L435.09318978571434,188.3850345286456L435.78887707142866,98.29656069928956L436.4845643571429,100.69968592036855L437.18025164285723,199.3786102804271L437.86113707142863,176.28620461984116L438.54942342857146,145.71537451310593L439.2451107142858,181.27663514830851L439.9259961428572,173.68942065672442L440.61428250000006,177.8938173164021L441.3099697857143,157.47248254039073L441.9982561428572,196.98848756876862L442.69394342857146,193.33145263520157L443.38222978571434,150.3561774709008L444.08531800000003,185.30842426148328L445.4766925714286,175.48456365411934L446.1723798571429,170.84224901416087L446.8606662142858,176.28350810571152L448.2520407857143,179.546331058849L449.62861350000003,182.6743895899166L451.00518621428574,155.2314137328755L451.70087350000006,129.43519088354984L453.7879353571429,191.8139893087474L454.4836226428572,211.99046221646398L455.1867108571429,178.7834626978094L456.5558826428572,175.63984814015302L457.2515699285715,202.82725778493017L457.9398562857143,180.22208362817767L459.32382992857146,140.07600334557623L460.69300171428574,224.838953695514L461.3812880714286,155.47914575446737L462.75786078571434,100.59762694618922L463.44614714285717,144.28033872084185L464.1418344285714,117.72882634943187L464.83752171428574,183.98647863756528L465.5184071428572,154.2126829515804L466.2066935000001,183.7173277139664L466.8875789285715,171.94761552593926L467.56106342857146,136.83428265831688L468.2419488571429,175.76209011402997L469.6111206428572,182.84797768701208L470.29200607142866,117.77174586599529L470.97289150000006,161.48436443372208L473.0081468571429,166.98903246359393L473.68163135714286,183.54433203285393L474.3625167857143,164.1239657727155L475.7094857857143,160.16856767914513L476.3977721428572,121.9080759720369L476.9454408571429,150.67573482340035L477.3524919285715,183.5173056071455L478.15179221428576,140.45047153126112L478.8622813571429,192.6058043404059L479.21752592857143,158.18199260668322L479.57277050000005,180.2193156155673L480.26105685714293,187.54921728914437L480.9641450714286,129.19626338915393L481.6524314285715,192.20557627352804L482.00027507142863,134.0624091300098L482.34071778571433,150.14593108133838L483.39905057142863,174.6803691712293L484.7904251428572,208.09750272469088L485.13826878571433,155.3017886660316L485.48611242857146,192.27616570212626L485.8265551428572,221.33098288015887L486.1817997142858,182.27351803671232L486.87008607142866,145.81616694276985L487.21052878571436,219.89665185863325L488.22445600000003,171.59065425395968L488.55749778571436,157.58128279989418L489.26058600000005,183.6880644072186L489.9562732857143,155.82648537375712L490.3115178571429,164.75276426835495L491.3402469285715,177.64101911674848L492.02853328571433,190.1445610685782L492.3763769285715,204.26191565665334L492.72422057142865,192.5029486688701L493.4421106428572,137.31471159241417L493.7899542857144,164.06076111576775L494.1377979285715,187.200897119262L494.48564157142863,152.6221073215658L494.8408861428572,209.8020877892321L495.18132885714294,204.49189562689176L495.5439743571429,124.94508629495448L495.9066198571429,112.95677260919052L496.24706257142867,169.9464547634125L497.6384371428572,161.33644429120153L497.9788798571429,156.68148463422602L498.65976528571434,131.30367089401594L499.34065071428574,201.64562282237142L499.6810934285715,204.93915948000824L500.0215361428572,201.55358384956014L500.36937978571433,162.08793417973953L500.71722342857146,162.42918621410024L501.06506707142864,200.08365679870954L501.4129107142858,144.1858790137551L501.7533534285715,168.1468992883509L502.11599892857146,128.42622475190598L502.80428528571434,173.59399061311376L503.14472800000004,152.4283668669788L503.4777697857143,138.83444244211373L503.8182125000001,172.54240117289805L504.1586552142858,166.44721697677267L504.8395406428572,173.54853800751948L505.2021861428572,166.92874903028664L505.52782700000006,144.4742426005277L506.2235142857143,132.2905746373264L506.5713579285715,198.04822783578527L506.9043997142857,139.69293491406876L507.2448424285715,150.4337839646773L507.6074879285715,188.69360154325315L507.94793064285716,143.8531046563929L508.2809724285715,193.25309030034327L508.6288160714286,165.54921648719096L508.9692587857144,153.04396878589284L509.9683841428572,190.1393825357611L510.6862742142858,158.19161425937307L511.38196150000005,148.04651097817856L512.4106905714286,139.6689318526875L512.7511332857143,192.7239709008824L513.091576,217.17886182394898L513.4246177857143,192.08704200657934L513.7798623571429,160.5886518955231L514.1203050714287,189.34512634168973L514.4755496428572,191.9226261431521L514.8233932857144,139.72980770197788L515.1564350714286,186.8790313872424L515.5042787142858,158.197517991066L515.8669242142857,168.89309828931636L516.2073669285714,114.25336691466248L516.5552105714286,180.84453918717125L517.5839396428572,191.46559764038435L517.9317832857143,204.75220116701996L518.9531114285716,214.12010574882683L519.2861532142858,174.8313228921457L519.9818405000001,158.3553662083366L520.3296841428571,206.4971420168877L520.6627259285715,170.85965378717944L521.0031686428572,168.82539944215256L521.3510122857143,159.60536393252292L521.6988559285714,195.07823201743042L522.7349859285714,184.7707250443372L523.0976314285715,152.08239593289116L523.4380741428572,209.51556273482063L524.799845,168.40498837557706L525.1476886428572,140.4565386880528L525.835975,210.4022153941068L526.1764177142858,155.74906273321673L526.5316622857143,205.75777622786438L526.872105,137.88087741895157L527.560391357143,204.11934768611738L528.5891204285715,142.9885041713715L528.9295631428572,107.53442997282207L529.6326513571429,197.38130022178999L529.9656931428573,180.70220614021477L530.3061358571429,82.95180190693253L530.6539795000001,168.21997073563665L531.0018231428572,172.95765413479373L531.3496667857144,200.60059081424367L531.7049113571429,182.98738951032814L532.052755,143.1405099413612L533.0740831428573,156.50324913588443L533.4219267857143,91.7976347966628L534.1102131428572,147.68280842087486L534.7910985714286,167.72769348187882L535.1389422142857,189.3667597391389L535.4793849285716,174.0212655338374L535.8346295,145.30920185826042L536.5229158571428,198.34241344170138L536.8781604285715,115.56048171086746L537.2260040714285,175.00974224372345L537.5738477142858,185.74880383231425L537.9290922857144,158.53889259425083L538.269535,178.26080880381846L538.6173786428571,158.09210880236193L538.9652222857144,212.2145384550095L539.9791495000001,165.67331742156637L540.3195922142858,193.3249667015943L541.3409203571429,202.9135053808039L541.6961649285714,141.9649523496628L542.0440085714287,217.37029389901596L542.7470967857143,188.75682662833822L543.4353831428573,201.40583734620702L543.7758258571429,205.10788568041542L544.1236695000001,174.5193648067388L544.4715131428572,146.110944964669L544.8119558571428,171.61247150464493L545.1523985714286,139.69818494536662L545.5076431428572,176.33398603309286L545.8628877142858,159.16519885713404L546.558575,152.41551756858829L546.9064186428573,176.10087034377187L547.2542622857144,163.14909420230174L547.9129449285714,184.33407360857186L548.9638767857143,154.69924032688144L549.3117204285716,159.8261512409557L549.6447622142858,180.01443161205813L549.9852049285714,90.43207509951162L550.3256476428572,169.7328785874627L551.0213349285715,183.26085077090698L551.3543767142858,188.0051120302894L551.7022203571429,208.62778652798048L552.3831057857143,146.07143694704232L552.7235485,195.63082334670156L553.4118348571429,155.43833033605057L554.4257620714286,159.10661095922646L555.1288502857143,146.57313157211652L555.4766939285715,158.41697747057137L555.8097357142858,203.94433983347633L556.8384647857143,110.96086187796163L557.1937093571429,170.3119549968026L557.8893966428572,201.73907133665955L558.2298393571429,189.3162307414142L558.9255266428571,161.70000385154378L559.2733702857143,123.18904275243935L559.628614857143,207.35400023785508L560.3169012142857,88.85729041966528L560.6647448571429,146.70148155905986L561.7008748571428,141.65752931074664L562.0487185000001,134.8427231203426L562.7444057857143,185.60215023430914L563.099650357143,179.7109920599244L563.447494,177.54025732929057L563.7953376428572,179.50395288792524L564.483624,138.8882705840198L564.8388685714286,201.83320419354874L565.1941131428572,177.50652026046407L565.5493577142857,160.48536723310298L566.2524459285714,144.69615345651454L566.9259304285715,161.98546664281326L567.6364195714286,166.47222101688388L567.9842632142858,161.08938639814204L568.3247059285715,101.52473753148865L568.6799505,166.1149533228441L569.0277941428571,165.11528199369258L570.4191687142858,178.33183743736961L570.7670123571429,152.96724070202222L571.1000541428572,172.31756909327075L571.440496857143,172.7591130679304L572.4840277857144,143.08423042297366L572.8244705,134.20452768152413L573.1723141428572,150.6213755499233L573.5201577857143,161.78804912350395L573.8680014285715,141.2996896288612L574.5636887142858,125.68211306225172L574.9115323571428,131.83351549235263L575.2445741428572,151.66218914768913L575.5850168571429,171.3938291506334L576.2659022857143,121.58316644755283L576.9689905,161.25383290377536L577.3094332142857,165.29733755371788L577.657276857143,175.63450618223712L578.0347242142858,183.00546841187912L578.3751669285715,189.30416792631152L579.0338495714287,159.05650073831734L579.3594904285716,168.49401419812983L579.677730357143,169.94741488586774L580.3068092857143,135.45859060504222L580.6472520000001,186.96374687281522L581.3577411428572,122.26848959922793L581.6981838571429,187.39793671803042L583.1043602857144,135.1413620602001L583.4596048571428,162.64482563192195L584.1626930714286,173.58246914365077L584.5253385714286,188.90623802488503L584.8731822142857,129.56670723178172L585.2358277142858,127.71483529697767L585.5984732142857,180.65513971177015L585.9537177857144,200.36880295385015L586.5531930000001,195.81035603176466L587.8557564285716,187.04255862669513L588.4848353571429,183.77582368525594L589.1361170714287,95.2644122730602L591.2009761428571,191.62001393058085L591.8966634285715,169.45952968163925L592.5627470000001,197.05718739466235L593.199226857143,133.56247132474726L594.4647856428571,186.4015543189916L598.5426972857144,219.91484311493963L599.2161817857143,177.3717864806002L599.8970672142858,107.80113973400813L600.5779526428572,139.07488161867317L601.2662390000002,154.38987661491743L603.9749788571429,154.6801604466005L606.0176351428571,213.43748932535001L606.6985205714286,174.51298101381823L608.067692357143,137.11396428671756L610.1547542142858,134.84934183684268L610.8504415000001,172.7411567352035L612.2344151428572,167.48960354111412L612.9301024285716,122.75512868707833L613.6257897142858,203.89284049922773L614.3214770000001,193.21845439347356L615.7128515714287,212.37393921071836L616.408538857143,184.0842885591767L617.1116270714286,164.19342143969104L617.8073143571429,122.27606843818319L618.5030016428572,161.96446651762184L619.1986889285715,177.94189493764532L619.8943762142858,185.8854272148826L620.5826625714286,182.6156484809789L621.278349857143,108.28081282702362L622.6697244285715,129.21268761157992L623.3728126428572,167.3101627826691L624.749385357143,148.52653134952894L626.133359,170.8845556866039L626.8290462857144,187.8317588567734L628.1908171428572,196.08981295065448L629.5525880000001,176.16738435896963L630.2334734285714,150.01578341830862L630.9143588571429,191.206640357321L631.5952442857143,174.41730583255944L633.6304996428572,197.46094952930105L634.3113850714286,123.38454002683815L634.9848695714286,132.86754694851965L635.6583540714287,172.50636593862015L637.0053230714286,175.35258767279714L637.6862085000001,166.2850379943848L639.0479793571429,156.65080157193273L639.7288647857143,173.1315895102241L643.1628956428572,195.21020799875262L643.851182,50.35907647826457L645.2277547142858,107.2536656531421L645.923442,160.63723000613132L647.3148165714287,180.53096727891403L648.0031029285715,161.29060355099767L648.7061911428572,168.40480452234095L649.4092793571429,154.13268636573446L650.8006539285715,160.59614902192897L651.4889402857143,113.82290520451289L652.1846275714287,155.41982244361532L653.5389975,121.4692591537129L654.2272838571429,152.42697775363925L654.900768357143,151.55612625859L655.5816537857144,181.41764036633754L657.6169091428573,195.43047438968313L658.9860809285715,203.35606054826218L661.0509400000001,150.8672281828794L662.4053099285715,165.4923036965457L663.086195357143,140.6030288609592L663.7744817142858,131.63973418149084L664.4627680714286,178.124563341791L665.8245389285714,132.98159723932093L667.2085125714286,88.57734322547918L667.9041998571429,200.72605021975258L668.5924862142858,138.13146937977186L669.9690589285715,201.76527042280546L670.6647462142859,197.21511732448232L671.3530325714287,132.1543598175049L672.0487198571429,171.7688591100953L672.7370062142859,139.45790919390598L674.8314690000001,171.77516119046646L675.5271562857143,185.02845663915983L676.2154426428573,155.09530105374077L679.7012800000001,196.10546090386134L680.4043682142858,175.0344705039805L681.0926545714286,143.49749164147812L681.7883418571429,192.79008656740191L683.1723155000001,149.27769438786942L683.8680027857143,150.57853774590927L684.571091,175.2001018415798L685.259377357143,159.48340795256877L685.9550646428572,155.48850184137171L689.4186992142858,158.73347060246903L690.1143865000001,160.0971917672591L690.8174747142858,137.98773700540718L691.5057610714287,147.37920544364238L692.2014483571429,169.43313652818856L692.8897347142859,148.1051193042235L694.2663074285715,169.58338547836652L694.9693956428573,155.40057913823563L695.6650829285716,163.14784808592364L696.3533692857143,144.88924021070656L697.0564575000001,111.36975147507411L697.7521447857144,236.55254979025236L698.4478320714287,152.05492008816114L699.143519357143,197.9197450659492L699.8392066428572,201.77965183149686L701.2305812142858,154.8624202879993L701.9262685000001,204.71417418935084L702.6293567142858,219.6525866876949L703.3176430714287,142.1498269926418L704.0059294285716,129.7166089036248L704.6942157857143,190.94986888495362L705.3825021428572,112.26092896678233L706.7738767142857,113.46823188391602L708.1430485000001,183.31769206307152L709.541824,139.44863481955096L710.2375112857144,181.78065858104014L712.3171722142857,165.4098761623556L713.7159477142858,180.4730637236075L714.4042340714286,120.83339252255183L715.7882077142858,135.69126708941027L717.1869832142858,210.01583760434934L717.8826705,210.56246391751552L718.570956857143,172.37567692995074L719.9475295714286,181.29334536465734L722.0345914285715,226.70314379713753L722.7302787142858,192.5707598707893L724.8099396428572,151.42552917653865L726.1939132857144,197.95857895504346L728.2587723571429,133.1091505289078L730.3458342142858,132.830286026001L731.0341205714286,185.0806913863529L731.7224069285714,141.1664981733669L732.4180942142858,189.8131043260748L733.1137815000001,179.15227228944954L733.8168697142858,157.47914211316544L734.5051560714286,121.43573658032852L735.2082442857143,141.90129827369344L735.9039315714286,164.96264295144516L736.5996188571429,177.61783318086106L737.9909934285714,124.37567239457911L738.6792797857144,155.2798284183849L739.3749670714286,135.8379206874154L741.4694298571429,150.34855777567086L742.1577162142858,202.01724128289658L743.541689857143,139.7713176770644L744.2447780714286,160.59753813526848L744.9330644285715,154.92068133570933L745.6287517142857,61.26998977227646L747.0127253571429,146.41842928799718L749.1071881428571,151.17691874504092L749.7954745000001,150.26980730620303L750.4837608571429,136.7410894957456L751.1794481428572,168.36117002097043L751.8677345000001,170.99407093091446L752.5634217857144,152.28753528811717L753.2591090714286,186.67342218485746L753.9621972857143,184.27737531336874L754.6578845714287,156.47712154821917L755.3535718571429,140.59165038845757L756.0492591428572,172.5163552977822L756.7523473571429,102.93505527756435L757.4480346428571,210.20124337889933L758.151122857143,164.86844881014392L759.5350965,213.4466309168122L760.2307837857143,165.0892974029888L760.9190701428572,188.87087691913953L761.6147574285715,175.68755805492404L768.5790312142858,195.85960827090526L770.6586921428573,184.55552483146843L771.3543794285715,160.5928600918163L772.0426657857143,189.36032487587497L772.7457540000001,191.649890081449L774.1297276428571,169.14869514378637L774.8254149285715,209.33880827643657L775.5137012857143,141.68729310685939L776.1945867142858,139.63784022764727L776.8902740000001,127.30425016446549L778.2890495,144.8562079126185L778.9847367857143,152.61693900281733L779.6730231428572,172.52785633910787L780.3687104285715,221.6086012666876L781.0643977142857,208.94938669421458L781.7674859285714,189.1950101744045L782.4631732142858,166.83896736665207L783.1514595714286,196.1111194979061L783.8471468571429,151.7240251194347L785.2311205000001,169.37675486911428L786.6224950714286,153.13591583208606L787.3107814285715,115.64940539273351L788.6725522857145,132.6118479533629L789.3534377142857,127.35448295419869L790.0417240714287,185.60910601507535L791.4108958571429,169.78531761602923L792.0991822142859,136.29710435867312L792.7800676428571,190.56810785423627L793.4683540000001,156.37432716109538L794.1566403571429,225.03819953311574L794.8375257857144,147.13086057793012L797.5758693571429,206.12695352597672L798.9450411428572,120.89584133841777L801.0024992857143,123.52508561177689L801.6907856428572,176.7567463354631L803.067358357143,102.660766677423L803.7556447142858,209.15488354184413L804.4439310714287,183.39344981041822L805.8131028571429,220.9919370846315L806.4939882857144,202.815491177819L807.1822746428572,128.87084316123617L807.8705610000001,178.48293415524745L808.558847357143,137.08610030737796L809.2471337142857,159.98389731753957L809.9502219285715,115.24165977131241L810.6459092142859,162.04664891416377L811.3341955714287,197.7037992260673L813.3990546428572,199.86117395487702L814.1021428571429,160.9657144546509L814.8052310714286,171.23871830376714L816.1966056428572,106.22841829603374L816.8922929285715,172.5600102272901L817.5879802142857,165.44160105965355L818.2836675000001,182.18555447730154L818.9719538571429,179.16300727562472L821.0590157142858,206.9710850173777L821.7473020714286,213.56341857801786L822.4503902857143,131.68010018088603L823.1460775714286,142.54505016586998L823.8417648571428,135.23792586543345L824.5374521428573,206.40174261548304L825.2331394285716,154.22579781575638L826.6171130714287,156.4871313355186L827.3053994285715,165.6446158885956L828.0084876428572,208.29935314980423L828.7041749285714,223.2295841791413L829.3924612857144,98.84342193603521L830.0881485714286,165.21842365915126L831.4721222142857,121.41659541563556L833.529580357143,172.4824343757196L834.2104657857143,118.27431890097535L835.5796375714286,180.4583452506499L838.3179811428572,183.38429800488734L839.0062675,108.22992633689535L840.3754392857144,177.1260972727429L841.0563247142859,184.73347433588722L843.0989810000001,155.39536996321246L844.4681527857143,149.4636721502651L845.1564391428572,134.8415587165139L845.8447255000001,187.3480512066321L847.206496357143,130.77670666304508L847.8873817857143,142.87659883499148L848.5682672142858,185.86745045401835L849.2491526428572,211.40268342061478L850.6109235,130.2605897730047L851.299209857143,177.7446714856408L851.9800952857144,205.66048722375524L852.6609807142859,142.8067550334064L853.3418661428572,169.4040468606082L854.7184388571429,128.00656952641228L855.3993242857144,177.5715328075669L856.0802097142858,189.98328092423355L857.4493815000001,136.0963774811138L858.1376678571429,182.2781143676151L860.1803241428572,199.24972916191277L861.5420950000001,216.1733378334479L862.2155795,190.64430480653593L863.577350357143,154.31084015152672L864.2582357857144,189.54575107856232L864.9391212142858,186.79241608489644L865.6274075714286,175.90759973634374L866.3156939285715,125.46430826187137L867.0039802857144,205.7249686392871L867.6922666428572,160.7315467162566L869.7497247857143,161.27360734072604L870.4306102142858,188.82008235562932L871.1188965714286,222.22903444008395L871.7997820000002,187.32479377226397L872.488068357143,164.79621491648936L873.1763547142857,155.11141885410657L873.8498392142858,193.2402410019528L875.233812857143,150.66795170307162L875.9369010714287,160.6628673185002L876.6399892857144,165.78199511224574L877.3282756428572,157.35122111710638L878.0239629285714,124.89054316824135L878.7270511428572,171.68306093324315L880.814113,196.73340141773227L882.2054875714286,217.04614021561363L882.9011748571429,104.68474566936499L883.6042630714287,141.61191328005359L884.299950357143,181.75460249185565L884.9882367142858,172.8924475203861L885.683924,189.29234003478834L886.3722103571429,173.91858350146902L887.0604967142858,237.1336792273955L887.7487830714286,199.63938566771424L888.4444703571429,216.19045661254364L890.5315322142858,166.87324578111824L891.2198185714286,144.1125011444092L893.3142813571429,185.32564518126577L894.0025677142858,148.1610719724135L895.386541357143,137.11817248301074L896.0822286428572,178.95206632939252L896.7779159285715,96.60754187540579L898.1692905000001,146.82121087204328L898.8575768571429,149.24047432162547L899.5532641428573,160.25730750777507L900.9520396428572,133.51777456023478L901.6477269285715,193.66843518885702L902.3434142142858,177.9836602644487L903.7347887857144,156.83140673420647L904.4230751428572,186.74764782190326L905.1261633571429,103.10961371118378L906.5175379285715,172.62048772790217L907.2132252142858,137.99294618043035L907.9089125,178.7693468549035L909.3002870714287,154.39296126365664L909.9959743571429,190.48005236820742L911.3799480000001,158.74370509927925L912.0756352857144,152.25060121579605L912.7713225714286,181.50318319147286L913.4670098571429,173.16863593730062L914.1626971428573,193.92943528565496L914.8583844285715,190.89544832706454L916.2349571428572,148.68513540788132L916.9306444285716,186.35050440376457L919.0029044285716,170.37677347660068L920.3942790000001,176.11893903125417L922.481340857143,144.72342501987112L925.2492881428573,162.93263765898624L928.7351255000001,200.57499435814947L930.8295882857144,220.06363145329738L931.5326765000001,161.56791551546618L932.2283637857144,135.14620352875104L932.9166501428572,195.2241502024911L933.619738357143,179.6239784089002L935.691998357143,198.99659389799294L936.3876856428573,238.72134384783834L937.7716592857143,149.1450544920835L938.4673465714287,162.03363619067454L939.8587211428572,152.5258295102553L940.5470075000001,157.08951624957004L941.2500957142859,170.7287094267932L941.9161792857143,220.4215222055262L943.2779501428572,143.81141082807022L943.9662365000002,93.90212107788437L944.6471219285716,161.31117468530482L945.3354082857144,204.37160454013133L946.0088927857144,192.7750310301781L947.3632627142857,148.85254399342972L948.0515490714287,163.89378152110362L948.7398354285715,214.46454457261348L950.1090072142858,175.0262175364928L951.4855799285715,212.69659142602575L952.1738662857143,101.29255132241684L953.5430380714287,182.6506316661835L955.6226990000001,141.870962489735L957.0140735714286,163.00822176716545L959.7894217857144,164.65564890341327L960.4851090714287,176.43513595516032L961.180796357143,189.48233192617246L961.8764836428572,162.3023070530458L963.9635455000001,109.12759997627955L964.6666337142858,156.57989550720563L965.3623210000001,162.35778987407687L967.449382857143,130.44869206168437L968.1450701428572,149.87272517247635L969.5290437857144,167.56304269487208L970.2247310714287,97.46078431606298L970.9130174285715,173.46208613027227L972.9852774285715,117.75603662837636L973.6809647142859,188.59177749265325L975.7532247142858,103.71555312113333L976.4489120000001,181.45582055503672L977.1445992857143,165.49902455373245L977.8402865714287,184.65961640531367L978.5433747857144,165.8154155449434L979.2390620714287,142.98260043967855L979.934749357143,210.26461146094584L981.333524857143,112.31481839310044L982.0292121428572,126.83268704197624L982.7248994285716,186.94363537159833L983.4205867142858,132.8782512924888L984.1236749285715,166.43054761669853L984.8193622142858,126.64258279583672L985.5150495000001,139.54066357829356L986.2181377142858,165.36897903138942L986.9138250000001,166.70199670574883L989.7039750714287,150.24991030042824L991.7910369285714,205.50317013805565L992.4867242142859,113.43211493708873L993.1824115000002,155.83381907506424L993.8632969285715,116.5598874742335L995.269473357143,146.58941279758108L995.9577597142858,174.6630869670348L996.6386451428572,146.4918071573431L997.2677240714287,186.58442700451073" style="fill: none;" fill="none"></path></g></g></g></g></g></g><g transform="translate(58, 377)" clip-path="url(#clip_1)"><clipPath id="clip_1"><rect width="1036" height="22"></rect></clipPath><g><g><line x1="0" y1="0" x2="0" y2="5" style="visibility: inherit;" fill="rgb(0, 0, 0)" stroke="rgb(204, 204, 204)" stroke-width="1px"></line><line x1="74.00928571428572" y1="0" x2="74.00928571428572" y2="5" style="visibility: inherit;" fill="rgb(0, 0, 0)" stroke="rgb(204, 204, 204)" stroke-width="1px"></line><line x1="148.01857142857145" y1="0" x2="148.01857142857145" y2="5" style="visibility: inherit;" fill="rgb(0, 0, 0)" stroke="rgb(204, 204, 204)" stroke-width="1px"></line><line x1="222.02785714285716" y1="0" x2="222.02785714285716" y2="5" style="visibility: inherit;" fill="rgb(0, 0, 0)" stroke="rgb(204, 204, 204)" stroke-width="1px"></line><line x1="296.0371428571429" y1="0" x2="296.0371428571429" y2="5" style="visibility: inherit;" fill="rgb(0, 0, 0)" stroke="rgb(204, 204, 204)" stroke-width="1px"></line><line x1="370.04642857142863" y1="0" x2="370.04642857142863" y2="5" style="visibility: inherit;" fill="rgb(0, 0, 0)" stroke="rgb(204, 204, 204)" stroke-width="1px"></line><line x1="444.0557142857143" y1="0" x2="444.0557142857143" y2="5" style="visibility: inherit;" fill="rgb(0, 0, 0)" stroke="rgb(204, 204, 204)" stroke-width="1px"></line><line x1="518.065" y1="0" x2="518.065" y2="5" style="visibility: inherit;" fill="rgb(0, 0, 0)" stroke="rgb(204, 204, 204)" stroke-width="1px"></line><line x1="592.0742857142858" y1="0" x2="592.0742857142858" y2="5" style="visibility: inherit;" fill="rgb(0, 0, 0)" stroke="rgb(204, 204, 204)" stroke-width="1px"></line><line x1="666.0835714285715" y1="0" x2="666.0835714285715" y2="5" style="visibility: inherit;" fill="rgb(0, 0, 0)" stroke="rgb(204, 204, 204)" stroke-width="1px"></line><line x1="740.0928571428573" y1="0" x2="740.0928571428573" y2="5" style="visibility: inherit;" fill="rgb(0, 0, 0)" stroke="rgb(204, 204, 204)" stroke-width="1px"></line><line x1="814.1021428571429" y1="0" x2="814.1021428571429" y2="5" style="visibility: inherit;" fill="rgb(0, 0, 0)" stroke="rgb(204, 204, 204)" stroke-width="1px"></line><line x1="888.1114285714286" y1="0" x2="888.1114285714286" y2="5" style="visibility: inherit;" fill="rgb(0, 0, 0)" stroke="rgb(204, 204, 204)" stroke-width="1px"></line><line x1="962.1207142857144" y1="0" x2="962.1207142857144" y2="5" style="visibility: inherit;" fill="rgb(0, 0, 0)" stroke="rgb(204, 204, 204)" stroke-width="1px"></line><line x1="1036.13" y1="0" x2="1036.13" y2="5" style="visibility: inherit;" fill="rgb(0, 0, 0)" stroke="rgb(204, 204, 204)" stroke-width="1px"></line></g><g transform="translate(0, 8)"><text x="0" y="0" dx="0em" dy="0.95em" style="text-anchor: middle; visibility: hidden; font-family: &quot;Helvetica Neue&quot;, sans-serif; font-size: 12px; font-weight: 200;" fill="rgb(50, 49, 63)" stroke="none" stroke-width="1px">-10k</text><text x="74.00928571428572" y="0" dx="0em" dy="0.95em" style="text-anchor: middle; visibility: inherit; font-family: &quot;Helvetica Neue&quot;, sans-serif; font-size: 12px; font-weight: 200;" fill="rgb(50, 49, 63)" stroke="none" stroke-width="1px">0</text><text x="148.01857142857145" y="0" dx="0em" dy="0.95em" style="text-anchor: middle; visibility: inherit; font-family: &quot;Helvetica Neue&quot;, sans-serif; font-size: 12px; font-weight: 200;" fill="rgb(50, 49, 63)" stroke="none" stroke-width="1px">10k</text><text x="222.02785714285716" y="0" dx="0em" dy="0.95em" style="text-anchor: middle; visibility: inherit; font-family: &quot;Helvetica Neue&quot;, sans-serif; font-size: 12px; font-weight: 200;" fill="rgb(50, 49, 63)" stroke="none" stroke-width="1px">20k</text><text x="296.0371428571429" y="0" dx="0em" dy="0.95em" style="text-anchor: middle; visibility: inherit; font-family: &quot;Helvetica Neue&quot;, sans-serif; font-size: 12px; font-weight: 200;" fill="rgb(50, 49, 63)" stroke="none" stroke-width="1px">30k</text><text x="370.04642857142863" y="0" dx="0em" dy="0.95em" style="text-anchor: middle; visibility: inherit; font-family: &quot;Helvetica Neue&quot;, sans-serif; font-size: 12px; font-weight: 200;" fill="rgb(50, 49, 63)" stroke="none" stroke-width="1px">40k</text><text x="444.0557142857143" y="0" dx="0em" dy="0.95em" style="text-anchor: middle; visibility: inherit; font-family: &quot;Helvetica Neue&quot;, sans-serif; font-size: 12px; font-weight: 200;" fill="rgb(50, 49, 63)" stroke="none" stroke-width="1px">50k</text><text x="518.065" y="0" dx="0em" dy="0.95em" style="text-anchor: middle; visibility: inherit; font-family: &quot;Helvetica Neue&quot;, sans-serif; font-size: 12px; font-weight: 200;" fill="rgb(50, 49, 63)" stroke="none" stroke-width="1px">60k</text><text x="592.0742857142858" y="0" dx="0em" dy="0.95em" style="text-anchor: middle; visibility: inherit; font-family: &quot;Helvetica Neue&quot;, sans-serif; font-size: 12px; font-weight: 200;" fill="rgb(50, 49, 63)" stroke="none" stroke-width="1px">70k</text><text x="666.0835714285715" y="0" dx="0em" dy="0.95em" style="text-anchor: middle; visibility: inherit; font-family: &quot;Helvetica Neue&quot;, sans-serif; font-size: 12px; font-weight: 200;" fill="rgb(50, 49, 63)" stroke="none" stroke-width="1px">80k</text><text x="740.0928571428573" y="0" dx="0em" dy="0.95em" style="text-anchor: middle; visibility: inherit; font-family: &quot;Helvetica Neue&quot;, sans-serif; font-size: 12px; font-weight: 200;" fill="rgb(50, 49, 63)" stroke="none" stroke-width="1px">90k</text><text x="814.1021428571429" y="0" dx="0em" dy="0.95em" style="text-anchor: middle; visibility: inherit; font-family: &quot;Helvetica Neue&quot;, sans-serif; font-size: 12px; font-weight: 200;" fill="rgb(50, 49, 63)" stroke="none" stroke-width="1px">100k</text><text x="888.1114285714286" y="0" dx="0em" dy="0.95em" style="text-anchor: middle; visibility: inherit; font-family: &quot;Helvetica Neue&quot;, sans-serif; font-size: 12px; font-weight: 200;" fill="rgb(50, 49, 63)" stroke="none" stroke-width="1px">110k</text><text x="962.1207142857144" y="0" dx="0em" dy="0.95em" style="text-anchor: middle; visibility: inherit; font-family: &quot;Helvetica Neue&quot;, sans-serif; font-size: 12px; font-weight: 200;" fill="rgb(50, 49, 63)" stroke="none" stroke-width="1px">120k</text><text x="1036.13" y="0" dx="0em" dy="0.95em" style="text-anchor: middle; visibility: hidden; font-family: &quot;Helvetica Neue&quot;, sans-serif; font-size: 12px; font-weight: 200;" fill="rgb(50, 49, 63)" stroke="none" stroke-width="1px">130k</text></g><line x1="0" y1="0" x2="1036.13" y2="0" fill="rgb(0, 0, 0)" stroke="rgb(204, 204, 204)" stroke-width="1px"></line></g></g></g></g></svg>