<svg viewBox="0 0 1094.1319580078125 400.0000305175781" xmlns="http://www.w3.org/2000/svg"><g><g><g><g><g><line x1="58" y1="377" x2="53" y2="377" style="visibility: inherit;" fill="rgb(0, 0, 0)" stroke="rgb(204, 204, 204)" stroke-width="1px"></line><line x1="58" y1="335.1111111111111" x2="53" y2="335.1111111111111" style="visibility: inherit;" fill="rgb(0, 0, 0)" stroke="rgb(204, 204, 204)" stroke-width="1px"></line><line x1="58" y1="293.22222222222223" x2="53" y2="293.22222222222223" style="visibility: inherit;" fill="rgb(0, 0, 0)" stroke="rgb(204, 204, 204)" stroke-width="1px"></line><line x1="58" y1="251.33333333333334" x2="53" y2="251.33333333333334" style="visibility: inherit;" fill="rgb(0, 0, 0)" stroke="rgb(204, 204, 204)" stroke-width="1px"></line><line x1="58" y1="209.44444444444446" x2="53" y2="209.44444444444446" style="visibility: inherit;" fill="rgb(0, 0, 0)" stroke="rgb(204, 204, 204)" stroke-width="1px"></line><line x1="58" y1="167.55555555555554" x2="53" y2="167.55555555555554" style="visibility: inherit;" fill="rgb(0, 0, 0)" stroke="rgb(204, 204, 204)" stroke-width="1px"></line><line x1="58" y1="125.66666666666669" x2="53" y2="125.66666666666669" style="visibility: inherit;" fill="rgb(0, 0, 0)" stroke="rgb(204, 204, 204)" stroke-width="1px"></line><line x1="58" y1="83.77777777777777" x2="53" y2="83.77777777777777" style="visibility: inherit;" fill="rgb(0, 0, 0)" stroke="rgb(204, 204, 204)" stroke-width="1px"></line><line x1="58" y1="41.888888888888914" x2="53" y2="41.888888888888914" style="visibility: inherit;" fill="rgb(0, 0, 0)" stroke="rgb(204, 204, 204)" stroke-width="1px"></line><line x1="58" y1="0" x2="53" y2="0" style="visibility: inherit;" fill="rgb(0, 0, 0)" stroke="rgb(204, 204, 204)" stroke-width="1px"></line></g><g transform="translate(48, 0)"><text x="0" y="377" dx="0em" dy="0.3em" style="text-anchor: end; visibility: hidden; font-family: &quot;Helvetica Neue&quot;, sans-serif; font-size: 12px; font-weight: 200;" fill="rgb(50, 49, 63)" stroke="none" stroke-width="1px">1.38</text><text x="0" y="335.1111111111111" dx="0em" dy="0.3em" style="text-anchor: end; visibility: inherit; font-family: &quot;Helvetica Neue&quot;, sans-serif; font-size: 12px; font-weight: 200;" fill="rgb(50, 49, 63)" stroke="none" stroke-width="1px">1.4</text><text x="0" y="293.22222222222223" dx="0em" dy="0.3em" style="text-anchor: end; visibility: inherit; font-family: &quot;Helvetica Neue&quot;, sans-serif; font-size: 12px; font-weight: 200;" fill="rgb(50, 49, 63)" stroke="none" stroke-width="1px">1.42</text><text x="0" y="251.33333333333334" dx="0em" dy="0.3em" style="text-anchor: end; visibility: inherit; font-family: &quot;Helvetica Neue&quot;, sans-serif; font-size: 12px; font-weight: 200;" fill="rgb(50, 49, 63)" stroke="none" stroke-width="1px">1.44</text><text x="0" y="209.44444444444446" dx="0em" dy="0.3em" style="text-anchor: end; visibility: inherit; font-family: &quot;Helvetica Neue&quot;, sans-serif; font-size: 12px; font-weight: 200;" fill="rgb(50, 49, 63)" stroke="none" stroke-width="1px">1.46</text><text x="0" y="167.55555555555554" dx="0em" dy="0.3em" style="text-anchor: end; visibility: inherit; font-family: &quot;Helvetica Neue&quot;, sans-serif; font-size: 12px; font-weight: 200;" fill="rgb(50, 49, 63)" stroke="none" stroke-width="1px">1.48</text><text x="0" y="125.66666666666669" dx="0em" dy="0.3em" style="text-anchor: end; visibility: inherit; font-family: &quot;Helvetica Neue&quot;, sans-serif; font-size: 12px; font-weight: 200;" fill="rgb(50, 49, 63)" stroke="none" stroke-width="1px">1.5</text><text x="0" y="83.77777777777777" dx="0em" dy="0.3em" style="text-anchor: end; visibility: inherit; font-family: &quot;Helvetica Neue&quot;, sans-serif; font-size: 12px; font-weight: 200;" fill="rgb(50, 49, 63)" stroke="none" stroke-width="1px">1.52</text><text x="0" y="41.888888888888914" dx="0em" dy="0.3em" style="text-anchor: end; visibility: inherit; font-family: &quot;Helvetica Neue&quot;, sans-serif; font-size: 12px; font-weight: 200;" fill="rgb(50, 49, 63)" stroke="none" stroke-width="1px">1.54</text><text x="0" y="0" dx="0em" dy="0.3em" style="text-anchor: end; visibility: hidden; font-family: &quot;Helvetica Neue&quot;, sans-serif; font-size: 12px; font-weight: 200;" fill="rgb(50, 49, 63)" stroke="none" stroke-width="1px">1.56</text></g><line x1="58" y1="0" x2="58" y2="377" fill="rgb(0, 0, 0)" stroke="rgb(204, 204, 204)" stroke-width="1px"></line></g></g><g transform="translate(58, 0)" clip-path="url(#clip_0)"><clipPath id="clip_0"><rect width="1036" height="376"></rect></clipPath><g><g><g><line x1="0" y1="0" x2="0" y2="377" fill="rgb(0, 0, 0)" stroke="rgb(60, 60, 60)" stroke-width="1px" opacity="0.25"></line><line x1="129.51625" y1="0" x2="129.51625" y2="377" fill="rgb(0, 0, 0)" stroke="rgb(60, 60, 60)" stroke-width="1px" opacity="0.25"></line><line x1="259.0325" y1="0" x2="259.0325" y2="377" fill="rgb(0, 0, 0)" stroke="rgb(60, 60, 60)" stroke-width="1px" opacity="0.25"></line><line x1="388.54875000000004" y1="0" x2="388.54875000000004" y2="377" fill="rgb(0, 0, 0)" stroke="rgb(60, 60, 60)" stroke-width="1px" opacity="0.25"></line><line x1="518.065" y1="0" x2="518.065" y2="377" fill="rgb(0, 0, 0)" stroke="rgb(60, 60, 60)" stroke-width="1px" opacity="0.25"></line><line x1="647.5812500000001" y1="0" x2="647.5812500000001" y2="377" fill="rgb(0, 0, 0)" stroke="rgb(60, 60, 60)" stroke-width="1px" opacity="0.25"></line><line x1="777.0975000000001" y1="0" x2="777.0975000000001" y2="377" fill="rgb(0, 0, 0)" stroke="rgb(60, 60, 60)" stroke-width="1px" opacity="0.25"></line><line x1="906.6137500000001" y1="0" x2="906.6137500000001" y2="377" fill="rgb(0, 0, 0)" stroke="rgb(60, 60, 60)" stroke-width="1px" opacity="0.25"></line><line x1="1036.13" y1="0" x2="1036.13" y2="377" fill="rgb(0, 0, 0)" stroke="rgb(60, 60, 60)" stroke-width="1px" opacity="0.25"></line></g><g><line x1="0" y1="377" x2="1036.13" y2="377" fill="rgb(0, 0, 0)" stroke="rgb(60, 60, 60)" stroke-width="1px" opacity="0.25"></line><line x1="0" y1="335.1111111111111" x2="1036.13" y2="335.1111111111111" fill="rgb(0, 0, 0)" stroke="rgb(60, 60, 60)" stroke-width="1px" opacity="0.25"></line><line x1="0" y1="293.22222222222223" x2="1036.13" y2="293.22222222222223" fill="rgb(0, 0, 0)" stroke="rgb(60, 60, 60)" stroke-width="1px" opacity="0.25"></line><line x1="0" y1="251.33333333333334" x2="1036.13" y2="251.33333333333334" fill="rgb(0, 0, 0)" stroke="rgb(60, 60, 60)" stroke-width="1px" opacity="0.25"></line><line x1="0" y1="209.44444444444446" x2="1036.13" y2="209.44444444444446" fill="rgb(0, 0, 0)" stroke="rgb(60, 60, 60)" stroke-width="1px" opacity="0.25"></line><line x1="0" y1="167.55555555555554" x2="1036.13" y2="167.55555555555554" fill="rgb(0, 0, 0)" stroke="rgb(60, 60, 60)" stroke-width="1px" opacity="0.25"></line><line x1="0" y1="125.66666666666669" x2="1036.13" y2="125.66666666666669" fill="rgb(0, 0, 0)" stroke="rgb(60, 60, 60)" stroke-width="1px" opacity="0.25"></line><line x1="0" y1="83.77777777777777" x2="1036.13" y2="83.77777777777777" fill="rgb(0, 0, 0)" stroke="rgb(60, 60, 60)" stroke-width="1px" opacity="0.25"></line><line x1="0" y1="41.888888888888914" x2="1036.13" y2="41.888888888888914" fill="rgb(0, 0, 0)" stroke="rgb(60, 60, 60)" stroke-width="1px" opacity="0.25"></line><line x1="0" y1="0" x2="1036.13" y2="0" fill="rgb(0, 0, 0)" stroke="rgb(60, 60, 60)" stroke-width="1px" opacity="0.25"></line></g></g></g><g><g><line x1="0" y1="3267.3333333333303" x2="1036.13" y2="3267.3333333333303" fill="rgb(0, 0, 0)" stroke="rgb(153, 153, 153)" stroke-width="1.5px"></line></g></g><g><g><line x1="129.51625" y1="0" x2="129.51625" y2="377" fill="rgb(0, 0, 0)" stroke="rgb(153, 153, 153)" stroke-width="1.5px"></line></g></g><g><g><g><g><g><path stroke="rgb(255, 112, 67)" stroke-width="2px" d="M132.13247825000002,433.68622989124697L134.72280325000003,232.91265134016618L137.31312825,180.02687307496183L139.90345325,171.25421579639908L142.49377825000002,244.52446419726303L145.08410325000003,253.90655273348506L147.67442825000003,211.07992852478841L150.26475325,208.71666723112088L152.85507825,180.9640551954477L155.44540325,173.60345692365738L158.03572825,152.8377628113192L160.62605325,130.79212288460508L163.21637825000002,123.36647848519283L165.80670325000003,99.52235782782395L168.39702825000003,113.51110249939063L170.98735325,114.49791678601707L173.57767825000002,126.64025317975305L176.16800325000003,123.03271186897106L178.75832825000003,158.0819849894883L181.34865325,146.94808148642431L183.93897825000002,135.49726241188708L186.52930325,185.6377833336917L189.11962825,210.91235264395127L191.70995325,206.6530842042187L194.30027825000002,208.10017311385332L196.89060325000003,202.74725550466206L199.48092825000003,214.29314823529415L202.07125325,230.8673117271035L204.66157825000002,231.0685950716149L207.25190325000003,211.2326592872805L209.84222825000003,177.6151706186948L212.43255325000004,164.51014707874447L215.02287825000002,168.11241263631638L217.61320325,145.99096233138687L220.20352825,138.02153671287147L222.79385325,124.46272784693736L225.38417825000002,124.47770655960028L227.97450325000003,141.60346644938738L230.56482825000003,138.59109990745975L233.15515325000004,129.8346631943367L235.74547825000002,114.6498392392109L238.33580325000003,100.3613381298511L240.92612825000003,104.14036947471499L243.51645325000004,98.68237516907595L246.10677825000002,89.63963499150691L248.69710325000003,98.72323432180212L251.28742825,80.81049588687188L253.87775325,79.85998775579566L256.46807825,84.09606950696906L259.05840325,69.7382650234789L261.64872825000003,68.65924074600531L264.23905325000004,56.82718492421992L266.82937825000005,57.238741991163806L269.41970325000005,73.98025316234691L272.01002825000006,73.74824516251738L274.60035325,72.25958484707576L277.19067825,71.76826913402107L279.78100325,70.57404243761317L282.37132825000003,91.66861050548039L284.96165325000004,90.41942797965288L287.55197825000005,82.02300387607562L290.14230325000005,66.28388328411779L292.73262825000006,78.30656094784729L295.32295325,69.63380435765822L297.91327825,82.65768708185993L300.50360325,75.50836071475976L303.09392825000003,66.80816661645451L305.68425325000004,74.74534130491503L308.27457825,72.50549801957538L310.86490325,68.81412669218065L313.45522825,65.44659404077026L316.04555325,90.31081967689016L318.63587825,88.23552353000423L321.22620325,84.43375083429464L323.81652825000003,79.27730431663076L326.40685325000004,75.10023669306668L328.99717825000005,79.2710644583824L331.58750325000005,84.91779646362363L334.17782825000006,80.28849993399075L336.76815325000007,78.15738631106848L339.35847825,83.96256062677008L341.94880325,101.51188136711022L344.53912825000003,90.49033366187956L347.12945325000004,81.37024612353946L349.71977825000005,80.39158484945068L352.31010325000005,90.69311188226561L354.90042825000006,98.09285248855156L357.49075325000007,98.9440360293487L360.08107825,103.29657969230601L362.67140325,101.15994399136133L365.26172825000003,78.38774366651114L367.85205325000004,79.24694973579182L370.44237825000005,64.24393469039649L373.03270325,75.45399712820654L375.62302825,82.88042916834218L378.21335325,84.28403413946L380.80367825,78.8637927332789L383.39400325,123.95685049450032L385.98432825000003,177.49135532445416L388.57465325000004,207.05576282752895L391.16497825000005,221.10118168070565L393.75530325000005,228.44882863181928L396.34562825000006,216.29322985858587L398.93595325000007,233.89678555359956L401.5262782500001,173.41256287539966L404.11660325,159.33551318486863L406.70692825000003,221.82598122448564L409.29725325000004,250.24139858644352L411.88757825000005,267.4346628323197L414.47790325000005,205.40874005168675L417.06822825000006,176.37610805782333L421.80852300000004,312.1787535738771L424.39884800000004,411.50497255541455L429.57949800000006,383.7253205290201L432.16982300000006,370.62305641967L434.760148,329.61434859645493L437.350473,323.5862087087561L439.94079800000003,301.7929219953922L442.53112300000004,291.02077174302195L445.12144800000004,276.79172064002785L447.71177300000005,272.057773093533L450.30209800000006,253.0782681452805L452.892423,254.84915464539097L455.482748,245.23009498170265L458.073073,241.9879894370905L460.66339800000003,235.81139608645162L463.25372300000004,258.2113920740371L465.84404800000004,240.2882338247614L468.43437300000005,231.76425618951342L471.02469800000006,262.032029954078L473.61502300000006,272.34443990305635L476.2053480000001,316.8929952351514L478.7956730000001,306.85805453270285L481.3859980000001,290.31159675431655L483.9763230000001,304.950963226167L486.56664800000004,299.2406199206821L489.15697300000005,299.14131314800284L491.74729800000006,285.0718401175175L494.33762300000006,273.5433467170453L497.36830325000005,370.7766121617137L499.95862825000006,427.1575039778855L502.54895325,449.6802544182692L505.13927825,358.64026452882666L507.72960325,268.7638425403514L510.31992825000003,237.2788792885878L512.9102532500001,210.88879567211117L515.5005782500001,189.03472777235947L518.0909032500001,198.0979198801889L520.68122825,187.03047215736817L523.27155325,178.88315147967606L525.86187825,165.65753686779294L528.45220325,190.17861061571816L531.04252825,188.18545099331877L533.63285325,176.01554167939898L536.22317825,170.01771022085575L538.81350325,167.8878125792333L541.4038282500001,166.62425540295095L543.9941532500001,178.7051237064347L546.5844782500001,174.52961290107655L549.1748032500001,171.17939865724148L551.7651282500001,179.97989486934284L554.35545325,164.9381635358163L556.9457782500001,129.90944053287015L559.53610325,111.29320288631163L562.1264282500001,124.43992562320187L564.71675325,131.99319202968633L567.3070782500001,124.07384807362988L569.89740325,112.05124115576615L572.4877282500001,110.87427330326517L575.07805325,120.28870934566089L577.6683782500002,114.00609491459636L580.25870325,107.23710370575645L582.8490282500001,105.76086706362662L585.4393532500001,111.3967943072202L588.02967825,104.1833471544511L590.6200032500001,128.12033971144982L593.21032825,109.04236442774385L595.8006532500001,114.61727476541739L598.39097825,124.88676938204017L600.9813032500001,115.30032428045536L603.57162825,117.07502738068837L606.1619532500001,104.84034194076901L608.75227825,94.15275715836128L611.3426032500001,100.02452595461352L613.93292825,107.69432660928061L616.52325325,96.42442496413395L619.11357825,117.63452362361869L621.70390325,124.09428346560381L624.2942282500001,121.31434353169757L626.8845532500001,123.70922739756926L629.4748782500001,130.4905488511428L632.0652032500001,118.84485634290189L634.6555282500001,123.97547546566037L637.2458532500001,129.30224036896524L639.8361782500001,133.34330694246174L642.4265032500001,150.21367243350275L645.0168282500001,175.17291143654882L650.19747825,162.20218188237607L652.78780325,301.63922879698754L655.37812825,250.81950607990285L657.96845325,200.5797012857963L660.55877825,156.48355494811364L663.14910325,122.08443329193068L665.7394282500001,112.3612484621479L668.3297532500001,105.74684653008825L670.9200782500001,109.83608868646866L673.5104032500001,125.62898976693828L676.1007282500001,113.3073086419455L678.6910532500001,98.09770473048917L681.2813782500001,109.92555497610027L683.87170325,112.20669037150714L686.4620282500001,125.25806901085795L689.05235325,117.24677581194771L691.6426782500001,114.07149081192654L694.23300325,116.43699896789906L696.8233282500001,110.06207970520944L699.41365325,129.01937680355073L702.0039782500002,111.16743686212601L704.59430325,108.38002960266073L707.1846282500002,103.16656284029824L709.7749532500001,95.6457613948051L712.3652782500001,94.83689274912166L714.9556032500001,79.10048712804968L717.54592825,89.03609390367143L720.1362532500001,101.75082767127714L722.72657825,88.69520739785054L725.3169032500001,74.28004372692175L727.90722825,89.6214322521846L730.4975532500001,77.498736148881L733.08787825,67.40616264159587L735.6782032500001,53.74894546398605L738.26852825,44.9318202643675L740.8588532500002,37.592793631432585L743.44917825,59.67354072404589L746.03950325,63.230517455905556L748.6298282500001,75.90547709867218L751.2201532500001,92.35342129524787L753.8104782500001,110.40990329060685L756.4008032500001,114.20559099678428L758.9911282500001,106.11500666292409L761.5814532500001,110.49172276640394L764.1717782500001,120.27250325246655L766.7621032500001,116.89732110770245L769.3524282500001,114.0971138149136L771.9427532500001,137.4918743307508L774.5330782500001,129.05678085099382L777.1234032500001,127.12218309011476L779.71372825,120.45923728750643L782.30405325,122.17488389217752L784.89437825,123.42318885394917L787.48470325,128.21914018513175L790.0750282500001,131.51207403069932L792.6653532500001,111.83592445687196L795.2556782500001,99.05090072904824L797.8460032500001,85.73178797059137L801.9646200000001,240.28269656885703L804.5549450000001,195.7637685269129L807.1452700000001,163.38703551537492L809.7355950000001,170.7943074251681L812.3259200000001,174.35301548579812L814.9162450000001,163.4137421456012L817.5065700000001,148.3807268729692L820.096895,159.05126336758633L822.6872200000001,173.02190145910274L825.277545,179.67112482491115L827.8678700000002,179.2258918100773L830.458195,192.56975661865587L833.0485200000002,191.3548960184821L835.6388450000001,180.13484188889075L838.2291700000002,171.50865804140523L840.8194950000001,165.26253149434098L843.4098200000001,163.6153402021975L846.0001450000001,166.12999702309935L848.59047,153.22322657859206L851.1807950000001,158.91909008847537L853.77112,148.95610559956347L856.3614450000001,159.62389662847596L858.95177,161.98459385426276L861.5420950000001,143.0292474238894L864.13242,137.3022405404471L866.7227450000001,150.51231722889733L869.31307,158.38443295937446L871.9033950000002,155.60849686134895L874.49372,128.64294131664545L877.0840450000002,127.49577542451536L879.6743700000001,153.34407118079864L882.2646950000001,137.4746125460072L884.8550200000001,135.5689918470623L887.4453450000001,141.41158844133355L890.0356700000001,137.80803657233787L892.6259950000001,148.52265925800833L895.2163200000001,144.3348572574483L897.8066450000001,147.11073936158965L900.3969700000001,132.3620877624956L902.9872950000001,139.51051616703572L905.5776200000001,187.29164960670195L908.167945,233.41166976305462L910.7582700000002,265.3235009067015L913.348595,220.47762536456023L915.93892,181.84415854020133L918.5292450000001,168.25847546062795L921.1195700000001,147.09149126358636L923.7098950000001,200.7802775842155L926.3002200000001,258.5983492300234L928.8905450000001,319.87861921183173" style="fill: none;" fill="none"></path></g></g></g></g><g opacity="0.2"><g><g><g><path stroke="rgb(255, 112, 67)" stroke-width="2px" d="M132.13247825000002,433.68622989124697L134.72280325000003,112.44850420951843L137.31312825,129.25652594036524L139.90345325,160.9375708368089L142.49377825000002,340.1861005094314L145.08410325000003,266.8853587309518L147.67442825000003,149.83717068036395L150.26475325,205.27100957764512L152.85507825,140.0343431101905L155.44540325,162.67382632361515L158.03572825,121.8775649600559L160.62605325,97.8436343934801L163.21637825000002,112.25225790341699L165.80670325000003,63.8028899563684L168.39702825000003,134.47777626249524L170.98735325,115.97744223806592L173.57767825000002,144.8486195405324L176.16800325000003,117.62231585714551L178.75832825000003,210.65055526627427L181.34865325,130.24824391471014L183.93897825000002,118.32166179021198L186.52930325,260.84691482120076L189.11962825,248.82370760705723L191.70995325,200.26423199971512L194.30027825000002,210.27079619301682L196.89060325000003,194.71790191862314L199.48092825000003,231.61195778846732L202.07125325,255.72853151957185L204.66157825000002,231.37051990297095L207.25190325000003,181.47876657379993L209.84222825000003,127.1889487637414L212.43255325000004,144.85261437628003L215.02287825000002,173.51581054263642L217.61320325,112.80878845850629L220.20352825,126.06739862759906L222.79385325,104.12451489766443L225.38417825000002,124.50017462836371L227.97450325000003,167.29210612508982L230.56482825000003,134.07255011134674L233.15515325000004,116.7000081539154L235.74547825000002,91.87260333697003L238.33580325000003,78.92858648300177L240.92612825000003,109.80891648928326L243.51645325000004,90.49538371298053L246.10677825000002,76.07552472750353L248.69710325000003,112.34863331582812L251.28742825,53.94138823615191L253.87775325,78.43422555923468L256.46807825,90.45019213358563L259.05840325,48.201558298534906L261.64872825000003,67.04070432980865L264.23905325000004,39.07910119162676L266.82937825000005,57.85607759157824L269.41970325000005,99.09251991907757L272.01002825000006,73.40023316277404L274.60035325,70.02659437391497L277.19067825,71.03129556443963L279.78100325,68.78270239300207L282.37132825000003,123.31046260727777L284.96165325000004,88.54565419091125L287.55197825000005,69.42836772070996L290.14230325000005,42.675202396180964L292.73262825000006,96.3405774434408L295.32295325,56.62466947237658L297.91327825,102.19351116816205L300.50360325,64.78437116411004L303.09392825000003,53.757875468995906L305.68425325000004,86.65110333760583L308.27457825,69.14573309156634L310.86490325,63.27706970108886L313.45522825,60.39529506365466L316.04555325,127.60715813106958L318.63587825,85.12257930967547L321.22620325,78.73109179072918L323.81652825000003,71.54263454013409L326.40685325000004,68.834635257721L328.99717825000005,85.52730610635552L331.58750325000005,93.38789447148645L334.17782825000006,73.34455513954168L336.76815325000007,74.9607158766853L339.35847825,92.67032210032147L341.94880325,127.83586247762042L344.53912825000003,73.95801210403448L347.12945325000004,67.69011481602996L349.71977825000005,78.92359293831726L352.31010325000005,106.14540243148804L354.90042825000006,109.19246339797974L357.49075325000007,100.220811340544L360.08107825,109.82539518674218L362.67140325,97.95499043994482L365.26172825000003,44.229443179236625L367.85205325000004,80.53575883971325L370.44237825000005,41.73941212230267L373.03270325,92.26909078492065L375.62302825,94.0200772285462L378.21335325,86.3894415961372L380.80367825,70.73343062400824L383.39400325,191.59643713633216L385.98432825000003,257.793112569385L388.57465325000004,251.40237408214136L391.16497825000005,242.16930996047114L393.75530325000005,239.4702990584902L396.34562825000006,198.0598316987355L398.93595325000007,260.30211909612007L401.5262782500001,82.6862288581001L404.11660325,138.2199386490716L406.70692825000003,315.56168328391163L409.29725325000004,292.8645246293808L411.88757825000005,293.2245592011344L414.47790325000005,112.3698558807373L417.06822825000006,132.82716006702844L421.80852300000004,515.8827218479577L426.98917300000005,494.48962738778823L429.57949800000006,292.26504959000465L432.16982300000006,350.9696602556439L434.760148,268.1012868616315L437.350473,314.5439988772073L439.94079800000003,269.1029919253454L442.53112300000004,274.8625463644662L445.12144800000004,255.44814398553626L447.71177300000005,264.9568517737917L450.30209800000006,224.60901072290198L452.892423,257.5054843955569L455.482748,230.80150548617036L458.073073,237.12483112017304L460.66339800000003,226.5465060604942L463.25372300000004,291.8113860554164L465.84404800000004,213.40349645084797L468.43437300000005,218.9782897366417L471.02469800000006,307.4336906009249L473.61502300000006,287.81305482652436L476.2053480000001,383.7158282332948L478.7956730000001,291.8056434790292L481.3859980000001,265.4919100867376L483.9763230000001,326.9100129339428L486.56664800000004,290.6751049624547L489.15697300000005,298.9923529889847L491.74729800000006,263.9676305717891L494.33762300000006,256.25060661633796L497.36830325000005,516.6265103287163L502.54895325,483.46438007884524L505.13927825,222.08027969466306L507.72960325,133.94920955763922L510.31992825000003,190.05143441094287L512.9102532500001,171.3036702473958L515.5005782500001,156.25362592273285L518.0909032500001,211.69270804193278L520.68122825,170.42930057313703L523.27155325,166.66217046313812L525.86187825,145.81911494996808L528.45220325,226.9602212376064L531.04252825,185.19571155971946L533.63285325,157.76067770851978L536.22317825,161.02096303304035L538.81350325,164.6929661167992L541.4038282500001,164.7289196385277L543.9941532500001,196.82642616166004L546.5844782500001,168.2663466930389L549.1748032500001,166.15407729148862L551.7651282500001,193.18063918749485L554.35545325,142.37556653552582L556.9457782500001,77.36635602845092L559.53610325,83.36884641647345L562.1264282500001,144.16000972853766L564.71675325,143.32309163941278L567.3070782500001,112.19483213954504L569.89740325,94.01733077896972L572.4877282500001,109.1088215245141L575.07805325,134.41036340925427L577.6683782500002,104.5821732680003L580.25870325,97.08361689249676L582.8490282500001,103.5465121004317L585.4393532500001,119.85068517261084L588.02967825,93.3631764252981L590.6200032500001,164.02582854694788L593.21032825,80.42540150218548L595.8006532500001,122.97964027192859L598.39097825,140.2910113069746L600.9813032500001,100.92065662807892L603.57162825,119.73708203103809L606.1619532500001,86.48831378089062L608.75227825,78.12137998474975L611.3426032500001,108.83217914899194L613.93292825,119.19902759128149L616.52325325,79.51957249641424L619.11357825,149.44967161284552L621.70390325,133.78392322858173L624.2942282500001,117.14443363083734L626.8845532500001,127.3015531963772L629.4748782500001,140.66253103150262L632.0652032500001,101.37631758054101L634.6555282500001,131.67140414979724L637.2458532500001,137.29238772392273L639.8361782500001,139.40490680270722L642.4265032500001,175.51922067006424L645.0168282500001,212.61176994111796L650.19747825,142.74608755111694L652.78780325,510.79479916890426L655.37812825,174.58992200427582L657.96845325,125.21999409463672L660.55877825,90.33933544158941L663.14910325,70.48575080765625L665.7394282500001,97.77647121747339L668.3297532500001,95.82524363199872L670.9200782500001,115.96995192103918L673.5104032500001,149.3183413876427L676.1007282500001,94.82478695445593L678.6910532500001,75.28329886330505L681.2813782500001,127.667330344518L683.87170325,115.62839346461828L686.4620282500001,144.83513696988422L689.05235325,105.22983601358203L691.6426782500001,109.30856331189477L694.23300325,119.98526120185852L696.8233282500001,100.4997008111742L699.41365325,157.45532245106165L702.0039782500002,84.38952694998852L704.59430325,104.19891871346368L707.1846282500002,95.34636269675366L709.7749532500001,84.36455922656592L712.3652782500001,93.62358978059558L714.9556032500001,55.49587869644171L717.54592825,103.93950406710309L720.1362532500001,120.8229283226861L722.72657825,69.11177698771166L725.3169032500001,52.65729822052856L727.90722825,112.63351504007977L730.4975532500001,59.31469199392541L733.08787825,52.2673023806679L735.6782032500001,33.26311969757086L738.26852825,31.706132464938776L740.8588532500002,26.584253682030635L743.44917825,92.79466136296594L746.03950325,68.56598255369403L748.6298282500001,94.91791656282214L751.2201532500001,117.02533759011163L753.8104782500001,137.49462628364563L756.4008032500001,119.8991225560506L758.9911282500001,93.97913016213317L761.5814532500001,117.05679692162408L764.1717782500001,134.9436739815606L766.7621032500001,111.83454789055719L769.3524282500001,109.89680287573077L771.9427532500001,172.5840151045057L774.5330782500001,116.40414063135785L777.1234032500001,124.22028644879657L779.71372825,110.46481858359442L782.30405325,124.74835379918414L784.89437825,125.29564629660712L787.48470325,135.4130671819051L790.0750282500001,136.45147479905023L792.6653532500001,82.32170009613043L795.2556782500001,79.87336513731219L797.8460032500001,65.75311883290618L801.9646200000001,472.10905946625576L804.5549450000001,128.98537646399603L807.1452700000001,114.82193599806891L809.7355950000001,181.9052152898576L812.3259200000001,179.6910775767432L814.9162450000001,147.00483213530646L817.5065700000001,125.83120396402148L820.096895,175.0570681095123L822.6872200000001,193.97785859637784L825.277545,189.64495987362326L827.8678700000002,178.5580422878265L830.458195,212.58555383152424L833.0485200000002,189.53260511822165L835.6388450000001,163.30476069450376L838.2291700000002,158.5693822701772L840.8194950000001,155.893341673745L843.4098200000001,161.14455326398212L846.0001450000001,169.90198225445215L848.59047,133.8630709118313L851.1807950000001,167.46288535330027L853.77112,134.01162886619568L856.3614450000001,175.62558317184445L858.95177,165.52563969294226L861.5420950000001,114.5962277783288L864.13242,128.71173021528455L866.7227450000001,170.3274322615729L869.31307,170.19260655509098L871.9033950000002,151.44459271430966L874.49372,88.19460799958978L877.0840450000002,125.77502658632068L879.6743700000001,192.1165148152245L882.2646950000001,113.67042459381952L884.8550200000001,132.71056079864502L887.4453450000001,150.17548333273993L890.0356700000001,132.4027087688446L892.6259950000001,164.59459328651425L895.2163200000001,138.05315425660876L897.8066450000001,151.27456251780188L900.3969700000001,110.23911036385431L902.9872950000001,150.23315877384607L905.5776200000001,258.9633497662013L908.167945,302.5916999975839L910.7582700000002,313.1912476221719L913.348595,153.20881205134918L915.93892,123.89395830366345L918.5292450000001,147.87995084126788L921.1195700000001,115.34101496802435L923.7098950000001,281.3134570651583L926.3002200000001,345.32545669873537L928.8905450000001,411.79902418454463" style="fill: none;" fill="none"></path></g></g></g></g></g></g><g transform="translate(58, 377)" clip-path="url(#clip_1)"><clipPath id="clip_1"><rect width="1036" height="22"></rect></clipPath><g><g><line x1="0" y1="0" x2="0" y2="5" style="visibility: inherit;" fill="rgb(0, 0, 0)" stroke="rgb(204, 204, 204)" stroke-width="1px"></line><line x1="129.51625" y1="0" x2="129.51625" y2="5" style="visibility: inherit;" fill="rgb(0, 0, 0)" stroke="rgb(204, 204, 204)" stroke-width="1px"></line><line x1="259.0325" y1="0" x2="259.0325" y2="5" style="visibility: inherit;" fill="rgb(0, 0, 0)" stroke="rgb(204, 204, 204)" stroke-width="1px"></line><line x1="388.54875000000004" y1="0" x2="388.54875000000004" y2="5" style="visibility: inherit;" fill="rgb(0, 0, 0)" stroke="rgb(204, 204, 204)" stroke-width="1px"></line><line x1="518.065" y1="0" x2="518.065" y2="5" style="visibility: inherit;" fill="rgb(0, 0, 0)" stroke="rgb(204, 204, 204)" stroke-width="1px"></line><line x1="647.5812500000001" y1="0" x2="647.5812500000001" y2="5" style="visibility: inherit;" fill="rgb(0, 0, 0)" stroke="rgb(204, 204, 204)" stroke-width="1px"></line><line x1="777.0975000000001" y1="0" x2="777.0975000000001" y2="5" style="visibility: inherit;" fill="rgb(0, 0, 0)" stroke="rgb(204, 204, 204)" stroke-width="1px"></line><line x1="906.6137500000001" y1="0" x2="906.6137500000001" y2="5" style="visibility: inherit;" fill="rgb(0, 0, 0)" stroke="rgb(204, 204, 204)" stroke-width="1px"></line><line x1="1036.13" y1="0" x2="1036.13" y2="5" style="visibility: inherit;" fill="rgb(0, 0, 0)" stroke="rgb(204, 204, 204)" stroke-width="1px"></line></g><g transform="translate(0, 8)"><text x="0" y="0" dx="0em" dy="0.95em" style="text-anchor: middle; visibility: hidden; font-family: &quot;Helvetica Neue&quot;, sans-serif; font-size: 12px; font-weight: 200;" fill="rgb(50, 49, 63)" stroke="none" stroke-width="1px">-5k</text><text x="129.51625" y="0" dx="0em" dy="0.95em" style="text-anchor: middle; visibility: inherit; font-family: &quot;Helvetica Neue&quot;, sans-serif; font-size: 12px; font-weight: 200;" fill="rgb(50, 49, 63)" stroke="none" stroke-width="1px">0</text><text x="259.0325" y="0" dx="0em" dy="0.95em" style="text-anchor: middle; visibility: inherit; font-family: &quot;Helvetica Neue&quot;, sans-serif; font-size: 12px; font-weight: 200;" fill="rgb(50, 49, 63)" stroke="none" stroke-width="1px">5k</text><text x="388.54875000000004" y="0" dx="0em" dy="0.95em" style="text-anchor: middle; visibility: inherit; font-family: &quot;Helvetica Neue&quot;, sans-serif; font-size: 12px; font-weight: 200;" fill="rgb(50, 49, 63)" stroke="none" stroke-width="1px">10k</text><text x="518.065" y="0" dx="0em" dy="0.95em" style="text-anchor: middle; visibility: inherit; font-family: &quot;Helvetica Neue&quot;, sans-serif; font-size: 12px; font-weight: 200;" fill="rgb(50, 49, 63)" stroke="none" stroke-width="1px">15k</text><text x="647.5812500000001" y="0" dx="0em" dy="0.95em" style="text-anchor: middle; visibility: inherit; font-family: &quot;Helvetica Neue&quot;, sans-serif; font-size: 12px; font-weight: 200;" fill="rgb(50, 49, 63)" stroke="none" stroke-width="1px">20k</text><text x="777.0975000000001" y="0" dx="0em" dy="0.95em" style="text-anchor: middle; visibility: inherit; font-family: &quot;Helvetica Neue&quot;, sans-serif; font-size: 12px; font-weight: 200;" fill="rgb(50, 49, 63)" stroke="none" stroke-width="1px">25k</text><text x="906.6137500000001" y="0" dx="0em" dy="0.95em" style="text-anchor: middle; visibility: inherit; font-family: &quot;Helvetica Neue&quot;, sans-serif; font-size: 12px; font-weight: 200;" fill="rgb(50, 49, 63)" stroke="none" stroke-width="1px">30k</text><text x="1036.13" y="0" dx="0em" dy="0.95em" style="text-anchor: middle; visibility: hidden; font-family: &quot;Helvetica Neue&quot;, sans-serif; font-size: 12px; font-weight: 200;" fill="rgb(50, 49, 63)" stroke="none" stroke-width="1px">35k</text></g><line x1="0" y1="0" x2="1036.13" y2="0" fill="rgb(0, 0, 0)" stroke="rgb(204, 204, 204)" stroke-width="1px"></line></g></g></g></g></svg>