<svg viewBox="0 0 1094.1319580078125 400.0000305175781" xmlns="http://www.w3.org/2000/svg"><g><g><g><g><g><line x1="58" y1="377" x2="53" y2="377" style="visibility: inherit;" fill="rgb(0, 0, 0)" stroke="rgb(204, 204, 204)" stroke-width="1px"></line><line x1="58" y1="339.3" x2="53" y2="339.3" style="visibility: inherit;" fill="rgb(0, 0, 0)" stroke="rgb(204, 204, 204)" stroke-width="1px"></line><line x1="58" y1="301.6" x2="53" y2="301.6" style="visibility: inherit;" fill="rgb(0, 0, 0)" stroke="rgb(204, 204, 204)" stroke-width="1px"></line><line x1="58" y1="263.9" x2="53" y2="263.9" style="visibility: inherit;" fill="rgb(0, 0, 0)" stroke="rgb(204, 204, 204)" stroke-width="1px"></line><line x1="58" y1="226.2" x2="53" y2="226.2" style="visibility: inherit;" fill="rgb(0, 0, 0)" stroke="rgb(204, 204, 204)" stroke-width="1px"></line><line x1="58" y1="188.5" x2="53" y2="188.5" style="visibility: inherit;" fill="rgb(0, 0, 0)" stroke="rgb(204, 204, 204)" stroke-width="1px"></line><line x1="58" y1="150.8" x2="53" y2="150.8" style="visibility: inherit;" fill="rgb(0, 0, 0)" stroke="rgb(204, 204, 204)" stroke-width="1px"></line><line x1="58" y1="113.10000000000002" x2="53" y2="113.10000000000002" style="visibility: inherit;" fill="rgb(0, 0, 0)" stroke="rgb(204, 204, 204)" stroke-width="1px"></line><line x1="58" y1="75.40000000000003" x2="53" y2="75.40000000000003" style="visibility: inherit;" fill="rgb(0, 0, 0)" stroke="rgb(204, 204, 204)" stroke-width="1px"></line><line x1="58" y1="37.69999999999999" x2="53" y2="37.69999999999999" style="visibility: inherit;" fill="rgb(0, 0, 0)" stroke="rgb(204, 204, 204)" stroke-width="1px"></line><line x1="58" y1="0" x2="53" y2="0" style="visibility: inherit;" fill="rgb(0, 0, 0)" stroke="rgb(204, 204, 204)" stroke-width="1px"></line></g><g transform="translate(48, 0)"><text x="0" y="377" dx="0em" dy="0.3em" style="text-anchor: end; visibility: hidden; font-family: &quot;Helvetica Neue&quot;, sans-serif; font-size: 12px; font-weight: 200;" fill="rgb(50, 49, 63)" stroke="none" stroke-width="1px">-0.2</text><text x="0" y="339.3" dx="0em" dy="0.3em" style="text-anchor: end; visibility: inherit; font-family: &quot;Helvetica Neue&quot;, sans-serif; font-size: 12px; font-weight: 200;" fill="rgb(50, 49, 63)" stroke="none" stroke-width="1px">0</text><text x="0" y="301.6" dx="0em" dy="0.3em" style="text-anchor: end; visibility: inherit; font-family: &quot;Helvetica Neue&quot;, sans-serif; font-size: 12px; font-weight: 200;" fill="rgb(50, 49, 63)" stroke="none" stroke-width="1px">0.2</text><text x="0" y="263.9" dx="0em" dy="0.3em" style="text-anchor: end; visibility: inherit; font-family: &quot;Helvetica Neue&quot;, sans-serif; font-size: 12px; font-weight: 200;" fill="rgb(50, 49, 63)" stroke="none" stroke-width="1px">0.4</text><text x="0" y="226.2" dx="0em" dy="0.3em" style="text-anchor: end; visibility: inherit; font-family: &quot;Helvetica Neue&quot;, sans-serif; font-size: 12px; font-weight: 200;" fill="rgb(50, 49, 63)" stroke="none" stroke-width="1px">0.6</text><text x="0" y="188.5" dx="0em" dy="0.3em" style="text-anchor: end; visibility: inherit; font-family: &quot;Helvetica Neue&quot;, sans-serif; font-size: 12px; font-weight: 200;" fill="rgb(50, 49, 63)" stroke="none" stroke-width="1px">0.8</text><text x="0" y="150.8" dx="0em" dy="0.3em" style="text-anchor: end; visibility: inherit; font-family: &quot;Helvetica Neue&quot;, sans-serif; font-size: 12px; font-weight: 200;" fill="rgb(50, 49, 63)" stroke="none" stroke-width="1px">1</text><text x="0" y="113.10000000000002" dx="0em" dy="0.3em" style="text-anchor: end; visibility: inherit; font-family: &quot;Helvetica Neue&quot;, sans-serif; font-size: 12px; font-weight: 200;" fill="rgb(50, 49, 63)" stroke="none" stroke-width="1px">1.2</text><text x="0" y="75.40000000000003" dx="0em" dy="0.3em" style="text-anchor: end; visibility: inherit; font-family: &quot;Helvetica Neue&quot;, sans-serif; font-size: 12px; font-weight: 200;" fill="rgb(50, 49, 63)" stroke="none" stroke-width="1px">1.4</text><text x="0" y="37.69999999999999" dx="0em" dy="0.3em" style="text-anchor: end; visibility: inherit; font-family: &quot;Helvetica Neue&quot;, sans-serif; font-size: 12px; font-weight: 200;" fill="rgb(50, 49, 63)" stroke="none" stroke-width="1px">1.6</text><text x="0" y="0" dx="0em" dy="0.3em" style="text-anchor: end; visibility: hidden; font-family: &quot;Helvetica Neue&quot;, sans-serif; font-size: 12px; font-weight: 200;" fill="rgb(50, 49, 63)" stroke="none" stroke-width="1px">1.8</text></g><line x1="58" y1="0" x2="58" y2="377" fill="rgb(0, 0, 0)" stroke="rgb(204, 204, 204)" stroke-width="1px"></line></g></g><g transform="translate(58, 0)" clip-path="url(#clip_0)"><clipPath id="clip_0"><rect width="1036" height="376"></rect></clipPath><g><g><g><line x1="0" y1="0" x2="0" y2="377" fill="rgb(0, 0, 0)" stroke="rgb(60, 60, 60)" stroke-width="1px" opacity="0.25"></line><line x1="74.00928571428572" y1="0" x2="74.00928571428572" y2="377" fill="rgb(0, 0, 0)" stroke="rgb(60, 60, 60)" stroke-width="1px" opacity="0.25"></line><line x1="148.01857142857145" y1="0" x2="148.01857142857145" y2="377" fill="rgb(0, 0, 0)" stroke="rgb(60, 60, 60)" stroke-width="1px" opacity="0.25"></line><line x1="222.02785714285716" y1="0" x2="222.02785714285716" y2="377" fill="rgb(0, 0, 0)" stroke="rgb(60, 60, 60)" stroke-width="1px" opacity="0.25"></line><line x1="296.0371428571429" y1="0" x2="296.0371428571429" y2="377" fill="rgb(0, 0, 0)" stroke="rgb(60, 60, 60)" stroke-width="1px" opacity="0.25"></line><line x1="370.04642857142863" y1="0" x2="370.04642857142863" y2="377" fill="rgb(0, 0, 0)" stroke="rgb(60, 60, 60)" stroke-width="1px" opacity="0.25"></line><line x1="444.0557142857143" y1="0" x2="444.0557142857143" y2="377" fill="rgb(0, 0, 0)" stroke="rgb(60, 60, 60)" stroke-width="1px" opacity="0.25"></line><line x1="518.065" y1="0" x2="518.065" y2="377" fill="rgb(0, 0, 0)" stroke="rgb(60, 60, 60)" stroke-width="1px" opacity="0.25"></line><line x1="592.0742857142858" y1="0" x2="592.0742857142858" y2="377" fill="rgb(0, 0, 0)" stroke="rgb(60, 60, 60)" stroke-width="1px" opacity="0.25"></line><line x1="666.0835714285715" y1="0" x2="666.0835714285715" y2="377" fill="rgb(0, 0, 0)" stroke="rgb(60, 60, 60)" stroke-width="1px" opacity="0.25"></line><line x1="740.0928571428573" y1="0" x2="740.0928571428573" y2="377" fill="rgb(0, 0, 0)" stroke="rgb(60, 60, 60)" stroke-width="1px" opacity="0.25"></line><line x1="814.1021428571429" y1="0" x2="814.1021428571429" y2="377" fill="rgb(0, 0, 0)" stroke="rgb(60, 60, 60)" stroke-width="1px" opacity="0.25"></line><line x1="888.1114285714286" y1="0" x2="888.1114285714286" y2="377" fill="rgb(0, 0, 0)" stroke="rgb(60, 60, 60)" stroke-width="1px" opacity="0.25"></line><line x1="962.1207142857144" y1="0" x2="962.1207142857144" y2="377" fill="rgb(0, 0, 0)" stroke="rgb(60, 60, 60)" stroke-width="1px" opacity="0.25"></line><line x1="1036.13" y1="0" x2="1036.13" y2="377" fill="rgb(0, 0, 0)" stroke="rgb(60, 60, 60)" stroke-width="1px" opacity="0.25"></line></g><g><line x1="0" y1="377" x2="1036.13" y2="377" fill="rgb(0, 0, 0)" stroke="rgb(60, 60, 60)" stroke-width="1px" opacity="0.25"></line><line x1="0" y1="339.3" x2="1036.13" y2="339.3" fill="rgb(0, 0, 0)" stroke="rgb(60, 60, 60)" stroke-width="1px" opacity="0.25"></line><line x1="0" y1="301.6" x2="1036.13" y2="301.6" fill="rgb(0, 0, 0)" stroke="rgb(60, 60, 60)" stroke-width="1px" opacity="0.25"></line><line x1="0" y1="263.9" x2="1036.13" y2="263.9" fill="rgb(0, 0, 0)" stroke="rgb(60, 60, 60)" stroke-width="1px" opacity="0.25"></line><line x1="0" y1="226.2" x2="1036.13" y2="226.2" fill="rgb(0, 0, 0)" stroke="rgb(60, 60, 60)" stroke-width="1px" opacity="0.25"></line><line x1="0" y1="188.5" x2="1036.13" y2="188.5" fill="rgb(0, 0, 0)" stroke="rgb(60, 60, 60)" stroke-width="1px" opacity="0.25"></line><line x1="0" y1="150.8" x2="1036.13" y2="150.8" fill="rgb(0, 0, 0)" stroke="rgb(60, 60, 60)" stroke-width="1px" opacity="0.25"></line><line x1="0" y1="113.10000000000002" x2="1036.13" y2="113.10000000000002" fill="rgb(0, 0, 0)" stroke="rgb(60, 60, 60)" stroke-width="1px" opacity="0.25"></line><line x1="0" y1="75.40000000000003" x2="1036.13" y2="75.40000000000003" fill="rgb(0, 0, 0)" stroke="rgb(60, 60, 60)" stroke-width="1px" opacity="0.25"></line><line x1="0" y1="37.69999999999999" x2="1036.13" y2="37.69999999999999" fill="rgb(0, 0, 0)" stroke="rgb(60, 60, 60)" stroke-width="1px" opacity="0.25"></line><line x1="0" y1="0" x2="1036.13" y2="0" fill="rgb(0, 0, 0)" stroke="rgb(60, 60, 60)" stroke-width="1px" opacity="0.25"></line></g></g></g><g><g><line x1="0" y1="339.3" x2="1036.13" y2="339.3" fill="rgb(0, 0, 0)" stroke="rgb(153, 153, 153)" stroke-width="1.5px"></line></g></g><g><g><line x1="74.00928571428572" y1="0" x2="74.00928571428572" y2="377" fill="rgb(0, 0, 0)" stroke="rgb(153, 153, 153)" stroke-width="1.5px"></line></g></g><g><g><g><g><g><path stroke="rgb(255, 112, 67)" stroke-width="2px" d="M75.49687235714286,55.36036537885667L76.97705807142859,58.087875376641705L78.45724378571428,63.78777686089887L79.19733664285715,61.46129179671408L80.67752235714288,59.891981891788305L82.15770807142857,58.346684057896994L82.89780092857144,56.576836878913866L83.6378937857143,56.07475028510794L84.37798664285715,54.01701699898746L85.11807950000001,55.35550346063866L85.85817235714286,55.48495966023455L86.59826521428573,56.60396192396149L87.33835807142857,56.292373569218114L88.07845092857143,59.45732431831533L88.8185437857143,58.45886190988671L89.55863664285715,57.4306068883368L90.29872950000002,61.94561730700275L91.03882235714286,64.22125497171834L91.77891521428572,63.83824199575207L92.51900807142859,63.96869863010107L93.25910092857144,63.48705308129644L94.73928664285715,65.39448408941439L96.95956521428572,61.911465102689704L97.69965807142857,60.4575662900329L98.43975092857144,60.617109407140276L99.1798437857143,58.52737846409127L99.91993664285715,57.750852634281614L101.40012235714286,57.2285175464271L103.62040092857144,56.63431060245779L104.3604937857143,55.38399980519449L105.84067950000002,55.279520862872346L106.58077235714286,54.52154627106603L107.32086521428572,53.54764660632412L108.06095807142859,54.2691387838359L108.80105092857144,52.59937321809855L109.5411437857143,52.47925604975268L111.02132950000001,51.31880972141727L111.76142235714288,51.30075118865636L113.24160807142857,50.959269505729935L113.98170092857144,52.23889242223527L114.7217937857143,52.081743847075074L115.46188664285717,51.86600370560211L116.20197950000001,51.77272886365415L116.94207235714286,51.63581460431686L118.42225807142859,52.26513231352834L119.16235092857144,51.95450062604323L119.9024437857143,50.80500766184542L120.64253664285715,52.047265385099024L121.38262950000002,51.36284733205571L122.12272235714286,52.59267480129722L122.86281521428572,51.98384224268335L123.60290807142859,51.22158886249167L124.34300092857144,51.94839303765008L125.08309378571431,51.754282213886256L125.82318664285715,51.42654383757076L127.30337235714288,53.54578399526173L128.04346521428573,53.287883252305335L128.7835580714286,52.90304925584934L129.52365092857144,52.413364396954364L131.00383664285715,52.62300165800144L131.74392950000004,53.031765195774426L132.48402235714286,52.55546310248815L133.22411521428572,52.327863633053596L134.70430092857143,54.09480922902645L135.4443937857143,53.21537397316109L136.9245795,52.8664737296761L137.66467235714288,53.637118725339235L138.40476521428573,54.20919991753078L139.1448580714286,54.2294691587781L139.88495092857144,54.587395721989594L140.6250437857143,54.37481708903175L142.1052295,53.620177571648696L142.84532235714286,51.770725379392104L143.58541521428575,52.48012249589243L144.32550807142857,52.96879627776315L145.8056937857143,52.42368126912214L146.54578664285714,56.44768049838126L148.02597235714288,61.015093765985796L148.76606521428573,63.42315141816846L149.5061580714286,64.77082161700673L150.24625092857144,64.08864691135852L150.98634378571433,65.92006443427545L151.72643664285715,60.62474289945686L152.4665295,59.44676353104069L153.2066223571429,65.12427871684525L154.6868080714286,67.72665136134799L155.42690092857146,62.777305628515364L156.16699378571428,60.54416113952226L157.52136371428574,72.99427467023986L159.00154942857142,79.69419138810429L159.7416422857143,76.43405661810277L160.48173514285716,76.59134174006488L161.22182800000002,73.70245137105763L161.96192085714287,73.64105478221404L162.70201371428573,71.96834057864089L163.44210657142858,71.1720560163053L164.18219942857144,69.99536679326252L164.92229228571432,69.63166673981397L166.402478,69.14519748212842L167.14257085714289,67.89197268677918L167.88266371428574,67.36767753239377L168.62275657142857,66.67228073761402L169.36284942857145,68.60457834056342L170.84303514285716,67.14196543485713L171.58312800000002,69.44879212254762L173.80340657142858,70.27027843877363L174.54349942857144,69.81587582638673L176.02368514285715,70.44982927448046L176.76377800000003,71.12962227229173L178.2439637142857,69.99879520156321L179.84996521428573,78.51751542221507L180.5900580714286,82.6112269361675L181.33015092857144,75.65762623070839L182.07024378571433,68.31274728250003L182.81033664285715,65.92550000829397L183.55042950000004,63.81823213388259L185.03061521428572,64.00787676983913L185.7707080714286,62.63618088253645L186.51080092857146,61.67754666619487L187.25089378571428,60.35201613791577L188.73107950000002,60.97425529889938L189.47117235714288,60.35993757684639L190.21126521428573,60.108717215297304L191.69145092857147,60.091471436165364L192.4315437857143,61.236634203518975L193.17163664285715,60.895569003060814L194.65182235714286,61.587844412586264L195.39191521428575,60.17422704283075L196.87210092857143,57.201814696691486L197.6121937857143,57.60684916824226L199.09237950000002,56.69912345796894L199.83247235714288,55.500097982824286L200.57256521428573,55.323976364577106L202.05275092857144,55.05534405639429L202.7928437857143,54.62421664196643L203.53293664285718,54.59820442079541L205.0131223571429,54.215997003788004L205.75321521428575,56.530528029962966L206.49330807142857,54.90963127205646L207.23340092857146,55.469045813023286L208.71358664285717,55.01057112642479L209.45367950000002,55.41287762897224L210.19377235714288,54.45730587349544L210.93386521428576,53.582753203548236L211.6739580714286,54.16361037149261L212.41405092857144,54.885331216181726L213.15414378571433,53.88990333957992L213.89423664285715,55.81013018181039L214.63432950000004,56.398299345315195L216.11451521428572,56.51783552225868L216.8546080714286,57.07055243048933L219.07488664285717,57.28085741635482L222.77535092857147,57.60337360165312L223.5154437857143,71.04663693107238L224.99562950000004,65.23190194605036L225.73572235714286,60.48735724352741L226.47581521428575,56.9259013751921L227.95600092857143,55.70124959586718L228.6960937857143,55.69166802667769L229.43618664285717,56.88646110596176L230.17627950000002,55.64156899393748L230.91637235714288,54.191140155441474L233.13665092857144,55.82474902418073L233.87674378571432,55.379123510997374L234.61683664285718,55.258582385826685L235.3569295,55.57061883476291L236.83711521428575,57.106762909096005L237.57720807142857,55.39808071565716L238.31730092857146,55.086009503079026L239.0573937857143,54.58007475893055L239.79748664285717,53.881168987514684L240.53757950000002,53.795150624610244L241.27767235714288,52.370942007838096L242.7578580714286,53.86819062431954L243.49795092857147,52.90493834614932L244.23804378571432,51.73462574362861L245.71822950000004,51.27210435795848L246.4583223571429,50.74088550047918L247.19841521428572,49.73800360940004L247.9385080714286,49.080222934377844L248.67860092857146,48.5011668931798L249.4186937857143,50.53730794497466L250.15878664285717,50.88676013891779L251.6389723571429,52.84096823659468L252.37906521428573,54.75038748816809L253.85925092857147,54.32948117873764L254.5993437857143,54.907733396421065L255.33943664285718,55.89861230118879L256.81962235714286,55.59145228423961L257.55971521428575,57.66389591430601L258.29980807142863,56.88488661131248L259.03990092857146,56.698862278944205L259.77999378571434,56.092050836375904L260.52008664285717,56.2421712385962L261.2601795,56.35194600983556L262.0002723571429,56.782038024449946L262.74036521428576,57.077475907435826L263.4804580714286,55.30606674792216L264.22055092857147,54.1550811936965L264.9606437857143,52.95616099420255L267.61757714285716,54.003286292452L268.35767000000004,57.04655952590605L269.0977628571429,58.79281450830638L269.83785571428575,58.663862661854864L271.31804142857146,59.59637204905539L272.0581342857143,60.83702613890284L272.7982271428572,61.42543423879215L274.2784128571429,62.60434048121016L275.7585985714286,61.53757567372827L277.2387842857143,60.63070570449173L277.9788771428572,60.27562734019847L278.71897000000007,60.37784776527934L279.4590628571429,59.14177921199354L280.1991557142857,59.60973139991495L281.67934142857143,60.184359834135364L282.4194342857143,60.16553892942716L283.1595271428572,58.32078755767611L283.89962,57.72209482235587L284.63971285714285,58.86104445483022L285.37980571428574,59.53956050888138L286.1198985714286,59.27174164304398L286.85999142857145,56.834050873811634L290.56045571428575,57.6027479242656L292.04064142857146,58.58305411287387L292.78073428571435,58.215746020962285L294.26092,56.99405558567605L295.0010128571429,57.70082706726407L295.7411057142857,62.03917683194169L296.4811985714286,66.21280729907801L297.2212914285715,69.09856929384495L297.96138428571436,65.07065881015558L298.7014771428572,61.59857778502521L299.44157,60.37882490130073L300.1816628571429,58.475571479629366L300.9217557142857,63.308627342123316L301.8468717857143,72.03832440789853L304.0671503571429,73.2102937007923L304.8072432142858,78.53636112362028L305.54733607142856,70.85537813752819L306.28742892857144,63.84618068844031L307.0275217857143,59.870971490800116L308.50770750000004,55.29943142048103L309.2478003571429,54.343550210664205L309.98789321428575,52.544599626940226L310.7279860714286,52.73325605778797L311.46807892857146,55.976293866568255L312.20817178571434,62.63316043420639L312.94826464285717,59.38294236304762L313.68835750000005,56.74564084793565L314.42845035714294,55.66731033674142L315.1685432142857,55.427296907611264L315.9086360714286,53.64269370013932L316.6487289285715,53.71722222193756L317.3888217857143,52.784965300707086L318.1289146428572,51.50782605180029L318.86900750000007,50.76014844995075L319.6091003571429,51.11030330432254L321.0892860714286,52.855998095111886L321.8293789285715,53.09620447649769L323.3095646428572,55.64079214867479L324.78975035714285,55.656391268590255L326.2699360714286,56.82572820044709L327.7501217857143,57.22519493971555L328.4902146428572,56.89708797975953L329.23030750000004,55.64450256851063L329.97040035714286,55.2000752927467L330.71049321428575,53.55490697393441L331.45058607142863,51.29257052045841L332.19067892857146,53.70518302978144L332.93077178571434,54.893714399701764L333.67086464285717,55.61923718665031L334.4109575,55.46033801683183L335.1510503571429,54.81355238704913L335.89114321428576,54.13309798210287L336.6312360714286,54.01610279541865L337.3713289285715,55.21805813110859L338.11142178571436,54.9184209668457L338.8515146428572,54.86367602847929L339.5916075,55.534052985327946L340.3317003571429,55.302832036863265L341.0717932142858,55.67033404210241L341.8118860714286,54.43881631671803L342.5519789285715,54.45887553679597L343.2920717857143,55.47200991623197L344.03216464285714,56.597261721566895L344.7722575,55.91796274583072L345.5123503571429,56.07010778665858L346.25244321428573,54.44141428518486L346.9925360714286,52.48915665178413L347.7326289285715,52.461321807080026L348.4727217857143,52.519260411365906L349.21281464285715,53.09197814280043L350.6930003571429,52.70301982292085L351.43309321428575,52.067846248916055L352.91327892857146,51.900332988721914L353.6533717857143,52.12108772601056L354.39346464285717,52.04495621207576L355.13355750000005,52.477108595867264L355.8736503571429,51.78431481724937L356.61374321428576,51.59408510807731L357.35383607142865,50.23644979169114L358.8340217857143,50.23600913626041L359.5741146428572,50.43690469707303L361.0543003571429,51.242967832358204L361.7943932142858,49.58418029562921L362.5344860714286,50.318442947961614L363.27457892857143,50.560671925126144L364.0146717857143,50.02835733388582L365.4948575,50.32317157921028L366.2349503571429,51.980599186043946L366.9750432142858,49.92323993040384L367.71513607142856,52.029203162153124L369.9354146428572,51.162678752875024L371.4156003571429,51.23789376409991L372.15569321428575,50.33841589446155L373.63587892857146,50.24726733300258L374.37597178571434,50.7700816388915L375.11606464285717,50.297574562787474L376.59625035714294,49.31791126427618L377.3363432142857,49.25393811999305L378.8165289285715,50.24851688944426L380.2967146428572,50.20100400688125L381.03680750000007,49.27364025736978L381.7769003571429,50.755481084734924L383.2570860714286,49.39759833368703L383.9971789285715,48.96202553482675L384.7372717857143,48.416828801463964L386.95755035714285,49.30712397231514L387.69764321428573,48.61596910079635L388.4377360714286,50.14389888715931L389.1778289285715,49.92092113180274L389.9179217857143,50.337313244839436L390.6580146428572,49.86926454430818L392.13820035714286,51.68555930451157L393.61838607142863,51.3806361341214L395.09857178571434,51.436934942229755L396.5787575,49.9344382203962L398.79903607142865,51.02365073188213L399.5391289285715,50.21160483255426L401.0193146428572,49.9093941157725L401.7594075,49.95318167362615L402.4995003571429,48.5594608792901L403.2395932142858,47.838324614121916L403.9796860714286,48.85702360853816L405.45987178571437,49.4957114957885L406.19996464285714,48.964437414593476L406.9400575,49.85621006571472L407.6801503571429,51.11307655860912L408.4202432142858,50.229306806861985L409.1603360714286,50.36219867571572L409.9004289285715,49.72663848223914L410.6405217857143,48.69872321976794L411.38061464285715,48.503502139410784L412.12070750000004,49.55417583046045L412.8608003571429,51.09471648250633L413.60089321428575,50.45828051873809L415.0810789285715,49.11978561108566L415.8211717857143,49.91408566013138L416.56126464285717,49.927889934630116L417.30135750000005,51.43188394513783L418.04145035714293,50.516784886163805L418.78154321428576,50.453808076168514L419.52163607142865,52.27655382095901L420.2617289285715,51.25654765569641L421.0018217857143,49.998171542903606L421.7419146428572,50.72147379328061L422.48200750000007,50.68778970962319L423.2221003571429,50.913249673399605L423.9621932142858,50.44545026657181L424.70228607142866,49.56011328242539L425.44237892857143,49.134012224330434L426.1824717857143,50.295279880794226L426.9225646428572,49.24351285244961L427.6626575,50.39018350568978L428.4027503571429,49.00043187694291L429.8829360714286,50.37736295078122L430.62302892857144,51.73272148140626L433.5834003571429,51.21381367783761L435.0635860714286,50.00099735701684L435.80367892857146,49.28935182359584L436.54377178571434,49.44641148726208L437.28386464285717,49.042987626076126L438.02395750000005,51.50017990665458L438.76405035714293,50.63452323196424L440.2442360714286,50.32691344689192L440.9843289285715,51.67448892754828L441.72442178571436,50.52692893601966L443.94470035714295,48.7034930626005L444.6847932142857,48.584482059445975L446.1649789285715,48.74697109315815L448.3852575000001,48.714276811206446L449.1253503571429,50.184717996552024L449.86544321428573,50.685605726024164L450.6055360714286,51.1775639017705L451.3456289285715,52.10170072795654L452.0857217857143,48.923802791128765L452.8258146428572,48.81199865942608L453.56590750000004,49.75592022302993L454.30600035714286,49.538621213217084L455.04609321428575,47.5812636006948L455.78618607142863,48.91398697549562L457.26637178571434,48.303209284868615L458.0064646428572,49.467472846464375L458.74655750000005,50.18648853728541L459.4866503571429,49.76823533790929L460.22674321428576,52.25934167157186L460.96683607142865,51.37209364563569L461.7069289285715,50.97404022211043L463.1871146428572,51.2258748674048L463.9272075,51.27431936166602L464.6673003571429,50.37275611342142L465.4073932142858,50.65534256804676L469.8479503571429,51.142507851771654L471.3281360714286,53.4126821593357L472.0682289285715,54.92462304567772L472.8083217857143,54.75875472149539L473.54841464285715,55.55396408034136L474.28850750000004,55.78665068979723L475.0286003571429,56.78515633604326L475.76869321428575,56.949320983060545L476.50878607142863,56.00084423015613L477.2488789285715,92.0808547150499L477.98897178571434,125.97494510003366L478.72906464285717,152.70781847470067L479.46915750000005,169.65053317447342L480.20925035714293,181.3521593612423L480.94934321428576,188.4066257787937L481.68943607142864,192.458144821715L482.4295289285715,194.9005568802307L483.1696217857143,195.0324879944295L484.64980750000007,195.10339083552182L485.3899003571429,196.91199649262322L486.1299932142858,197.62161636404926L487.61017892857143,199.0645089224144L489.0903646428572,199.31423928708816L489.8304575000001,200.1818760846316L490.5705503571429,199.333914323703L491.3106432142858,199.90771128896208L492.0507360714286,199.07059269764025L493.5309217857143,197.67017111073733L494.2710146428572,197.9217457180667L495.01110750000004,196.68922593149233L495.7512003571429,196.0130192229312L496.4912932142858,197.99477981979618L497.2313860714286,196.55150807294228L497.97147892857146,198.7745682453691L498.71157178571434,199.85631623122566L499.4516646428572,200.76224394710945L500.19175750000005,201.32268974347164L500.93185035714293,200.22816435315164L501.67194321428576,199.94775665413113L503.15212892857147,199.7675844538854L503.89222178571436,200.7614116328148L504.6323146428572,201.07836255891252L505.37240750000007,198.8135142961927L506.11250035714295,200.18448433636357L506.8525932142857,200.39497113560873L507.5926860714286,198.9393801661446L508.3327789285715,201.69136748862948L509.07287178571437,199.51179753156114L509.8129646428572,200.362179181645L510.5530575000001,200.16978197912553L511.2931503571429,198.36946725142107L512.0332432142858,199.94118770654265L512.7733360714286,200.9651603454069L514.2535217857144,200.25110624275896L514.9936146428572,199.62717650677143L515.7337075,198.83202763524878L517.2138932142858,199.7954071720077L517.9539860714286,200.80466143367494L518.6940789285715,200.51548813151004L519.4341717857144,201.6393445108335L520.9143575,201.8754163678885L521.6544503571429,200.36262672045237L522.3945432142858,199.64281907140258L523.1346360714286,199.90869346653847L523.8747289285715,199.00422306415692L524.6148217857144,200.1333301470116L525.3549146428571,200.86024846586196L526.8351003571429,200.09801015348796L528.3152860714287,200.56802983457783L529.0553789285715,199.4002113853391L529.7954717857143,199.373761202961L532.0157503571429,198.3012979853569L534.9761217857143,199.75699788024536L535.7162146428572,198.50049523645944L536.4563075000001,200.10842094024605L537.1964003571429,198.11027809620253L537.9364932142857,198.59034545326443L538.6765860714287,199.06914177122243L539.4166789285714,200.416643975869L540.1567717857143,200.48900592964597L542.3770503571429,199.1679734697444L543.1171432142858,199.11225288096088L543.8572360714287,200.09023354162585L544.5973289285714,199.9448329622138L546.0775146428572,198.40035593119794L546.8176075000001,198.23718768839558L547.557700357143,198.05805425455878L549.0378860714286,198.679918347661L549.7779789285714,199.44785590819376L550.5180717857144,199.69286585481083L551.2581646428572,199.9627025355763L551.9982575,200.28813014923733L552.738350357143,201.19738321125033L553.4784432142858,201.0783297051163L554.2185360714286,201.23570131952593L554.9586289285714,201.63856955108065L555.6987217857144,201.17667557559622L556.4388146428572,200.352564781679L557.1789075,200.10042953596906L557.919000357143,199.6742207962656L558.6590932142857,199.30322856178185L559.3991860714286,200.4130572537798L560.1392789285715,199.39778127552378L562.3595575,199.39254946399515L563.099650357143,199.05242700629702L564.5798360714286,199.38774624141018L565.3199289285715,196.97941769285183L566.0600217857144,197.40109145833955L566.8001146428572,198.59942615863028L567.5402075000001,196.7158369304916L568.2803003571429,198.4455433608401L569.0203932142857,198.58978737838913L569.7604860714287,200.47236500172525L570.5005789285715,197.84773472063964L571.2406717857143,199.60199649520652L571.9807646428573,198.98310129992925L573.4609503571429,198.5746556541488L574.2010432142857,198.20586770422256L574.9411360714287,199.08639959601754L575.6812289285715,200.2579497057688L576.4213217857143,201.59128882160735L577.1614146428573,199.4663609437403L577.9015075,198.00543462587936L578.6416003571429,199.45419082971537L579.3816932142857,203.15615062196332L580.1217860714287,206.73214507984684L580.8618789285715,204.8008955245469L581.6019717857143,202.5248945978435L582.3420646428573,200.07534030360893L583.0821575,200.15094851543256L583.8222503571429,198.52072652751056L584.5623432142858,197.09843251570373L585.3024360714287,196.5192691246528L586.0425289285715,195.66982846736067L586.7826217857144,139.90396952914685L587.5227146428572,110.43500744990996L589.002900357143,94.67744023139772L590.4830860714286,77.62499495587048L591.9632717857143,66.33457073832335L594.183550357143,71.6316571978615L594.9236432142858,63.935460821860204L595.6637360714286,62.10152531151368L596.4038289285716,59.59880587866542L597.1439217857143,57.62527525788926L597.8840146428572,57.0607079718493L598.6241075,54.875358770727075L599.364200357143,56.236089147590974L600.1042932142858,55.80507499543626L600.8443860714286,54.810354100273855L601.5844789285715,54.405567299489235L602.3245717857143,55.55675707052001L603.0646646428572,55.353828173815316L605.2849432142858,55.67574628230278L606.0250360714286,55.07152893088073L606.7651289285715,54.7261573382724L608.2453146428572,52.84446202686479L608.9854075000001,51.95051795346171L609.7255003571429,49.58365884603637L610.4655932142858,49.011606063732984L611.2056860714285,48.86504914658633L611.9457789285715,49.70615399776324L612.6858717857143,49.658112407317276L613.4259646428573,49.672539539689126L614.1660575000001,49.95671664449827L615.6462432142858,49.65249260648045L616.3863360714286,49.13339726676918L617.1264289285715,47.884478949012646L617.8665217857143,47.80426793962852L618.6066146428573,49.026972489775005L620.0868003571429,49.48773495508476L620.8268932142857,49.7583409986093L621.5669860714286,49.24597387082542L622.3070789285715,49.14371337751845L623.0471717857143,48.39839526093181L623.7872646428573,49.54957212970368L624.5273575000001,50.70167878368915L625.2674503571429,49.341551675197024L626.0075432142858,50.13753245222358L626.7476360714286,49.49016218869559L627.4877289285715,49.793323997787695L628.2278217857144,53.423766038496524L628.9679146428572,53.90147462706523L629.7080075000001,53.995290031556806L631.1881932142858,54.51406740100657L631.9282860714286,53.788829744764996L632.6683789285715,54.36479006583028L633.4084717857144,55.394768509713L634.1485646428572,56.14341067400409L634.8886575000001,57.05743905500668L635.6287503571428,56.63834681389386L636.3688432142858,57.8215987770418L638.5891217857144,56.53526661447643L639.3292146428572,56.225020652127L640.8094003571429,55.91024036235319L641.5494932142858,54.851090229908834L642.2895860714286,51.24158775172248L643.0296789285715,52.383052984247286L643.7697717857144,52.51262099228478L644.5098646428572,51.45583044220314L645.9900503571429,51.3662542219717L646.7301432142858,50.05949230407231L647.4702360714286,49.790954724637004L648.2103289285715,49.492714433483684L648.9504217857144,48.27393149174003L649.6905146428571,48.1114464404389L650.4306075000001,48.97354591621189L651.1707003571429,48.785891866285965L652.6508860714287,51.29875143027266L653.3909789285715,53.13862377915365L654.1310717857144,52.948112545690435L654.8711646428571,55.18922887461275L655.6112575000001,54.75626667390401L656.3513503571429,56.16506533175789L657.0914432142858,56.27044801443867L657.8315360714287,55.32793178397452L658.5716289285715,55.27922695540212L659.3117217857143,53.78708222426667L660.7919075000001,54.311806691394395L661.5320003571429,54.676374080602045L662.2720932142857,55.17352959801178L663.0121860714287,54.9786933928097L663.7522789285715,53.85147074397594L664.4923717857143,53.40768453321573L665.2324646428572,54.32843630338738L665.9725575000001,54.031988763958395L666.7126503571429,52.80700987347973L667.4527432142858,51.34178853612548L668.1928360714287,51.88188505042439L668.9329289285714,50.531335777454615L670.4131146428572,50.133833538540046L671.893300357143,49.98295991602413L672.6333932142858,49.97002344240468L673.3734860714287,50.19619314735962L674.1135789285714,48.49018480816983L674.8536717857144,48.32975195431413L675.5937646428572,48.58500083555998L677.073950357143,48.36659748238458L677.8140432142858,47.852614510548904L678.5541360714286,48.2561763647156L679.2942289285714,47.71862540501098L680.0343217857144,48.27932005559052L680.7744146428572,47.805461315123125L682.254600357143,48.78395060289375L683.7347860714286,49.840516273906644L684.4748789285715,47.88794134660412L685.9550646428572,48.508526645921734L686.6951575,48.74701387573663L687.435250357143,49.15936213785045L689.6555289285715,48.87115350516814L690.3956217857144,48.20352584333523L691.1357146428572,48.32781673318931L691.8758075000001,49.96848173169366L692.615900357143,49.79377514379064L693.3559932142857,50.02276166353727L694.0960860714287,51.842140217269105L694.8361789285715,49.279451401021845L695.5762717857144,48.77996908604314L696.3163646428573,49.6294081817818L697.0564575000001,48.58411777798847L697.7965503571429,49.20310158720321L698.5366432142857,48.897307290975505L700.0168289285715,49.25556040188326L700.7569217857143,49.763479540232765L702.2371075000001,48.202108419826004L702.9772003571429,48.435941403442826L703.7172932142857,49.384575234254726L704.4573860714287,51.099324618816695L705.9375717857143,50.84839066686652L706.6776646428573,49.87131276144038L707.4177575,50.03244985111627L708.1578503571429,51.825023771334145L709.6380360714287,50.45628592551259L711.1182217857144,50.41956703889667L712.5984075,49.121086813380145L713.338500357143,47.99834592900862L714.0785932142858,50.90931245662091L714.8186860714287,49.69171326266121L715.5587789285715,50.04819049898617L718.519150357143,50.56440101661582L719.2592432142858,50.510367571105405L719.9993360714286,50.56340902494776L720.7394289285716,49.28820653347606L721.4795217857143,50.091503493716914L722.9597075,49.225683012444165L723.699800357143,49.315369219087586L724.4398932142858,50.251624180378315L725.1799860714286,50.19143516153207L725.9200789285716,50.27168532329864L726.6601717857143,49.35737762044704L727.4002646428572,49.94651522869373L728.1403575,52.31531852385103L728.880450357143,50.38355708778323L729.6205432142858,50.5393834344174L731.1007289285715,50.38198657939586L731.8408217857143,50.74486827438926L732.5809146428572,49.820075266276945L733.3210075000001,49.03844059986778L734.061100357143,49.070759753483L734.8011932142858,49.296533448754246L735.5412860714287,48.982273039375855L736.2813789285715,48.97720559189031L737.0214717857143,48.143450015481164L737.7615646428573,48.739967838344455L738.5016575000001,50.2105411573753L739.2417503571429,49.22252002981338L739.9818432142858,47.965564911526656L740.7219360714286,48.27147244033944L741.4620289285715,48.7631206620797L742.2021217857143,49.460258724037715L742.9422146428573,50.02739812954894L744.4224003571429,48.42798927560227L745.1624932142859,49.865679850189565L745.9025860714286,49.57403334498923L746.6426789285715,50.00481734109235L747.3827717857143,49.54397461791228L748.1228646428573,47.61956628071897L748.8629575000001,48.74095897142672L749.6030503571429,50.17626092114796L750.3431432142858,49.75993256854264L751.0832360714286,49.75979681186226L751.8233289285715,50.4118493233463L752.5634217857144,49.973255571981724L754.0436075000001,48.3582648809317L754.783700357143,48.72623812529821L755.5237932142858,49.02718044861189L756.2638860714286,49.00452754941L757.7440717857144,48.281815512456944L758.4841646428572,48.16794093577772L759.2242575000001,49.86160840588036L759.9643503571428,48.57789805649054L760.7044432142858,48.582407321443156L761.4445360714286,49.14300367707608L762.9247217857144,49.66532209321616L763.6648146428572,49.506580483941775L765.1450003571429,47.827052571790546L765.8850932142858,49.35130866194788L766.6251860714286,49.278111213594855L767.3652789285716,49.77843019136793L768.1053717857144,49.31312615852954L768.8454646428572,48.99507798183805L770.3256503571429,49.25036037343051L771.8058360714286,50.75456428275885L774.0261146428572,51.23197218743792L774.7662075000001,49.652402187394046L775.5063003571429,50.29660123408257L776.2463932142858,51.30771422994388L777.7265789285715,49.976316427065456L778.4666717857144,49.069680098815866L779.2067646428571,50.60687689550173L780.6869503571429,49.354986642405095L781.4270432142858,49.30421810543817L782.1671360714287,47.94633498428033L782.9072289285715,49.52738600872618L784.3874146428572,49.62293842496075L785.1275075000001,49.36820229447841L785.8676003571429,49.47945721004584L786.6076932142859,48.69294320496431L787.3477860714287,50.02138043732947L788.0878789285715,52.24975247676076L788.8279717857143,53.41536728557884L789.5680646428572,53.34206802378259L790.3081575000001,54.19387944895129L791.0482503571429,54.025130150068435L791.7883432142858,52.949288457243824L792.5284360714287,52.74421408272332L794.0086217857144,52.100077090838795L795.4888075000001,51.918610864984544L796.228900357143,53.207541135613724L797.7090860714287,54.513433873453494L798.4491789285714,54.39456308591292L799.1892717857144,53.83818266336874L799.9293646428572,54.0086115404651L800.6694575000001,53.89885094908982L801.409550357143,53.382784595180226L802.1496432142858,52.28527728443663L802.8897360714287,52.472912066729805L803.6298289285714,52.32006606194494L804.3699217857144,52.05894546468926L805.1100146428572,52.752798604726024L805.8501075000001,52.243055629586706L807.3302932142858,52.8031144618127L808.0703860714286,52.35968639845447L808.8104789285715,51.58841966149089L809.5505717857144,50.07747064683963L810.2906646428572,48.21357580336411L811.0307575,49.94361171431825L812.5109432142858,50.61248946492367L813.9911289285715,49.3721333712607L814.7312217857144,48.454965298787954L816.2114075000001,47.93709453190337L816.951500357143,48.591562339335496L818.4316860714287,49.20638185779444L819.1717789285715,50.44955535674211L819.9118717857144,50.374928183222494L820.6519646428573,49.71834877661746L822.132150357143,48.96380528647836L822.8722432142857,47.6168162348219L823.6123360714287,48.94491814627338L825.0925217857144,49.53493868264013L825.8326146428573,48.92998968453679L826.5727075000001,50.22550231272862L827.3128003571429,50.76688288006119L828.7929860714287,49.754698619561964L829.5330789285715,50.06348379690502L831.0132646428573,50.076852127546374L832.4934503571429,51.56604137220046L833.2335432142858,51.603950985658514L833.9736360714287,53.00302453064222L834.7137289285715,53.36630021586001L835.4538217857144,53.050868167006854L836.1939146428573,53.36855359406701L836.9340075,52.54384638507025L838.4141932142858,53.73649161361965L839.8943789285715,53.82957048716139L840.6344717857144,53.573404161345934L841.3745646428573,54.62343726170775L842.1146575,54.223370747642036L842.854750357143,55.01790241532103L843.5948432142858,55.53260631163471L844.3349360714287,54.61144069432942L845.0750289285716,53.49941238641577L845.8151217857144,52.7021874670973L846.5552146428572,52.86269266633934L848.035400357143,54.27651258962601L848.7754932142858,54.15262131605897L849.5155860714286,53.858439754929236L850.2556789285716,54.92319919078716L852.4759575,55.38338382607208L853.216050357143,55.18297561863369L853.9561432142858,54.16292190587109L854.6962360714286,53.42250864050146L855.4363289285716,54.051140734799844L856.9165146428572,53.39538430049902L857.6566075000001,55.17552756115725L858.396700357143,53.37150238779145L859.1367932142858,54.44609185473297L859.8768860714287,53.85155460605728L863.577350357143,53.955262044487654L864.3174432142858,54.583349997650544L865.0575360714287,54.70785398891627L865.7976289285715,54.04339691883956L866.5377217857143,53.6099556212821L867.2778146428573,52.82704574139103L868.0179075000001,52.65904873294346L868.7580003571429,53.35525022079179L869.4980932142859,53.031222995100165L870.2381860714286,53.509955458627815L870.9782789285715,53.15969405459566L871.7183717857143,53.71256981544019L872.4584646428573,52.40497647197435L873.1985575000001,52.28778074783912L873.9386503571429,55.029316340701826L874.6787432142859,52.31470240760859L875.4188360714286,50.21704619413032L876.1589289285715,48.02642033389458L876.8990217857144,48.69995997602496L877.6391146428573,49.460823592273925L878.3792075000001,48.60036426110776L879.119300357143,47.99325208976097L879.8593932142858,47.10697560497658L880.5994860714286,49.440840221575115L882.0796717857144,49.51159775801375L883.5598575000001,47.77427205889148L884.299950357143,48.56512873559427L885.0400432142858,49.61035096877356L885.7801360714286,49.290846058330146L886.5202289285716,50.946515953899166L888.0004146428572,51.697905748105484L889.4806003571429,50.634026742587366L890.2206932142858,51.11335950410955L890.9607860714286,50.76770978281854L891.7008789285716,49.92068882173277L893.1810646428572,49.65649279705269L893.9211575000002,50.08905107946151L894.6612503571429,49.25270472986074L895.4013432142858,49.70381804837325L896.1414360714286,48.63333878358327L898.3617146428572,47.894300297737914L899.1018075000001,49.62713488807725L901.3220860714287,49.5412027840045L902.0621789285715,49.362997241272126L902.8022717857144,48.98527198997357L905.0225503571429,48.781017906470424L905.7626432142858,49.54939372480112L907.2428289285715,49.49303904974579L907.9829217857144,48.58776680829595L908.7230146428572,48.77375886084121L909.4631075000001,49.65598187709736L910.2032003571429,48.468687826781775L910.9432932142859,49.425049165719315L911.6833860714287,50.84196706523517L912.4234789285715,48.82117516464007L913.1635717857145,48.71918746153125L913.9036646428572,48.6876744718528L915.3838503571429,49.39437166519019L916.1239432142859,50.25514437477028L916.8640360714287,49.45916064334057L918.3442217857144,51.42765027852147L919.0843146428572,52.12089072329576L919.8244075000001,49.836599671022725L920.564500357143,48.77984535406631L921.3045932142858,49.29630545920497L922.0446860714287,49.59612352458453L922.7847789285715,50.39189819102177L923.5248717857144,49.8059836554807L924.2649646428572,49.77818740894088L925.0050575000001,50.21541388445905L925.745150357143,49.396852080904296L927.2253360714287,48.423991737891924L927.9654289285714,47.94888213284594L928.7055217857144,48.337576378630274L929.4456146428572,48.97915302589337L930.1857075000001,47.373640144317164L930.925800357143,45.999482534199274L931.6658932142858,46.32496136061508L932.4059860714287,48.08266287345981L933.1460789285715,48.43610921203668L933.8861717857144,47.71985708415258L934.6262646428572,47.98582442962976L935.3663575000002,49.10910303332719L936.106450357143,48.91711164795345L936.8465432142858,48.76318588544723L938.3267289285715,49.966604339419575L939.0668217857144,48.76341623028446L939.8069146428572,48.12059212422565L940.5470075000001,49.94999413428417L941.287100357143,49.78031864129133L942.0271932142858,53.57372687794344L942.7672860714287,54.14826241575224L945.7276575000001,53.324692026630316L947.2078432142857,53.64647002688366L947.9479360714287,53.265583794542124L949.4281217857144,54.014700217978884L950.1682146428573,53.193383858166214L950.9083075000001,53.15800373408922L951.648400357143,52.600304173551365L952.3884932142857,53.39405875153682L953.8686789285715,54.09112904040421L954.6087717857145,52.97268174152617L955.3488646428573,50.96930168426661L956.0889575000001,50.45098379586119L956.8290503571429,50.053578773343474L957.5691432142858,50.20537528467412L958.3092360714287,49.5532669322028L959.0493289285715,49.71827480890357L959.7894217857144,48.87879374562499L960.5295146428573,49.56197580181839L961.2696075000001,48.97439951707889L962.009700357143,49.21232742196304L962.7497932142858,48.67099650696508L963.4898860714287,47.92364520547147L964.2299789285715,49.27355767439218L964.9700717857144,47.398370315733075L965.7101646428573,48.99671020633133L966.4502575,49.15939756468629L967.190350357143,49.52398285529432L967.9304432142858,48.35846951282866L969.4106289285716,48.905867850046434L970.1507217857144,48.118714015043395L970.8908146428573,49.26027643224995L972.371000357143,51.58269006455782L973.1110932142858,50.335783515243804L973.8511860714287,49.73605572335066L974.5912789285716,49.03109220476239L975.3313717857144,49.29430503255895L976.0714646428572,49.17240646962392L977.551650357143,49.11059269120733L979.0318360714286,49.44245047575498L980.5120217857143,48.8839615250007L981.2521146428572,47.91546597387651L982.732300357143,49.32843185368927L983.4723932142858,49.37135584416245L984.2124860714287,48.102181234730836L984.9525789285716,48.531061619981244L985.6926717857143,48.206868602314046L986.4327646428573,47.98834482757951L987.912950357143,47.87923411803666L988.6530432142858,48.051627203686394L989.3931360714287,48.604284332313114L990.1332289285715,48.40795507318853L990.8733217857143,48.54231754235673L991.6134146428573,48.136205235077455L992.3535075000001,48.5234682267627L993.093600357143,48.04379348908196L993.8336932142859,49.900292635883886L994.5737860714287,48.90135645444752L996.0539717857143,50.587290470454434L996.7940646428573,55.364119396599165" style="fill: none;" fill="none"></path></g></g></g></g><g opacity="0.2"><g><g><g><path stroke="rgb(255, 112, 67)" stroke-width="2px" d="M75.49687235714286,55.36036537885667L76.97705807142859,59.72438137531282L78.45724378571428,69.25968228578569L79.19733664285715,58.72534536123277L80.67752235714288,57.843090879917156L82.15770807142857,56.20898084640504L82.89780092857144,54.04592709541322L83.6378937857143,55.34270321130754L84.37798664285715,50.98226009607316L85.11807950000001,57.342999863624584L85.85817235714286,55.677969801425945L86.59826521428573,58.27637575864793L87.33835807142857,55.82600842714311L88.07845092857143,64.1985499739647L88.8185437857143,56.962341952323925L89.55863664285715,55.88894956111909L90.29872950000002,68.71622233390809L91.03882235714286,67.63413368463517L91.77891521428572,63.26378087997438L92.51900807142859,64.16437165737153L93.25910092857144,62.7646111726761L94.73928664285715,68.25556783676149L96.95956521428572,56.687005388736736L97.69965807142857,58.276735293865215L98.43975092857144,60.85642294883729L99.1798437857143,55.392790961265575L99.91993664285715,56.58606587648393L101.40012235714286,56.445015716552746L103.62040092857144,55.7430007338524L104.3604937857143,53.50853430032731L105.84067950000002,55.1228024840355L106.58077235714286,53.384584534168255L107.32086521428572,52.08679722547532L108.06095807142859,55.35137699842454L108.80105092857144,50.09472494125367L109.5411437857143,52.29908030033113L111.02132950000001,49.578140246868145L111.76142235714288,51.27366338968278L113.24160807142857,50.447046983242046L113.98170092857144,54.15832679271699L114.7217937857143,51.84602098464967L115.46188664285717,51.542393493652355L116.20197950000001,51.63281660079957L116.94207235714286,51.43044321537019L118.42225807142859,53.20910887718202L119.16235092857144,51.4885530948639L119.9024437857143,49.08076821565629L120.64253664285715,53.91065196990968L121.38262950000002,50.3362202525139L122.12272235714286,54.437416005134594L122.86281521428572,51.07059340476991L123.60290807142859,50.07820879220964L124.34300092857144,53.03859930038453L125.08309378571431,51.46311597824098L125.82318664285715,50.934936273098L127.30337235714288,56.724644231796276L128.04346521428573,52.9010321378708L128.7835580714286,52.32579826116563L129.52365092857144,51.67883710861207L131.00383664285715,52.937457549572L131.74392950000004,53.64491050243379L132.48402235714286,51.84100996255876L133.22411521428572,51.986464428901684L134.70430092857143,56.74522762298585L135.4443937857143,51.89622108936311L136.9245795,52.34312336444856L137.66467235714288,54.793086218833935L138.40476521428573,55.06732170581819L139.1448580714286,54.25987302064897L139.88495092857144,55.124285566806805L140.6250437857143,54.05594913959504L142.1052295,52.4882182955742L142.84532235714286,48.996547091007244L143.58541521428575,53.544218170642864L144.32550807142857,53.701806950569164L145.8056937857143,51.60600875616075L146.54578664285714,62.48367934226991L148.02597235714288,67.86621366739274L148.76606521428573,67.03523789644242L149.5061580714286,66.79232691526414L150.24625092857144,63.06538485288621L150.98634378571433,68.66719071865083L151.72643664285715,52.681760597229015L152.4665295,57.679794478416454L153.2066223571429,73.64055149555207L154.6868080714286,71.63021032810212L155.42690092857146,55.35328702926637L156.16699378571428,57.194444406032574L157.52136371428574,91.66944496631623L159.00154942857142,89.74406646490098L159.7416422857143,71.54385446310044L160.48173514285716,76.82726942300798L161.22182800000002,69.36911581754686L161.96192085714287,73.54895989894868L162.70201371428573,69.45926927328111L163.44210657142858,69.97762917280198L164.18219942857144,68.23033295869828L164.92229228571432,69.08611665964128L166.402478,68.41549359560014L167.14257085714289,66.01213549375535L167.88266371428574,66.5812348008156L168.62275657142857,65.6291855454445L169.36284942857145,71.5030247449875L170.84303514285716,64.94804607629777L171.58312800000002,72.90903215408326L173.80340657142858,71.50250791311265L174.54349942857144,69.13427190780641L176.02368514285715,71.40075944662095L176.76377800000003,72.14931176900865L178.2439637142857,68.30255459547044L179.84996521428573,91.29559575319291L180.5900580714286,88.75179420709611L181.33015092857144,65.2272251725197L182.07024378571433,57.29542886018754L182.81033664285715,62.344629096984875L183.55042950000004,60.657330322265636L185.03061521428572,64.29234372377397L185.7707080714286,60.57863705158235L186.51080092857146,60.239595341682445L187.25089378571428,58.36372034549714L188.73107950000002,61.90761404037477L189.47117235714288,59.438460993766796L190.21126521428573,59.731886672973644L191.69145092857147,60.06560276746751L192.4315437857143,62.95437835454942L193.17163664285715,60.383971202373516L194.65182235714286,62.626257526874554L195.39191521428575,58.05380098819734L196.87210092857143,52.743196177482616L197.6121937857143,58.2144008755684L199.09237950000002,55.33753489255906L199.83247235714288,53.70155977010728L200.57256521428573,55.05979393720628L202.05275092857144,54.65239559412004L202.7928437857143,53.97752552032472L203.53293664285718,54.55918608903886L205.0131223571429,53.642685878276836L205.75321521428575,60.00232456922532L206.49330807142857,52.4782861351967L207.23340092857146,56.30816762447358L208.71358664285717,54.32285909652711L209.45367950000002,56.01633738279344L210.19377235714288,53.02394824028016L210.93386521428576,52.27092419862748L211.6739580714286,55.03489612340928L212.41405092857144,55.96791248321534L213.15414378571433,52.39676152467729L213.89423664285715,58.69047044515611L214.63432950000004,57.28055309057237L216.11451521428572,56.69713978767396L216.8546080714286,57.89962779283525L219.07488664285717,57.59631489515306L222.77535092857147,58.087147879600536L223.5154437857143,91.21153192520143L224.99562950000004,56.509799468517315L225.73572235714286,53.37054018974305L226.47581521428575,51.58371757268907L227.95600092857143,53.864271926879894L228.6960937857143,55.677295672893536L229.43618664285717,58.67865072488786L230.17627950000002,53.77423082590104L230.91637235714288,52.01549689769746L233.13665092857144,58.27516232728959L233.87674378571432,54.71068524122239L234.61683664285718,55.07777069807054L235.3569295,56.03867350816728L236.83711521428575,59.41097902059556L237.57720807142857,52.835057425498974L238.31730092857146,54.61790268421174L239.0573937857143,53.821172642707836L239.79748664285717,52.83281033039094L240.53757950000002,53.66612308025361L241.27767235714288,50.23462908267976L242.7578580714286,56.11406354904176L243.49795092857147,51.460059928894054L244.23804378571432,49.979156839847576L245.71822950000004,50.57832227945329L246.4583223571429,49.94405721426011L247.19841521428572,48.23368077278138L247.9385080714286,48.093551921844494L248.67860092857146,47.63258283138276L249.4186937857143,53.59151952266694L250.15878664285717,51.41093842983247L251.6389723571429,55.77228038311006L252.37906521428573,57.61451636552812L253.85925092857147,53.69812171459199L254.5993437857143,55.77511172294618L255.33943664285718,57.384930658340465L256.81962235714286,55.13071225881578L257.55971521428575,60.77256135940553L258.29980807142863,55.716372656822216L259.03990092857146,56.419825780391704L259.77999378571434,55.18183367252351L260.52008664285717,56.467351841926586L261.2601795,56.51660816669465L262.0002723571429,57.42717604637147L262.74036521428576,57.52063273191453L263.4804580714286,52.648953008651745L264.22055092857147,52.428602862358105L264.9606437857143,51.15778069496156L267.61757714285716,55.573974239826214L268.35767000000004,61.6114693760872L269.0977628571429,61.4121969819069L269.83785571428575,58.47043489217759L271.31804142857146,60.99513612985612L272.0581342857143,62.69800727367402L272.7982271428572,62.30804638862611L274.2784128571429,64.3726998448372L275.7585985714286,59.93742846250535L277.2387842857143,59.270400750637066L277.9788771428572,59.743009793758404L278.71897000000007,60.53117840290071L279.4590628571429,57.28767638206483L280.1991557142857,60.31165968179704L281.67934142857143,61.046302485466015L282.4194342857143,60.13730757236482L283.1595271428572,55.5536605000496L283.89962,56.82405571937562L284.63971285714285,60.569468903541576L285.37980571428574,60.5573345899582L286.1198985714286,58.870013344287884L286.85999142857145,53.177514719963085L290.56045571428575,58.755793499946606L292.04064142857146,60.0535133957863L292.78073428571435,57.6647838830948L294.26092,55.1615199327469L295.0010128571429,58.76098428964616L295.7411057142857,68.54670147895814L296.4811985714286,72.47325299978257L297.2212914285715,73.4272122859955L297.96138428571436,59.02879308462144L298.7014771428572,56.39045624732972L299.44157,58.54919557571412L300.1816628571429,55.620691347122204L300.9217557142857,70.55821113586427L301.8468717857143,85.13287000656129L304.0671503571429,74.96824764013292L304.8072432142858,86.5254622578621L305.54733607142856,59.33390365839006L306.28742892857144,53.332384514808666L307.0275217857143,53.908157694339764L308.50770750000004,48.44212131500245L309.2478003571429,52.909728395938885L309.98789321428575,49.84617375135423L310.7279860714286,53.01624070405961L311.46807892857146,60.84085057973863L312.20817178571434,72.61846028566362L312.94826464285717,54.50761525630952L313.68835750000005,52.7896885752678L314.42845035714294,54.049814569950115L315.1685432142857,55.06727676391603L315.9086360714286,50.965788888931286L316.6487289285715,53.82901500463487L317.3888217857143,51.3865799188614L318.1289146428572,49.592117178440105L318.86900750000007,49.63863204717637L319.6091003571429,51.63553558588029L321.0892860714286,55.47454028129579L321.8293789285715,53.456514048576366L323.3095646428572,59.45767365694047L324.78975035714285,55.67978994846345L326.2699360714286,58.57973359823228L327.7501217857143,57.82439504861833L328.4902146428572,56.40492753982545L329.23030750000004,53.76562445163728L329.97040035714286,54.53343437910081L330.71049321428575,51.087154495716106L331.45058607142863,47.899065840244305L332.19067892857146,57.32410179376603L332.93077178571434,56.676511454582226L333.67086464285717,56.70752136707307L334.4109575,55.221989262104046L335.1510503571429,53.843373942375194L335.89114321428576,53.11241637468339L336.6312360714286,53.840610015392315L337.3713289285715,57.020991134643566L338.11142178571436,54.468965220451366L338.8515146428572,54.78155862092973L339.5916075,56.5396184206009L340.3317003571429,54.95600061416627L341.0717932142858,56.2215870499611L341.8118860714286,52.59153972864152L342.5519789285715,54.48896436691285L343.2920717857143,56.991711485385906L344.03216464285714,58.285139429569256L344.7722575,54.899014282226574L345.5123503571429,56.2983253479004L346.25244321428573,51.998374032974255L346.9925360714286,49.560770201683056L347.7326289285715,52.419569540023815L348.4727217857143,52.60616831779481L349.21281464285715,53.9510547399521L350.6930003571429,52.11958234310151L351.43309321428575,51.11508588790895L352.91327892857146,51.649063098430645L353.6533717857143,52.45221983194352L354.39346464285717,51.930758941173565L355.13355750000005,53.12533717155458L355.8736503571429,50.74512414932252L356.61374321428576,51.308740544319164L357.35383607142865,48.19999681711198L358.8340217857143,50.23534815311433L359.5741146428572,50.73824803829194L361.0543003571429,52.45206253528596L361.7943932142858,47.09599899053575L362.5344860714286,51.41983692646028L363.27457892857143,50.92401539087297L364.0146717857143,49.22988544702531L365.4948575,50.76539294719697L366.2349503571429,54.466740596294414L366.9750432142858,46.837201046943676L367.71513607142856,55.18814800977708L369.9354146428572,49.86289213895799L371.4156003571429,51.350716280937206L372.15569321428575,48.98919909000398L373.63587892857146,50.11054449081422L374.37597178571434,51.554303097724926L375.11606464285717,49.5888139486313L376.59625035714294,47.84841631650926L377.3363432142857,49.15797840356828L378.8165289285715,51.740385043621075L380.2967146428572,50.129734683036816L381.03680750000007,47.88259463310243L381.7769003571429,52.97824232578279L383.2570860714286,47.360774207115185L383.9971789285715,48.30866633653642L384.7372717857143,47.59903370141984L386.95755035714285,50.64256672859193L387.69764321428573,47.57923679351808L388.4377360714286,52.43579356670381L389.1778289285715,49.586454498767864L389.9179217857143,50.96190141439439L390.6580146428572,49.16719149351121L392.13820035714286,54.4100014448166L393.61838607142863,50.923251378536236L395.09857178571434,51.521383154392254L396.5787575,47.68069313764573L398.79903607142865,52.65746949911119L399.5391289285715,48.99353598356248L401.0193146428572,49.456078040599834L401.7594075,50.018863010406506L402.4995003571429,46.468879687786114L403.2395932142858,46.75662021636964L403.9796860714286,50.38507210016252L405.45987178571437,50.45374332666398L406.19996464285714,48.167526292800915L406.9400575,51.19386904239656L407.6801503571429,52.998376297950756L408.4202432142858,48.90365217924119L409.1603360714286,50.56153647899629L409.9004289285715,48.77329819202424L410.6405217857143,47.15685032606126L411.38061464285715,48.21067051887513L412.12070750000004,51.13018636703492L412.8608003571429,53.405527460575115L413.60089321428575,49.503626573085796L415.0810789285715,47.1120432496071L415.8211717857143,51.10553573369981L416.56126464285717,49.94859634637834L417.30135750000005,53.687874960899364L418.04145035714293,49.1441362977028L418.78154321428576,50.35934286117555L419.52163607142865,55.010672438144695L420.2617289285715,49.72653840780259L421.0018217857143,48.11060737371446L421.7419146428572,51.80642716884614L422.48200750000007,50.637263584136974L423.2221003571429,51.25143961906434L423.9621932142858,49.74375115633012L424.70228607142866,48.23210780620576L425.44237892857143,48.49486063718797L426.1824717857143,52.03718136548997L426.9225646428572,47.66586230993272L427.6626575,52.11018948554994L428.4027503571429,46.91580443382264L429.8829360714286,52.44275956153871L430.62302892857144,53.76575927734376L433.5834003571429,50.4354519724846L435.0635860714286,48.18177287578584L435.80367892857146,48.221883523464214L436.54377178571434,49.682000982761394L437.28386464285717,48.43785183429719L438.02395750000005,55.18596832752229L438.76405035714293,49.33603821992875L440.2442360714286,49.865498769283306L440.9843289285715,53.69585214853288L441.72442178571436,48.805588948726665L443.94470035714295,45.968339252471935L444.6847932142857,48.405965554714214L446.1649789285715,48.99070464372636L448.3852575000001,48.66523538827897L449.1253503571429,52.39037977457048L449.86544321428573,51.4369373202324L450.6055360714286,51.915501165390026L451.3456289285715,53.48790596723558L452.0857217857143,44.15695588588716L452.8258146428572,48.64429246187211L453.56590750000004,51.17180256843568L454.30600035714286,49.212672698497784L455.04609321428575,44.64522718191148L455.78618607142863,50.91307203769685L457.26637178571434,47.38704274892808L458.0064646428572,51.213868188858044L458.74655750000005,51.26501207351686L459.4866503571429,49.140855538845074L460.22674321428576,55.996001172065746L460.96683607142865,50.041221606731426L461.7069289285715,50.37696008682252L463.1871146428572,51.60362683534623L463.9272075,51.34698610305787L464.6673003571429,49.020411241054546L465.4073932142858,51.07922224998475L469.8479503571429,51.87325577735902L471.3281360714286,56.817943620681774L472.0682289285715,57.192534375190746L472.8083217857143,54.509952235221874L473.54841464285715,56.74677811861039L474.28850750000004,56.13568060398103L475.0286003571429,58.282914805412304L475.76869321428575,57.19556795358659L476.50878607142863,54.57812910079957L477.2488789285715,146.20087044239045L477.98897178571434,176.81608067750932L478.72906464285717,192.8071285367012L479.46915750000005,195.06460522413255L480.20925035714293,198.90459864139558L480.94934321428576,198.98832540512086L481.68943607142864,198.53542338609697L482.4295289285715,198.56417496800424L483.1696217857143,195.23038466572763L484.64980750000007,195.20974509716035L485.3899003571429,199.6249049782753L486.1299932142858,198.68604617118837L487.61017892857143,201.2288477599621L489.0903646428572,199.68883483409883L489.8304575000001,201.48333128094674L490.5705503571429,198.06197168231012L491.3106432142858,200.76840673685075L492.0507360714286,197.8149148106575L493.5309217857143,195.56953873038293L494.2710146428572,198.29910762906076L495.01110750000004,194.8404462516308L495.7512003571429,194.9987091600895L496.4912932142858,200.96742071509362L497.2313860714286,194.38660045266153L497.97147892857146,202.10915850400926L498.71157178571434,201.47893821001054L499.4516646428572,202.12113552093507L500.19175750000005,202.163358438015L500.93185035714293,198.5863762676716L501.67194321428576,199.52714510560037L503.15212892857147,199.49732615351678L503.89222178571436,202.2521524012089L504.6323146428572,201.5537889480591L505.37240750000007,195.41624190211297L506.11250035714295,202.2409393966198L506.8525932142857,200.71070133447648L507.5926860714286,196.7559937119484L508.3327789285715,205.8193484723568L509.07287178571437,196.24244259595872L509.8129646428572,201.63775165677072L510.5530575000001,199.8811861753464L511.2931503571429,195.66899515986444L512.0332432142858,202.29876838922502L512.7733360714286,202.50111930370332L514.2535217857144,199.1800250887871L514.9936146428572,198.69128190279008L515.7337075,197.6393043279648L517.2138932142858,201.24047647714616L517.9539860714286,202.3185428261757L518.6940789285715,200.08172817826272L519.4341717857144,203.32512907981874L520.9143575,202.229524153471L521.6544503571429,198.0934422492981L522.3945432142858,198.56310759782792L523.1346360714286,200.30750505924226L523.8747289285715,197.64751746058465L524.6148217857144,201.82699077129365L525.3549146428571,201.95062594413758L526.8351003571429,198.954652684927L528.3152860714287,201.27305935621263L529.0553789285715,197.6484837114811L529.7954717857143,199.33408592939378L532.0157503571429,196.69260315895082L534.9761217857143,201.94054772257806L535.7162146428572,196.61574127078057L536.4563075000001,202.52030949592591L537.1964003571429,195.11306383013726L537.9364932142857,199.31044648885728L538.6765860714287,199.78733624815942L539.4166789285714,202.43789728283883L540.1567717857143,200.59754886031152L542.3770503571429,197.18642477989198L543.1171432142858,199.02867199778558L543.8572360714287,201.5572045326233L544.5973289285714,199.7267320930958L546.0775146428572,196.08364038467408L546.8176075000001,197.99243532419206L547.557700357143,197.78935410380365L549.0378860714286,199.61271448731424L549.7779789285714,200.59976224899293L550.5180717857144,200.06038077473642L551.2581646428572,200.36745755672456L551.9982575,200.77627156972886L552.738350357143,202.5612628042698L553.4784432142858,200.89974944591523L554.2185360714286,201.47175874114038L554.9586289285714,202.24287189841272L555.6987217857144,200.48383461236955L556.4388146428572,199.11639859080316L557.1789075,199.7222266674042L557.919000357143,199.03490768671037L558.6590932142857,198.74674021005632L559.3991860714286,202.07780029177667L560.1392789285715,197.8748673081398L562.3595575,199.3847017467022L563.099650357143,198.54224331974984L564.5798360714286,199.89072509407998L565.3199289285715,193.3669248700142L566.0600217857144,198.0336021065712L566.8001146428572,200.3969282090664L567.5402075000001,193.89045308828355L568.2803003571429,201.04010300636293L569.0203932142857,198.8061534047127L569.7604860714287,203.29623143672944L570.5005789285715,193.91078929901124L571.2406717857143,202.23338915705682L571.9807646428573,198.05475850701333L573.4609503571429,197.96198718547822L574.2010432142857,197.65268577933313L574.9411360714287,200.4071974337101L575.6812289285715,202.01527487039567L576.4213217857143,203.59129749536515L577.1614146428573,196.27896912693978L577.9015075,195.81404514908792L578.6416003571429,201.62732513546945L579.3816932142857,208.70909031033517L580.1217860714287,212.09613676667215L580.8618789285715,201.904021191597L581.6019717857143,199.11089320778848L582.3420646428573,196.40100886225702L583.0821575,200.26436083316804L583.8222503571429,196.0753935456276L584.5623432142858,194.96499149799348L585.3024360714287,195.6505240380764L586.0425289285715,194.39566748142244L586.7826217857144,56.25518112182618L587.5227146428572,66.2315643310547L589.002900357143,71.04108940362931L590.4830860714286,52.04632704257966L591.9632717857143,49.398934412002575L594.183550357143,79.5772868871689L594.9236432142858,52.39116625785829L595.6637360714286,59.350622045993816L596.4038289285716,55.84472672939302L597.1439217857143,54.66497932672502L597.8840146428572,56.21385704278947L598.6241075,51.59733496904374L599.364200357143,58.27718471288682L600.1042932142858,55.158553767204296L600.8443860714286,53.318272757530224L601.5844789285715,53.79838709831239L602.3245717857143,57.28354172706605L603.0646646428572,55.04943482875825L605.2849432142858,56.15862344503404L606.0250360714286,54.16520290374757L606.7651289285715,54.208099949359905L608.2453146428572,50.02191905975343L608.9854075000001,50.6096018433571L609.7255003571429,46.03337018489839L610.4655932142858,48.153526890277874L611.2056860714285,48.645213770866405L611.9457789285715,50.967811274528515L612.6858717857143,49.58605002164842L613.4259646428573,49.69418023824693L614.1660575000001,50.38298230171205L615.6462432142858,49.19615654945375L616.3863360714286,48.35475425720216L617.1264289285715,46.01110147237779L617.8665217857143,47.68395142555238L618.6066146428573,50.86102931499482L620.0868003571429,50.17887865304948L620.8268932142857,50.16425006389619L621.5669860714286,48.47742317914964L622.3070789285715,48.990322637557995L623.0471717857143,47.28041808605195L623.7872646428573,51.27633743286134L624.5273575000001,52.42983876466752L625.2674503571429,47.30136101245881L626.0075432142858,51.33150361776353L626.7476360714286,48.51910679340364L627.4877289285715,50.24806671142579L628.2278217857144,58.869429099559795L628.9679146428572,54.618037509918224L629.7080075000001,54.13601313829423L631.1881932142858,55.29223345518113L631.9282860714286,52.70097326040269L632.6683789285715,55.22873054742814L633.4084717857144,56.93973617553712L634.1485646428572,57.266373920440685L634.8886575000001,58.42848162651063L635.6287503571428,56.00970845222474L636.3688432142858,59.59647672176362L638.5891217857144,54.60576837062837L639.3292146428572,55.75965170860292L640.8094003571429,55.438069927692425L641.5494932142858,53.26236503124238L642.2895860714286,45.82733403444291L643.0296789285715,54.09525083303453L643.7697717857144,52.70697300434114L644.5098646428572,49.8706446170807L645.9900503571429,51.23188989162446L646.7301432142858,48.09934942722322L647.4702360714286,49.38814835548402L648.2103289285715,49.045353996753704L648.9504217857144,46.44575707912446L649.6905146428571,47.867718863487255L650.4306075000001,50.26669512987138L651.1707003571429,48.504410791397106L652.6508860714287,55.06804077625276L653.3909789285715,55.89843230247499L654.1310717857144,52.66234569549562L654.8711646428571,58.55090336799623L655.6112575000001,54.10682337284089L656.3513503571429,58.27826331853868L657.0914432142858,56.42852203845979L657.8315360714287,53.91415743827821L658.5716289285715,55.2061697125435L659.3117217857143,51.54886512756349L660.7919075000001,55.09889339208604L661.5320003571429,55.22322516441346L662.2720932142857,55.919262874126446L663.0121860714287,54.686439085006725L663.7522789285715,52.16063677072526L664.4923717857143,52.74200521707536L665.2324646428572,55.70956395864488L665.9725575000001,53.58731745481492L666.7126503571429,50.9695415377617L667.4527432142858,49.14395653009416L668.1928360714287,52.69202982187272L668.9329289285714,48.50551186800004L670.4131146428572,49.53758018016816L671.893300357143,49.756649482250225L672.6333932142858,49.95061873197557L673.3734860714287,50.535447704792034L674.1135789285714,45.93117229938508L674.8536717857144,48.08910267353059L675.5937646428572,48.96787415742875L677.073950357143,48.03899245262147L677.8140432142858,47.08164005279542L678.5541360714286,48.86151914596559L679.2942289285714,46.91229896545411L680.0343217857144,49.12036203145982L680.7744146428572,47.09467320442201L682.254600357143,50.251684534549725L683.7347860714286,51.42536478042604L684.4748789285715,44.95907895565034L685.9550646428572,49.439404594898235L686.6951575,49.104744720458996L687.435250357143,49.77788453102113L689.6555289285715,48.438840556144726L690.3956217857144,47.20208435058595L691.1357146428572,48.51425306797029L691.8758075000001,52.42947922945024L692.615900357143,49.5317152619362L693.3559932142857,50.36624144315721L694.0960860714287,54.57120804786683L694.8361789285715,45.43541817665101L695.5762717857144,48.03074561357499L696.3163646428573,50.90356682538987L697.0564575000001,47.01618217229844L697.7965503571429,50.1315773010254L698.5366432142857,48.43861584663392L700.0168289285715,49.792940068244945L700.7569217857143,50.52535824775697L702.2371075000001,45.86005173921586L702.9772003571429,48.786690878868114L703.7172932142857,50.807525980472576L704.4573860714287,53.67144869565965L705.9375717857143,50.471989738941204L706.6776646428573,48.40569590330125L707.4177575,50.27415548563005L708.1578503571429,54.51388465166093L709.6380360714287,48.403179156780254L711.1182217857144,50.36448870897294L712.5984075,47.1733664751053L713.338500357143,46.314234602451336L714.0785932142858,55.27576224803926L714.8186860714287,47.86531447172166L715.5587789285715,50.582906353473675L718.519150357143,51.338716793060314L719.2592432142858,50.42931740283967L719.9993360714286,50.642971205711376L720.7394289285716,47.375402796268475L721.4795217857143,51.29644893407823L722.9597075,47.926952290534985L723.699800357143,49.449898529052746L724.4398932142858,51.656006622314464L725.1799860714286,50.101151633262646L725.9200789285716,50.3920605659485L726.6601717857143,47.98591606616975L727.4002646428572,50.8302216410637L728.1403575,55.86852346658708L728.880450357143,47.4859149336815L729.6205432142858,50.7731229543686L731.1007289285715,50.14589129686357L731.8408217857143,51.289190816879284L732.5809146428572,48.43288575410844L733.3210075000001,47.86598860025407L734.061100357143,49.119238483905804L734.8011932142858,49.63519399166108L735.5412860714287,48.51088242530824L736.2813789285715,48.96960442066194L737.0214717857143,46.89281665086747L737.7615646428573,49.63474457263948L738.5016575000001,52.41640113592149L739.2417503571429,47.74048833847047L739.9818432142858,46.08013223409654L740.7219360714286,48.730333733558666L741.4620289285715,49.50059299468995L742.2021217857143,50.50596581697465L742.9422146428573,50.87810723781587L744.4224003571429,46.02887599468232L745.1624932142859,52.02221571207048L745.9025860714286,49.13656358718873L746.6426789285715,50.65099333524705L747.3827717857143,48.8527105331421L748.1228646428573,44.73295377492906L748.8629575000001,50.42304800748826L749.6030503571429,52.32921384572984L750.3431432142858,49.135440039634716L751.0832360714286,49.75959317684175L751.8233289285715,51.38992809057237L752.5634217857144,49.315364944934856L754.0436075000001,45.93577884435655L754.783700357143,49.278197991848L755.5237932142858,49.47859393358232L756.2638860714286,48.97054820060731L757.7440717857144,47.19774745702745L758.4841646428572,47.99712907075883L759.2242575000001,52.402109611034405L759.9643503571428,46.652332532405865L760.7044432142858,48.58917121887208L761.4445360714286,49.983898210525524L762.9247217857144,50.44879971742631L763.6648146428572,49.268468070030224L765.1450003571429,45.3077607035637L765.8850932142858,51.637692797184L766.6251860714286,49.16831504106523L767.3652789285716,50.52890865802766L768.1053717857144,48.615170109272015L768.8454646428572,48.5180057168007L770.3256503571429,49.633283960819256L771.8058360714286,53.010870146751415L774.0261146428572,51.94808404445649L774.7662075000001,47.28304718732835L775.5063003571429,51.26289980411531L776.2463932142858,52.82438372373582L777.7265789285715,47.979219722747814L778.4666717857144,47.70972560644151L779.2067646428571,52.91267209053041L780.6869503571429,47.477151262760174L781.4270432142858,49.228065299987804L782.1671360714287,45.90951030254365L782.9072289285715,51.89896254539491L784.3874146428572,49.7662670493126L785.1275075000001,48.986098098754894L785.8676003571429,49.64633958339692L786.6076932142859,47.51317219734193L787.3477860714287,52.01403628587724L788.0878789285715,55.59231053590776L788.8279717857143,55.16378949880601L789.5680646428572,53.23211913108827L790.3081575000001,55.471596586704266L791.0482503571429,53.77200620174409L791.7883432142858,51.33552591800691L792.5284360714287,52.4366025209427L794.0086217857144,51.133871603012096L795.4888075000001,51.64641152620317L796.228900357143,55.14093654155732L797.7090860714287,56.47227298021318L798.4491789285714,54.21625690460206L799.1892717857144,53.00361202955247L799.9293646428572,54.26425485610963L800.6694575000001,53.73421006202699L801.409550357143,52.60868506431581L802.1496432142858,50.63901631832124L802.8897360714287,52.75436424016954L803.6298289285714,52.09079705476762L804.3699217857144,51.667264568805706L805.1100146428572,53.7935783147812L805.8501075000001,51.47844116687776L807.3302932142858,53.643202710151684L808.0703860714286,51.69454430341722L808.8104789285715,50.431519556045544L809.5505717857144,47.81104712486268L810.2906646428572,45.4177335381508L811.0307575,52.53866558074952L812.5109432142858,51.61580609083177L813.9911289285715,47.51159923076631L814.7312217857144,47.07921319007875L816.2114075000001,47.16028838157655L816.951500357143,49.573264050483715L818.4316860714287,50.1286111354828L819.1717789285715,52.314315605163586L819.9118717857144,50.26298742294313L820.6519646428573,48.73347966670991L822.132150357143,47.83199005126954L822.8722432142857,45.5963326573372L823.6123360714287,50.937071013450634L825.0925217857144,50.41996948719026L825.8326146428573,48.022566187381756L826.5727075000001,52.16877125501634L827.3128003571429,51.57895373106004L828.7929860714287,48.23642222881318L829.5330789285715,50.52666156291963L831.0132646428573,50.096904623508465L832.4934503571429,53.79982523918153L833.2335432142858,51.66081540584565L833.9736360714287,55.10163484811784L834.7137289285715,53.91121374368669L835.4538217857144,52.57772009372712L836.1939146428573,53.8450817346573L836.9340075,51.306785571575176L838.4141932142858,55.5254594564438L839.8943789285715,53.96918879747392L840.6344717857144,53.18915467262269L841.3745646428573,56.19848691225053L842.1146575,53.62327097654344L842.854750357143,56.20969991683961L843.5948432142858,56.30466215610505L844.3349360714287,53.22969226837159L845.0750289285716,51.8313699245453L845.8151217857144,51.50635008811952L846.5552146428572,53.10345046520234L848.035400357143,56.39724247455598L848.7754932142858,53.966784405708324L849.5155860714286,53.41716741323472L850.2556789285716,56.520338344573986L852.4759575,56.07366077899934L853.216050357143,54.882363307476055L853.9561432142858,52.632841336727154L854.6962360714286,52.31188874244691L855.4363289285716,54.99408887624742L856.9165146428572,52.41174964904786L857.6566075000001,57.845742452144634L858.396700357143,50.66546462774278L859.1367932142858,56.057976055145275L859.8768860714287,52.95974873304368L863.577350357143,54.11082320213319L864.3174432142858,55.52548192739488L865.0575360714287,54.89460997581483L865.7976289285715,53.04671131372453L866.5377217857143,52.95979367494584L867.2778146428573,51.65268092155458L868.0179075000001,52.407053220272076L868.7580003571429,54.39955245256425L869.4980932142859,52.54518215656282L870.2381860714286,54.22805415391923L870.9782789285715,52.634301948547375L871.7183717857143,54.54188345670701L872.4584646428573,50.44358645677568L873.1985575000001,52.111987161636364L873.9386503571429,59.14161972999574L874.6787432142859,48.242781507968914L875.4188360714286,47.07056187391282L876.1589289285715,44.740481543540966L876.8990217857144,49.71026943922044L877.6391146428573,50.60211901664735L878.3792075000001,47.30967526435853L879.119300357143,47.082583832740795L879.8593932142858,45.7775608778L880.5994860714286,52.94163714647294L882.0796717857144,49.61773406267167L883.5598575000001,45.16828351020814L884.299950357143,49.75141375064851L885.0400432142858,51.17818431854249L885.7801360714286,48.81158869266511L886.5202289285716,53.430020797252666L888.0004146428572,52.82499043941499L889.4806003571429,49.03820823431016L890.2206932142858,51.832358646392834L890.9607860714286,50.24923520088197L891.7008789285716,48.650157380104076L893.1810646428572,49.260198760032665L893.9211575000002,50.73788850307466L894.6612503571429,47.998185205459606L895.4013432142858,50.38048802614213L896.1414360714286,47.02761988639833L898.3617146428572,46.78574256896974L899.1018075000001,52.226386773586285L901.3220860714287,49.41230462789537L902.0621789285715,49.095688927173626L902.8022717857144,48.41868411302568L905.0225503571429,48.47463678121568L905.7626432142858,50.70195745229722L907.2428289285715,49.40850703716279L907.9829217857144,47.22985844612123L908.7230146428572,49.05274693965913L909.4631075000001,50.97931640148164L910.2032003571429,46.68774675130845L910.9432932142859,50.85959117412568L911.6833860714287,52.96734391450883L912.4234789285715,45.78998731374742L913.1635717857145,48.56620590686799L913.9036646428572,48.640404987335216L915.3838503571429,50.45441745519639L916.1239432142859,51.54630343914033L916.8640360714287,48.265185046195995L918.3442217857144,54.380384731292736L919.0843146428572,53.160751390457165L919.8244075000001,46.41016309261323L920.564500357143,47.1947138786316L921.3045932142858,50.07099561691285L922.0446860714287,50.04585062265397L922.7847789285715,51.585560190677654L923.5248717857144,48.92711185216905L924.2649646428572,49.736493039131176L925.0050575000001,50.87125359773637L925.745150357143,48.169009375572216L927.2253360714287,46.964701223373424L927.9654289285714,47.23621772527696L928.7055217857144,48.920617747306835L929.4456146428572,49.941517996788036L930.1857075000001,44.96537082195283L930.925800357143,43.93824611902238L931.6658932142858,46.81317960023881L932.4059860714287,50.71921514272691L933.1460789285715,48.96627871990205L933.8861717857144,46.645478892326366L934.6262646428572,48.38477544784547L935.3663575000002,50.7940209388733L936.106450357143,48.629124569892895L936.8465432142858,48.532297241687786L938.3267289285715,51.771732020378124L939.0668217857144,46.95863406658174L939.8069146428572,47.15635596513749L940.5470075000001,52.69409714937211L941.287100357143,49.525805401802074L942.0271932142858,59.26383923292161L942.7672860714287,55.01006572246553L945.7276575000001,52.0893364429474L947.2078432142857,54.12913702726365L947.9479360714287,52.694254446029674L949.4281217857144,55.13837485313417L950.1682146428573,51.961409318447124L950.9083075000001,53.104933547973644L951.648400357143,51.76375483274461L952.3884932142857,54.584690618515026L953.8686789285715,55.1367344737053L954.6087717857145,51.29501079320909L955.3488646428573,47.96423159837724L956.0889575000001,49.67350696325303L956.8290503571429,49.457471239566814L957.5691432142858,50.433070051670086L958.3092360714287,48.5751044034958L959.0493289285715,49.965786623954784L959.7894217857144,47.619572150707256L960.5295146428573,50.58674888610841L961.2696075000001,48.093035089969646L962.009700357143,49.56921927928926L962.7497932142858,47.85900013446809L963.4898860714287,46.80261825323106L964.2299789285715,51.298426377773296L964.9700717857144,44.585589277744305L965.7101646428573,51.39422004222871L966.4502575,49.40342860221864L967.190350357143,50.07086079120637L967.9304432142858,46.61019949913026L969.4106289285716,49.72696535587312L970.1507217857144,46.93798326253892L970.8908146428573,50.972620058059704L972.371000357143,55.06631051301957L973.1110932142858,48.46542369127275L973.8511860714287,48.83646403551103L974.5912789285716,47.973646926879894L975.3313717857144,49.68912427425386L976.0714646428572,48.989558625221264L977.551650357143,49.01787202358247L979.0318360714286,49.94023715257646L980.5120217857143,48.046228098869335L981.2521146428572,46.462722647190105L982.732300357143,51.44788067340852L983.4723932142858,49.43574182987214L984.2124860714287,46.198419320583355L984.9525789285716,49.174382197856914L985.6926717857143,47.720579075813305L986.4327646428573,47.660559165477764L987.912950357143,47.71556805372239L988.6530432142858,48.31021683216096L989.3931360714287,49.43327002525331L990.1332289285715,48.11346118450166L990.8733217857143,48.74386124610902L991.6134146428573,47.52703677415849L992.3535075000001,49.10436271429063L993.093600357143,47.32428138256074L993.8336932142859,52.68504135608674L994.5737860714287,47.40295218229295L996.0539717857143,53.116191494464886L996.7940646428573,62.529362785816204" style="fill: none;" fill="none"></path></g></g></g></g></g></g><g transform="translate(58, 377)" clip-path="url(#clip_1)"><clipPath id="clip_1"><rect width="1036" height="22"></rect></clipPath><g><g><line x1="0" y1="0" x2="0" y2="5" style="visibility: inherit;" fill="rgb(0, 0, 0)" stroke="rgb(204, 204, 204)" stroke-width="1px"></line><line x1="74.00928571428572" y1="0" x2="74.00928571428572" y2="5" style="visibility: inherit;" fill="rgb(0, 0, 0)" stroke="rgb(204, 204, 204)" stroke-width="1px"></line><line x1="148.01857142857145" y1="0" x2="148.01857142857145" y2="5" style="visibility: inherit;" fill="rgb(0, 0, 0)" stroke="rgb(204, 204, 204)" stroke-width="1px"></line><line x1="222.02785714285716" y1="0" x2="222.02785714285716" y2="5" style="visibility: inherit;" fill="rgb(0, 0, 0)" stroke="rgb(204, 204, 204)" stroke-width="1px"></line><line x1="296.0371428571429" y1="0" x2="296.0371428571429" y2="5" style="visibility: inherit;" fill="rgb(0, 0, 0)" stroke="rgb(204, 204, 204)" stroke-width="1px"></line><line x1="370.04642857142863" y1="0" x2="370.04642857142863" y2="5" style="visibility: inherit;" fill="rgb(0, 0, 0)" stroke="rgb(204, 204, 204)" stroke-width="1px"></line><line x1="444.0557142857143" y1="0" x2="444.0557142857143" y2="5" style="visibility: inherit;" fill="rgb(0, 0, 0)" stroke="rgb(204, 204, 204)" stroke-width="1px"></line><line x1="518.065" y1="0" x2="518.065" y2="5" style="visibility: inherit;" fill="rgb(0, 0, 0)" stroke="rgb(204, 204, 204)" stroke-width="1px"></line><line x1="592.0742857142858" y1="0" x2="592.0742857142858" y2="5" style="visibility: inherit;" fill="rgb(0, 0, 0)" stroke="rgb(204, 204, 204)" stroke-width="1px"></line><line x1="666.0835714285715" y1="0" x2="666.0835714285715" y2="5" style="visibility: inherit;" fill="rgb(0, 0, 0)" stroke="rgb(204, 204, 204)" stroke-width="1px"></line><line x1="740.0928571428573" y1="0" x2="740.0928571428573" y2="5" style="visibility: inherit;" fill="rgb(0, 0, 0)" stroke="rgb(204, 204, 204)" stroke-width="1px"></line><line x1="814.1021428571429" y1="0" x2="814.1021428571429" y2="5" style="visibility: inherit;" fill="rgb(0, 0, 0)" stroke="rgb(204, 204, 204)" stroke-width="1px"></line><line x1="888.1114285714286" y1="0" x2="888.1114285714286" y2="5" style="visibility: inherit;" fill="rgb(0, 0, 0)" stroke="rgb(204, 204, 204)" stroke-width="1px"></line><line x1="962.1207142857144" y1="0" x2="962.1207142857144" y2="5" style="visibility: inherit;" fill="rgb(0, 0, 0)" stroke="rgb(204, 204, 204)" stroke-width="1px"></line><line x1="1036.13" y1="0" x2="1036.13" y2="5" style="visibility: inherit;" fill="rgb(0, 0, 0)" stroke="rgb(204, 204, 204)" stroke-width="1px"></line></g><g transform="translate(0, 8)"><text x="0" y="0" dx="0em" dy="0.95em" style="text-anchor: middle; visibility: hidden; font-family: &quot;Helvetica Neue&quot;, sans-serif; font-size: 12px; font-weight: 200;" fill="rgb(50, 49, 63)" stroke="none" stroke-width="1px">-10k</text><text x="74.00928571428572" y="0" dx="0em" dy="0.95em" style="text-anchor: middle; visibility: inherit; font-family: &quot;Helvetica Neue&quot;, sans-serif; font-size: 12px; font-weight: 200;" fill="rgb(50, 49, 63)" stroke="none" stroke-width="1px">0</text><text x="148.01857142857145" y="0" dx="0em" dy="0.95em" style="text-anchor: middle; visibility: inherit; font-family: &quot;Helvetica Neue&quot;, sans-serif; font-size: 12px; font-weight: 200;" fill="rgb(50, 49, 63)" stroke="none" stroke-width="1px">10k</text><text x="222.02785714285716" y="0" dx="0em" dy="0.95em" style="text-anchor: middle; visibility: inherit; font-family: &quot;Helvetica Neue&quot;, sans-serif; font-size: 12px; font-weight: 200;" fill="rgb(50, 49, 63)" stroke="none" stroke-width="1px">20k</text><text x="296.0371428571429" y="0" dx="0em" dy="0.95em" style="text-anchor: middle; visibility: inherit; font-family: &quot;Helvetica Neue&quot;, sans-serif; font-size: 12px; font-weight: 200;" fill="rgb(50, 49, 63)" stroke="none" stroke-width="1px">30k</text><text x="370.04642857142863" y="0" dx="0em" dy="0.95em" style="text-anchor: middle; visibility: inherit; font-family: &quot;Helvetica Neue&quot;, sans-serif; font-size: 12px; font-weight: 200;" fill="rgb(50, 49, 63)" stroke="none" stroke-width="1px">40k</text><text x="444.0557142857143" y="0" dx="0em" dy="0.95em" style="text-anchor: middle; visibility: inherit; font-family: &quot;Helvetica Neue&quot;, sans-serif; font-size: 12px; font-weight: 200;" fill="rgb(50, 49, 63)" stroke="none" stroke-width="1px">50k</text><text x="518.065" y="0" dx="0em" dy="0.95em" style="text-anchor: middle; visibility: inherit; font-family: &quot;Helvetica Neue&quot;, sans-serif; font-size: 12px; font-weight: 200;" fill="rgb(50, 49, 63)" stroke="none" stroke-width="1px">60k</text><text x="592.0742857142858" y="0" dx="0em" dy="0.95em" style="text-anchor: middle; visibility: inherit; font-family: &quot;Helvetica Neue&quot;, sans-serif; font-size: 12px; font-weight: 200;" fill="rgb(50, 49, 63)" stroke="none" stroke-width="1px">70k</text><text x="666.0835714285715" y="0" dx="0em" dy="0.95em" style="text-anchor: middle; visibility: inherit; font-family: &quot;Helvetica Neue&quot;, sans-serif; font-size: 12px; font-weight: 200;" fill="rgb(50, 49, 63)" stroke="none" stroke-width="1px">80k</text><text x="740.0928571428573" y="0" dx="0em" dy="0.95em" style="text-anchor: middle; visibility: inherit; font-family: &quot;Helvetica Neue&quot;, sans-serif; font-size: 12px; font-weight: 200;" fill="rgb(50, 49, 63)" stroke="none" stroke-width="1px">90k</text><text x="814.1021428571429" y="0" dx="0em" dy="0.95em" style="text-anchor: middle; visibility: inherit; font-family: &quot;Helvetica Neue&quot;, sans-serif; font-size: 12px; font-weight: 200;" fill="rgb(50, 49, 63)" stroke="none" stroke-width="1px">100k</text><text x="888.1114285714286" y="0" dx="0em" dy="0.95em" style="text-anchor: middle; visibility: inherit; font-family: &quot;Helvetica Neue&quot;, sans-serif; font-size: 12px; font-weight: 200;" fill="rgb(50, 49, 63)" stroke="none" stroke-width="1px">110k</text><text x="962.1207142857144" y="0" dx="0em" dy="0.95em" style="text-anchor: middle; visibility: inherit; font-family: &quot;Helvetica Neue&quot;, sans-serif; font-size: 12px; font-weight: 200;" fill="rgb(50, 49, 63)" stroke="none" stroke-width="1px">120k</text><text x="1036.13" y="0" dx="0em" dy="0.95em" style="text-anchor: middle; visibility: hidden; font-family: &quot;Helvetica Neue&quot;, sans-serif; font-size: 12px; font-weight: 200;" fill="rgb(50, 49, 63)" stroke="none" stroke-width="1px">130k</text></g><line x1="0" y1="0" x2="1036.13" y2="0" fill="rgb(0, 0, 0)" stroke="rgb(204, 204, 204)" stroke-width="1px"></line></g></g></g></g></svg>