<svg viewBox="0 0 1094.1319580078125 400.0000305175781" xmlns="http://www.w3.org/2000/svg"><g><g><g><g><g><line x1="58" y1="377" x2="53" y2="377" style="visibility: inherit;" fill="rgb(0, 0, 0)" stroke="rgb(204, 204, 204)" stroke-width="1px"></line><line x1="58" y1="345.5833333333333" x2="53" y2="345.5833333333333" style="visibility: inherit;" fill="rgb(0, 0, 0)" stroke="rgb(204, 204, 204)" stroke-width="1px"></line><line x1="58" y1="314.1666666666667" x2="53" y2="314.1666666666667" style="visibility: inherit;" fill="rgb(0, 0, 0)" stroke="rgb(204, 204, 204)" stroke-width="1px"></line><line x1="58" y1="282.75" x2="53" y2="282.75" style="visibility: inherit;" fill="rgb(0, 0, 0)" stroke="rgb(204, 204, 204)" stroke-width="1px"></line><line x1="58" y1="251.33333333333334" x2="53" y2="251.33333333333334" style="visibility: inherit;" fill="rgb(0, 0, 0)" stroke="rgb(204, 204, 204)" stroke-width="1px"></line><line x1="58" y1="219.91666666666666" x2="53" y2="219.91666666666666" style="visibility: inherit;" fill="rgb(0, 0, 0)" stroke="rgb(204, 204, 204)" stroke-width="1px"></line><line x1="58" y1="188.5" x2="53" y2="188.5" style="visibility: inherit;" fill="rgb(0, 0, 0)" stroke="rgb(204, 204, 204)" stroke-width="1px"></line><line x1="58" y1="157.08333333333331" x2="53" y2="157.08333333333331" style="visibility: inherit;" fill="rgb(0, 0, 0)" stroke="rgb(204, 204, 204)" stroke-width="1px"></line><line x1="58" y1="125.66666666666669" x2="53" y2="125.66666666666669" style="visibility: inherit;" fill="rgb(0, 0, 0)" stroke="rgb(204, 204, 204)" stroke-width="1px"></line><line x1="58" y1="94.25" x2="53" y2="94.25" style="visibility: inherit;" fill="rgb(0, 0, 0)" stroke="rgb(204, 204, 204)" stroke-width="1px"></line><line x1="58" y1="62.833333333333314" x2="53" y2="62.833333333333314" style="visibility: inherit;" fill="rgb(0, 0, 0)" stroke="rgb(204, 204, 204)" stroke-width="1px"></line><line x1="58" y1="31.416666666666686" x2="53" y2="31.416666666666686" style="visibility: inherit;" fill="rgb(0, 0, 0)" stroke="rgb(204, 204, 204)" stroke-width="1px"></line><line x1="58" y1="0" x2="53" y2="0" style="visibility: inherit;" fill="rgb(0, 0, 0)" stroke="rgb(204, 204, 204)" stroke-width="1px"></line></g><g transform="translate(48, 0)"><text x="0" y="377" dx="0em" dy="0.3em" style="text-anchor: end; visibility: hidden; font-family: &quot;Helvetica Neue&quot;, sans-serif; font-size: 12px; font-weight: 200;" fill="rgb(50, 49, 63)" stroke="none" stroke-width="1px">-0.5</text><text x="0" y="345.5833333333333" dx="0em" dy="0.3em" style="text-anchor: end; visibility: inherit; font-family: &quot;Helvetica Neue&quot;, sans-serif; font-size: 12px; font-weight: 200;" fill="rgb(50, 49, 63)" stroke="none" stroke-width="1px">0</text><text x="0" y="314.1666666666667" dx="0em" dy="0.3em" style="text-anchor: end; visibility: inherit; font-family: &quot;Helvetica Neue&quot;, sans-serif; font-size: 12px; font-weight: 200;" fill="rgb(50, 49, 63)" stroke="none" stroke-width="1px">0.5</text><text x="0" y="282.75" dx="0em" dy="0.3em" style="text-anchor: end; visibility: inherit; font-family: &quot;Helvetica Neue&quot;, sans-serif; font-size: 12px; font-weight: 200;" fill="rgb(50, 49, 63)" stroke="none" stroke-width="1px">1</text><text x="0" y="251.33333333333334" dx="0em" dy="0.3em" style="text-anchor: end; visibility: inherit; font-family: &quot;Helvetica Neue&quot;, sans-serif; font-size: 12px; font-weight: 200;" fill="rgb(50, 49, 63)" stroke="none" stroke-width="1px">1.5</text><text x="0" y="219.91666666666666" dx="0em" dy="0.3em" style="text-anchor: end; visibility: inherit; font-family: &quot;Helvetica Neue&quot;, sans-serif; font-size: 12px; font-weight: 200;" fill="rgb(50, 49, 63)" stroke="none" stroke-width="1px">2</text><text x="0" y="188.5" dx="0em" dy="0.3em" style="text-anchor: end; visibility: inherit; font-family: &quot;Helvetica Neue&quot;, sans-serif; font-size: 12px; font-weight: 200;" fill="rgb(50, 49, 63)" stroke="none" stroke-width="1px">2.5</text><text x="0" y="157.08333333333331" dx="0em" dy="0.3em" style="text-anchor: end; visibility: inherit; font-family: &quot;Helvetica Neue&quot;, sans-serif; font-size: 12px; font-weight: 200;" fill="rgb(50, 49, 63)" stroke="none" stroke-width="1px">3</text><text x="0" y="125.66666666666669" dx="0em" dy="0.3em" style="text-anchor: end; visibility: inherit; font-family: &quot;Helvetica Neue&quot;, sans-serif; font-size: 12px; font-weight: 200;" fill="rgb(50, 49, 63)" stroke="none" stroke-width="1px">3.5</text><text x="0" y="94.25" dx="0em" dy="0.3em" style="text-anchor: end; visibility: inherit; font-family: &quot;Helvetica Neue&quot;, sans-serif; font-size: 12px; font-weight: 200;" fill="rgb(50, 49, 63)" stroke="none" stroke-width="1px">4</text><text x="0" y="62.833333333333314" dx="0em" dy="0.3em" style="text-anchor: end; visibility: inherit; font-family: &quot;Helvetica Neue&quot;, sans-serif; font-size: 12px; font-weight: 200;" fill="rgb(50, 49, 63)" stroke="none" stroke-width="1px">4.5</text><text x="0" y="31.416666666666686" dx="0em" dy="0.3em" style="text-anchor: end; visibility: inherit; font-family: &quot;Helvetica Neue&quot;, sans-serif; font-size: 12px; font-weight: 200;" fill="rgb(50, 49, 63)" stroke="none" stroke-width="1px">5</text><text x="0" y="0" dx="0em" dy="0.3em" style="text-anchor: end; visibility: hidden; font-family: &quot;Helvetica Neue&quot;, sans-serif; font-size: 12px; font-weight: 200;" fill="rgb(50, 49, 63)" stroke="none" stroke-width="1px">5.5</text></g><line x1="58" y1="0" x2="58" y2="377" fill="rgb(0, 0, 0)" stroke="rgb(204, 204, 204)" stroke-width="1px"></line></g></g><g transform="translate(58, 0)" clip-path="url(#clip_0)"><clipPath id="clip_0"><rect width="1036" height="376"></rect></clipPath><g><g><g><line x1="0" y1="0" x2="0" y2="377" fill="rgb(0, 0, 0)" stroke="rgb(60, 60, 60)" stroke-width="1px" opacity="0.25"></line><line x1="129.51625" y1="0" x2="129.51625" y2="377" fill="rgb(0, 0, 0)" stroke="rgb(60, 60, 60)" stroke-width="1px" opacity="0.25"></line><line x1="259.0325" y1="0" x2="259.0325" y2="377" fill="rgb(0, 0, 0)" stroke="rgb(60, 60, 60)" stroke-width="1px" opacity="0.25"></line><line x1="388.54875000000004" y1="0" x2="388.54875000000004" y2="377" fill="rgb(0, 0, 0)" stroke="rgb(60, 60, 60)" stroke-width="1px" opacity="0.25"></line><line x1="518.065" y1="0" x2="518.065" y2="377" fill="rgb(0, 0, 0)" stroke="rgb(60, 60, 60)" stroke-width="1px" opacity="0.25"></line><line x1="647.5812500000001" y1="0" x2="647.5812500000001" y2="377" fill="rgb(0, 0, 0)" stroke="rgb(60, 60, 60)" stroke-width="1px" opacity="0.25"></line><line x1="777.0975000000001" y1="0" x2="777.0975000000001" y2="377" fill="rgb(0, 0, 0)" stroke="rgb(60, 60, 60)" stroke-width="1px" opacity="0.25"></line><line x1="906.6137500000001" y1="0" x2="906.6137500000001" y2="377" fill="rgb(0, 0, 0)" stroke="rgb(60, 60, 60)" stroke-width="1px" opacity="0.25"></line><line x1="1036.13" y1="0" x2="1036.13" y2="377" fill="rgb(0, 0, 0)" stroke="rgb(60, 60, 60)" stroke-width="1px" opacity="0.25"></line></g><g><line x1="0" y1="377" x2="1036.13" y2="377" fill="rgb(0, 0, 0)" stroke="rgb(60, 60, 60)" stroke-width="1px" opacity="0.25"></line><line x1="0" y1="345.5833333333333" x2="1036.13" y2="345.5833333333333" fill="rgb(0, 0, 0)" stroke="rgb(60, 60, 60)" stroke-width="1px" opacity="0.25"></line><line x1="0" y1="314.1666666666667" x2="1036.13" y2="314.1666666666667" fill="rgb(0, 0, 0)" stroke="rgb(60, 60, 60)" stroke-width="1px" opacity="0.25"></line><line x1="0" y1="282.75" x2="1036.13" y2="282.75" fill="rgb(0, 0, 0)" stroke="rgb(60, 60, 60)" stroke-width="1px" opacity="0.25"></line><line x1="0" y1="251.33333333333334" x2="1036.13" y2="251.33333333333334" fill="rgb(0, 0, 0)" stroke="rgb(60, 60, 60)" stroke-width="1px" opacity="0.25"></line><line x1="0" y1="219.91666666666666" x2="1036.13" y2="219.91666666666666" fill="rgb(0, 0, 0)" stroke="rgb(60, 60, 60)" stroke-width="1px" opacity="0.25"></line><line x1="0" y1="188.5" x2="1036.13" y2="188.5" fill="rgb(0, 0, 0)" stroke="rgb(60, 60, 60)" stroke-width="1px" opacity="0.25"></line><line x1="0" y1="157.08333333333331" x2="1036.13" y2="157.08333333333331" fill="rgb(0, 0, 0)" stroke="rgb(60, 60, 60)" stroke-width="1px" opacity="0.25"></line><line x1="0" y1="125.66666666666669" x2="1036.13" y2="125.66666666666669" fill="rgb(0, 0, 0)" stroke="rgb(60, 60, 60)" stroke-width="1px" opacity="0.25"></line><line x1="0" y1="94.25" x2="1036.13" y2="94.25" fill="rgb(0, 0, 0)" stroke="rgb(60, 60, 60)" stroke-width="1px" opacity="0.25"></line><line x1="0" y1="62.833333333333314" x2="1036.13" y2="62.833333333333314" fill="rgb(0, 0, 0)" stroke="rgb(60, 60, 60)" stroke-width="1px" opacity="0.25"></line><line x1="0" y1="31.416666666666686" x2="1036.13" y2="31.416666666666686" fill="rgb(0, 0, 0)" stroke="rgb(60, 60, 60)" stroke-width="1px" opacity="0.25"></line><line x1="0" y1="0" x2="1036.13" y2="0" fill="rgb(0, 0, 0)" stroke="rgb(60, 60, 60)" stroke-width="1px" opacity="0.25"></line></g></g></g><g><g><line x1="0" y1="345.5833333333333" x2="1036.13" y2="345.5833333333333" fill="rgb(0, 0, 0)" stroke="rgb(153, 153, 153)" stroke-width="1.5px"></line></g></g><g><g><line x1="129.51625" y1="0" x2="129.51625" y2="377" fill="rgb(0, 0, 0)" stroke="rgb(153, 153, 153)" stroke-width="1.5px"></line></g></g><g><g><g><g><g><path stroke="rgb(255, 112, 67)" stroke-width="2px" d="M150.18704350000002,-24.32459275811516L152.5701425,30.560746184383845L154.90143500000002,4.665439346109963L157.25863075,-0.2886632964865612L159.64172975,53.59418263071507L162.05073200000004,12.283958906284226L164.43383100000003,35.145767108296525L166.81693,42.55649056995384L169.20002900000003,87.15322015880741L171.55722475000002,58.84168160249163L173.88851725,73.40921573108409L176.27161625000002,79.64737081864558L178.5770055,83.2843516966899L180.96010450000003,8.524634398907097L183.31730025000002,59.65254849315909L185.62268950000004,93.83250496375894L187.90217550000003,115.50965713665835L190.20756475000002,134.1324698427629L192.512954,160.87335261136585L194.81834325000003,166.1939090172239L197.14963575000002,171.79777067887014L199.42912175000004,189.69073457823856L201.70860775,189.26355921588043L203.98809375000002,197.59563395647427L206.293483,182.27014839411143L208.65067875000003,199.016875704487L211.03377775,182.90209115435547L213.36507025000003,181.53357644559318L215.72226600000002,191.6280107933476L218.105365,199.56436943619502L220.48846400000002,186.6630702617706L222.87156300000004,190.5850259853829L225.22875875000003,172.49174319787912L227.58595450000004,187.36354442320973L229.917247,192.43286303697062L232.27444275000005,209.20148483302475L234.68344500000003,212.74375110918288L237.06654400000002,223.73279250933524L239.47554625000004,218.99342161768246L241.85864525000002,212.58646352095855L244.24174425,208.53980442085643L246.65074650000003,214.44078981997717L249.03384550000004,184.5666753219022L251.46875100000003,213.6933910469596L253.87775325,197.6161109221042L256.26085225,197.54130138628048L258.69575775000004,190.64789296987803L261.10476000000006,207.54968563201308L263.53966550000007,214.18150575647215L265.974571,216.91579103284775L268.38357325000004,212.71435235230325L270.79257550000005,214.03611765476987L273.20157775,169.1342281630007L275.61058,196.87180953802897L278.01958225,197.08422811974424L280.42858450000006,211.49377234865835L282.8116835000001,226.99909526560475L285.19478250000003,224.23528641732793L287.60378475000005,204.81472697022912L290.03869025,196.05945417581017L292.42178925,207.79741552649742L294.83079150000003,218.40515479552036L297.21389050000005,226.021019862735L299.62289275000006,226.29753560621165L302.05779825,232.15590622503734L304.44089725000003,245.244836098825L306.84989950000005,250.44483910016717L309.2329985,252.8076417566091L311.69380725,237.6207765810142L314.10280950000003,231.57979531719982L316.46000525000005,232.51268695772507L318.86900750000007,240.02384960838648L321.27800975,222.47005350702102L323.68701200000004,234.5693912306215L326.1219175,225.80313700430307L328.5050165,210.58077145810552L330.9140187500001,223.6571757785219L333.32302100000004,225.5233754470987L335.73202325000005,227.4382073812709L338.11512225,239.16515695649534L340.44641475000003,248.1795404012888L342.88132025000004,237.03315866326625L345.2903225,212.93788378438552L347.6734215000001,226.1903856813979L350.08242375000003,242.1440142126921L352.49142600000005,242.93181118162732L354.87452500000006,238.08423103168963L357.257624,244.81279074316436L359.61481975000004,249.3511186629447L361.99791875000005,258.8561540557889L364.40692100000007,264.52615497791453L366.81592325,260.3380914506337L369.25082875000004,266.2465358720434L371.65983100000005,261.4862071760225L374.04293,256.85675230549145L376.45193225,244.4234495257916L378.83503125000004,251.84343804293366L381.26993675000006,267.88234637602267L383.54942275,261.62653087630326L385.82890875000004,264.4756961130368L388.10839475000006,255.3631252922575L390.3878807500001,251.82399787572785L392.66736675000004,260.46459835808133L394.94685275,256.1672090095718L397.2004355000001,256.5686062774523L399.55763125000004,248.35279881565555L401.96663350000006,244.55734234417747L404.32382925,244.8012612344738L406.52560550000004,229.32696388256053L408.75328500000006,252.5775841758142L411.032771,262.65268204324383L413.33816025000004,277.6667227727946L415.72125925000006,258.11131309565565L418.0784550000001,251.1050745353897L419.2181980000001,250.03156484598713L421.29045800000006,254.74163651526845L423.4145245000001,249.13224627213208L425.38317150000006,229.26857167265726L427.5849477500001,222.49459680188843L429.83853050000005,238.61948955219478L432.04030675,246.5098691552569L434.2938895000001,253.12821725426252L436.54747225000006,264.5545214141496L438.801055,256.7851872677657L441.0805410000001,212.87229418566145L443.36002700000006,238.47442507630774L445.639513,231.09593703678962L447.89309575000004,247.69065564273822L450.19848500000006,249.9761917356592L452.477971,261.7997354684636L454.75745700000004,254.6970204205333L457.06284625000006,260.293706231774L459.3682355000001,261.39200292435953L461.64772150000005,237.8225168530603L463.90130425,245.3160216973897L466.2066935000001,250.00978508194342L468.51208275000005,248.1258002674583L470.73976225,249.65393561657288L472.9933450000001,254.6430355382126L475.19512125000006,253.56952299707103L477.42280075,259.6169531069178L479.67638350000004,271.45335599911084L481.90406300000006,258.03541881123306L484.13174250000003,259.98462222186197L486.38532525000005,239.5172160198339L488.6130047500001,254.545065990888L490.89249075000004,263.98913151729283L493.14607350000006,257.3065188489845L494.77797825000005,260.34625039274437L496.79843175,257.97135915224715L498.97430475000004,259.4740717442729L501.04656475,262.4161215801178L503.17063125000004,242.4947144933028L505.52782700000006,250.9166411209593L507.8850227500001,259.1372903773282L510.21631525000004,268.7116960479276L512.54760775,241.63745847106713L514.87890025,249.8198164866015L517.236096,224.96509634846316L519.5673885,232.52198693391006L521.8986810000001,238.68627792936357L524.2299735,255.83133183126725L526.5871692500001,255.96404099189286L528.8666552500001,255.89270963503742L531.2238510000001,243.56904469073115L533.58104675,263.2799331077355L535.9123392500001,240.70747583677874L538.2436317500001,249.20353426279925L540.6008275000002,242.58658313994988L542.93212,261.0265182032906L545.2634125000001,275.90652311889664L547.594705,266.69637284109L549.90009425,275.10141695000135L552.2313867500001,278.14822149549366L554.61448575,283.18152173523765L557.023488,265.08721799153886L559.43249025,280.52636591096L561.7896860000001,267.3104679872549L564.1468817500001,264.9643973046516L566.52998075,263.88204138680146L568.9389830000001,275.483143201692L571.322082,276.8161253717878L573.6792777500001,265.8579505714181L576.0623767500001,262.75645250672517L578.4713790000001,235.00040116267058L580.8803812500001,246.63434210433553L583.237577,244.11352415291861L585.6206760000001,242.40294146185155L588.003775,257.1653442202709L590.3609707500001,268.02037852319296L592.7440697500001,255.68650908457562L595.12716875,274.14447408430175L597.5102677500001,275.36680915462415L599.8674635,268.72146593634744L602.2505625000001,262.04500848713195L604.6336615000001,261.97118492918815L607.068567,258.8819570779658L609.451666,251.9043214543575L611.8347650000001,265.9137470180142L614.2178640000001,245.33742578750937L616.62686625,255.7054082230295L618.9840620000001,251.71881010188054L621.3412577500001,257.5782623651826L623.7243567500001,260.6050826766016L626.1074557500001,262.3141322408868L628.4646515000001,253.20738916445296L630.8477505000001,254.72694938688588L633.2567527500001,263.54048161492216L635.58804525,251.5319279161223L637.9711442500001,248.38756021621592L640.3024367500001,239.17279692150814L642.6337292500001,237.26984861487742L644.9391185000001,259.537109027274L647.19270125,256.2505442837681L647.6071532500001,268.33523697891667L649.9643490000001,268.72741497698723L652.0884155,245.26353247847138L654.316095,255.9307835731068L656.6991940000001,272.41461099583853L659.05638975,274.0361547315058L661.4653920000001,269.9269338276349L663.87439425,257.39189545868015L666.25749325,245.5673976772517L668.6664955,247.30845674078608L671.0495945,254.73590291460917L673.4067902500001,252.68459143392585L675.8157925,221.59212769360747L678.2247947500001,238.82464588458183L680.60789375,245.62379553779863L682.9650895000001,245.66612429736995L685.3222852500002,238.92874201527601L687.7053842500001,222.81362939114194L690.0884832500001,253.69418102245425L692.47158225,258.23545052453414L694.828778,247.52481859035015L697.2118770000001,243.96168202424082L699.56907275,263.7346791879179L701.9780750000001,257.55236827070564L704.361174,272.5930504047973L706.7442730000001,256.51856832767146L709.127372,263.8649172210571L711.5363742500001,260.14806057357055L713.9453765000002,264.48781150982734L716.35437875,272.7932689214108L718.7374777500002,269.36162010973834L721.14648,258.6449928292402L723.5554822500001,259.50743331961445L725.9644845,255.30879626941248L728.3734867500001,261.99579491379797L730.7824890000002,272.92025190291565L733.19149125,242.98337040164725L735.6263967500001,250.5746138363202L738.06130225,258.11308274283726L740.5221110000001,257.97659366298547L742.9311132500001,257.89225237947005L745.3401155000001,268.87044432986556L747.7232145,257.9115105821418L750.1322167500001,256.30937928082903L752.4894125000001,253.05047870947337L754.84660825,257.22859644854117L757.22970725,265.9796680130405L759.6128062500001,275.21417388426323L761.9700020000001,275.735798731091L764.3271977500001,267.51394987979074L766.7102967500001,282.53687126762793L769.0933957500001,268.4201760728784L771.42468825,280.75164121228227L773.7818840000001,276.18180863363204L776.1649830000001,277.4136031645695L778.548082,280.1048842059469L780.9311810000002,292.29110577425735L783.31428,277.1416160586757L785.6714757500001,247.8152608110477L788.0286715,246.083771342077L790.4117705000001,258.03552024009116L792.8207727500002,269.20582361484935L795.229775,260.4681072918497L797.6387772500001,268.0062264137222L799.3742950000001,270.87659612890604L801.4206517500002,260.38949034768257L803.7778475000001,243.15889521136629L806.1609465000001,235.25740191754548L808.5181422500001,237.40921851048972L810.8494347500001,251.18810808688468L813.1807272500001,262.96076039491135L815.5379230000001,254.56890353372518L817.8951187500002,252.9612416395197L820.2264112500001,265.02376193018654L822.5577037500001,264.3625220748498L824.8889962500001,264.4936597521731L827.1943855000001,253.37202636652955L829.4997747500001,250.14989231578767L831.83106725,239.1751131209866L834.1623597500001,246.8441211616875L836.4936522500001,245.83241123969643L838.850848,251.9712187310971L841.2080437500001,227.7046668764502L843.53933625,247.92697264968655L845.87062875,267.4450896315931L848.2278245000001,258.68638849257377L850.5850202500001,239.58060088157026L852.9422160000001,265.2970995728137L855.2735085000002,263.3467428022998L857.6048010000001,277.3699806770311L859.9619967500001,273.1824597184237L862.34509575,273.6927694438522L864.7281947500001,287.1199084018842L867.0594872500002,275.2628483948216L869.3907797500001,288.1010941769941L871.7479755000002,287.27407760458766L874.15697775,289.97746443969555L876.5141735000001,293.1275511754903L878.87136925,297.34990817149594L881.2285650000001,302.944471123855L883.6116640000001,296.4884696382527L885.9688597500001,287.60542711287206L888.3001522500001,283.0553975304135L890.68325125,290.0345669031243L893.0404470000001,291.6896058225692L895.3976427500002,287.0265649499929L897.7548385000001,275.3578441188198L900.1379375000001,265.95941655112074L902.4951332500001,265.7927556689944L904.7487160000001,269.9761718346496L907.0282020000001,273.27470323843676L909.17817175,268.86892004849267L911.5353675000001,272.2697674515352L913.8925632500001,280.0366007893784L916.249759,255.84139746881542L918.6069547500001,275.62499883049935L920.99005375,233.97687145635012L923.2954430000001,233.89229843952967L925.4713160000001,251.9591694073203L927.5435760000001,244.94942907867767" style="fill: none;" fill="none"></path></g></g></g></g><g opacity="0.2"><g><g><g><path stroke="rgb(255, 112, 67)" stroke-width="2px" d="M136.40651450000001,-365.8683102925619L138.737807,38.06857752799988L141.06909950000002,-26.155827522277832L143.16726275000002,10.692247788111388L145.5244585,6.097837130228697L147.88165425,60.45195182164508L150.18704350000002,74.76918347676593L152.5701425,112.39094861348468L154.90143500000002,-34.03659979502356L157.25863075,-7.7036412556966525L159.64172975,134.3128894170125L162.05073200000004,-49.63281806310022L164.43383100000003,69.42235549290973L166.81693,53.66943979263306L169.20002900000003,154.03699143727619L171.55722475000002,16.378686745961488L173.88851725,95.25918539365131L176.27161625000002,89.00426133473712L178.5770055,88.7397033373515L180.96010450000003,-103.61346554756165L183.31730025000002,136.34381397565204L185.62268950000004,145.10219673315686L187.90217550000003,148.0252929528554L190.20756475000002,162.06664125124615L192.512954,200.98463571071625L194.81834325000003,174.17473872502643L197.14963575000002,180.2035600741704L199.42912175000004,216.53017449378967L201.70860775,188.62279625733694L203.98809375000002,210.0937450726827L206.293483,159.28192114830017L208.65067875000003,224.1369659503301L211.03377775,158.729914744695L213.36507025000003,179.48080440362293L215.72226600000002,206.7696622212728L218.105365,211.4689073562622L220.48846400000002,167.31112154324848L222.87156300000004,196.4679595629374L225.22875875000003,145.3518190383911L227.58595450000004,209.6712462504705L229.917247,200.03684095541635L232.27444275000005,234.35441752274832L234.68344500000003,218.05715052286783L237.06654400000002,240.21635460853577L239.47554625000004,211.88436528046927L241.85864525000002,202.97602637608847L244.24174425,202.469815770785L246.65074650000003,223.29226791858673L249.03384550000004,139.75550357500714L251.46875100000003,257.3834646344185L253.87775325,173.50019073486328L256.26085225,197.42908708254495L258.69575775000004,180.30778034528095L261.10476000000006,232.902374625206L263.53966550000007,224.12923594315848L265.974571,221.01721894741058L268.38357325000004,206.41219433148703L270.79257550000005,216.01876560846964L273.20157775,101.78139392534894L275.61058,238.47818160057068L278.01958225,197.4028559923172L280.42858450000006,233.10808869202933L282.8116835000001,250.25707964102426L285.19478250000003,220.08957314491272L287.60378475000005,175.68388779958087L290.03869025,182.9265449841817L292.42178925,225.40435755252838L294.83079150000003,234.31676369905472L297.21389050000005,237.44481746355692L299.62289275000006,226.71230922142664L302.05779825,240.94346215327582L304.44089725000003,264.87823090950644L306.84989950000005,258.2448436021805L309.2329985,256.351845741272L311.69380725,214.84047881762186L314.10280950000003,222.51832342147827L316.46000525000005,233.91202441851297L318.86900750000007,251.29059358437857L321.27800975,196.13935935497284L323.68701200000004,252.71839781602225L326.1219175,212.65375566482544L328.5050165,187.7472231388092L330.9140187500001,243.27178225914636L333.32302100000004,228.3226749499639L335.73202325000005,230.3104552825292L338.11512225,256.7555813193321L340.44641475000003,261.70111556847894L342.88132025000004,220.31358605623245L345.2903225,176.79497146606445L347.6734215000001,246.0691385269165L350.08242375000003,266.0744570096334L352.49142600000005,244.11350663503012L354.87452500000006,230.81286080678305L357.257624,254.9056303103765L359.61481975000004,256.1586105426153L361.99791875000005,273.1137071450552L364.40692100000007,273.03115636110306L366.81592325,254.05599615971246L369.25082875000004,275.109202504158L371.65983100000005,254.34571413199106L374.04293,249.91256999969482L376.45193225,225.77349535624185L378.83503125000004,262.9734208186468L381.26993675000006,291.9407088756561L383.54942275,252.24280762672424L385.82890875000004,268.74944396813714L388.10839475000006,241.69426906108856L390.3878807500001,246.51530675093332L392.66736675000004,273.42549908161163L394.94685275,249.7211249868075L397.2004355000001,257.170702179273L399.55763125000004,236.02908762296042L401.96663350000006,238.86415763696036L404.32382925,245.1671395699183L406.52560550000004,206.11551785469055L408.75328500000006,287.4535146156947L411.032771,277.76532884438836L413.33816025000004,300.18778386712074L415.72125925000006,228.77819857994714L418.0784550000001,240.59571669499078L419.2181980000001,248.4213003118833L421.29045800000006,261.80674401919043L423.4145245000001,240.71816090742746L425.38317150000006,199.47305977344513L427.5849477500001,212.33363449573517L429.83853050000005,262.80682867765427L432.04030675,258.3454385598501L434.2938895000001,263.055739402771L436.54747225000006,281.69397765398026L438.801055,245.1311860481898L441.0805410000001,147.00295456250507L443.36002700000006,276.8776214122772L445.639513,220.02820497751236L447.89309575000004,272.58273355166114L450.19848500000006,253.40449587504068L452.477971,279.5350510676702L454.75745700000004,244.0429478486379L457.06284625000006,268.6887349486351L459.3682355000001,263.03944796323776L461.64772150000005,202.46828774611154L463.90130425,256.55627896388376L466.2066935000001,257.050430158774L468.51208275000005,245.2998230457306L470.73976225,251.9461386402448L472.9933450000001,262.12668542067206L475.19512125000006,251.95925418535867L477.42280075,268.68809827168786L479.67638350000004,289.20796033740044L481.90406300000006,237.9085130294164L484.13174250000003,262.9084273378054L486.38532525000005,208.81610671679178L488.6130047500001,277.0868409474691L490.89249075000004,278.1552298069L493.14607350000006,247.282599846522L494.77797825000005,264.90584770838416L496.79843175,254.40902229150137L498.97430475000004,261.72814063231147L501.04656475,266.8291963338852L503.17063125000004,212.61260386308035L505.52782700000006,263.5495310624441L507.8850227500001,271.4682642618815L510.21631525000004,283.07330455382663L512.54760775,201.02610210577646L514.87890025,262.09335350990295L517.236096,187.68301614125568L519.5673885,243.85732281208038L521.8986810000001,247.93271442254385L524.2299735,281.5489126841227L526.5871692500001,256.16310473283136L528.8666552500001,255.78571259975433L531.2238510000001,225.08354727427164L533.58104675,292.84626573324203L535.9123392500001,206.84878993034363L538.2436317500001,261.9476219018301L540.6008275000002,232.66115645567575L542.93212,288.6864207983017L545.2634125000001,298.22653049230576L547.594705,252.88114742437998L549.90009425,287.70898311336833L552.2313867500001,282.71842831373215L554.61448575,290.7314720948537L557.023488,237.94576237599054L559.43249025,303.6850877900918L561.7896860000001,247.4866211016973L564.1468817500001,261.44529128074646L566.52998075,262.25850751002633L568.9389830000001,292.88479592402774L571.322082,278.81559862693155L573.6792777500001,249.4206883708636L576.0623767500001,258.10420540968573L578.4713790000001,193.36632414658865L580.8803812500001,264.08525351683295L583.237577,240.3322972257932L585.6206760000001,239.837067425251L588.003775,279.3089483579L590.3609707500001,284.30292997757596L592.7440697500001,237.18570492664972L595.12716875,301.8314215838909L597.5102677500001,277.20031176010764L599.8674635,258.7534511089325L602.2505625000001,252.03032231330872L604.6336615000001,261.8604495922724L607.068567,254.2481153011322L609.451666,241.43786801894507L611.8347650000001,286.92788536349934L614.2178640000001,214.4729439417521L616.62686625,271.25738187630975L618.9840620000001,245.7389129201571L621.3412577500001,266.36744076013565L623.7243567500001,265.14531314373016L626.1074557500001,264.8777065873146L628.4646515000001,239.54727454980215L630.8477505000001,257.0062897205353L633.2567527500001,276.76077995697653L635.58804525,233.51909736792246L637.9711442500001,243.6710086663564L640.3024367500001,225.3506519794464L642.6337292500001,234.4154261549314L644.9391185000001,292.93799964586896L647.19270125,251.32069716850916L647.6071532500001,286.4622760216395L649.9643490000001,269.3156819740931L652.0884155,210.06770873069763L654.316095,271.9316602150599L656.6991940000001,297.1403521299362L659.05638975,276.4684703350067L661.4653920000001,263.76310247182846L663.87439425,238.58933790524802L666.25749325,227.83065100510916L668.6664955,249.92004533608755L671.0495945,265.87707217534387L673.4067902500001,249.6076242129008L675.8157925,174.95343208312988L678.2247947500001,264.6734231710434L680.60789375,255.8225200176239L682.9650895000001,245.7296174367269L685.3222852500002,228.8226685921351L687.7053842500001,198.6409604549408L690.0884832500001,300.01500846942264L692.47158225,265.04735477765405L694.828778,231.4588706890742L697.2118770000001,238.6169771750768L699.56907275,293.39417493343353L701.9780750000001,248.2789018948873L704.361174,295.1540736059348L706.7442730000001,232.40684521198273L709.127372,274.88444056113565L711.5363742500001,254.5727756023407L713.9453765000002,270.9974379142126L716.35437875,285.25145503878593L718.7374777500002,264.2141468922297L721.14648,242.57005190849304L723.5554822500001,260.8010940551758L725.9644845,249.0108406941096L728.3734867500001,272.0262928803762L730.7824890000002,289.3069373865922L733.19149125,198.07804814974466L735.6263967500001,261.96147898832953L738.06130225,269.42078610261285L740.5221110000001,257.77186004320777L742.9311132500001,257.76574045419693L745.3401155000001,285.33773225545883L747.7232145,241.47310996055603L750.1322167500001,253.90618232885996L752.4894125000001,248.16212785243988L754.84660825,263.49577305714286L757.22970725,279.1062753597895L759.6128062500001,289.06593269109726L761.9700020000001,276.51823600133264L764.3271977500001,255.18117660284042L766.7102967500001,305.07125334938365L769.0933957500001,247.2451332807541L771.42468825,299.24883892138797L773.7818840000001,269.3270597656568L776.1649830000001,279.26129496097565L778.548082,284.141805768013L780.9311810000002,310.570438126723L783.31428,254.41738148530325L785.6714757500001,203.8257279396057L788.0286715,243.486537138621L790.4117705000001,275.9631435871124L792.8207727500002,285.9612786769867L795.229775,247.36153280735016L797.6387772500001,279.3134050965309L799.3742950000001,275.18215070168173L801.4206517500002,244.65883167584738L803.7778475000001,217.31300250689188L806.1609465000001,223.40516197681427L808.5181422500001,240.63694339990616L810.8494347500001,271.85644245147705L813.1807272500001,280.61973885695136L815.5379230000001,241.9811182419459L817.8951187500002,250.54974879821143L820.2264112500001,283.1175423661868L822.5577037500001,263.3706622918447L824.8889962500001,264.69036626815796L827.1943855000001,236.68957628806433L829.4997747500001,245.3166912396749L831.83106725,222.71294432878494L834.1623597500001,258.34763322273886L836.4936522500001,244.3148463567098L838.850848,261.1794299681982L841.2080437500001,191.3048390944799L843.53933625,278.2604313095411L845.87062875,296.7222651044528L848.2278245000001,245.5483367840449L850.5850202500001,210.921919465065L852.9422160000001,303.8718476096789L855.2735085000002,260.42120764652884L857.6048010000001,298.4048374891281L859.9619967500001,266.90117828051245L862.34509575,274.4582340319952L864.7281947500001,307.26061683893204L867.0594872500002,257.47725838422775L869.3907797500001,307.3584628502528L871.7479755000002,286.03355274597806L874.15697775,294.03254469235736L876.5141735000001,297.85268127918243L878.87136925,303.68344366550446L881.2285650000001,311.3363155523936L883.6116640000001,286.80446740984917L885.9688597500001,274.2808633248011L888.3001522500001,276.2303531567255L890.68325125,300.5033209621906L893.0404470000001,294.17216420173645L895.3976427500002,280.03200364112854L897.7548385000001,257.8547628720602L900.1379375000001,251.86177519957224L902.4951332500001,265.5427643458048L904.7487160000001,276.2512960831324L907.0282020000001,278.2225003441175L909.17817175,262.2602452635765L911.5353675000001,277.37103855609894L913.8925632500001,291.68685079614323L916.249759,219.54859248797098L918.6069547500001,305.30040087302524L920.99005375,171.50468039512634L923.2954430000001,233.765438914299L925.4713160000001,279.0594758590063L927.5435760000001,234.4348185857137" style="fill: none;" fill="none"></path></g></g></g></g></g></g><g transform="translate(58, 377)" clip-path="url(#clip_1)"><clipPath id="clip_1"><rect width="1036" height="22"></rect></clipPath><g><g><line x1="0" y1="0" x2="0" y2="5" style="visibility: inherit;" fill="rgb(0, 0, 0)" stroke="rgb(204, 204, 204)" stroke-width="1px"></line><line x1="129.51625" y1="0" x2="129.51625" y2="5" style="visibility: inherit;" fill="rgb(0, 0, 0)" stroke="rgb(204, 204, 204)" stroke-width="1px"></line><line x1="259.0325" y1="0" x2="259.0325" y2="5" style="visibility: inherit;" fill="rgb(0, 0, 0)" stroke="rgb(204, 204, 204)" stroke-width="1px"></line><line x1="388.54875000000004" y1="0" x2="388.54875000000004" y2="5" style="visibility: inherit;" fill="rgb(0, 0, 0)" stroke="rgb(204, 204, 204)" stroke-width="1px"></line><line x1="518.065" y1="0" x2="518.065" y2="5" style="visibility: inherit;" fill="rgb(0, 0, 0)" stroke="rgb(204, 204, 204)" stroke-width="1px"></line><line x1="647.5812500000001" y1="0" x2="647.5812500000001" y2="5" style="visibility: inherit;" fill="rgb(0, 0, 0)" stroke="rgb(204, 204, 204)" stroke-width="1px"></line><line x1="777.0975000000001" y1="0" x2="777.0975000000001" y2="5" style="visibility: inherit;" fill="rgb(0, 0, 0)" stroke="rgb(204, 204, 204)" stroke-width="1px"></line><line x1="906.6137500000001" y1="0" x2="906.6137500000001" y2="5" style="visibility: inherit;" fill="rgb(0, 0, 0)" stroke="rgb(204, 204, 204)" stroke-width="1px"></line><line x1="1036.13" y1="0" x2="1036.13" y2="5" style="visibility: inherit;" fill="rgb(0, 0, 0)" stroke="rgb(204, 204, 204)" stroke-width="1px"></line></g><g transform="translate(0, 8)"><text x="0" y="0" dx="0em" dy="0.95em" style="text-anchor: middle; visibility: hidden; font-family: &quot;Helvetica Neue&quot;, sans-serif; font-size: 12px; font-weight: 200;" fill="rgb(50, 49, 63)" stroke="none" stroke-width="1px">-5k</text><text x="129.51625" y="0" dx="0em" dy="0.95em" style="text-anchor: middle; visibility: inherit; font-family: &quot;Helvetica Neue&quot;, sans-serif; font-size: 12px; font-weight: 200;" fill="rgb(50, 49, 63)" stroke="none" stroke-width="1px">0</text><text x="259.0325" y="0" dx="0em" dy="0.95em" style="text-anchor: middle; visibility: inherit; font-family: &quot;Helvetica Neue&quot;, sans-serif; font-size: 12px; font-weight: 200;" fill="rgb(50, 49, 63)" stroke="none" stroke-width="1px">5k</text><text x="388.54875000000004" y="0" dx="0em" dy="0.95em" style="text-anchor: middle; visibility: inherit; font-family: &quot;Helvetica Neue&quot;, sans-serif; font-size: 12px; font-weight: 200;" fill="rgb(50, 49, 63)" stroke="none" stroke-width="1px">10k</text><text x="518.065" y="0" dx="0em" dy="0.95em" style="text-anchor: middle; visibility: inherit; font-family: &quot;Helvetica Neue&quot;, sans-serif; font-size: 12px; font-weight: 200;" fill="rgb(50, 49, 63)" stroke="none" stroke-width="1px">15k</text><text x="647.5812500000001" y="0" dx="0em" dy="0.95em" style="text-anchor: middle; visibility: inherit; font-family: &quot;Helvetica Neue&quot;, sans-serif; font-size: 12px; font-weight: 200;" fill="rgb(50, 49, 63)" stroke="none" stroke-width="1px">20k</text><text x="777.0975000000001" y="0" dx="0em" dy="0.95em" style="text-anchor: middle; visibility: inherit; font-family: &quot;Helvetica Neue&quot;, sans-serif; font-size: 12px; font-weight: 200;" fill="rgb(50, 49, 63)" stroke="none" stroke-width="1px">25k</text><text x="906.6137500000001" y="0" dx="0em" dy="0.95em" style="text-anchor: middle; visibility: inherit; font-family: &quot;Helvetica Neue&quot;, sans-serif; font-size: 12px; font-weight: 200;" fill="rgb(50, 49, 63)" stroke="none" stroke-width="1px">30k</text><text x="1036.13" y="0" dx="0em" dy="0.95em" style="text-anchor: middle; visibility: hidden; font-family: &quot;Helvetica Neue&quot;, sans-serif; font-size: 12px; font-weight: 200;" fill="rgb(50, 49, 63)" stroke="none" stroke-width="1px">35k</text></g><line x1="0" y1="0" x2="1036.13" y2="0" fill="rgb(0, 0, 0)" stroke="rgb(204, 204, 204)" stroke-width="1px"></line></g></g></g></g></svg>