<svg viewBox="0 0 1094.1319580078125 400.0000305175781" xmlns="http://www.w3.org/2000/svg"><g><g><g><g><g><line x1="58" y1="377" x2="53" y2="377" style="visibility: inherit;" fill="rgb(0, 0, 0)" stroke="rgb(204, 204, 204)" stroke-width="1px"></line><line x1="58" y1="350.07142857142856" x2="53" y2="350.07142857142856" style="visibility: inherit;" fill="rgb(0, 0, 0)" stroke="rgb(204, 204, 204)" stroke-width="1px"></line><line x1="58" y1="323.1428571428571" x2="53" y2="323.1428571428571" style="visibility: inherit;" fill="rgb(0, 0, 0)" stroke="rgb(204, 204, 204)" stroke-width="1px"></line><line x1="58" y1="296.21428571428567" x2="53" y2="296.21428571428567" style="visibility: inherit;" fill="rgb(0, 0, 0)" stroke="rgb(204, 204, 204)" stroke-width="1px"></line><line x1="58" y1="269.2857142857143" x2="53" y2="269.2857142857143" style="visibility: inherit;" fill="rgb(0, 0, 0)" stroke="rgb(204, 204, 204)" stroke-width="1px"></line><line x1="58" y1="242.35714285714286" x2="53" y2="242.35714285714286" style="visibility: inherit;" fill="rgb(0, 0, 0)" stroke="rgb(204, 204, 204)" stroke-width="1px"></line><line x1="58" y1="215.4285714285714" x2="53" y2="215.4285714285714" style="visibility: inherit;" fill="rgb(0, 0, 0)" stroke="rgb(204, 204, 204)" stroke-width="1px"></line><line x1="58" y1="188.5" x2="53" y2="188.5" style="visibility: inherit;" fill="rgb(0, 0, 0)" stroke="rgb(204, 204, 204)" stroke-width="1px"></line><line x1="58" y1="161.57142857142856" x2="53" y2="161.57142857142856" style="visibility: inherit;" fill="rgb(0, 0, 0)" stroke="rgb(204, 204, 204)" stroke-width="1px"></line><line x1="58" y1="134.64285714285717" x2="53" y2="134.64285714285717" style="visibility: inherit;" fill="rgb(0, 0, 0)" stroke="rgb(204, 204, 204)" stroke-width="1px"></line><line x1="58" y1="107.71428571428572" x2="53" y2="107.71428571428572" style="visibility: inherit;" fill="rgb(0, 0, 0)" stroke="rgb(204, 204, 204)" stroke-width="1px"></line><line x1="58" y1="80.78571428571428" x2="53" y2="80.78571428571428" style="visibility: inherit;" fill="rgb(0, 0, 0)" stroke="rgb(204, 204, 204)" stroke-width="1px"></line><line x1="58" y1="53.85714285714283" x2="53" y2="53.85714285714283" style="visibility: inherit;" fill="rgb(0, 0, 0)" stroke="rgb(204, 204, 204)" stroke-width="1px"></line><line x1="58" y1="26.928571428571388" x2="53" y2="26.928571428571388" style="visibility: inherit;" fill="rgb(0, 0, 0)" stroke="rgb(204, 204, 204)" stroke-width="1px"></line><line x1="58" y1="0" x2="53" y2="0" style="visibility: inherit;" fill="rgb(0, 0, 0)" stroke="rgb(204, 204, 204)" stroke-width="1px"></line></g><g transform="translate(48, 0)"><text x="0" y="377" dx="0em" dy="0.3em" style="text-anchor: end; visibility: hidden; font-family: &quot;Helvetica Neue&quot;, sans-serif; font-size: 12px; font-weight: 200;" fill="rgb(50, 49, 63)" stroke="none" stroke-width="1px">-0.4</text><text x="0" y="350.07142857142856" dx="0em" dy="0.3em" style="text-anchor: end; visibility: inherit; font-family: &quot;Helvetica Neue&quot;, sans-serif; font-size: 12px; font-weight: 200;" fill="rgb(50, 49, 63)" stroke="none" stroke-width="1px">-0.2</text><text x="0" y="323.1428571428571" dx="0em" dy="0.3em" style="text-anchor: end; visibility: inherit; font-family: &quot;Helvetica Neue&quot;, sans-serif; font-size: 12px; font-weight: 200;" fill="rgb(50, 49, 63)" stroke="none" stroke-width="1px">0</text><text x="0" y="296.21428571428567" dx="0em" dy="0.3em" style="text-anchor: end; visibility: inherit; font-family: &quot;Helvetica Neue&quot;, sans-serif; font-size: 12px; font-weight: 200;" fill="rgb(50, 49, 63)" stroke="none" stroke-width="1px">0.2</text><text x="0" y="269.2857142857143" dx="0em" dy="0.3em" style="text-anchor: end; visibility: inherit; font-family: &quot;Helvetica Neue&quot;, sans-serif; font-size: 12px; font-weight: 200;" fill="rgb(50, 49, 63)" stroke="none" stroke-width="1px">0.4</text><text x="0" y="242.35714285714286" dx="0em" dy="0.3em" style="text-anchor: end; visibility: inherit; font-family: &quot;Helvetica Neue&quot;, sans-serif; font-size: 12px; font-weight: 200;" fill="rgb(50, 49, 63)" stroke="none" stroke-width="1px">0.6</text><text x="0" y="215.4285714285714" dx="0em" dy="0.3em" style="text-anchor: end; visibility: inherit; font-family: &quot;Helvetica Neue&quot;, sans-serif; font-size: 12px; font-weight: 200;" fill="rgb(50, 49, 63)" stroke="none" stroke-width="1px">0.8</text><text x="0" y="188.5" dx="0em" dy="0.3em" style="text-anchor: end; visibility: inherit; font-family: &quot;Helvetica Neue&quot;, sans-serif; font-size: 12px; font-weight: 200;" fill="rgb(50, 49, 63)" stroke="none" stroke-width="1px">1</text><text x="0" y="161.57142857142856" dx="0em" dy="0.3em" style="text-anchor: end; visibility: inherit; font-family: &quot;Helvetica Neue&quot;, sans-serif; font-size: 12px; font-weight: 200;" fill="rgb(50, 49, 63)" stroke="none" stroke-width="1px">1.2</text><text x="0" y="134.64285714285717" dx="0em" dy="0.3em" style="text-anchor: end; visibility: inherit; font-family: &quot;Helvetica Neue&quot;, sans-serif; font-size: 12px; font-weight: 200;" fill="rgb(50, 49, 63)" stroke="none" stroke-width="1px">1.4</text><text x="0" y="107.71428571428572" dx="0em" dy="0.3em" style="text-anchor: end; visibility: inherit; font-family: &quot;Helvetica Neue&quot;, sans-serif; font-size: 12px; font-weight: 200;" fill="rgb(50, 49, 63)" stroke="none" stroke-width="1px">1.6</text><text x="0" y="80.78571428571428" dx="0em" dy="0.3em" style="text-anchor: end; visibility: inherit; font-family: &quot;Helvetica Neue&quot;, sans-serif; font-size: 12px; font-weight: 200;" fill="rgb(50, 49, 63)" stroke="none" stroke-width="1px">1.8</text><text x="0" y="53.85714285714283" dx="0em" dy="0.3em" style="text-anchor: end; visibility: inherit; font-family: &quot;Helvetica Neue&quot;, sans-serif; font-size: 12px; font-weight: 200;" fill="rgb(50, 49, 63)" stroke="none" stroke-width="1px">2</text><text x="0" y="26.928571428571388" dx="0em" dy="0.3em" style="text-anchor: end; visibility: inherit; font-family: &quot;Helvetica Neue&quot;, sans-serif; font-size: 12px; font-weight: 200;" fill="rgb(50, 49, 63)" stroke="none" stroke-width="1px">2.2</text><text x="0" y="0" dx="0em" dy="0.3em" style="text-anchor: end; visibility: hidden; font-family: &quot;Helvetica Neue&quot;, sans-serif; font-size: 12px; font-weight: 200;" fill="rgb(50, 49, 63)" stroke="none" stroke-width="1px">2.4</text></g><line x1="58" y1="0" x2="58" y2="377" fill="rgb(0, 0, 0)" stroke="rgb(204, 204, 204)" stroke-width="1px"></line></g></g><g transform="translate(58, 0)" clip-path="url(#clip_0)"><clipPath id="clip_0"><rect width="1036" height="376"></rect></clipPath><g><g><g><line x1="0" y1="0" x2="0" y2="377" fill="rgb(0, 0, 0)" stroke="rgb(60, 60, 60)" stroke-width="1px" opacity="0.25"></line><line x1="74.00928571428572" y1="0" x2="74.00928571428572" y2="377" fill="rgb(0, 0, 0)" stroke="rgb(60, 60, 60)" stroke-width="1px" opacity="0.25"></line><line x1="148.01857142857145" y1="0" x2="148.01857142857145" y2="377" fill="rgb(0, 0, 0)" stroke="rgb(60, 60, 60)" stroke-width="1px" opacity="0.25"></line><line x1="222.02785714285716" y1="0" x2="222.02785714285716" y2="377" fill="rgb(0, 0, 0)" stroke="rgb(60, 60, 60)" stroke-width="1px" opacity="0.25"></line><line x1="296.0371428571429" y1="0" x2="296.0371428571429" y2="377" fill="rgb(0, 0, 0)" stroke="rgb(60, 60, 60)" stroke-width="1px" opacity="0.25"></line><line x1="370.04642857142863" y1="0" x2="370.04642857142863" y2="377" fill="rgb(0, 0, 0)" stroke="rgb(60, 60, 60)" stroke-width="1px" opacity="0.25"></line><line x1="444.0557142857143" y1="0" x2="444.0557142857143" y2="377" fill="rgb(0, 0, 0)" stroke="rgb(60, 60, 60)" stroke-width="1px" opacity="0.25"></line><line x1="518.065" y1="0" x2="518.065" y2="377" fill="rgb(0, 0, 0)" stroke="rgb(60, 60, 60)" stroke-width="1px" opacity="0.25"></line><line x1="592.0742857142858" y1="0" x2="592.0742857142858" y2="377" fill="rgb(0, 0, 0)" stroke="rgb(60, 60, 60)" stroke-width="1px" opacity="0.25"></line><line x1="666.0835714285715" y1="0" x2="666.0835714285715" y2="377" fill="rgb(0, 0, 0)" stroke="rgb(60, 60, 60)" stroke-width="1px" opacity="0.25"></line><line x1="740.0928571428573" y1="0" x2="740.0928571428573" y2="377" fill="rgb(0, 0, 0)" stroke="rgb(60, 60, 60)" stroke-width="1px" opacity="0.25"></line><line x1="814.1021428571429" y1="0" x2="814.1021428571429" y2="377" fill="rgb(0, 0, 0)" stroke="rgb(60, 60, 60)" stroke-width="1px" opacity="0.25"></line><line x1="888.1114285714286" y1="0" x2="888.1114285714286" y2="377" fill="rgb(0, 0, 0)" stroke="rgb(60, 60, 60)" stroke-width="1px" opacity="0.25"></line><line x1="962.1207142857144" y1="0" x2="962.1207142857144" y2="377" fill="rgb(0, 0, 0)" stroke="rgb(60, 60, 60)" stroke-width="1px" opacity="0.25"></line><line x1="1036.13" y1="0" x2="1036.13" y2="377" fill="rgb(0, 0, 0)" stroke="rgb(60, 60, 60)" stroke-width="1px" opacity="0.25"></line></g><g><line x1="0" y1="377" x2="1036.13" y2="377" fill="rgb(0, 0, 0)" stroke="rgb(60, 60, 60)" stroke-width="1px" opacity="0.25"></line><line x1="0" y1="350.07142857142856" x2="1036.13" y2="350.07142857142856" fill="rgb(0, 0, 0)" stroke="rgb(60, 60, 60)" stroke-width="1px" opacity="0.25"></line><line x1="0" y1="323.1428571428571" x2="1036.13" y2="323.1428571428571" fill="rgb(0, 0, 0)" stroke="rgb(60, 60, 60)" stroke-width="1px" opacity="0.25"></line><line x1="0" y1="296.21428571428567" x2="1036.13" y2="296.21428571428567" fill="rgb(0, 0, 0)" stroke="rgb(60, 60, 60)" stroke-width="1px" opacity="0.25"></line><line x1="0" y1="269.2857142857143" x2="1036.13" y2="269.2857142857143" fill="rgb(0, 0, 0)" stroke="rgb(60, 60, 60)" stroke-width="1px" opacity="0.25"></line><line x1="0" y1="242.35714285714286" x2="1036.13" y2="242.35714285714286" fill="rgb(0, 0, 0)" stroke="rgb(60, 60, 60)" stroke-width="1px" opacity="0.25"></line><line x1="0" y1="215.4285714285714" x2="1036.13" y2="215.4285714285714" fill="rgb(0, 0, 0)" stroke="rgb(60, 60, 60)" stroke-width="1px" opacity="0.25"></line><line x1="0" y1="188.5" x2="1036.13" y2="188.5" fill="rgb(0, 0, 0)" stroke="rgb(60, 60, 60)" stroke-width="1px" opacity="0.25"></line><line x1="0" y1="161.57142857142856" x2="1036.13" y2="161.57142857142856" fill="rgb(0, 0, 0)" stroke="rgb(60, 60, 60)" stroke-width="1px" opacity="0.25"></line><line x1="0" y1="134.64285714285717" x2="1036.13" y2="134.64285714285717" fill="rgb(0, 0, 0)" stroke="rgb(60, 60, 60)" stroke-width="1px" opacity="0.25"></line><line x1="0" y1="107.71428571428572" x2="1036.13" y2="107.71428571428572" fill="rgb(0, 0, 0)" stroke="rgb(60, 60, 60)" stroke-width="1px" opacity="0.25"></line><line x1="0" y1="80.78571428571428" x2="1036.13" y2="80.78571428571428" fill="rgb(0, 0, 0)" stroke="rgb(60, 60, 60)" stroke-width="1px" opacity="0.25"></line><line x1="0" y1="53.85714285714283" x2="1036.13" y2="53.85714285714283" fill="rgb(0, 0, 0)" stroke="rgb(60, 60, 60)" stroke-width="1px" opacity="0.25"></line><line x1="0" y1="26.928571428571388" x2="1036.13" y2="26.928571428571388" fill="rgb(0, 0, 0)" stroke="rgb(60, 60, 60)" stroke-width="1px" opacity="0.25"></line><line x1="0" y1="0" x2="1036.13" y2="0" fill="rgb(0, 0, 0)" stroke="rgb(60, 60, 60)" stroke-width="1px" opacity="0.25"></line></g></g></g><g><g><line x1="0" y1="323.1428571428571" x2="1036.13" y2="323.1428571428571" fill="rgb(0, 0, 0)" stroke="rgb(153, 153, 153)" stroke-width="1.5px"></line></g></g><g><g><line x1="74.00928571428572" y1="0" x2="74.00928571428572" y2="377" fill="rgb(0, 0, 0)" stroke="rgb(153, 153, 153)" stroke-width="1.5px"></line></g></g><g><g><g><g><g><path stroke="rgb(255, 112, 67)" stroke-width="2px" d="M100.6822322857143,-18.162538605848283L102.0292012857143,1.8635655477046953L102.69528485714287,5.621148169346611L103.36876935714287,37.29077273284372L104.05705571428572,42.32345091475821L105.42622750000001,40.05209763083212L106.78799835714287,30.619671345620134L107.47628471428573,42.808033033893196L109.5411437857143,7.4421251512294475L110.22202921428573,6.733064006444067L110.91771650000001,-8.367778598792029L111.60600285714287,27.65279702810591L112.30169014285715,41.74530907761334L114.37395014285715,43.248984542892L115.06223650000001,-53.76655746793688L116.43880921428573,-30.014629325440012L117.12709557142858,14.841012733775585L117.80798100000001,56.45353305887272L118.48886642857144,55.563182530808774L119.1771527857143,16.966956199828473L119.87284007142858,0.01721227671004044L120.55372550000001,26.256919554889407L121.9228972857143,52.321138130853285L122.61118364285716,58.7603764969644L123.30687092857144,74.8220506011163L123.98775635714287,104.97457114039298L125.35692814285714,115.7577533196432L126.74830271428573,93.22750063872786L127.42178721428573,89.4753784562439L128.79835992857144,54.84753509227272L129.4866462857143,82.56714775482169L130.86321900000002,43.509337057577795L131.55150535714287,67.66712988524682L132.23979171428573,69.34828503111726L132.9280780714286,72.06078983226695L133.60896350000002,96.35554360164559L134.2750470714286,115.1714252196839L135.65902071428573,53.68425924557914L136.33990614285716,76.16981714184755L137.02819250000002,106.80856772193721L137.71647885714287,106.36814632033094L141.120906,130.8904503874298L141.80919235714288,129.33940979792573L143.193166,128.65711513474778L144.5623377857143,103.75726510048452L145.24322321428573,120.70300547627363L145.93891050000002,155.6995537506123L150.4904815714286,146.8946198326013L152.52573692857146,131.32289153091938L153.79129571428575,158.22531887486133L154.44257742857144,166.06261604867825L155.1012600714286,189.98424151531043L157.37334514285718,171.43918263992094L157.9802212857143,142.2362189331761L158.54269185714287,89.36149688000148L159.1717707857143,68.6600134100596L160.4447305,95.67781252590726L161.0886112857143,115.92589271791951L163.0276545714286,28.60092525575601L164.9740987857143,83.84575534059178L165.63278142857146,100.55416395438988L166.93534485714287,102.55502510003788L168.25271014285715,120.03825617136943L168.90399185714287,78.61005748520296L169.54787264285716,100.11427360302207L170.2065552857143,113.4403614407625L170.86523792857145,111.36406518936946L171.5017177857143,115.81512937668862L172.77467750000002,118.49700978489204L173.41115735714288,134.44514724666763L174.05503814285717,161.60248292291527L174.69151800000003,133.9259294932489L175.97187864285715,92.38364916748515L176.6083585,125.97605316975023L177.25964021428575,147.0472574506216L178.36977950000002,148.3333667918451L178.94705192857145,140.1077534678225L179.56872992857146,141.44591547981764L180.76768035714286,100.1497811705309L181.4411648571429,119.03232389869913L182.78073292857144,147.09651252821376L183.44681650000004,93.60885217902239L184.78638457142858,50.07932514277553L185.45246814285716,72.11101463887701L186.11855171428573,88.8232211455067L187.4581197857143,105.90516531544512L190.1224540714286,73.88491912956164L190.78853764285716,101.90034167930554L191.46202214285717,93.60691054101972L192.1281057142857,136.65250700887037L193.46027285714288,131.78963056907648L194.1189555,158.72433529576165L195.46592450000003,177.47586297304585L196.84249721428574,199.82987874676337L197.51598171428574,165.07217390665573L198.18946621428574,156.1821254417761L198.87035164285717,151.54513884508822L200.23952342857143,162.9547392729942L200.91300792857146,144.6048621673939L205.67920592857143,163.4940001383586L208.39534671428575,152.92792960495728L210.4528048571429,142.72657087823058L211.13369028571432,125.62554368603409L211.81457571428575,154.3563708089056L212.49546114285718,109.49063157827374L215.21160192857147,126.00464735587576L215.8924873571429,135.68367977408087L216.56597185714287,119.77930033570743L217.2468572857143,125.20154281902617L219.28211264285716,117.02464740543547L219.94819621428573,96.41534728278674L220.6142797857143,91.81957364532752L221.27296242857145,139.224315312227L221.91684321428576,131.99518676034407L222.0352580714286,157.77906293189747L223.31561871428573,107.76833095687925L223.9520985714286,130.78813590132182L224.63298400000002,166.2074690807384L225.99475485714288,158.8499978528674L226.68304121428574,132.85800263050447L227.36392664285717,108.04107386839621L228.05221300000002,112.08468318054139L228.73309842857145,128.1883003443338L229.40658292857145,123.90522953194377L231.4640410714286,126.6624405914153L232.1375255714286,119.6657078720437L233.49189550000003,75.10596225603263L236.20803628571431,82.63527207511396L236.8815207857143,134.10474175943995L238.2506925714286,166.49490814646524L238.93157800000003,132.14566935529288L239.61246342857146,147.9454935227206L240.30074978571432,140.0153894870672L240.98903614285717,149.33560904727963L241.67732250000003,167.14546974732716L243.73478064285717,156.87393389568982L245.79963971428575,175.14459238306435L246.4879260714286,107.9107967010483L247.18361335714286,122.32774572491147L247.87930064285715,137.37160695147213L249.27067521428572,136.40788456019493L252.0016178571429,127.59798318106544L253.35598778571432,148.83559735988746L254.71035771428575,159.35984641707466L255.38384221428575,147.38548779553665L256.0647276428572,182.96379554822227L256.7456130714286,154.7455344267226L257.4116966428572,182.38918258865183L258.7660665714286,181.84319094831307L259.44695200000007,185.6988909415704L260.80872285714287,162.53423298091644L262.15569185714287,139.26614305022497L263.52486364285716,161.7122104104093L266.6554564285714,116.33847125215289L268.0098263571429,109.10617709406847L268.67590992857146,131.52637121484997L270.01547800000003,119.37106693629221L270.6889625,119.42242484595653L271.3550460714286,147.36849122144827L272.02112964285715,147.21023384016442L272.68721321428575,148.24645424823402L273.3458958571429,124.86750936728123L274.00457850000004,118.23481239723287L274.6706620714286,94.88055400586973L275.3367456428572,111.41201802301231L276.0028292142857,109.3027934052729L278.6819653571429,152.95790327555187L279.35544985714284,135.28760206594103L280.7024188571429,174.6770020478608L282.7080705,166.62149689772718L285.4020085,196.46586629599585L286.07549300000005,196.0939935598644L286.76377935714294,202.72714872936783L287.4372638571429,209.98144461977708L288.78423285714285,225.8914229596322L289.4651182857143,214.41011155565002L290.13860278571434,196.78680692607665L290.8046863571429,187.88381543283933L291.4855717857143,203.34742151300986L292.1590562857143,207.19887936643715L294.1869107142857,173.24370636235278L294.86039521428575,164.5971646852444L296.15555771428575,170.27758482039016L297.4433192857143,172.95601251174747L298.7902882857143,125.00097249673786L300.14465821428576,55.047452408151L301.10677892857143,48.710866024369295L301.7062541428572,46.97034788403511L302.3723377142858,108.43649914768355L303.04582221428575,134.47823191059413L303.68230207142864,159.01238732560148L304.31138100000004,161.42371731074002L304.9256580714286,129.73868374100704L305.60654350000004,103.98244264849563L306.2948298571429,130.45517828626276L307.6714025714286,155.83639506266786L309.0553762142858,167.40339697630398L309.75106350000004,145.73677408407272L311.12023528571433,170.8841289298628L312.42279871428576,143.15005484068612L313.10368414285716,164.19067957393574L313.79197050000005,166.8542660447067L314.47285592857145,171.89739449539135L315.1537413571429,119.93499239344982L315.84942864285716,104.75358112234477L316.53771500000005,140.85471817685044L317.2260013571429,167.88171712826846L317.92168864285713,149.93319162121674L318.609975,172.6623320466611L319.30566228571433,179.75673760690285L320.6674331428572,171.79101975306952L321.3557195,179.3409344288414L322.7174903571429,101.1357978916929L324.07186028571437,145.18430693113257L324.75274571428577,172.77775431543088L325.43363114285717,107.92084791156776L326.1071156428572,140.9072534214189L326.78060014285717,144.79834677998602L328.13497007142865,112.11065801856398L328.81585550000005,136.44834237281117L330.1776263571429,101.1168722313518L330.87331364285717,140.24513616573066L331.5690009285715,161.49278999130962L332.24248542857146,190.58122103838173L332.9233708571429,171.01931688274345L334.27033985714286,180.87243111439923L334.95862621428574,155.10809778192956L335.63951164285714,175.03516573662006L336.3203970714286,178.10770860798112L339.73222514285715,182.18068011182436L340.4131105714286,172.4255743376231L342.45576685714286,152.19339421870632L343.1292513571429,171.50799253018945L344.4836212857143,183.40779121179733L345.1645067142858,171.0693524532791L346.53367850000006,170.22790963797L347.9102512142857,178.6738529507071L351.35168300000004,169.51418023216937L352.0473702857143,144.80710662633817L354.1196302857143,140.0709134583937L354.8079166428572,143.84874168904227L355.49620300000004,165.55160430082356L356.18448935714287,130.45517003285943L356.8801766428572,122.66233563272988L357.56846300000007,139.85198110081626L358.9450357142857,153.4048660960922L360.32900935714287,139.25320141119536L361.72038392857144,163.95491759795755L363.0969566428572,187.99778808332482L365.17661757142866,156.7263402872758L365.86490392857144,157.0741423465042L367.9297630000001,177.44947493315257L368.62545028571435,152.47601167617833L369.3211375714286,190.16351562041058L370.0168248571429,162.50043655896707L371.3933975714286,191.64314740577052L372.0890848571429,139.52520197097826L374.16874578571435,126.1720135094869L374.8570321428572,133.8315343241609L376.2336048571429,149.48444424752697L378.3058648571429,126.20394737276868L380.3855257857144,155.0800839434982L381.08121307142864,176.67719514366937L381.76949942857146,148.25609144685833L382.4651867142857,156.26106927039555L383.16087400000004,160.44552698535264L384.55964950000003,167.5745598857895L385.24793585714286,163.3453763850848L385.93622221428575,173.24316220707755L386.62450857142863,157.55132187144196L387.3201958571429,167.84862837549082L388.0158831428572,159.03102307446702L388.70416950000003,114.12883425652575L390.08814314285723,130.88216977655648L391.47951771428575,130.25358679411943L392.16040314285715,111.68828227317925L394.2548659285715,88.93077679649093L394.9505532142858,109.91417241541467L397.71850050000006,143.0736208346362L399.79816142857146,141.2455781826643L400.4938487142858,145.6455196014887L401.8778223571429,115.76809215803587L402.5809105714286,143.5651545744432L403.9722851428572,143.62901924294277L405.34885785714295,143.85533002078046L407.4137169285715,167.90041388564154L408.10940421428575,182.30222611635915L409.5007787857143,184.59441587845762L412.27612700000003,198.80032178899387L414.34098607142863,194.85280528918776L415.0366733571429,188.003314882339L415.7249597142858,167.029486445763L416.42064700000003,201.44578377836498L417.1089333571429,195.9429640523322L417.80462064285723,181.7946789559474L418.492907,182.1806742300072L419.8694797142858,178.39218614481473L420.56516700000003,182.1024526986719L421.2534533571429,183.82467908205888L421.94914064285723,175.36852585059927L422.637427,145.95684854939807L423.3257133571429,165.40942734419156L424.02140064285715,153.93263993056493L426.7967488571429,181.6905592252043L427.48503521428574,157.07819241612802L431.6443570714286,177.4683087692155L433.01352885714294,116.001883576414L433.7018152142857,172.61208818135148L434.39750250000003,187.72400277720382L435.09318978571434,195.8057521778051L435.78887707142866,109.13401118162636L436.4845643571429,87.26763865496736L437.18025164285723,140.27271050727546L437.86113707142863,149.35562537194429L438.54942342857146,154.80364081737648L439.2451107142858,173.13205776073318L439.9259961428572,149.21597839270697L440.61428250000006,158.90091335273019L441.3099697857143,167.97170310060775L441.9982561428572,189.12631215358132L442.69394342857146,199.97802614308296L443.38222978571434,182.3546527811104L444.08531800000003,187.49657439945L445.4766925714286,190.43698876440948L446.1723798571429,185.3052170901494L446.8606662142858,183.9683975458399L448.2520407857143,184.37050482683338L449.62861350000003,188.86412061569578L451.00518621428574,181.72904354267672L451.70087350000006,135.8299211787611L453.7879353571429,165.95910049925538L454.4836226428572,193.3594204784734L455.1867108571429,197.33206751865254L456.5558826428572,193.43098014461546L457.2515699285715,205.1984928565986L457.9398562857143,185.08788723966367L459.32382992857146,172.1709149075799L460.69300171428574,203.89162478917643L461.3812880714286,183.81496543076778L462.75786078571434,145.55026857232193L463.44614714285717,142.9769496110729L464.1418344285714,128.3031686775477L464.83752171428574,158.00806558326428L465.5184071428572,155.4698662939828L466.2066935000001,174.89544592314218L466.8875789285715,177.36559983840397L467.56106342857146,151.9316852307793L468.2419488571429,173.65432629683477L469.6111206428572,167.36385283801556L470.29200607142866,145.01757808543545L470.97289150000006,155.04232199202357L473.0081468571429,161.81011212423243L473.68163135714286,178.1988635879615L474.3625167857143,165.70192142344382L475.7094857857143,162.34538353861913L476.3977721428572,146.81838102823568L476.9454408571429,141.70488298092786L477.3524919285715,164.38468044918054L478.15179221428576,137.179835276475L478.8622813571429,166.48656984198888L479.21752592857143,158.95498906561443L479.57277050000005,173.16410808301052L480.26105685714293,178.91816647372292L480.9641450714286,153.77137264920265L481.6524314285715,172.953082559101L482.00027507142863,156.93025624267932L482.34071778571433,155.6375343770544L483.39905057142863,163.45604490378346L484.7904251428572,190.4213049207176L485.13826878571433,175.32172203198775L485.48611242857146,191.98211697080296L485.8265551428572,214.62274205631013L486.1817997142858,204.66036603418584L486.87008607142866,183.75758062683957L487.21052878571436,208.6205537695407L488.22445600000003,197.66516901638704L488.55749778571436,186.40994857984458L489.26058600000005,192.82210997740177L489.9562732857143,177.05843640395423L490.3115178571429,176.75813354696453L491.3402469285715,181.93060621322846L492.02853328571433,196.36840543654267L492.3763769285715,210.49409740188034L492.72422057142865,213.20164317669884L493.4421106428572,162.09464266596257L493.7899542857144,166.89887403665793L494.1377979285715,182.04849766197518L494.48564157142863,167.6862775543068L494.8408861428572,182.54533680516602L495.18132885714294,202.1664085504556L495.5439743571429,167.4800841673784L495.9066198571429,146.6956591559479L496.24706257142867,156.49960405887202L497.6384371428572,161.01283521211764L497.9788798571429,157.61043436467338L498.65976528571434,145.74653024160676L499.34065071428574,174.95719587869874L499.6810934285715,193.40492351606233L500.0215361428572,206.23805622056827L500.36937978571433,191.54152732795467L500.71722342857146,183.47322807988266L501.06506707142864,197.84968196661572L501.4129107142858,175.01558075903068L501.7533534285715,178.79472715676465L502.11599892857146,147.5956047851226L502.80428528571434,162.1574204287245L503.14472800000004,152.0728861319099L503.4777697857143,132.41972201202188L503.8182125000001,155.34912819516416L504.1586552142858,161.01466782771033L504.8395406428572,171.53459300584228L505.2021861428572,174.785285505147L505.52782700000006,158.33711544679218L506.2235142857143,133.12032269413663L506.5713579285715,164.49675658500854L506.9043997142857,157.42084597016796L507.2448424285715,150.80447301631142L507.6074879285715,171.05900221684556L507.94793064285716,151.93813310634482L508.2809724285715,177.5808815394127L508.6288160714286,170.41887653248634L508.9692587857144,160.03421583741044L509.9683841428572,180.44644284315103L510.6862742142858,158.43556859192705L511.38196150000005,156.90991951285278L512.4106905714286,150.83858960084342L512.7511332857143,173.14181753608634L513.091576,202.35799343951373L513.4246177857143,207.89372611810037L513.7798623571429,192.40540028417524L514.1203050714287,193.7707813583365L514.4755496428572,198.73626001236997L514.8233932857144,116.52932730820106L515.1564350714286,147.66216405846757L515.5042787142858,154.81214951474882L515.8669242142857,162.83914983697957L516.2073669285714,113.43064661621844L516.5552105714286,146.35843755398352L517.5839396428572,171.76436700068123L517.9317832857143,196.46632677444003L518.9531114285716,214.37909460995647L519.2861532142858,205.85727915298799L519.9818405000001,190.53624672883151L520.3296841428571,208.9238691247819L520.6627259285715,201.77856989606133L521.0031686428572,194.19658073640497L521.3510122857143,163.06466943025285L521.6988559285714,186.2264463986651L522.7349859285714,193.4777608990658L523.0976314285715,180.05924055542195L523.4380741428572,199.58426764603982L524.799845,184.71235439179262L525.1476886428572,159.14971755486334L525.835975,189.88101359247415L526.1764177142858,173.505578807656L526.5316622857143,197.04187324061124L526.872105,121.04748310438131L527.560391357143,162.51544461125928L528.5891204285715,147.31364647518194L528.9295631428572,121.16382405399776L529.6326513571429,158.0623314590765L529.9656931428573,173.83485689742727L530.3061358571429,103.60215230744524L530.6539795000001,131.64336738904046L531.0018231428572,148.73996926498248L531.3496667857144,178.9942326716549L531.7049113571429,181.8534145253366L532.052755,160.78196678231666L533.0740831428573,158.50608425795485L533.4219267857143,117.69617718476576L534.1102131428572,133.24687414691252L534.7910985714286,146.81092223208105L535.1389422142857,161.27927033625897L535.4793849285716,173.1524190457037L535.8346295,164.05863124012606L536.5229158571428,186.83899293895925L536.8781604285715,160.83008149853308L537.2260040714285,171.80169346088744L537.5738477142858,183.8940210113202L537.9290922857144,181.8488353455486L538.269535,186.4040839037806L538.6173786428571,174.53401679933557L538.9652222857144,198.44742244821228L539.9791495000001,185.88940388167762L540.3195922142858,197.1883314775007L541.3409203571429,209.48067586154633L541.6961649285714,187.03387854075115L542.0440085714287,206.44457027829526L542.7470967857143,208.9973573741043L543.4353831428573,214.55898283887822L543.7758258571429,220.68399964126726L544.1236695000001,204.2188419925055L544.4715131428572,177.5091141887066L544.8119558571428,176.25348501369695L545.1523985714286,147.05102312459042L545.5076431428572,165.62977092883793L545.8628877142858,164.62986548453796L546.558575,152.07591554605247L546.9064186428573,159.32315878832594L547.2542622857144,157.97473341852407L547.9129449285714,165.79242398262863L548.9638767857143,173.73046954823047L549.3117204285716,167.8095345586262L549.6447622142858,175.70872237876526L549.9852049285714,120.43748004280519L550.3256476428572,141.32435724505436L551.0213349285715,165.52004035505274L551.3543767142858,175.3304793590719L551.7022203571429,199.42546804360748L552.3831057857143,177.83346687494466L552.7235485,191.94065532613757L553.4118348571429,176.09898808913803L554.4257620714286,175.9726372371585L555.1288502857143,162.9592408441927L555.4766939285715,162.7215958043846L555.8097357142858,188.35251875123282L556.8384647857143,155.90950834734636L557.1937093571429,165.91094528256463L557.8893966428572,190.84100277962878L558.2298393571429,193.36144931844143L558.9255266428571,182.36219343297722L559.2733702857143,150.71473941230033L559.628614857143,178.42884522094286L560.3169012142857,108.3127732940211L560.6647448571429,121.78265384157945L561.7008748571428,127.6955318853201L562.0487185000001,125.74192688835174L562.7444057857143,150.98269119416608L563.099650357143,170.0336347391644L563.447494,179.14126308809915L563.7953376428572,184.11013091662818L564.483624,173.60735936115046L564.8388685714286,193.5540143847883L565.1941131428572,191.54347717934795L565.5493577142857,179.2474194843579L566.2524459285714,155.97867495803376L566.9259304285715,159.94300027993611L567.6364195714286,164.02283265773826L567.9842632142858,160.04220387773054L568.3247059285715,107.7759938564082L568.6799505,136.45909212898582L569.0277941428571,156.49598292631723L570.4191687142858,171.34970121116277L570.7670123571429,156.98190487769315L571.1000541428572,162.75266423347125L571.440496857143,172.35389476985395L572.4840277857144,155.46957708239097L572.8244705,130.728316295042L573.1723141428572,131.8292356214575L573.5201577857143,142.5283314974952L573.8680014285715,144.4088238319579L574.5636887142858,129.94058423115322L574.9115323571428,119.02131545383128L575.2445741428572,135.125724658684L575.5850168571429,150.87400451534242L576.2659022857143,137.62457680245188L576.9689905,156.7950725119281L577.3094332142857,161.1999649807962L577.657276857143,167.36535686966405L578.0347242142858,184.47474198598212L578.3751669285715,191.91429784247688L579.0338495714287,186.76870792290643L579.3594904285716,183.6889491526293L579.677730357143,170.40554342215444L580.3068092857143,143.78706313100568L580.6472520000001,166.05583891399397L581.3577411428572,147.8156280550734L581.6981838571429,171.9325284535002L583.1043602857144,148.60463499529178L583.4596048571428,154.4158625300621L584.1626930714286,150.6812700090346L584.5253385714286,173.37211497343236L584.8731822142857,153.0877380558564L585.2358277142858,137.7397964658141L585.5984732142857,161.128789558007L585.9537177857144,186.60035214236424L586.5531930000001,196.30297889699028L587.8557564285716,197.26744924334665L588.4848353571429,202.10840219126078L589.1361170714287,106.4031600314051L591.2009761428571,150.86561823149825L591.8966634285715,153.48600109800452L592.5627470000001,176.79431438505077L593.199226857143,149.47732510602134L594.4647856428571,166.38373295328412L598.5426972857144,198.17793455041286L599.2161817857143,196.78993244019392L599.8970672142858,147.5378011817002L600.5779526428572,115.05326719692641L601.2662390000002,123.12044611086083L603.9749788571429,137.3352105119973L606.0176351428571,178.9932009892297L606.6985205714286,183.97641916799913L608.067692357143,141.45232144943185L610.1547542142858,141.38441724067002L610.8504415000001,160.1528173901315L612.2344151428572,171.31668666706534L612.9301024285716,128.3244612267548L613.6257897142858,169.4009750055972L614.3214770000001,186.11709008535252L615.7128515714287,205.22162062563518L616.408538857143,200.89258274560834L617.1116270714286,191.77256198940927L617.8073143571429,158.02426034512501L618.5030016428572,164.4515276875808L619.1986889285715,176.49463339607203L619.8943762142858,186.68296428724867L620.5826625714286,187.49577811226945L621.278349857143,145.8093112912007L622.6697244285715,129.02544600830413L623.3728126428572,150.53948672282831L624.749385357143,149.95445172248307L626.133359,159.1212010807703L626.8290462857144,176.94177784058343L628.1908171428572,195.12994202607888L629.5525880000001,191.466817358935L630.2334734285714,170.02040932677718L630.9143588571429,186.66525036838885L631.5952442857143,181.81419435844307L633.6304996428572,189.5691344516093L634.3113850714286,160.75535347152012L634.9848695714286,156.27284332566418L635.6583540714287,170.24675447529614L637.0053230714286,172.86134420080052L637.6862085000001,175.51556053817396L639.0479793571429,175.80338839924406L639.7288647857143,178.59099117147284L643.1628956428572,192.56539698889551L643.851182,86.08040685581722L645.2277547142858,70.26302076569027L645.923442,111.29881794821853L647.3148165714287,142.1363006293786L648.0031029285715,146.34292524729528L648.7061911428572,156.19014445349188L649.4092793571429,161.40865630067438L650.8006539285715,167.4249115425343L651.4889402857143,135.15250427949394L652.1846275714287,146.88170403412047L653.5389975,127.30258778095032L654.2272838571429,133.67252136598188L654.900768357143,142.7972407556526L655.5816537857144,165.21907944950598L657.6169091428573,182.30184156069757L658.9860809285715,200.53410196013724L661.0509400000001,186.086239928818L662.4053099285715,180.78186066522883L663.086195357143,168.14944058573488L663.7744817142858,150.5590129046897L664.4627680714286,170.53569083422266L665.8245389285714,157.9337967319735L667.2085125714286,120.97274006251041L667.9041998571429,162.64140048529828L668.5924862142858,142.52447737995456L669.9690589285715,169.9527822342989L670.6647462142859,190.65292594817998L671.3530325714287,164.3629724586981L672.0487198571429,166.11870486765963L672.7370062142859,148.93949067814776L674.8314690000001,165.96519369020243L675.5271562857143,180.5437968585655L676.2154426428573,173.13718911321124L679.7012800000001,186.85448467916945L680.4043682142858,187.59259108927154L681.0926545714286,162.9197306953023L681.7883418571429,183.8150301955006L683.1723155000001,172.7395354719931L683.8680027857143,164.44251458886535L684.571091,175.24009425751046L685.259377357143,171.02212585992618L685.9550646428572,164.9577299815493L689.4186992142858,168.1974505802098L690.1143865000001,169.22696562103476L690.8174747142858,160.2116411485368L691.5057610714287,163.2937309376398L692.2014483571429,163.344962030002L692.8897347142859,158.65355230105263L694.2663074285715,168.4987118969018L694.9693956428573,153.66648090488215L695.6650829285716,153.83297690003724L696.3533692857143,132.51411607073652L697.0564575000001,122.13252016429252L697.7521447857144,178.95697109841367L698.4478320714287,170.2391991773686L699.143519357143,192.62164966648038L699.8392066428572,205.3245570682598L701.2305812142858,184.3191187872358L701.9262685000001,201.03436698110676L702.6293567142858,216.18604526787348L703.3176430714287,178.28385399842728L704.0059294285716,145.16052325917252L704.6942157857143,168.10716277401002L705.3825021428572,122.5275092212494L706.7738767142857,105.39617994016362L708.1430485000001,139.11064123094226L709.541824,132.70596030172362L710.2375112857144,159.09317456630012L712.3171722142857,158.44214240877113L713.7159477142858,175.08660667213204L714.4042340714286,156.77158139391187L715.7882077142858,148.4042135678905L717.1869832142858,180.39727578352387L717.8826705,200.87601181143816L718.570956857143,193.6337498442787L719.9475295714286,192.66962877439778L722.0345914285715,217.1297472278486L722.7302787142858,215.06441402198138L724.8099396428572,189.03147290632455L726.1939132857144,193.08297784106838L728.2587723571429,163.81894457752225L730.3458342142858,133.77396282715713L731.0341205714286,162.66063127189182L731.7224069285714,148.3760491106213L732.4180942142858,172.5776603601073L733.1137815000001,184.81616272476626L733.8168697142858,173.67722789358342L734.5051560714286,129.37771317565333L735.2082442857143,133.38593805553847L735.9039315714286,142.47066494486697L736.5996188571429,161.00557188019903L737.9909934285714,148.7064240888019L738.6792797857144,147.5073907409976L739.3749670714286,130.91213464944778L741.4694298571429,138.20802314746769L742.1577162142858,176.24943251582448L743.541689857143,157.2546407956798L744.2447780714286,158.32292879013022L744.9330644285715,149.86108623122712L745.6287517142857,66.67508314611973L747.0127253571429,96.06309528175188L749.1071881428571,118.67499664269371L749.7954745000001,139.1090996026119L750.4837608571429,134.11960095604698L751.1794481428572,143.7206066174874L751.8677345000001,148.64172738334946L752.5634217857144,151.4116403875946L753.2591090714286,171.91078103208022L753.9621972857143,178.7315778939761L754.6578845714287,163.44048520379286L755.3535718571429,148.1845610407175L756.0492591428572,148.73418150859447L756.7523473571429,121.1951785067333L757.4480346428571,165.9709518658884L758.151122857143,166.41786441934428L759.5350965,194.64782339174937L760.2307837857143,188.19855293280375L760.9190701428572,195.80640771774347L761.6147574285715,191.01422939940457L768.5790312142858,195.3191585010368L770.6586921428573,195.7826173344897L771.3543794285715,182.68226200408196L772.0426657857143,194.2702396481933L772.7457540000001,202.9904692614752L774.1297276428571,192.98964559616994L774.8254149285715,209.6024527422671L775.5137012857143,177.59018871362372L776.1945867142858,159.60284885357748L776.8902740000001,143.14151834090822L778.2890495,95.27854669305412L778.9847367857143,112.13917802528749L779.6730231428572,136.1348681648233L780.3687104285715,181.13859077689992L781.0643977142857,201.72347383055148L781.7674859285714,203.98988381664358L782.4631732142858,192.56799602294205L783.1514595714286,202.8653769701631L783.8471468571429,183.66756272204756L785.2311205000001,171.62011985371478L786.6224950714286,170.4792594898852L787.3107814285715,136.32235481674147L788.6725522857145,132.87596597700687L789.3534377142857,122.04518082227506L790.0417240714287,155.2217869123419L791.4108958571429,173.05392896213024L792.0991822142859,150.53139289238214L792.7800676428571,160.0327349118906L793.4683540000001,160.97403217799L794.1566403571429,199.0709197896938L794.8375257857144,186.534116740291L797.5758693571429,203.69469256118816L798.9450411428572,152.5467711724649L801.0024992857143,129.96565947417423L801.6907856428572,157.40306986603397L803.067358357143,127.87266681929384L803.7556447142858,167.1546343483071L804.4439310714287,180.3478724651914L805.8131028571429,206.4891691212455L806.4939882857144,208.33096167217153L807.1822746428572,167.56876144527808L807.8705610000001,172.29666121009072L808.558847357143,158.02772341321327L809.2471337142857,158.2180514293508L809.9502219285715,126.64739826154008L810.6459092142859,144.78969650593743L811.3341955714287,168.84864484232787L813.3990546428572,192.43845460477456L814.1021428571429,183.02622584925456L814.8052310714286,179.0341052727908L816.1966056428572,145.70548859680608L816.8922929285715,154.68807053575725L817.5879802142857,165.77647760260842L818.2836675000001,176.47915960315396L818.9719538571429,187.18962267870964L821.0590157142858,202.53852774317502L821.7473020714286,216.58836403515346L822.4503902857143,155.82458969625816L823.1460775714286,148.43497854020845L823.8417648571428,130.54457909620368L824.5374521428573,169.16266010088233L825.2331394285716,169.12901589630124L826.6171130714287,171.31798067561775L827.3053994285715,173.98116389351563L828.0084876428572,199.35084258152955L828.7041749285714,217.6880031912986L829.3924612857144,155.82011903546743L830.0881485714286,151.30541910832054L831.4721222142857,120.89884064770979L833.529580357143,142.02470609395903L834.2104657857143,113.64344791850391L835.5796375714286,144.54554305073754L838.3179811428572,166.675122105377L839.0062675,126.3386216115168L840.3754392857144,143.40787163171154L841.0563247142859,165.45092439102348L843.0989810000001,156.8582297700903L844.4681527857143,157.3618899257509L845.1564391428572,148.88609147157584L845.8447255000001,172.49832180619597L847.206496357143,144.27903883828645L847.8873817857143,121.48102922117494L848.5682672142858,150.8825485605261L849.2491526428572,182.23075316367687L850.6109235,154.31956394240427L851.299209857143,168.84741613190192L851.9800952857144,191.46357275796424L852.6609807142859,175.25533697627904L853.3418661428572,178.37305125113937L854.7184388571429,153.44326343163104L855.3993242857144,166.11751480627893L856.0802097142858,185.36933740045504L857.4493815000001,163.1004104686304L858.1376678571429,170.20150042012477L860.1803241428572,186.91066965294397L861.5420950000001,207.45857283202886L862.2155795,207.47503764382137L863.577350357143,191.4627817159533L864.2582357857144,190.98158762284237L864.9391212142858,196.37786770377573L865.6274075714286,193.6084892405766L866.3156939285715,165.77114463853735L867.0039802857144,188.78112967955667L867.6922666428572,186.09462394121135L869.7497247857143,181.22661548394808L870.4306102142858,191.19805633235993L871.1188965714286,214.6368949434273L871.7997820000002,206.279543438535L872.488068357143,196.305633125379L873.1763547142857,184.7306940763099L873.8498392142858,194.81666349906854L875.233812857143,181.25823778150243L875.9369010714287,172.7580229756358L876.6399892857144,174.09261144075953L877.3282756428572,170.50914071808472L878.0239629285714,154.7765753675116L878.7270511428572,167.9083874469169L880.814113,190.18430487867911L882.2054875714286,210.17280221317245L882.9011748571429,160.1819649511901L883.6042630714287,160.68029281940028L884.299950357143,172.82394614400332L884.9882367142858,179.3182489821511L885.683924,190.94852309264783L886.3722103571429,186.35206116426525L887.0604967142858,217.03991870396456L887.7487830714286,217.12782622251498L888.4444703571429,226.63096355039315L890.5315322142858,193.49102694176693L891.2198185714286,165.06932341769888L893.3142813571429,179.6832194617892L894.0025677142858,172.41716597455346L895.386541357143,169.2823483823395L896.0822286428572,181.54495050865066L896.7779159285715,127.14702865098505L898.1692905000001,119.96616815865218L898.8575768571429,128.1822666060765L899.5532641428573,140.11934410267958L900.9520396428572,134.94666920656584L901.6477269285715,164.32006663414606L902.3434142142858,169.0545171604237L903.7347887857144,152.56146365863736L904.4230751428572,170.6943486496709L905.1261633571429,140.23119563166L906.5175379285715,160.39478357189546L907.2132252142858,152.2791922917328L907.9089125,169.2003617849736L909.3002870714287,162.6210520605319L909.9959743571429,184.77050974011857L911.3799480000001,183.4492958837603L912.0756352857144,173.52961199263999L912.7713225714286,176.9994605485558L913.4670098571429,175.17550106668227L914.1626971428573,189.59837644335735L914.8583844285715,200.3363530050514L916.2349571428572,183.91930558234955L916.9306444285716,187.70575355943058L919.0029044285716,186.15231530001515L920.3942790000001,188.84197257324226L922.481340857143,156.1566914529027L925.2492881428573,161.28568038491647L928.7351255000001,183.75307124345449L930.8295882857144,208.3043205894935L931.5326765000001,186.76118974945678L932.2283637857144,157.82977283293187L932.9166501428572,176.35100934340204L933.619738357143,184.62228985516987L935.691998357143,200.76337723325088L936.3876856428573,223.64076195591926L937.7716592857143,192.34687503494504L938.4673465714287,178.2518326573915L939.8587211428572,156.543353524663L940.5470075000001,153.87334898267522L941.2500957142859,163.63872628048517L941.9161792857143,196.1836131065643L943.2779501428572,170.9166367253822L943.9662365000002,134.71445969690708L944.6471219285716,146.16691583535396L945.3354082857144,180.87464933479626L946.0088927857144,195.875454521344L947.3632627142857,182.96669933737698L948.0515490714287,171.52926993607593L948.7398354285715,198.96012237555112L950.1090072142858,195.45874733942262L951.4855799285715,211.16934192395428L952.1738662857143,140.71849136140818L953.5430380714287,162.31667091855667L955.6226990000001,152.69824366983758L957.0140735714286,164.2308019540301L959.7894217857144,166.41373008822654L960.4851090714287,160.40456979644875L961.180796357143,178.5068437901634L961.8764836428572,169.84718257131308L963.9635455000001,133.3296985333263L964.6666337142858,146.01835425526497L965.3623210000001,160.9534567073534L967.449382857143,139.0965332910746L968.1450701428572,136.11368360755532L969.5290437857144,142.00778069365347L970.2247310714287,118.07072769222799L970.9130174285715,137.21896297789215L972.9852774285715,131.43733465449824L973.6809647142859,158.01472860952592L975.7532247142858,113.94641654547848L976.4489120000001,136.92495738267692L977.1445992857143,147.92759719201374L977.8402865714287,169.59397312314096L978.5433747857144,170.87885403818356L979.2390620714287,165.80051697774041L979.934749357143,184.61262034551004L981.333524857143,147.1415010335019L982.0292121428572,117.9665307955554L982.7248994285716,150.6023428959189L983.4205867142858,132.5234278241035L984.1236749285715,151.71379520377653L984.8193622142858,143.2989913780076L985.5150495000001,141.43242591372623L986.2181377142858,158.5540259261306L986.9138250000001,161.02649701881094L989.7039750714287,149.86207645342498L991.7910369285714,183.52464215792952L992.4867242142859,159.60735808599352L993.1824115000002,162.32153703784817L993.8632969285715,137.3019682323176L995.269473357143,142.04514627360163L995.9577597142858,160.91494706777164L996.6386451428572,153.32334903355323L997.2677240714287,177.60091890635758" style="fill: none;" fill="none"></path></g></g></g></g><g opacity="0.2"><g><g><g><path stroke="rgb(255, 112, 67)" stroke-width="2px" d="M90.69097871428572,-100.19580081530978L93.98439192857144,46.60037391526356L94.63567364285716,-13.201150877135149L95.28695535714287,32.80802515574862L95.94563800000002,-76.07445468221397L96.6191225,62.900641322135925L97.9660915,-32.79113342080802L100.00134685714288,-58.869025264467496L100.6822322857143,3.6099133491516113L102.0292012857143,31.90267053672244L102.69528485714287,11.257516333035028L103.36876935714287,84.79518040588925L104.05705571428572,49.87246540614535L105.42622750000001,36.64506845814839L106.78799835714287,16.471033794539323L107.47628471428573,61.0905741112573L109.5411437857143,-45.60673413957869L110.22202921428573,5.669472319739214L110.91771650000001,-31.019042117255083L111.60600285714287,81.6836599111557L112.30169014285715,62.88407702105383L114.37395014285715,45.50449773243497L115.06223650000001,-199.28987015996665L116.43880921428573,5.613262840679681L117.12709557142858,82.12447576863423L117.80798100000001,118.87231351648057L118.48886642857144,54.22765673909868L119.1771527857143,-40.92738328661238L119.87284007142858,-25.40740360532493L120.55372550000001,65.61648046970367L121.9228972857143,91.41746599333624L122.61118364285716,68.41923404591421L123.30687092857144,98.91456175701956L123.98775635714287,150.20335194894247L125.35692814285714,131.93252658843994L126.74830271428573,59.43212161745345L127.42178721428573,83.8471951825278L128.79835992857144,2.905770046370378L129.4866462857143,124.14656674861908L130.86321900000002,-15.077378988265991L131.55150535714287,103.90381912674223L132.23979171428573,71.87001774992262L132.9280780714286,76.12954703399112L133.60896350000002,132.79767425571168L134.2750470714286,143.3952476467405L135.65902071428573,-38.54648971557617L136.33990614285716,109.89815398624967L137.02819250000002,152.76669359207153L137.71647885714287,105.70751421792164L141.120906,167.673906488078L141.80919235714288,127.01284891366959L143.193166,127.63367313998086L144.5623377857143,66.40749004908969L145.24322321428573,146.12161603995733L145.93891050000002,208.19437616212028L150.4904815714286,133.6872189555849L152.52573692857146,107.96529907839636L153.79129571428575,198.5789598907743L154.44257742857144,177.81856180940355L155.1012600714286,225.86667971525873L157.37334514285718,143.6215943268367L157.9802212857143,98.43177337305883L158.54269185714287,10.049413800239563L159.1717707857143,37.60778820514679L160.4447305,136.2045111996787L161.0886112857143,146.29801300593786L163.0276545714286,-102.38652593748913L164.9740987857143,166.71300046784538L165.63278142857146,125.61677687508717L166.93534485714287,105.5563168185098L168.25271014285715,146.26310277836663L168.90399185714287,16.467759455953342L169.54787264285716,132.37059777975082L170.2065552857143,133.42949319737298L170.86523792857145,108.24962081227983L171.5017177857143,122.49172565766744L172.77467750000002,122.51983039719715L173.41115735714288,158.36735343933105L174.05503814285717,202.33848643728663L174.69151800000003,92.41109934874942L175.97187864285715,30.070228678839555L176.6083585,176.36465917314803L177.25964021428575,178.65406387192863L178.36977950000002,150.26253080368042L178.94705192857145,127.76933348178864L179.56872992857146,143.45315849781036L180.76768035714286,38.2055797066007L181.4411648571429,147.35613799095154L182.78073292857144,189.19279547248567L183.44681650000004,13.37736165523529L184.78638457142858,-15.21496541159496L185.45246814285716,105.15854888302937L186.11855171428573,113.89153090545108L187.4581197857143,131.52808157035284L190.1224540714286,25.854549850736362L190.78853764285716,143.9234755039215L191.46202214285717,81.16676383359089L192.1281057142857,201.2209017106465L193.46027285714288,124.49531590938568L194.1189555,199.12639238578933L195.46592450000003,205.60315448897225L196.84249721428574,233.36090240733964L197.51598171428574,112.93561664649417L198.18946621428574,142.8470527444567L198.87035164285717,144.58965895005636L200.23952342857143,180.06913991485322L200.91300792857146,117.0800465089934L205.67920592857143,191.8277070948056L208.39534671428575,137.07882380485535L210.4528048571429,127.42453278814043L211.13369028571432,99.97400289773941L211.81457571428575,197.45261149321283L212.49546114285718,42.19202273232594L215.21160192857147,150.7756710222789L215.8924873571429,150.20222840138845L216.56597185714287,95.92273117814744L217.2468572857143,133.33490654400416L219.28211264285716,104.75930428504944L219.94819621428573,65.50139709881375L220.6142797857143,84.92591318913867L221.27296242857145,210.3314278125763L221.91684321428576,121.15149393251963L222.0352580714286,196.45487718922752L223.31561871428573,32.752232994352084L223.9520985714286,165.31784331798553L224.63298400000002,219.33646884986334L225.99475485714288,147.813791011061L226.68304121428574,93.87000979696L227.36392664285717,70.8156807252339L228.05221300000002,118.15009714875902L228.73309842857145,152.3437260900225L229.40658292857145,117.48062331335882L231.4640410714286,130.79825718062264L232.1375255714286,109.17060879298617L233.49189550000003,8.266343832015991L236.20803628571431,93.92923680373599L236.8815207857143,211.30894628592898L238.2506925714286,215.0801577270031L238.93157800000003,80.6218111685344L239.61246342857146,171.645229773862L240.30074978571432,128.1202334335872L240.98903614285717,163.31593838759832L241.67732250000003,193.86026079739844L243.73478064285717,141.4666301182338L245.79963971428575,202.5505801141262L246.4879260714286,7.060103178024292L247.18361335714286,143.95316926070623L247.87930064285715,159.93739879131317L249.27067521428572,134.96230097327913L252.0016178571429,114.38313111237119L253.35598778571432,180.69201862812042L254.71035771428575,175.14622000285559L255.38384221428575,129.42394986322947L256.0647276428572,236.33125717725073L256.7456130714286,112.41814274447302L257.4116966428572,223.8546548315457L258.7660665714286,181.02420348780495L259.44695200000007,191.48244093145644L260.80872285714287,127.7872460399355L262.15569185714287,104.3640081541879L263.52486364285716,195.38131145068576L266.6554564285714,48.277862514768344L268.0098263571429,98.25773585694174L268.67590992857146,165.15666239602226L270.01547800000003,101.1381105184555L270.6889625,119.49946171045303L271.3550460714286,189.28759078468596L272.02112964285715,146.9728477682386L272.68721321428575,149.8007848603385L273.3458958571429,89.79909204585209L274.00457850000004,108.28576694216048L274.6706620714286,59.84916641882489L275.3367456428572,136.2092140487262L276.0028292142857,106.13895647866383L278.6819653571429,218.44056808097022L279.35544985714284,108.7821502515248L280.7024188571429,233.7611020207405L282.7080705,154.53823917252677L285.4020085,241.23242039339883L286.07549300000005,195.53618445566724L286.76377935714294,212.67688148362296L287.4372638571429,220.86288845539093L288.78423285714285,249.75639046941484L289.4651182857143,197.18814444967677L290.13860278571434,170.3518499817167L290.8046863571429,174.52932819298334L291.4855717857143,226.54283063326562L292.1590562857143,212.97606614657812L294.1869107142857,122.31094685622625L294.86039521428575,151.62735216958183L296.15555771428575,178.7982150231089L297.4433192857143,176.97365404878343L298.7902882857143,53.06841247422352L300.14465821428576,-49.88282772472928L301.10677892857143,39.20598644869665L301.7062541428572,44.359570673533824L302.3723377142858,200.6357260431562L303.04582221428575,173.54083105495997L303.68230207142864,195.8136204481125L304.31138100000004,165.0407122884478L304.9256580714286,82.2111333864076L305.60654350000004,65.34808100972856L306.2948298571429,170.16428174291337L307.6714025714286,193.9082202272756L309.0553762142858,184.75389984675817L309.75106350000004,113.23683974572589L311.12023528571433,208.6051611985479L312.42279871428576,101.54894370692114L313.10368414285716,195.75161667381013L313.79197050000005,170.8496457508632L314.47285592857145,179.46208717141832L315.1537413571429,41.99138924053739L315.84942864285716,81.98146421568731L316.53771500000005,195.00642375860895L317.2260013571429,208.42221555539538L317.92168864285713,123.01040336063929L318.609975,206.75604268482755L319.30566228571433,190.39834594726562L320.6674331428572,159.84244297231947L321.3557195,190.66580644249916L322.7174903571429,-16.17190691402982L324.07186028571437,211.25707049029214L324.75274571428577,214.1679253918784L325.43363114285717,10.635488305773038L326.1071156428572,190.38686168619563L326.78060014285717,150.63498681783676L328.13497007142865,63.079124876431024L328.81585550000005,172.9548689041819L330.1776263571429,48.119667019162875L330.87331364285717,198.9375320672989L331.5690009285715,193.36427072967803L332.24248542857146,234.21386760899L332.9233708571429,141.67646064928599L334.27033985714286,195.652102461883L334.95862621428574,116.46159778322493L335.63951164285714,204.92576766865594L336.3203970714286,182.71652291502272L339.73222514285715,188.29013736758913L340.4131105714286,157.79291567632131L342.45576685714286,121.84512404033117L343.1292513571429,200.47988999741418L344.4836212857143,201.25748923420906L345.1645067142858,152.56169431550163L346.53367850000006,168.96574541500635L347.9102512142857,191.3427679198129L351.35168300000004,155.7746711543628L352.0473702857143,107.74649621759141L354.1196302857143,132.96662370647704L354.8079166428572,149.5154840350151L355.49620300000004,198.1058982184955L356.18448935714287,77.8105186309133L356.8801766428572,110.97308403253555L357.56846300000007,165.6364493029458L358.9450357142857,173.73419358900614L360.32900935714287,118.0257043838501L361.72038392857144,201.0074918781008L363.0969566428572,224.06209381137575L365.17661757142866,109.81916859320233L365.86490392857144,157.5958454353469L367.9297630000001,208.01247381312507L368.62545028571435,115.015816790717L369.3211375714286,246.69477153675896L370.0168248571429,121.00581796680177L371.3933975714286,235.3572136759758L372.0890848571429,61.34828381878987L374.16874578571435,106.14223081724981L374.8570321428572,145.320815546172L376.2336048571429,172.963809132576L378.3058648571429,91.28320206063131L380.3855257857144,198.39428879959243L381.08121307142864,209.0728619439261L381.76949942857146,105.62443590164185L382.4651867142857,168.26853600570135L383.16087400000004,166.7222135577883L384.55964950000003,178.26810923644476L385.24793585714286,157.00160113402777L385.93622221428575,188.08984094006675L386.62450857142863,134.0135613679886L387.3201958571429,183.294588131564L388.0158831428572,145.80461512293135L388.70416950000003,46.77555102961401L390.08814314285723,156.01217305660248L391.47951771428575,129.310712320464L392.16040314285715,83.84032549176897L394.2548659285715,54.794518581458476L394.9505532142858,141.38926584380013L397.71850050000006,192.81279346346855L399.79816142857146,138.50351420470648L400.4938487142858,152.24543172972542L401.8778223571429,70.95195099285672L402.5809105714286,185.26074819905418L403.9722851428572,143.72481624569212L405.34885785714295,144.19479618753707L407.4137169285715,203.96803968293327L408.10940421428575,203.9049444624356L409.5007787857143,188.03270052160536L412.27612700000003,220.10918065479825L414.34098607142863,188.93153053947856L415.0366733571429,177.72907927206583L415.7249597142858,135.568743790899L416.42064700000003,253.07022977726797L417.1089333571429,187.688734463283L417.80462064285723,160.5722513113703L418.492907,182.75966714109694L419.8694797142858,172.70945401702608L420.56516700000003,187.66785252945763L421.2534533571429,186.40801865713937L421.94914064285723,162.6842960034098L422.637427,101.8393325975963L423.3257133571429,194.58829553638185L424.02140064285715,136.71745881012507L426.7967488571429,223.3274381671633L427.48503521428574,120.15964220251357L431.6443570714286,208.05348329884666L433.01352885714294,23.802245787211803L433.7018152142857,257.52739508875777L434.39750250000003,210.39187467098236L435.09318978571434,207.92837627870696L435.78887707142866,-20.873600312641713L436.4845643571429,54.46807986497879L437.18025164285723,219.78031828573774L437.86113707142863,162.9799976689475L438.54942342857146,162.97566398552485L439.2451107142858,200.62468317576815L439.9259961428572,113.34185934066772L440.61428250000006,173.42831579276495L441.3099697857143,181.5778877224241L441.9982561428572,220.85822573304176L442.69394342857146,216.25559712733542L443.38222978571434,155.91959273815155L444.08531800000003,195.20945682695935L445.4766925714286,194.84761031184877L446.1723798571429,177.60755957875932L446.8606662142858,181.96316822937555L448.2520407857143,184.97366574832373L449.62861350000003,195.60454429898942L451.00518621428574,171.02642793314797L451.70087350000006,66.98123763288771L453.7879353571429,211.1528694799968L454.4836226428572,234.4599004473005L455.1867108571429,203.2910380789212L456.5558826428572,187.57934908355986L457.2515699285715,222.84976192457336L457.9398562857143,154.9219788142613L459.32382992857146,152.79545640945435L460.69300171428574,251.47268961157118L461.3812880714286,153.69997639315469L462.75786078571434,88.15322328465322L463.44614714285717,139.11697116919927L464.1418344285714,106.29249727725983L464.83752171428574,202.56541094183922L465.5184071428572,151.66256736006056L466.2066935000001,204.03381536688124L466.8875789285715,181.07083071129662L467.56106342857146,113.78081331934249L468.2419488571429,206.2382878959179L469.6111206428572,157.92814264978682L470.29200607142866,111.49816595656529L470.97289150000006,170.07943785190582L473.0081468571429,171.96179732254572L473.68163135714286,202.78199078355516L474.3625167857143,146.95650817666734L475.7094857857143,157.3105767113822L476.3977721428572,123.52787726266041L476.9454408571429,134.03463590996606L477.3524919285715,198.40437665155957L478.15179221428576,96.37256751741683L478.8622813571429,210.44667169025968L479.21752592857143,147.65761790105276L479.57277050000005,194.4777866091047L480.26105685714293,187.54925405979156L480.9641450714286,116.05118191242218L481.6524314285715,201.72564742394854L482.00027507142863,132.89601676804676L482.34071778571433,153.6984515786171L483.39905057142863,175.1838106938771L484.7904251428572,230.86919494611877L485.13826878571433,152.67234769889288L485.48611242857146,216.97270937902587L485.8265551428572,248.58367968457085L486.1817997142858,189.71680200099945L486.87008607142866,152.4034025158201L487.21052878571436,245.91501348359245L488.22445600000003,181.23209188665663L488.55749778571436,169.52711792503084L489.26058600000005,202.44035207373756L489.9562732857143,153.4129260437829L490.3115178571429,176.30767926148005L491.3402469285715,189.68931521262442L492.02853328571433,218.02510427151407L492.3763769285715,231.68263534988677L492.72422057142865,217.2629618389266L493.4421106428572,85.43414189985822L493.7899542857144,174.10522109270096L494.1377979285715,204.77293309995105L494.48564157142863,146.14294739280427L494.8408861428572,204.8339256814548L495.18132885714294,231.59801616839002L495.5439743571429,115.4505975927625L495.9066198571429,115.51902163880209L496.24706257142867,171.20552141325814L497.6384371428572,167.78268194198608L497.9788798571429,152.50683309350694L498.65976528571434,127.95067405700684L499.34065071428574,218.7731943343367L499.6810934285715,221.07651497210776L500.0215361428572,225.48775527732712L500.36937978571433,169.49673398903437L500.71722342857146,171.37077920777458L501.06506707142864,219.41436279671532L501.4129107142858,140.7644289476531L501.7533534285715,184.46344675336564L502.11599892857146,100.79692122765948L502.80428528571434,184.00014389412743L503.14472800000004,136.946084686688L503.4777697857143,102.93997583218982L503.8182125000001,189.7432374698775L504.1586552142858,169.5129772765296L504.8395406428572,187.31448077304023L505.2021861428572,179.66132425410407L505.52782700000006,133.66486035926L506.2235142857143,95.29513356515338L506.5713579285715,211.5614074213164L506.9043997142857,146.80698004790716L507.2448424285715,140.8799135855266L507.6074879285715,201.4407960176468L507.94793064285716,123.25682944059372L508.2809724285715,216.04500418901443L508.6288160714286,159.67586902209692L508.9692587857144,144.45722479479653L509.9683841428572,211.06478335176195L510.6862742142858,125.41925721509114L511.38196150000005,154.62144589424133L512.4106905714286,141.7315947328295L512.7511332857143,206.59665943895067L513.091576,246.18225729465482L513.4246177857143,216.19732513598035L513.7798623571429,169.1729115332876L514.1203050714287,195.81885296957833L514.4755496428572,206.1844779934202L514.8233932857144,-6.781071748052341L515.1564350714286,194.36141918386733L515.5042787142858,165.53712769917078L515.8669242142857,174.87965032032557L516.2073669285714,39.317891785076654L516.5552105714286,195.75012396063124L517.5839396428572,209.87326117072786L517.9317832857143,233.5192664350782L518.9531114285716,241.24824636323112L519.2861532142858,193.07455596753528L519.9818405000001,167.55469809259688L520.3296841428571,236.5053027187075L520.6627259285715,191.06062105298042L521.0031686428572,182.82359699692046L521.3510122857143,116.36680247102464L521.6988559285714,220.9691118512835L522.7349859285714,204.35473264966691L523.0976314285715,159.93146003995622L523.4380741428572,228.87180828196662L524.799845,162.40448451042175L525.1476886428572,120.8057622994695L525.835975,235.97795764889037L526.1764177142858,148.94242663042886L526.5316622857143,232.34631489004408L526.872105,7.055897900036371L527.560391357143,224.7173868715763L528.5891204285715,124.51094927106584L528.9295631428572,81.93909042222157L529.6326513571429,213.41009256669454L529.9656931428573,197.49364505495345L530.3061358571429,-1.7469045775277436L530.6539795000001,173.7051900114332L531.0018231428572,174.38487207889557L531.3496667857144,224.37562778166364L531.7049113571429,186.14218730585915L532.052755,129.17479516778673L533.0740831428573,155.09226047141212L533.4219267857143,56.4813165749822L534.1102131428572,156.57291959013259L534.7910985714286,167.15699435983385L535.1389422142857,182.98179249252593L535.4793849285716,190.9621421098709L535.8346295,150.41794953175955L536.5229158571428,221.00953548720906L536.8781604285715,121.81671433789387L537.2260040714285,188.25911140441895L537.5738477142858,202.03251233696938L537.9290922857144,178.78105684689112L538.269535,193.23695674112867L538.6173786428571,156.72891614266806L538.9652222857144,234.31753092152732L539.9791495000001,167.0523760318756L540.3195922142858,214.13672287123543L541.3409203571429,227.91919243761473L541.6961649285714,153.36368255955833L542.0440085714287,235.56060788461141L542.7470967857143,212.8265380178179L543.4353831428573,222.9014210360391L543.7758258571429,229.87152484485082L544.1236695000001,179.52110551936286L544.4715131428572,137.44452248300826L544.8119558571428,174.37004125118256L545.1523985714286,103.24733029093062L545.5076431428572,193.4978926352092L545.8628877142858,163.130007318088L546.558575,133.24499063832417L546.9064186428573,170.19402365173613L547.2542622857144,155.95209536382131L547.9129449285714,177.51895982878548L548.9638767857143,185.63753789663315L549.3117204285716,158.92813207421983L549.6447622142858,187.55750410897392L549.9852049285714,37.53061653886522L550.3256476428572,172.65467304842812L551.0213349285715,201.8135650200503L551.3543767142858,190.0461378651006L551.7022203571429,235.56795107041086L552.3831057857143,145.44546512195043L552.7235485,213.10143800292695L553.4118348571429,152.33648723363876L554.4257620714286,175.7831109591893L555.1288502857143,143.43914625474386L555.4766939285715,162.3651282446725L555.8097357142858,226.79890317150526L556.8384647857143,107.24499274151663L557.1937093571429,180.9131006853921L557.8893966428572,228.23608902522497L558.2298393571429,197.14211912666048L558.9255266428571,165.86330960478102L559.2733702857143,103.24355838128497L559.628614857143,220.00000393390656L560.3169012142857,3.1386654036385835L560.6647448571429,141.987474662917L561.7008748571428,136.56484895093098L562.0487185000001,122.8115193928991L562.7444057857143,188.8438376528876L563.099650357143,198.61005005666186L563.447494,192.80270561150144L563.7953376428572,191.56343265942166L564.483624,157.85320202793395L564.8388685714286,223.47399692024504L565.1941131428572,188.52767137118747L565.5493577142857,160.80333294187272L566.2524459285714,121.0755581685475L566.9259304285715,165.8894882627896L567.6364195714286,170.14258122444153L567.9842632142858,154.07126070771898L568.3247059285715,29.376678824424744L568.6799505,179.48373953785216L569.0277941428571,186.55131912231445L570.4191687142858,193.630278638431L570.7670123571429,135.4302103774888L571.1000541428572,171.40880326713835L571.440496857143,186.75574057442802L572.4840277857144,130.14310055119648L572.8244705,93.61642511401857L573.1723141428572,133.4806146110807L573.5201577857143,158.57697531155176L573.8680014285715,147.22956233365196L574.5636887142858,108.23822482994626L574.9115323571428,102.64241228784834L575.2445741428572,159.28233846596308L575.5850168571429,174.49642430033003L576.2659022857143,117.75043523311615L576.9689905,185.55081607614244L577.3094332142857,167.80730368409837L577.657276857143,176.61344470296586L578.0347242142858,210.13881966045926L578.3751669285715,203.07363162721907L579.0338495714287,179.05032304355078L579.3594904285716,179.06931099721365L579.677730357143,150.48043482644218L580.3068092857143,103.85934269428253L580.6472520000001,199.45900258847644L581.3577411428572,120.45531176669255L581.6981838571429,208.10787905114037L583.1043602857144,113.61279480797901L583.4596048571428,163.13270383221763L584.1626930714286,145.0793812274933L584.5253385714286,207.40838242002894L584.8731822142857,122.66117267949238L585.2358277142858,114.7178840807506L585.5984732142857,196.21227919629644L585.9537177857144,224.8076960189002L586.5531930000001,210.8569190289293L587.8557564285716,198.71415476288115L588.4848353571429,209.36983161313194L589.1361170714287,-37.15470320837841L591.2009761428571,217.55930553163802L591.8966634285715,157.41657539776392L592.5627470000001,211.75678431562017L593.199226857143,108.50184118747711L594.4647856428571,191.7433447241783L598.5426972857144,245.86923694610593L599.2161817857143,194.70792927486556L599.8970672142858,73.65960429395949L600.5779526428572,66.32646621976579L601.2662390000002,135.22121448176247L603.9749788571429,158.65735711370195L606.0176351428571,241.4801867050784L606.6985205714286,191.45124643615316L608.067692357143,77.66617487158095L610.1547542142858,141.2825609275273L610.8504415000001,188.30541761432374L612.2344151428572,188.06249058246613L612.9301024285716,63.836123066289076L613.6257897142858,231.01574567386083L614.3214770000001,211.1912627049855L615.7128515714287,233.87841643605913L616.408538857143,194.39902592556817L617.1116270714286,178.0925308551107L617.8073143571429,107.4018078786986L618.5030016428572,174.0924287012645L619.1986889285715,194.5592919588089L619.8943762142858,201.96546062401364L620.5826625714286,188.71499884980065L621.278349857143,83.27961105959753L622.6697244285715,103.84964808395932L623.3728126428572,182.8105477946145L624.749385357143,149.07689922196525L626.133359,172.87132511820113L626.8290462857144,203.67264298030307L628.1908171428572,222.41218830432211L629.5525880000001,185.97213035821915L630.2334734285714,137.85079727854048L630.9143588571429,211.6325119308063L631.5952442857143,174.5376103435244L633.6304996428572,201.20154459135873L634.3113850714286,117.53468200138639L634.9848695714286,149.5490781068802L635.6583540714287,191.2076211997441L637.0053230714286,176.78322878905706L637.6862085000001,179.49688504423415L639.0479793571429,176.2351301908493L639.7288647857143,182.772395329816L643.1628956428572,213.5270057150296L643.851182,-73.64707834380016L645.2277547142858,46.53694163049971L645.923442,172.85251372201103L647.3148165714287,188.3925246511187L648.0031029285715,152.65286217417037L648.7061911428572,170.96097326278687L649.4092793571429,169.2364240714482L650.8006539285715,176.4492944053241L651.4889402857143,86.74389338493347L652.1846275714287,164.47550366606032L653.5389975,97.93391340119496L654.2272838571429,143.2274217435292L654.900768357143,156.48431984015875L655.5816537857144,198.85183749028613L657.6169091428573,207.92598472748483L658.9860809285715,227.88249255929674L661.0509400000001,164.4144468818392L662.4053099285715,172.82529176984514L663.086195357143,149.2008104664939L663.7744817142858,124.17337138312203L664.4627680714286,200.50070772852217L665.8245389285714,139.03095557859965L667.2085125714286,65.53115505831579L667.9041998571429,225.14439111948013L668.5924862142858,112.34909272193909L669.9690589285715,211.09523951581548L670.6647462142859,221.70314151900155L671.3530325714287,124.92804222447529L672.0487198571429,168.752303481102L672.7370062142859,123.17066939388002L674.8314690000001,191.50374820828438L675.5271562857143,202.41170161111015L676.2154426428573,162.02727749517985L679.7012800000001,207.4304280281067L680.4043682142858,188.69975070442473L681.0926545714286,125.91044010434831L681.7883418571429,215.15797944579805L683.1723155000001,156.12629338673182L683.8680027857143,151.9969832641738L684.571091,191.43646376047815L685.259377357143,164.6951732635498L685.9550646428572,155.861136163984L689.4186992142858,173.05703147820063L690.1143865000001,170.77123818227224L690.8174747142858,146.6886544397899L691.5057610714287,167.9168656212943L692.2014483571429,163.4218086685453L692.8897347142859,151.61643770762853L694.2663074285715,183.26645129067558L694.9693956428573,131.41813441685267L695.6650829285716,154.08272089276994L696.3533692857143,100.53582482678547L697.0564575000001,106.56012630462646L697.7521447857144,264.1936474995954L698.4478320714287,157.16254129580088L699.143519357143,226.19532540014814L699.8392066428572,224.37891817092896L701.2305812142858,152.81096136569977L701.9262685000001,226.10723927191327L702.6293567142858,238.91356269802367L703.3176430714287,121.4305670942579L704.0059294285716,95.47552715029036L704.6942157857143,202.5271220462663L705.3825021428572,54.15802889210835L706.7738767142857,79.69918601853504L708.1430485000001,189.6823331671102L709.541824,123.09893890789576L710.2375112857144,198.67399596316474L712.3171722142857,157.46559417247772L713.7159477142858,200.05330306717326L714.4042340714286,129.29904347658157L715.7882077142858,135.8531618288585L717.1869832142858,228.38686910697393L717.8826705,231.59411585330963L718.570956857143,182.77035689353943L719.9475295714286,191.2234471695764L722.0345914285715,253.81992490802492L722.7302787142858,211.96641421318054L724.8099396428572,149.9820612328393L726.1939132857144,199.16023524318422L728.2587723571429,119.92289468220304L730.3458342142858,88.70649020160948L731.0341205714286,205.9906339389937L731.7224069285714,126.94917586871557L732.4180942142858,208.8800772343363L733.1137815000001,203.17391627175468L733.8168697142858,156.96882564680917L734.5051560714286,62.92844109875813L735.2082442857143,139.3982753753662L735.9039315714286,156.0977552788598L736.5996188571429,188.80793228319715L737.9909934285714,130.25770240170613L738.6792797857144,145.70884071929115L739.3749670714286,106.01925051212311L741.4694298571429,149.15185589449746L742.1577162142858,233.31154656835966L743.541689857143,128.7624532154628L744.2447780714286,159.92536078180586L744.9330644285715,137.1683223928724L745.6287517142857,-58.10392148154125L747.0127253571429,140.14511348520006L749.1071881428571,152.59284868410654L749.7954745000001,169.76025404248918L750.4837608571429,126.6353529861995L751.1794481428572,158.12211510964804L751.8677345000001,156.02340853214264L752.5634217857144,155.56650989396232L753.2591090714286,202.65949199880873L753.9621972857143,188.9627731868199L754.6578845714287,140.50384616851807L755.3535718571429,125.30067479610443L756.0492591428572,149.55861221041L756.7523473571429,79.88667400394166L757.4480346428571,233.13461190462112L758.151122857143,167.08823324952806L759.5350965,236.99276185035706L760.2307837857143,178.5246472443853L760.9190701428572,207.21818989515305L761.6147574285715,183.82596192189627L768.5790312142858,201.77655215348517L770.6586921428573,196.4778055846691L771.3543794285715,163.03172900847025L772.0426657857143,211.65220611436027L772.7457540000001,216.07081368139814L774.1297276428571,177.9884100982121L774.8254149285715,234.52166346141271L775.5137012857143,129.57179267065865L776.1945867142858,132.62183906350816L776.8902740000001,118.44952257190431L778.2890495,23.484089221273166L778.9847367857143,137.4301250236375L779.6730231428572,172.12840337412698L780.3687104285715,248.64417469501493L781.0643977142857,232.60079841102873L781.7674859285714,207.38949879578183L782.4631732142858,175.43516433238983L783.1514595714286,218.31144839099477L783.8471468571429,154.8708413498742L785.2311205000001,153.54895555121558L786.6224950714286,168.76796894414085L787.3107814285715,85.08699780702591L788.6725522857145,127.70638271740503L789.3534377142857,105.79900309017728L790.0417240714287,204.9866960474423L791.4108958571429,199.80214203681265L792.0991822142859,116.74758878776004L792.7800676428571,174.2847479411534L793.4683540000001,162.38597807713919L794.1566403571429,256.2162512072495L794.8375257857144,167.72891216618675L797.5758693571429,229.43555629253387L798.9450411428572,75.82488908938001L801.0024992857143,96.09399192673817L801.6907856428572,198.55918545382363L803.067358357143,83.57706224918365L803.7556447142858,226.07758564182691L804.4439310714287,200.13772964051793L805.8131028571429,245.70111410532678L806.4939882857144,211.0936504985605L807.1822746428572,106.42546110493794L807.8705610000001,179.38851085730963L808.558847357143,136.62431671789713L809.2471337142857,158.50354345355714L809.9502219285715,79.29141850982393L810.6459092142859,172.0031438725335L811.3341955714287,204.93706734691347L813.3990546428572,227.82316924844469L814.1021428571429,168.90788271597452L814.8052310714286,173.04592440809523L816.1966056428572,95.71256358282903L816.8922929285715,168.1619434441839L817.5879802142857,182.40908820288521L818.2836675000001,192.5331826039723L818.9719538571429,203.25531729204315L821.0590157142858,225.56188533987319L821.7473020714286,237.6631184731211L822.4503902857143,64.67892818791523L823.1460775714286,137.3505618061338L823.8417648571428,103.7089799301965L824.5374521428573,227.08978160790036L825.2331394285716,169.07854958942957L826.6171130714287,174.6014278445925L827.3053994285715,177.97593872036254L828.0084876428572,237.40536061355047L828.7041749285714,245.19374410595213L829.3924612857144,63.01829280172075L830.0881485714286,144.53336921760015L831.4721222142857,75.28897295679366L833.529580357143,173.7135042633329L834.2104657857143,71.07156065532138L835.5796375714286,190.89868574908803L838.3179811428572,199.86949068733622L839.0062675,65.83387087072646L840.3754392857144,169.01174666200365L841.0563247142859,198.5155035299914L843.0989810000001,143.96918783869063L844.4681527857143,158.1173801592418L845.1564391428572,136.17239379031315L845.8447255000001,207.9166673081262L847.206496357143,101.95011438642229L847.8873817857143,87.28401479550769L848.5682672142858,194.98482756955283L849.2491526428572,229.253060068403L850.6109235,112.45278011049544L851.299209857143,190.6391944161483L851.9800952857144,225.38780769705772L852.6609807142859,150.94298330375128L853.3418661428572,183.0496226634298L854.7184388571429,116.04858170236861L855.3993242857144,185.12889186825072L856.0802097142858,214.24707129171918L857.4493815000001,129.69702007089342L858.1376678571429,180.85313534736633L860.1803241428572,211.97442350217273L861.5420950000001,238.28042760065625L862.2155795,207.49973486151015L863.577350357143,167.44439782415117L864.2582357857144,190.2597964831761L864.9391212142858,204.4722878251757L865.6274075714286,189.45442154577802L866.3156939285715,124.01512773547853L867.0039802857144,223.2961072410856L867.6922666428572,182.06486533369338L869.7497247857143,173.9246027980532L870.4306102142858,206.15521760497774L871.1188965714286,249.7951528600284L871.7997820000002,193.74351618119647L872.488068357143,181.3447676556451L873.1763547142857,167.36828550270624L873.8498392142858,209.9456176332065L875.233812857143,160.92059920515334L875.9369010714287,160.00770076683588L876.6399892857144,176.09449413844519L877.3282756428572,165.13393463407243L878.0239629285714,131.17772734165192L878.7270511428572,187.60610556602478L880.814113,223.5981810263225L882.2054875714286,240.15554821491241L882.9011748571429,85.19570905821661L883.6042630714287,161.42778462171555L884.299950357143,191.03942613090788L884.9882367142858,189.0597032393728L885.683924,208.39393425839287L886.3722103571429,179.45736827169145L887.0604967142858,263.07170501351357L887.7487830714286,217.2596875003406L888.4444703571429,240.88566954221045L890.5315322142858,143.78112202882767L891.2198185714286,122.4367681315967L893.3142813571429,201.60406352792467L894.0025677142858,161.51808574369974L895.386541357143,164.58012199401855L896.0822286428572,199.93885369811738L896.7779159285715,45.550145864486694L898.1692905000001,109.19487742015292L898.8575768571429,140.50641427721297L899.5532641428573,158.0249603475843L900.9520396428572,127.18765686239516L901.6477269285715,208.3801627755165L902.3434142142858,176.15619294984L903.7347887857144,127.82188340595789L904.4230751428572,197.8936761362212L905.1261633571429,94.5364661046437L906.5175379285715,190.64016548224856L907.2132252142858,140.10580537148886L907.9089125,194.58211602483476L909.3002870714287,152.75208747386932L909.9959743571429,217.9946962594986L911.3799480000001,181.467475099223L912.0756352857144,158.65008615595954L912.7713225714286,182.2042333824294L913.4670098571429,172.43956184387207L914.1626971428573,211.23268950837L914.8583844285715,216.44331784759248L916.2349571428572,159.29373444829668L916.9306444285716,193.3854255250522L919.0029044285716,183.82215791089195L920.3942790000001,192.8764584830829L922.481340857143,107.12876977239335L925.2492881428573,168.97916378293718L928.7351255000001,217.45415753126144L930.8295882857144,245.1311946085521L931.5326765000001,154.4464934894017L932.2283637857144,114.43264745814457L932.9166501428572,204.13286410910743L933.619738357143,197.02921062282155L935.691998357143,224.97500830037254L936.3876856428573,257.95683903992176L937.7716592857143,145.4060446534838L938.4673465714287,157.10926909106118L939.8587211428572,123.98063482557023L940.5470075000001,149.86834216969353L941.2500957142859,178.2867922272001L941.9161792857143,245.00094334568297L943.2779501428572,133.01617215360915L943.9662365000002,80.41119415419439L944.6471219285716,163.34560004302435L945.3354082857144,232.93624958395958L946.0088927857144,218.3766623011657L947.3632627142857,163.60356656142645L948.0515490714287,154.37312583412444L948.7398354285715,240.10640103476388L950.1090072142858,190.2066847852298L951.4855799285715,234.73523380075181L952.1738662857143,35.042215517589L953.5430380714287,194.71394025427955L955.6226990000001,138.27060279675894L957.0140735714286,181.52963938031877L959.7894217857144,169.68812228952135L960.4851090714287,151.3908293587821L961.180796357143,205.66025478073527L961.8764836428572,156.85769074303764L963.9635455000001,78.55347247634614L964.6666337142858,165.0513378381729L965.3623210000001,183.35611038548606L967.449382857143,106.3111481666565L968.1450701428572,131.63940908227647L969.5290437857144,150.84892632280076L970.2247310714287,82.16514819008961L970.9130174285715,165.9413159063884L972.9852774285715,122.76489216940743L973.6809647142859,197.8808195420674L975.7532247142858,47.84394844940732L976.4489120000001,171.3927686384746L977.1445992857143,164.43155690601893L977.8402865714287,202.09353701983179L978.5433747857144,172.80617541074753L979.2390620714287,158.1830113870757L979.934749357143,212.83077539716447L981.333524857143,90.93482206548964L982.0292121428572,74.2040754386357L982.7248994285716,199.5560610464641L983.4205867142858,105.4050552163805L984.1236749285715,180.499346273286L984.8193622142858,130.67678563935414L985.5150495000001,138.63257771730423L986.2181377142858,184.23642594473702L986.9138250000001,164.73520365783148L989.7039750714287,133.1154456053461L991.7910369285714,234.01849071468627L992.4867242142859,123.73143197808946L993.1824115000002,166.39280546563012L993.8632969285715,99.77261502402166L995.269473357143,149.1599133355277L995.9577597142858,189.21964825902666L996.6386451428572,141.9359519822257L997.2677240714287,214.0172737155642" style="fill: none;" fill="none"></path></g></g></g></g></g></g><g transform="translate(58, 377)" clip-path="url(#clip_1)"><clipPath id="clip_1"><rect width="1036" height="22"></rect></clipPath><g><g><line x1="0" y1="0" x2="0" y2="5" style="visibility: inherit;" fill="rgb(0, 0, 0)" stroke="rgb(204, 204, 204)" stroke-width="1px"></line><line x1="74.00928571428572" y1="0" x2="74.00928571428572" y2="5" style="visibility: inherit;" fill="rgb(0, 0, 0)" stroke="rgb(204, 204, 204)" stroke-width="1px"></line><line x1="148.01857142857145" y1="0" x2="148.01857142857145" y2="5" style="visibility: inherit;" fill="rgb(0, 0, 0)" stroke="rgb(204, 204, 204)" stroke-width="1px"></line><line x1="222.02785714285716" y1="0" x2="222.02785714285716" y2="5" style="visibility: inherit;" fill="rgb(0, 0, 0)" stroke="rgb(204, 204, 204)" stroke-width="1px"></line><line x1="296.0371428571429" y1="0" x2="296.0371428571429" y2="5" style="visibility: inherit;" fill="rgb(0, 0, 0)" stroke="rgb(204, 204, 204)" stroke-width="1px"></line><line x1="370.04642857142863" y1="0" x2="370.04642857142863" y2="5" style="visibility: inherit;" fill="rgb(0, 0, 0)" stroke="rgb(204, 204, 204)" stroke-width="1px"></line><line x1="444.0557142857143" y1="0" x2="444.0557142857143" y2="5" style="visibility: inherit;" fill="rgb(0, 0, 0)" stroke="rgb(204, 204, 204)" stroke-width="1px"></line><line x1="518.065" y1="0" x2="518.065" y2="5" style="visibility: inherit;" fill="rgb(0, 0, 0)" stroke="rgb(204, 204, 204)" stroke-width="1px"></line><line x1="592.0742857142858" y1="0" x2="592.0742857142858" y2="5" style="visibility: inherit;" fill="rgb(0, 0, 0)" stroke="rgb(204, 204, 204)" stroke-width="1px"></line><line x1="666.0835714285715" y1="0" x2="666.0835714285715" y2="5" style="visibility: inherit;" fill="rgb(0, 0, 0)" stroke="rgb(204, 204, 204)" stroke-width="1px"></line><line x1="740.0928571428573" y1="0" x2="740.0928571428573" y2="5" style="visibility: inherit;" fill="rgb(0, 0, 0)" stroke="rgb(204, 204, 204)" stroke-width="1px"></line><line x1="814.1021428571429" y1="0" x2="814.1021428571429" y2="5" style="visibility: inherit;" fill="rgb(0, 0, 0)" stroke="rgb(204, 204, 204)" stroke-width="1px"></line><line x1="888.1114285714286" y1="0" x2="888.1114285714286" y2="5" style="visibility: inherit;" fill="rgb(0, 0, 0)" stroke="rgb(204, 204, 204)" stroke-width="1px"></line><line x1="962.1207142857144" y1="0" x2="962.1207142857144" y2="5" style="visibility: inherit;" fill="rgb(0, 0, 0)" stroke="rgb(204, 204, 204)" stroke-width="1px"></line><line x1="1036.13" y1="0" x2="1036.13" y2="5" style="visibility: inherit;" fill="rgb(0, 0, 0)" stroke="rgb(204, 204, 204)" stroke-width="1px"></line></g><g transform="translate(0, 8)"><text x="0" y="0" dx="0em" dy="0.95em" style="text-anchor: middle; visibility: hidden; font-family: &quot;Helvetica Neue&quot;, sans-serif; font-size: 12px; font-weight: 200;" fill="rgb(50, 49, 63)" stroke="none" stroke-width="1px">-10k</text><text x="74.00928571428572" y="0" dx="0em" dy="0.95em" style="text-anchor: middle; visibility: inherit; font-family: &quot;Helvetica Neue&quot;, sans-serif; font-size: 12px; font-weight: 200;" fill="rgb(50, 49, 63)" stroke="none" stroke-width="1px">0</text><text x="148.01857142857145" y="0" dx="0em" dy="0.95em" style="text-anchor: middle; visibility: inherit; font-family: &quot;Helvetica Neue&quot;, sans-serif; font-size: 12px; font-weight: 200;" fill="rgb(50, 49, 63)" stroke="none" stroke-width="1px">10k</text><text x="222.02785714285716" y="0" dx="0em" dy="0.95em" style="text-anchor: middle; visibility: inherit; font-family: &quot;Helvetica Neue&quot;, sans-serif; font-size: 12px; font-weight: 200;" fill="rgb(50, 49, 63)" stroke="none" stroke-width="1px">20k</text><text x="296.0371428571429" y="0" dx="0em" dy="0.95em" style="text-anchor: middle; visibility: inherit; font-family: &quot;Helvetica Neue&quot;, sans-serif; font-size: 12px; font-weight: 200;" fill="rgb(50, 49, 63)" stroke="none" stroke-width="1px">30k</text><text x="370.04642857142863" y="0" dx="0em" dy="0.95em" style="text-anchor: middle; visibility: inherit; font-family: &quot;Helvetica Neue&quot;, sans-serif; font-size: 12px; font-weight: 200;" fill="rgb(50, 49, 63)" stroke="none" stroke-width="1px">40k</text><text x="444.0557142857143" y="0" dx="0em" dy="0.95em" style="text-anchor: middle; visibility: inherit; font-family: &quot;Helvetica Neue&quot;, sans-serif; font-size: 12px; font-weight: 200;" fill="rgb(50, 49, 63)" stroke="none" stroke-width="1px">50k</text><text x="518.065" y="0" dx="0em" dy="0.95em" style="text-anchor: middle; visibility: inherit; font-family: &quot;Helvetica Neue&quot;, sans-serif; font-size: 12px; font-weight: 200;" fill="rgb(50, 49, 63)" stroke="none" stroke-width="1px">60k</text><text x="592.0742857142858" y="0" dx="0em" dy="0.95em" style="text-anchor: middle; visibility: inherit; font-family: &quot;Helvetica Neue&quot;, sans-serif; font-size: 12px; font-weight: 200;" fill="rgb(50, 49, 63)" stroke="none" stroke-width="1px">70k</text><text x="666.0835714285715" y="0" dx="0em" dy="0.95em" style="text-anchor: middle; visibility: inherit; font-family: &quot;Helvetica Neue&quot;, sans-serif; font-size: 12px; font-weight: 200;" fill="rgb(50, 49, 63)" stroke="none" stroke-width="1px">80k</text><text x="740.0928571428573" y="0" dx="0em" dy="0.95em" style="text-anchor: middle; visibility: inherit; font-family: &quot;Helvetica Neue&quot;, sans-serif; font-size: 12px; font-weight: 200;" fill="rgb(50, 49, 63)" stroke="none" stroke-width="1px">90k</text><text x="814.1021428571429" y="0" dx="0em" dy="0.95em" style="text-anchor: middle; visibility: inherit; font-family: &quot;Helvetica Neue&quot;, sans-serif; font-size: 12px; font-weight: 200;" fill="rgb(50, 49, 63)" stroke="none" stroke-width="1px">100k</text><text x="888.1114285714286" y="0" dx="0em" dy="0.95em" style="text-anchor: middle; visibility: inherit; font-family: &quot;Helvetica Neue&quot;, sans-serif; font-size: 12px; font-weight: 200;" fill="rgb(50, 49, 63)" stroke="none" stroke-width="1px">110k</text><text x="962.1207142857144" y="0" dx="0em" dy="0.95em" style="text-anchor: middle; visibility: inherit; font-family: &quot;Helvetica Neue&quot;, sans-serif; font-size: 12px; font-weight: 200;" fill="rgb(50, 49, 63)" stroke="none" stroke-width="1px">120k</text><text x="1036.13" y="0" dx="0em" dy="0.95em" style="text-anchor: middle; visibility: hidden; font-family: &quot;Helvetica Neue&quot;, sans-serif; font-size: 12px; font-weight: 200;" fill="rgb(50, 49, 63)" stroke="none" stroke-width="1px">130k</text></g><line x1="0" y1="0" x2="1036.13" y2="0" fill="rgb(0, 0, 0)" stroke="rgb(204, 204, 204)" stroke-width="1px"></line></g></g></g></g></svg>