<svg viewBox="0 0 1094.1319580078125 400.0000305175781" xmlns="http://www.w3.org/2000/svg"><g><g><g><g><g><line x1="46" y1="377" x2="41" y2="377" style="visibility: inherit;" fill="rgb(0, 0, 0)" stroke="rgb(204, 204, 204)" stroke-width="1px"></line><line x1="46" y1="329.875" x2="41" y2="329.875" style="visibility: inherit;" fill="rgb(0, 0, 0)" stroke="rgb(204, 204, 204)" stroke-width="1px"></line><line x1="46" y1="282.75" x2="41" y2="282.75" style="visibility: inherit;" fill="rgb(0, 0, 0)" stroke="rgb(204, 204, 204)" stroke-width="1px"></line><line x1="46" y1="235.625" x2="41" y2="235.625" style="visibility: inherit;" fill="rgb(0, 0, 0)" stroke="rgb(204, 204, 204)" stroke-width="1px"></line><line x1="46" y1="188.5" x2="41" y2="188.5" style="visibility: inherit;" fill="rgb(0, 0, 0)" stroke="rgb(204, 204, 204)" stroke-width="1px"></line><line x1="46" y1="141.375" x2="41" y2="141.375" style="visibility: inherit;" fill="rgb(0, 0, 0)" stroke="rgb(204, 204, 204)" stroke-width="1px"></line><line x1="46" y1="94.25" x2="41" y2="94.25" style="visibility: inherit;" fill="rgb(0, 0, 0)" stroke="rgb(204, 204, 204)" stroke-width="1px"></line><line x1="46" y1="47.125" x2="41" y2="47.125" style="visibility: inherit;" fill="rgb(0, 0, 0)" stroke="rgb(204, 204, 204)" stroke-width="1px"></line><line x1="46" y1="0" x2="41" y2="0" style="visibility: inherit;" fill="rgb(0, 0, 0)" stroke="rgb(204, 204, 204)" stroke-width="1px"></line></g><g transform="translate(36, 0)"><text x="0" y="377" dx="0em" dy="0.3em" style="text-anchor: end; visibility: hidden; font-family: &quot;Helvetica Neue&quot;, sans-serif; font-size: 12px; font-weight: 200;" fill="rgb(50, 49, 63)" stroke="none" stroke-width="1px">-20</text><text x="0" y="329.875" dx="0em" dy="0.3em" style="text-anchor: end; visibility: inherit; font-family: &quot;Helvetica Neue&quot;, sans-serif; font-size: 12px; font-weight: 200;" fill="rgb(50, 49, 63)" stroke="none" stroke-width="1px">0</text><text x="0" y="282.75" dx="0em" dy="0.3em" style="text-anchor: end; visibility: inherit; font-family: &quot;Helvetica Neue&quot;, sans-serif; font-size: 12px; font-weight: 200;" fill="rgb(50, 49, 63)" stroke="none" stroke-width="1px">20</text><text x="0" y="235.625" dx="0em" dy="0.3em" style="text-anchor: end; visibility: inherit; font-family: &quot;Helvetica Neue&quot;, sans-serif; font-size: 12px; font-weight: 200;" fill="rgb(50, 49, 63)" stroke="none" stroke-width="1px">40</text><text x="0" y="188.5" dx="0em" dy="0.3em" style="text-anchor: end; visibility: inherit; font-family: &quot;Helvetica Neue&quot;, sans-serif; font-size: 12px; font-weight: 200;" fill="rgb(50, 49, 63)" stroke="none" stroke-width="1px">60</text><text x="0" y="141.375" dx="0em" dy="0.3em" style="text-anchor: end; visibility: inherit; font-family: &quot;Helvetica Neue&quot;, sans-serif; font-size: 12px; font-weight: 200;" fill="rgb(50, 49, 63)" stroke="none" stroke-width="1px">80</text><text x="0" y="94.25" dx="0em" dy="0.3em" style="text-anchor: end; visibility: inherit; font-family: &quot;Helvetica Neue&quot;, sans-serif; font-size: 12px; font-weight: 200;" fill="rgb(50, 49, 63)" stroke="none" stroke-width="1px">100</text><text x="0" y="47.125" dx="0em" dy="0.3em" style="text-anchor: end; visibility: inherit; font-family: &quot;Helvetica Neue&quot;, sans-serif; font-size: 12px; font-weight: 200;" fill="rgb(50, 49, 63)" stroke="none" stroke-width="1px">120</text><text x="0" y="0" dx="0em" dy="0.3em" style="text-anchor: end; visibility: hidden; font-family: &quot;Helvetica Neue&quot;, sans-serif; font-size: 12px; font-weight: 200;" fill="rgb(50, 49, 63)" stroke="none" stroke-width="1px">140</text></g><line x1="46" y1="0" x2="46" y2="377" fill="rgb(0, 0, 0)" stroke="rgb(204, 204, 204)" stroke-width="1px"></line></g></g><g transform="translate(46, 0)" clip-path="url(#clip_0)"><clipPath id="clip_0"><rect width="1048" height="376"></rect></clipPath><g><g><g><line x1="0" y1="0" x2="0" y2="377" fill="rgb(0, 0, 0)" stroke="rgb(60, 60, 60)" stroke-width="1px" opacity="0.25"></line><line x1="74.86642857142857" y1="0" x2="74.86642857142857" y2="377" fill="rgb(0, 0, 0)" stroke="rgb(60, 60, 60)" stroke-width="1px" opacity="0.25"></line><line x1="149.73285714285714" y1="0" x2="149.73285714285714" y2="377" fill="rgb(0, 0, 0)" stroke="rgb(60, 60, 60)" stroke-width="1px" opacity="0.25"></line><line x1="224.5992857142857" y1="0" x2="224.5992857142857" y2="377" fill="rgb(0, 0, 0)" stroke="rgb(60, 60, 60)" stroke-width="1px" opacity="0.25"></line><line x1="299.4657142857143" y1="0" x2="299.4657142857143" y2="377" fill="rgb(0, 0, 0)" stroke="rgb(60, 60, 60)" stroke-width="1px" opacity="0.25"></line><line x1="374.3321428571429" y1="0" x2="374.3321428571429" y2="377" fill="rgb(0, 0, 0)" stroke="rgb(60, 60, 60)" stroke-width="1px" opacity="0.25"></line><line x1="449.1985714285714" y1="0" x2="449.1985714285714" y2="377" fill="rgb(0, 0, 0)" stroke="rgb(60, 60, 60)" stroke-width="1px" opacity="0.25"></line><line x1="524.065" y1="0" x2="524.065" y2="377" fill="rgb(0, 0, 0)" stroke="rgb(60, 60, 60)" stroke-width="1px" opacity="0.25"></line><line x1="598.9314285714286" y1="0" x2="598.9314285714286" y2="377" fill="rgb(0, 0, 0)" stroke="rgb(60, 60, 60)" stroke-width="1px" opacity="0.25"></line><line x1="673.7978571428573" y1="0" x2="673.7978571428573" y2="377" fill="rgb(0, 0, 0)" stroke="rgb(60, 60, 60)" stroke-width="1px" opacity="0.25"></line><line x1="748.6642857142858" y1="0" x2="748.6642857142858" y2="377" fill="rgb(0, 0, 0)" stroke="rgb(60, 60, 60)" stroke-width="1px" opacity="0.25"></line><line x1="823.5307142857143" y1="0" x2="823.5307142857143" y2="377" fill="rgb(0, 0, 0)" stroke="rgb(60, 60, 60)" stroke-width="1px" opacity="0.25"></line><line x1="898.3971428571429" y1="0" x2="898.3971428571429" y2="377" fill="rgb(0, 0, 0)" stroke="rgb(60, 60, 60)" stroke-width="1px" opacity="0.25"></line><line x1="973.2635714285716" y1="0" x2="973.2635714285716" y2="377" fill="rgb(0, 0, 0)" stroke="rgb(60, 60, 60)" stroke-width="1px" opacity="0.25"></line><line x1="1048.13" y1="0" x2="1048.13" y2="377" fill="rgb(0, 0, 0)" stroke="rgb(60, 60, 60)" stroke-width="1px" opacity="0.25"></line></g><g><line x1="0" y1="377" x2="1048.13" y2="377" fill="rgb(0, 0, 0)" stroke="rgb(60, 60, 60)" stroke-width="1px" opacity="0.25"></line><line x1="0" y1="329.875" x2="1048.13" y2="329.875" fill="rgb(0, 0, 0)" stroke="rgb(60, 60, 60)" stroke-width="1px" opacity="0.25"></line><line x1="0" y1="282.75" x2="1048.13" y2="282.75" fill="rgb(0, 0, 0)" stroke="rgb(60, 60, 60)" stroke-width="1px" opacity="0.25"></line><line x1="0" y1="235.625" x2="1048.13" y2="235.625" fill="rgb(0, 0, 0)" stroke="rgb(60, 60, 60)" stroke-width="1px" opacity="0.25"></line><line x1="0" y1="188.5" x2="1048.13" y2="188.5" fill="rgb(0, 0, 0)" stroke="rgb(60, 60, 60)" stroke-width="1px" opacity="0.25"></line><line x1="0" y1="141.375" x2="1048.13" y2="141.375" fill="rgb(0, 0, 0)" stroke="rgb(60, 60, 60)" stroke-width="1px" opacity="0.25"></line><line x1="0" y1="94.25" x2="1048.13" y2="94.25" fill="rgb(0, 0, 0)" stroke="rgb(60, 60, 60)" stroke-width="1px" opacity="0.25"></line><line x1="0" y1="47.125" x2="1048.13" y2="47.125" fill="rgb(0, 0, 0)" stroke="rgb(60, 60, 60)" stroke-width="1px" opacity="0.25"></line><line x1="0" y1="0" x2="1048.13" y2="0" fill="rgb(0, 0, 0)" stroke="rgb(60, 60, 60)" stroke-width="1px" opacity="0.25"></line></g></g></g><g><g><line x1="0" y1="329.875" x2="1048.13" y2="329.875" fill="rgb(0, 0, 0)" stroke="rgb(153, 153, 153)" stroke-width="1.5px"></line></g></g><g><g><line x1="74.86642857142857" y1="0" x2="74.86642857142857" y2="377" fill="rgb(0, 0, 0)" stroke="rgb(153, 153, 153)" stroke-width="1.5px"></line></g></g><g><g><g><g><g><path stroke="rgb(255, 112, 67)" stroke-width="2px" d="M95.07287764285715,-14.993851254757487L95.73170221428572,36.01570337287188L96.3905267857143,97.05906108993838L97.05683800000001,57.758003091716944L97.7381225,124.2069491657752L99.10069150000001,95.02675710081269L101.1595182857143,56.02886102140246L101.84828942857145,73.03607496745519L103.21085842857144,95.81810443581395L103.88465628571429,95.67848580954455L104.56594078571429,141.95891929855284L105.26219857142857,143.11890314706682L106.6472275,132.2823610349404L108.0247697857143,113.08768480386578L108.72102757142859,128.45316413680325L110.80980092857145,55.71688510659777L111.49857207142858,49.00215489338245L112.20231650000002,21.4884114876902L112.8985742857143,78.34271595708174L113.60231871428572,101.03208792189628L115.69857871428572,104.38663246413313L116.39483650000001,-59.0840665011479L117.78735207142859,-21.785613630233968L118.48360985714287,45.57516799471745L119.172381,107.5309567851022L119.86115214285715,102.64906715798412L120.55740992857143,43.91051839842606L121.26115435714287,11.3642340488056L121.9499255,51.86656300617739L123.33495442857144,90.08954510055463L124.03121221428572,96.7813596783734L124.73495664285716,115.94509088881347L125.42372778571429,158.5177642960678L126.80875671428572,171.8030510604369L128.21624557142857,137.2721844684467L128.89753007142858,132.60115221090933L130.29004564285714,73.87889876211665L130.98630342857143,110.69615256218498L132.37881900000002,38.180327683840005L133.07507678571432,73.90076727757571L133.77133457142858,83.61718048983727L134.46759235714288,94.25292847594017L135.15636350000003,124.76210258269634L135.83016135714288,147.79516797700165L137.2301635714286,59.69748366736462L137.9189347142857,88.03739234961938L138.61519250000003,128.5637134287232L139.3114502857143,128.2934236939832L142.755306,160.31626724815874L143.4515637857143,158.01266789207762L144.851566,155.34026581627077L146.23659492857144,120.38878984559739L146.92536607142858,139.56131279056768L147.62911050000002,183.83459562531414L152.23339585714288,175.56962301773603L154.29222264285718,146.62329106833204L155.5724385714286,180.2473830443958L156.23126314285716,189.17845651044487L156.8975743571429,218.3185072024705L159.19597371428574,193.41235037327067L159.80987842857144,153.49469291973264L160.3788632857143,86.7243672883996L161.01522792857145,63.21189435222681L162.3029305,102.08569278656802L162.95426842857145,127.31977258646106L164.91576885714287,-20.62707535193198L166.88475592857145,64.29556028505664L167.55106714285716,95.49910277641118L168.8687162857143,101.48779958317465L170.20133871428573,121.77732261794677L170.86016328571432,70.85906305776751L171.51150121428572,99.8048939160509L172.17781242857146,115.81915220809003L172.84412364285717,111.3821187662603L173.48797492857145,120.3786334805203L174.77567750000003,121.98314375713542L175.4195287857143,147.36034412285727L176.07086671428573,179.70207590044168L176.714718,145.31159336436167L178.00990721428573,89.0274743215345L178.6537585,132.29608799791947L179.3125830714286,159.31242735014328L180.43557950000002,162.71608987108453L181.01953764285716,151.94078498038996L181.64841564285715,150.34824622245642L182.8612517857143,95.4663880716086L183.5425362857143,114.60469595255375L184.89761864285714,153.68976737774562L185.57141650000003,72.34971224854678L186.92649885714286,8.73599212879111L187.60029671428572,45.3101845259319L188.27409457142858,69.44367260902231L189.62917692857144,95.95690583210649L192.32436835714287,46.931412099727766L192.99816621428573,89.35581837113426L193.67945071428574,75.2117566514953L194.35324857142857,136.65073798709776L195.7008442857143,130.36510091908968L196.3671555,166.06474601440547L197.72972450000003,192.85322439201425L199.1222400714286,221.82869109825938L199.8035245714286,171.05212512801083L200.4848090714286,161.6069944714903L201.17358021428575,155.11112268539662L202.55860914285716,171.388544415071L203.23989364285717,146.87863560595179L208.06129164285716,175.31484187649528L210.8088895714286,162.70082002763058L212.89017628571432,148.8994612472302L213.57894742857147,122.1158563290266L214.2677185714286,161.82914631809166L214.95648971428574,88.90209823397021L217.7040876428572,118.0407718035413L218.3928587857143,133.03919210510452L219.0741432857143,114.6208220677197L219.76291442857143,121.45652610043405L221.82174121428574,111.62092535722087L222.4955390714286,83.00486333506007L223.16933692857145,74.31430334649508L223.83564814285717,139.7376681304098L224.48698607142862,134.78672777033574L224.6067723571429,168.04555305967762L225.9019615714286,96.17533442217132L226.54581285714286,127.54215538047566L227.234584,176.04940880979782L228.6121262857143,164.28918221977762L229.3083840714286,128.93857383839733L229.99715521428575,96.14016584463388L230.69341300000002,102.55308073465511L231.38218414285714,123.91362471642785L232.06346864285717,116.94915038146195L234.14475535714288,123.68803309081562L234.8260398571429,109.17984885381799L236.1960955,49.019523577732684L238.94369342857146,60.0760126238124L239.62497792857144,130.0755540445481L241.01000685714288,175.59557809323277L241.69877800000003,130.1400015228403L242.38754914285715,155.04658411225154L243.08380692857148,143.2064614956407L243.78006471428574,157.1220031943815L244.47632250000004,180.25372653287036L246.55760921428575,165.66001616645684L248.6463825714286,190.77896082597272L249.3426403571429,93.56208623526868L250.0463847857143,111.83605930494292L250.75012921428572,135.65594123176948L252.1576180714286,135.70475332243572L254.92018928571432,126.00324149312576L256.2902449285715,155.1896708880782L257.6603005714286,168.67774340122466L258.3415850714286,149.3648855388732L259.03035621428575,196.51500014427728L259.7191273571429,162.40205129124774L260.39292521428575,198.46181462370188L261.7629808571429,198.48006040431758L262.45175200000006,201.04807267294942L263.8292942857143,170.17717568461072L265.1918632857143,136.93506435623155L266.57689221428575,170.19746829551684L269.7437421428572,111.2451386540069L271.1137977857143,94.65301310115655L271.7875956428572,128.92465381558898L273.14267800000005,115.51696762046907L273.8239625,116.17325197578486L274.4977603571429,152.07039543939243L275.1715582142857,154.11788549514182L275.8453560714286,152.39211460168102L276.51166728571434,118.01313310274446L277.17797850000005,113.00038026218994L277.85177635714285,77.45494239834176L278.52557421428577,102.01657603089353L279.19937207142857,98.24111663522928L281.9095367857143,157.11687202467087L282.5908212857143,131.09304424293973L283.9533902857143,184.5249477348813L285.9822705,179.3628469253831L288.7074085,217.61670072706062L289.38869300000005,216.50318707365702L290.08495078571434,226.20181666695422L290.76623528571434,235.54228593637555L292.1288042857143,255.8035689218641L292.81757542857144,242.20905482434037L293.49885992857145,219.40324213303805L294.1726577857143,201.7708066499095L294.86142892857146,223.19338629459506L295.54271342857146,229.2326001895378L297.5940535714286,182.31606169300736L298.27533807142856,172.60690842007077L299.5855005714286,182.56385479172755L300.88817642857146,188.73624516606742L302.25074542857146,117.72588471102955L303.6208010714286,7.337241756488311L304.5940646428572,8.081871611815359L305.2004827142857,6.655686764086283L305.8742805714286,91.07751564274133L306.5555650714286,129.95409085804164L307.1994163571429,165.52633400472368L307.83578100000005,171.4970937282584L308.4571723571429,126.19042170707834L309.14594350000004,87.60932468333516L309.84220128571434,125.849960158817L311.23471685714287,163.27565778169156L312.6347190714286,182.0526463799067L313.33846350000005,150.08554580523895L314.7234924285715,181.0211115235944L316.0411415714286,148.02826111047622L316.7299127142857,176.75994674044344L317.42617050000007,181.9178629379123L318.11494164285716,187.7773162353426L318.8037127857143,112.90264752318797L319.50745721428575,91.25603303677042L320.20371500000005,140.4179116425884L320.89997278571434,177.98004291641547L321.6037172142857,152.9609117781391L322.299975,185.09894980163992L323.0037194285715,197.30391918403876L324.38126171428576,188.3654429220138L325.0775195,198.04728090900053L326.4550617857143,71.13564805589834L327.8251174285715,138.7383696913881L328.5138885714286,179.53605911494273L329.20265971428574,91.45124312735192L329.88394421428575,139.89370956240052L330.56522871428575,147.00897836576672L331.9352843571429,104.32101383144123L332.62405550000005,138.33199156722105L334.00159778571435,83.71815032363344L334.70534221428574,140.07230890870335L335.4090866428572,169.95718741583968L336.0903711428572,209.35177016358463L336.77914228571433,182.2534842211061L338.1417112857143,194.15588155019597L338.8379690714286,159.60485034125043L339.5267402142857,187.67295434079762L340.2155113571429,192.66355036021588L343.66685371428576,200.97090009642434L344.3556248571429,189.2874621998834L346.4219382857143,155.35053428480433L347.1032227857143,183.17532232564335L348.47327842857146,202.09849735237145L349.1620495714286,186.06767987809766L350.54707850000005,187.0636936831605L351.9395940714286,194.7862257485468L355.42088300000006,184.08970622091763L356.12462742857144,152.51369878214163L358.2208874285715,148.50909800387362L358.91714521428577,152.71578848753532L359.61340300000006,179.13308596369123L360.3096607857143,129.3913011441022L361.01340521428574,116.05802892025645L361.70966300000003,141.95471150384148L363.1021785714286,161.26087663832786L364.5021807857143,145.5963363925426L365.9096696428572,178.17271608113106L367.30218521428577,207.85644829987797L369.40593185714295,165.35321319531982L370.1021896428572,168.1724508358931L372.19096300000007,195.2534141012368L372.89470742857145,159.7250521724425L373.5984518571429,208.89064668089162L374.30219628571433,171.40188707393415L375.69471185714286,209.4107952206255L376.3984562857143,139.33738405757668L378.5022029285715,120.40028466733406L379.1984607142857,130.2699961826331L380.59097628571436,157.33985355407754L382.68723628571433,123.46451815432764L384.7909829285715,162.6432870225099L385.4947273571429,191.33103016829415L386.1909851428572,153.5064744127746L386.8947295714286,164.997525099096L387.59847400000007,171.98627823542196L389.01344950000004,181.35140466899065L389.70970728571433,176.83084316379066L390.4059650714286,190.78138522223375L391.1022228571429,168.83310149619425L391.8059672857143,178.47301668232348L392.5097117142858,168.2527445644478L393.20596950000004,103.68205784859299L394.6059717142858,128.74159339369558L396.0134605714286,130.28227539122835L396.70223171428574,102.6056364826008L398.8209516428572,69.31231499502917L399.5246960714286,99.97736799710907L402.32470050000006,145.12488157745548L404.4284471428572,145.52651790139885L405.1321915714286,153.05480396364814L406.53219378571436,108.01968997248821L407.2434248571429,146.5847267146636L408.65091371428576,151.07334833119683L410.04342928571435,146.12218418106062L412.1322026428572,180.80506250372304L412.8359470714286,200.66371817774044L414.24343592857144,204.91904973141231L417.050927,223.77341002912448L419.13970035714294,218.09383455926852L419.8434447857143,206.84854871758625L420.5397025714286,179.84709017949586L421.243447,222.9973107902842L421.9397047857143,213.96123938135128L422.6434492142858,201.14450360996616L423.33970700000003,204.17599647559578L424.7322225714286,195.83245310615214L425.435967,200.80727279562183L426.1322247857143,202.06119309174076L426.8359692142858,188.37709892694386L427.53222700000003,148.40906926217218L428.22848478571433,172.1822834934148L428.9322292142857,159.2557967546792L431.7397202857143,195.7975916697509L432.43597807142856,161.3274053856091L436.6434713571429,191.78314167763926L438.02850028571436,105.70363306108794L438.7247580714286,180.3339371556263L439.42850250000004,202.95499513830075L440.1322469285715,215.5169764321168L440.8359913571429,87.66711998707768L441.5397357857143,63.035508427183174L442.2434802142858,136.838407669759L442.93225135714295,147.71034074443352L443.6285091428572,162.63744214426143L444.3322535714286,188.1686719897429L445.0210247142858,144.47591674822803L445.71728250000007,159.16456729709049L446.42102692857145,179.29833515250047L447.11728471428574,208.0079230008326L447.8210291428572,223.01752220259917L448.5172869285715,201.60628595034368L449.228518,206.65057029533438L450.6360068571429,212.12541394119293L451.3397512857143,204.61892451217668L452.0360090714286,201.66760818821726L453.44349792857145,201.10688090719307L454.83601350000004,207.35185174225288L456.22852907142857,201.44097766446183L456.93227350000006,132.1567824147171L459.0435067857143,174.35223271024384L459.74725121428577,210.4358892343769L460.45848228571435,219.39981109990654L461.8435112142858,214.64446997102485L462.5472556428572,229.00401741657487L463.2435134285715,196.2867216109862L464.64351564285715,186.20795085904777L466.0285445714286,225.9249392919408L466.72480235714295,200.38817320422334L468.1173179285715,154.27580517146586L468.8135757142858,150.27027426727776L469.51732014285716,132.19148630719283L470.2210645714286,170.5143972564989L470.90983571428575,166.06395421083295L471.60609350000004,191.9397743419142L472.2948646428572,194.6278529569704L472.9761491428572,158.79384527714248L473.66492028571435,191.30853402442452L475.0499492142858,175.05162876502703L475.73872035714294,150.6924603942396L476.4274915000001,165.06287554760948L478.48631828571433,173.4889981786023L479.16760278571434,195.5661044049031L479.85637392857143,175.07512935207882L481.2189429285715,171.11612384919283L481.9152007142858,155.6144636810062L482.4692122857144,145.75709402204973L482.8809776428572,175.87005687023057L483.6895350714286,134.35894452252893L484.4082527857143,174.96143811892813L484.76761164285716,164.83714676112737L485.1269705,185.47642329341653L485.8232282857143,190.994290322104L486.5344593571429,160.30343067290715L487.2307171428572,184.53347329403363L487.5825893571429,166.88013927045702L487.9269749285715,166.4268665975525L488.9975648571429,174.44767625964843L490.40505371428577,209.050229081137L490.7569259285715,189.59279232539114L491.10879814285715,212.76062571833955L491.4531837142858,240.79893181699768L491.81254257142865,227.15590606438073L492.50880035714295,202.87648173753593L492.85318592857146,233.39482202878102L493.87885600000004,219.71192155093252L494.2157549285715,207.1612824834007L494.92698600000006,215.4907956455122L495.63073042857144,193.83123584830588L495.9900892857143,194.40710951473608L497.03073264285723,200.57550430289683L497.72699042857147,220.6731195926176L498.07886264285725,238.409691829652L498.4307348571429,242.19157379339362L499.1569392142857,167.35729342383277L499.5088114285715,177.1713230853208L499.8606836428572,198.16360323458483L500.2125558571429,179.22714313047868L500.57191471428575,193.22446162329757L500.9163002857144,221.8180177809396L501.28314578571434,179.54632014045708L501.64999128571435,157.52799296623226L501.9943768571429,167.6253915515289L503.40186571428575,173.6555820206848L503.7462512857143,167.86072994590086L504.4350224285715,154.17339963746238L505.1237935714286,190.19272807974914L505.4681791428572,212.51092689835608L505.81256471428577,229.9207488250946L506.1644369285715,212.02598006440488L506.51630914285715,202.50709828682716L506.86818135714293,220.07130618660432L507.22005357142865,190.92676410060395L507.56443914285717,197.44007523167892L507.9312846428572,153.70467324798565L508.6275424285715,173.28455242481982L508.97192800000005,157.91517973522636L509.3088269285715,128.62762239802058L509.65321250000005,162.54768226640329L509.9975980714286,170.41471035776678L510.6863692142858,185.64311334310855L511.0532147142858,191.24338922511868L511.38262700000007,168.58101772315104L512.0863714285715,131.47529116062404L512.4382436428572,172.51489375345753L512.7751425714285,167.85826181359795L513.1195281428572,157.96159971587488L513.4863736428572,183.89477796574016L513.8307592142858,157.0570445061897L514.1676581428572,192.32112901694623L514.5195303571429,181.6397520904961L514.8639159285715,168.01682303698198L515.8746127142857,196.26710747689805L516.6008170714287,162.0510411775756L517.3045615000001,164.75284856061032L518.3452048571429,159.65485975205831L518.6895904285715,187.41148838198146L519.033976,225.05028680798986L519.3708749285714,233.54436043165668L519.7302337857143,214.3857750610265L520.074619357143,213.63475136016325L520.4339782142857,219.73125906499934L520.7858504285715,88.66629865951961L521.1227493571429,137.86103607170358L521.4746215714287,155.08829965205533L521.8414670714286,169.02313792950835L522.1858526428572,97.51673672346425L522.5377248571428,145.80288097946735L523.5783682142858,181.73997273021274L523.9302404285714,216.2006148217519L524.9633971428573,239.71110833396912L525.3002960714286,230.9002413935089L526.0040405000001,212.2807100407257L526.3559127142858,236.13542443466034L526.6928116428571,228.43728235931306L527.0371972142858,218.61189932090704L527.3890694285715,168.7324289373318L527.7409416428571,202.27131983111857L528.7890716428572,213.5991537932787L529.1559171428572,198.2888569953581L529.5003027142857,221.56679631009936L530.877845,200.31183615169076L531.2297172142858,166.12558513904304L531.925975,206.9993099571746L532.2703605714286,185.628284723847L532.6297194285715,217.43600391822392L532.974105,97.48347902940111L533.6703627857144,159.65943615345003L534.7110061428572,143.63148438875584L535.0553917142859,113.9642827650589L535.7666227857144,163.48577352408665L536.1035217142858,186.64390952613414L536.4479072857143,87.95177597538503L536.7997795,128.10421001157684L537.1516517142858,151.36858123804046L537.5035239285714,192.71892841258594L537.8628827857144,195.60936211346953L538.214755,168.42432803392035L539.2479117142858,166.5807818179108L539.5997839285715,114.24103662996157L540.2960417142858,137.53288663404382L540.9848128571429,153.404516144855L541.3366850714286,168.05410651461077L541.6810706428572,186.65011547622558L542.0404295000001,177.32260142455976L542.7366872857143,206.556070763412L543.0960461428572,177.42620530518468L543.4479183571428,190.10942575688705L543.7997905714286,204.40749326083392L544.1591494285715,204.1930407353242L544.503535,208.7599674694538L544.8554072142857,191.49088849024773L545.2072794285715,220.55780598996162L546.2329495,203.71118250297351L546.5773350714287,218.9580525899341L547.6104917857143,235.1170520558602L547.9698506428572,209.38444645492115L548.321722857143,230.74626256995128L549.0329539285715,235.5182070563598L549.7292117142858,241.95531200351502L550.0735972857143,249.67858591903558L550.4254695000001,227.47909413832014L550.7773417142859,192.51811505232803L551.1217272857143,190.37646667048065L551.4661128571429,148.08200989654497L551.8254717142859,175.8058866458585L552.1848305714286,175.90410585149826L552.8885750000001,156.8996891769451L553.2404472142858,164.84788611130008L553.5923194285715,163.20919639227444L554.2586306428572,171.49691093419585L555.3217339285715,190.30212862762565L555.6736061428572,181.4787699477241L556.0105050714287,190.67354221918376L556.3548906428572,115.80672973977443L556.6992762142858,143.66575995079822L557.4030206428572,177.07221583719337L557.7399195714286,187.5742188512998L558.0917917857143,220.0694541919063L558.7805629285714,193.6838560860056L559.1249485000001,211.58284372095454L559.8212062857144,190.83970398190132L560.846876357143,193.79767867614336L561.5581074285715,176.3783990758032L561.9099796428573,175.91796265944066L562.2468785714286,208.22531512560977L563.2875219285716,169.49244607915003L563.6468807857143,181.49885364907692L564.3506252142857,213.18633281074588L564.6950107857143,213.84931669999736L565.3987552142858,199.9463960216616L565.7506274285715,158.36133790291396L566.1099862857144,191.99445621655613L566.8062440714286,92.95799678138627L567.1581162857143,114.82312919599849L568.2062462857143,125.53344493092919L568.5581185000001,124.20637965310706L569.2618629285714,155.673921261484L569.6212217857144,183.01086554184832L569.9730940000001,195.94484394821689L570.3249662142857,202.29772252341013L571.021224,193.6815971523517L571.3805828571429,217.13662026345693L571.7399417142857,213.43704612505414L572.0993005714287,196.49107710511672L572.8105316428572,162.85609994883052L573.4918161428573,169.29029775234886L574.210533857143,174.89412720067995L574.5624060714287,168.48677800574123L574.9067916428572,93.7364364628686L575.2661505,136.1988664915975L575.6180227142858,166.89853758638L577.0255115714286,186.63906410112915L577.3773837857143,164.71859003767332L577.7142827142858,171.4299827865658L578.0586682857144,186.07824737381324L579.1142849285716,163.39895094961753L579.4586705,126.66461539704102L579.8105427142858,128.01431826852854L580.1624149285715,143.32075095714987L580.5142871428571,150.1957257398478L581.2180315714287,131.32161667636106L581.5699037857144,114.38844499284664L581.9068027142857,138.42360572632933L582.2511882857144,158.0683497894811L582.9399594285715,143.83094061785977L583.6511905,171.83933427199153L583.9955760714286,175.11193587699188L584.3474482857143,180.39708092164193L584.7292670714287,205.00891400784965L585.0736526428573,213.0982440269632L585.7399638571429,209.45364113549246L586.0693761428572,204.68484487950715L586.3913017857144,181.41166704428147L587.0276664285715,144.2974243255374L587.372052,174.78472511839374L588.0907697142858,155.56571776909533L588.4351552857144,187.48050946738067L589.8576174285715,154.85339017597283L590.2169762857143,162.37760333470968L590.9282073571429,151.24694905908385L591.295052857143,183.98481942553212L591.6469250714285,160.62286557041935L592.0137705714286,141.55465489675598L592.3806160714287,172.60122394353152L592.7399749285715,205.82470425003766L593.3463930000001,217.24681593915224L594.6640421428573,218.0112929269099L595.3004067857144,226.82730693366673L595.9592313571429,83.8903749438914L598.0480047142858,149.93023680524783L598.7517491428573,153.54836655900928L599.425547,186.16804107455047L600.0693982857144,150.9224280192115L601.3496142142857,173.51336427650796L605.4747544285715,215.739901448023L606.1560389285714,216.9622479443143L606.8448100714287,152.09375272777018L607.5335812142857,99.43918689362016L608.2298390000001,111.86113699121358L610.9699502857144,135.63978018667152L613.0362637142857,191.72468879166752L613.7250348571429,201.05961465325066L615.1100637857144,137.29575349501434L617.2212970714287,144.191666078637L617.9250415000001,170.82497623447776L619.3250437142857,188.07909042170166L620.0287881428573,123.77508135873387L620.7325325714287,179.90553616665787L621.436277,202.64213310708396L622.843765857143,226.89733718770617L623.5475102857143,221.5945412191026L624.258741357143,212.46830475999548L624.9624857857143,169.03632932587647L625.6662302142857,178.7462601809751L626.3699746428573,194.50523476535383L627.0737190714286,206.96047350844327L627.7699768571429,206.0574744622742L628.4737212857144,152.15299068932742L629.8812101428572,128.453059653312L630.5924412142857,159.02892403356435L631.9849567857144,158.9263886532319L633.384959,169.37251065737797L634.0887034285715,192.5406257162499L635.4662457142858,217.2882084566359L636.8437880000001,212.10738551366356L637.5325591428572,182.50565121023675L638.2213302857144,205.06432444005497L638.9101014285715,197.2501653847056L640.9689282142858,204.88942067247376L641.6576993571429,171.27718197120276L642.3389838571429,170.9120893455329L643.020268357143,188.9533384881486L644.3828373571429,188.8983006240171L645.0716085000001,193.25841715343248L646.4491507857144,196.24067368988665L647.1379219285715,198.0738945036201L650.6117242142858,214.630432941262L651.307982,63.37657462224007L652.7004975714286,41.107032152799604L653.4042420000001,101.48573884772532L654.811730857143,143.12019276504085L655.5079886428572,148.37419960906723L656.2192197142857,162.38588317639005L656.9304507857144,173.51053373579006L658.3379396428572,183.4568824229468L659.0341974285715,139.49354443179544L659.737941857143,156.08852468268262L661.1079975000001,128.80280927143204L661.8042552857144,135.62346527172156L662.4855397857144,149.23516495938915L663.1743109285715,178.8475292868365L665.2331377142858,199.11332575004988L666.6181666428572,223.06282269192752L668.70694,207.43931283970485L670.0769956428572,199.93089988720305L670.7657667857144,185.7332644348853L671.4620245714286,162.1603827408262L672.1582823571429,188.66246597834277L673.5358246428572,173.94920947592166L674.935826857143,125.88256708646242L675.6395712857143,177.93094786563174L676.3358290714287,147.41677415227088L677.7283446428572,180.7312819996786L678.4320890714287,209.39680830236145L679.1283468571429,176.74526109454558L679.8320912857143,176.93732665871096L680.5283490714287,154.03093639668535L682.6470690000001,179.23301400933687L683.3508134285714,198.34517699118868L684.0470712142858,189.77499107859379L687.5732800000001,205.1372880240789L688.2845110714287,207.03771824482146L688.980768857143,172.89811938073078L689.6845132857143,201.33217882791664L691.0845155000001,189.03633749770822L691.7882599285715,178.41059020690741L692.499491,192.87185075004473L693.1957487857144,187.15179230046022L693.8994932142858,178.6345342616543L697.4032420714286,184.6689298618021L698.1069865000001,186.3144964592566L698.8182175714287,176.52412111621555L699.5144753571429,182.9269953099576L700.2182197857143,177.55734127090497L700.9144775714286,171.937003124512L702.3069931428573,184.8132825021486L703.0182242142859,160.1454951169813L703.7219686428572,159.079549763365L704.4182264285714,125.97827404365745L705.1294575000001,119.55237612739683L705.8332019285715,191.61502829560928L706.5369463571429,183.1676919613438L707.2406907857144,213.8094119402264L707.9444352142857,229.8614828212556L709.3519240714287,202.29740133902413L710.0556685,223.35711230171313L710.7668995714287,240.84929790814274L711.463157357143,190.4197739620182L712.1594151428573,145.41267379875023L712.8556729285715,176.50537868949797L713.5519307142858,112.94207826502935L714.9594195714286,92.35091228036771L716.3444485000001,137.77581594198162L717.7594240000001,130.48636278754003L718.4631684285715,167.37393396166283L720.5669150714286,165.16255203883242L721.9818905714287,189.5047505092644L722.678148357143,170.98299442482133L724.0781505714286,160.37190946312035L725.4931260714286,198.3395964644628L726.1968705,223.2149615110324L726.8931282857144,214.46491591342485L728.2856438571429,212.67969349031566L730.3968771428572,242.9384013450439L731.1006215714286,241.18257291533322L733.2043682142858,208.05496069561107L734.6043704285715,209.8065327737967L736.6931437857144,173.22492123211856L738.8043770714287,129.50116407731437L739.5006348571429,170.99695218479195L740.1968926428572,152.6418062977526L740.9006370714287,185.60253640011155L741.6043815,204.31638969895366L742.3156125714287,189.16123802850913L743.0118703571429,124.15182784670753L743.7231014285715,133.0470227830062L744.426845857143,143.73191690161525L745.1305902857143,169.55979726621328L746.5380791428572,158.71295586293232L747.2343369285716,154.52200516143614L747.9380813571429,129.57124352502333L750.0568012857144,140.80319544820492L750.7530590714287,192.24525694101158L752.1530612857144,167.04375950365718L752.864292357143,168.00968189161696L753.5605501428572,154.22043912840888L754.2642945714286,35.010267207819254L755.6642967857143,78.8426780019987L757.7830167142857,112.5469464275115L758.4792745000001,145.03615519361932L759.1755322857143,138.06263565157198L759.8792767142858,147.22373774012533L760.5755345000001,150.52726293063526L761.2792789285714,157.33383731160382L761.9830233571429,184.92675433703556L762.6942544285714,192.55370989172633L763.397998857143,170.85370128827674L764.1017432857144,151.559993542894L764.8054877142857,148.18502606729527L765.5167187857144,116.52454274761595L766.2204632142857,175.30360845725488L766.9316942857145,176.8050966119811L768.3316965,213.2801638278988L769.0354409285715,207.5357945819871L769.7316987142858,217.63471987129307L770.4354431428573,210.94492388177548L777.4803740714286,213.94914856200594L779.5841207142857,215.1511840548824L780.2878651428572,199.0498855618662L780.9841229285715,215.51238886046565L781.6953540000001,227.85328233437633L783.0953562142857,214.78796845076616L783.7991006428573,235.4697723185905L784.4953584285715,193.01811108326245L785.1841295714287,170.24574972948628L785.8878740000001,150.05344661808726L787.3028495000001,66.63547190151644L788.0065939285714,94.21271243168133L788.7028517142858,129.57235179944763L789.4065961428572,190.8519662201639L790.1103405714287,219.87065256000972L790.8215716428572,225.06641446805844L791.5253160714287,211.9637386992982L792.221573857143,226.065697433675L792.9253182857143,202.32490319378653L794.3253205000001,182.30060321311643L795.7328093571429,185.40556850326354L796.4290671428573,139.00064634258922L797.8066094285715,136.32658920631036L798.4953805714287,120.83277736869587L799.191638357143,164.94784848908867L800.5766672857143,192.1392441524284L801.2729250714286,159.5251531465779L801.9616962142858,165.30818825864378L802.6579540000001,169.8521567410444L803.3542117857144,219.37716434396594L804.0429829285715,208.57554664371784L806.8130407857143,229.06530449723226L808.1980697142858,157.27024644574536L810.2793564285714,127.65853895402557L810.9756142142858,166.97844794783953L812.3681297857145,130.45930128213146L813.0643875714287,179.01229718277682L813.760645357143,197.07058979838985L815.1456742857143,229.46034880739387L815.8344454285716,229.66750478423796L816.5307032142858,176.85884130285476L817.2269610000001,182.60445200613916L817.9232187857144,167.50101644523014L818.6194765714287,167.4575149269525L819.3307076428572,124.28704412768033L820.0344520714287,150.4116000842437L820.730709857143,179.33436510273125L822.8194832142858,212.11501694505398L823.5307142857143,201.23895524492852L824.2419453571429,194.7848765191495L825.6494342142859,154.65690516335127L826.3531786428572,163.05350137056325L827.0569230714286,180.02202407062896L827.7606675000001,192.6854119750312L828.4569252857144,208.62014240100686L830.5681585714287,226.14835657402696L831.264416357143,243.32325710371032L831.9756474285715,155.05717554518517L832.679391857143,149.97980844753346L833.3831362857143,125.39374837265822L834.0868807142858,177.43861794106016L834.7906251428573,182.40606175203234L836.190627357143,188.63068261587088L836.8868851428573,192.20929460789839L837.5981162142858,224.22700719038292L838.3018606428572,244.78368605613497L838.9981184285715,163.80107736015194L839.7018628571429,154.01893094673082L841.1018650714286,111.7240732019801L843.1831517857144,141.20122374449127L843.8719229285715,101.94538338991379L845.2569518571429,145.17026421554314L848.0270097142858,176.58011949734342L848.7232675,122.26854729578764L850.1082964285715,142.95967530206366L850.7970675714287,173.9349514233799L852.8633810000001,162.4056738035519L854.2484099285715,167.0230540357017L854.9446677142857,158.45307987701793L855.6409255000001,189.0928024206871L857.0184677857144,148.85715842689956L857.7072389285714,111.12203309324912L858.3960100714287,152.04904938094336L859.0847812142857,193.57083620758365L860.4623235,159.03778561432068L861.1585812857144,179.99032325076402L861.8473524285715,209.20902389125433L862.5361235714287,191.9136353506828L863.2248947142858,196.69680508698133L864.6174102857144,164.05027575925058L865.3061814285716,179.18821812889018L865.9949525714287,205.24047414553783L867.3799815000001,176.5056960778989L868.0762392857143,182.37412430987104L870.1425527142858,203.0128938325962L871.5200950000001,229.1563682775927L872.2013795,230.31644817717267L873.5789217857144,212.9654604990923L874.2676929285715,208.8360488080766L874.9564640714287,217.064317912089L875.652721857143,214.4821000589294L876.3489796428572,180.99716153224486L877.0452374285716,208.3312017922412L877.7414952142858,208.24295258550708L879.8227819285715,202.34275598543206L880.5115530714287,213.78878135691474L881.2078108571429,242.01688898569577L881.8965820000001,229.31627508262534L882.5928397857143,219.21214038526855L883.2890975714287,206.0294456958523L883.9703820714286,217.43852977751197L885.3703842857144,201.67385665892664L886.0816153571429,188.82741849135817L886.7928464285716,190.97254631347337L887.4891042142858,186.90568701164054L888.1928486428571,169.62292579493595L888.9040797142859,185.8851895265679L891.0153130000001,213.94815392094256L892.422801857143,236.7900897908056L893.1265462857144,172.92274358319307L893.837777357143,177.8098185589735L894.5415217857144,190.43097317998556L895.2377795714287,199.05494692793454L895.9415240000001,213.25332716745714L896.6377817857143,205.74454857136357L897.3340395714287,242.38515951648682L898.0302973571429,242.61204118260937L898.7340417857143,254.73481546121354L900.8452750714287,207.59752761290977L901.5415328571429,170.63331419805596L903.6602527857144,192.53828359711116L904.3565105714287,187.84133628528085L905.7565127857143,190.20338366699676L906.4602572142858,204.86741033478057L907.1640016428572,128.23847541382L908.5714905000001,113.00366218310643L909.2677482857143,125.11554810179504L909.9714927142859,141.6160401914908L911.3864682142859,137.28360175695383L912.0902126428572,174.97745543245293L912.7939570714286,179.3502999539603L914.2014459285715,153.9568581339973L914.8977037142857,179.54408626063213L915.6089347857144,145.5468313378307L917.0164236428573,173.30557815564944L917.7201680714287,164.10934888084694L918.4239125,185.51151948666552L919.831401357143,175.77530093607888L920.5351457857143,205.6794563509082L921.9351480000001,206.78038523060414L922.6388924285716,193.25437678731876L923.3426368571429,193.5822154106939L924.0463812857143,189.23564821614292L924.7501257142859,208.07367800553718L925.4538701428572,223.8582785348897L926.8463857142857,204.93217079525022L927.5501301428573,207.0827054541399L929.6463901428573,206.0715226770097L931.053879,210.2237254119309L933.1651122857144,161.32543445446444L935.9651167142858,170.27419209968062L939.4913255000001,199.22430095965274L941.6100454285715,230.60891961273316L942.3212765000001,202.0467184210823L943.0250209285715,164.1656753817204L943.7212787142857,187.70576969856046L944.4325097857144,201.1473133949877L946.5287697857144,223.44682850291974L947.2325142142859,248.98951509625104L948.6325164285715,210.16304179090494L949.336260857143,191.5150637105598L950.7437497142859,159.75088173600994L951.4400075000001,157.55875204117876L952.1512385714287,172.3856131631838L952.8250364285715,214.31610783569258L954.2025787142858,182.15284745593215L954.8988365000001,139.75646490513884L955.5876076428572,153.83523020422223L956.2838654285715,199.15431978509284L956.9651499285715,219.343122285637L958.3352055714287,205.1939129507737L959.031463357143,186.10674526191926L959.7277211428573,220.76078070817695L961.1127500714286,217.46893368255084L962.5052656428572,236.3044644861876L963.2015234285715,138.4567622106945L964.586552357143,169.14488999853583L966.6902990000001,159.26184172159464L968.0977878571429,177.80059183791894L970.9052789285714,180.18173950407277L971.609023357143,165.56295838292465L972.3127677857144,191.1923105236055L973.0165122142857,179.88262573219308L975.1277455000001,132.9069184263764L975.8389765714287,152.22060841323244L976.542721,175.0332422375757L978.6539542857143,143.56436413527004L979.3576987142858,137.07119710207266L980.7577009285716,141.75713646269014L981.4614453571429,115.76817464265923L982.1577031428571,137.91774762769757L984.2539631428572,136.30316032588613L984.9577075714287,168.43572600853526L987.0539675714288,106.03042802913234L987.7577120000001,133.6928427511647L988.4614564285715,149.80556620444025L989.165200857143,180.56741910269955L989.8764319285715,183.70553340131696L990.580176357143,181.6312135649601L991.2839207857144,200.1374982710409L992.6988962857143,152.85028699134156L993.4026407142858,108.77402999814967L994.1063851428573,153.5441595436133L994.8101295714287,129.36851257568583L995.5213606428572,158.20224012902966L996.2251050714286,151.5683826325631L996.9288495000002,149.61015172232962L997.6400805714287,173.25511209624872L998.3438250000002,173.42465510641256L1001.166289357143,155.9168780820055L1003.2775226428572,200.84970024683975L1003.9812670714288,175.92799609338581L1004.6850115000001,179.17746146103946L1005.3737826428572,145.29334058511972L1006.7962447857144,151.2758484253211L1007.4925025714286,175.18691279702924L1008.1812737142858,164.1820581091257L1008.817638357143,197.010605781842" style="fill: none;" fill="none"></path></g></g></g></g><g opacity="0.2"><g><g><g><path stroke="rgb(255, 112, 67)" stroke-width="2px" d="M82.88462307142858,-472.8075065612793L83.57339421428573,49.99085521697998L84.26965200000001,-648.5333641052246L85.64719428571429,-279.7660734176636L86.33596542857143,87.57238836288451L87.01724992857143,-435.86576633453365L91.08249700000002,-0.755311584472679L91.74132157142859,2.653262042999245L95.07287764285715,224.352690076828L95.73170221428572,112.52537283897402L96.3905267857143,188.6207499027252L97.05683800000001,-1.1922906875610124L97.7381225,223.8790563583374L99.10069150000001,51.25681467056273L101.1595182857143,-2.467705917358444L101.84828942857145,98.54682335853579L103.21085842857144,129.9910903453827L103.88465628571429,95.46905808448793L104.56594078571429,211.37952690124513L105.26219857142857,144.85887827873228L106.6472275,116.02755146026612L108.0247697857143,84.29567427635192L108.72102757142859,151.50138130187986L110.80980092857145,-53.38752822875972L111.49857207142858,38.93005986213683L112.20231650000002,-19.782202911377L112.8985742857143,163.62417178153993L113.60231871428572,135.06614565849304L115.69857871428572,109.41844925880434L116.39483650000001,-304.290114402771L117.78735207142859,34.1620656013489L118.48360985714287,146.61634035110472L119.172381,200.46463992595673L119.86115214285715,95.3262327194214L120.55740992857143,-44.19730472564697L121.26115435714287,-37.455192470550514L121.9499255,112.62005643844606L123.33495442857144,147.424018239975L124.03121221428572,106.8190815448761L124.73495664285716,144.69068770408632L125.42372778571429,222.3767744064331L126.80875671428572,191.73098120689392L128.21624557142857,85.47588458061216L128.89753007142858,125.59460382461549L130.29004564285714,-14.20448141098018L130.98630342857143,165.9220332622528L132.37881900000002,-70.5934096336365L133.07507678571432,127.4814266681671L133.77133457142858,98.19180030822753L134.46759235714288,110.2065504550934L135.15636350000003,170.5258637428284L135.83016135714288,182.34476606845857L137.2301635714286,-72.44904279708862L137.9189347142857,130.54725537300112L138.61519250000003,189.35319504737853L139.3114502857143,127.88798909187318L142.755306,208.350532579422L143.4515637857143,154.55726885795593L144.851566,151.33166270256044L146.23659492857144,67.96157588958738L146.92536607142858,168.32009720802307L147.62911050000002,250.2445198774338L152.23339585714288,163.172164106369L154.29222264285718,103.2037931442261L155.5724385714286,230.6835210084915L156.23126314285716,202.57506670951844L156.8975743571429,262.028583240509L159.19597371428574,156.05311512947083L159.80987842857144,93.61820673942566L160.3788632857143,-13.431121158599808L161.01522792857145,27.943184947967552L162.3029305,160.39639043807983L162.95426842857145,165.17089228630067L164.91576885714287,-242.54734725952153L166.88475592857145,191.67951374053956L167.55106714285716,142.30441651344302L168.8687162857143,110.47084479331971L170.20133871428573,152.21160717010497L170.86016328571432,-5.518326282501221L171.51150121428572,143.22364020347595L172.17781242857146,139.84053964614867L172.84412364285717,104.7265686035156L173.48797492857145,133.87340555191042L174.77567750000003,124.38990917205808L175.4195287857143,185.4261446714401L176.07086671428573,228.21467356681825L176.714718,93.72586956024168L178.00990721428573,4.6012957572937125L178.6537585,197.19900851249696L179.3125830714286,199.836936378479L180.43557950000002,167.82158365249632L181.01953764285716,135.77782764434812L181.64841564285715,147.95943808555603L182.8612517857143,13.143600845336891L183.5425362857143,143.31215777397153L184.89761864285714,212.31737451553346L185.57141650000003,-49.66037044525149L186.92649885714286,-86.68458805084231L187.60029671428572,100.17147312164309L188.27409457142858,105.64390473365785L189.62917692857144,135.7267556667328L192.32436835714287,-26.606828498840287L192.99816621428573,152.992427778244L193.67945071428574,53.99566407203673L194.35324857142857,228.80920999050142L195.7008442857143,120.93664531707765L196.3671555,219.61421365737914L197.72972450000003,233.03594195842743L199.1222400714286,265.2918911576271L199.8035245714286,94.88727617263794L200.4848090714286,147.43929848670962L201.17358021428575,145.3673150062561L202.55860914285716,195.80467700958252L203.23989364285717,110.11377239227295L208.06129164285716,217.9691512823105L210.8088895714286,143.77978725433348L212.89017628571432,128.19742307662966L213.57894742857147,81.94044895172118L214.2677185714286,221.39908130168914L214.95648971428574,-20.488473892211914L217.7040876428572,161.74878215789795L218.3928587857143,155.53682255744934L219.0741432857143,86.99326701164244L219.76291442857143,131.71008214950564L221.82174121428574,96.86752424240115L222.4955390714286,40.08077030181886L223.16933692857145,61.27846336364746L223.83564814285717,237.87271530628203L224.48698607142862,127.36031723022461L224.6067723571429,217.93379099369048L225.9019615714286,-11.629993534088158L226.54581285714286,174.59238681793215L227.234584,248.81028895378114L228.6121262857143,146.64884233474731L229.3083840714286,75.9126612663269L229.99715521428575,46.94255385398867L230.69341300000002,112.17245306968687L231.38218414285714,155.95444068908694L232.06346864285717,106.50243887901308L234.14475535714288,133.7963571548462L234.8260398571429,87.41757249832153L236.1960955,-41.22096433639524L238.94369342857146,76.66074619293215L239.62497792857144,235.07486617565155L241.01000685714288,243.87561416625977L241.69877800000003,61.95663666725159L242.38754914285715,192.4064579963684L243.08380692857148,125.44627757072448L243.78006471428574,177.99531574249266L244.47632250000004,214.95131154060363L246.55760921428575,143.76945061683654L248.6463825714286,228.4573778152466L249.3426403571429,-52.263225650787376L250.0463847857143,139.24701890945437L250.75012921428572,171.38576412200928L252.1576180714286,135.77797145843505L254.92018928571432,111.45097374916077L256.2902449285715,198.9693149805069L257.6603005714286,188.90985217094422L258.3415850714286,120.39559874534609L259.03035621428575,267.2401720523834L259.7191273571429,111.23262801170347L260.39292521428575,252.5514596223831L261.7629808571429,198.50742907524108L262.45175200000006,204.90009107589722L263.8292942857143,123.87083020210264L265.1918632857143,87.07189736366274L266.57689221428575,220.09107420444488L269.7437421428572,22.816644191741943L271.1137977857143,69.76482477188108L271.7875956428572,180.33211488723754L273.14267800000005,95.40543832778928L273.8239625,117.15767850875852L274.4977603571429,205.91611063480377L275.1715582142857,157.18912057876588L275.8453560714286,149.80345826148988L276.51166728571434,66.44466085433959L277.17797850000005,105.48125100135803L277.85177635714285,24.136785602569603L278.52557421428577,138.85902647972108L279.19937207142857,92.57792754173278L281.9095367857143,245.4305051088333L282.5908212857143,92.05730257034304L283.9533902857143,264.6728029727936L285.9822705,171.61969571113588L288.7074085,274.99748142957685L289.38869300000005,214.83291659355163L290.08495078571434,240.7497610569L290.76623528571434,249.5529898405075L292.1288042857143,286.1954934000969L292.81757542857144,221.81728367805482L293.49885992857145,185.1945230960846L294.1726577857143,175.3221534252167L294.86142892857146,255.32725576162338L295.54271342857146,238.2914210319519L297.5940535714286,111.94125394821168L298.27533807142856,158.04317851066588L299.5855005714286,197.49927434921264L300.88817642857146,197.9948307275772L302.25074542857146,11.210344028472889L303.6208010714286,-158.24572267532346L304.5940646428572,9.198816394805931L305.2004827142857,4.5164094924926985L305.8742805714286,217.71025896072388L306.5555650714286,188.26895368099213L307.1994163571429,218.8846987247467L307.83578100000005,180.45323331356047L308.4571723571429,58.23041367530823L309.14594350000004,29.737679147720314L309.84220128571434,183.21091337203978L311.23471685714287,219.4142042160034L312.6347190714286,210.2181292772293L313.33846350000005,102.13489494323733L314.7234924285715,227.42446010112764L316.0411415714286,98.53898549079895L316.7299127142857,219.8574751853943L317.42617050000007,189.6547372341156L318.11494164285716,196.56649618148805L318.8037127857143,0.5906444549560774L319.50745721428575,58.786111307144154L320.20371500000005,214.1607295513153L320.89997278571434,234.32323982715607L321.6037172142857,115.43221507072451L322.299975,233.30600683689119L323.0037194285715,215.611373257637L324.38126171428576,174.95772852897642L325.0775195,212.5700378894806L326.4550617857143,-119.23180122375493L327.8251174285715,240.1424521446228L328.5138885714286,240.73259325027465L329.20265971428574,-40.67598085403438L329.88394421428575,212.55740921497346L330.56522871428575,157.68188157081602L331.9352843571429,40.289067029953L332.62405550000005,189.3484581708908L334.00159778571435,1.7973884582519304L334.70534221428574,224.6035467863083L335.4090866428572,214.7845051765442L336.0903711428572,268.443644285202L336.77914228571433,141.60605530738832L338.1417112857143,212.00947754383088L338.8379690714286,107.77830352783201L339.5267402142857,229.7751103401184L340.2155113571429,200.14944438934327L343.66685371428576,213.431924700737L344.3556248571429,171.76230535507204L346.4219382857143,104.44514241218565L347.1032227857143,224.91250438690184L348.47327842857146,230.48325989246368L349.1620495714286,162.02145366668702L350.54707850000005,188.5577143907547L351.9395940714286,206.37002384662628L355.42088300000006,168.0449269294739L356.12462742857144,105.14968762397768L358.2208874285715,142.50219683647157L358.91714521428577,159.02582421302793L359.61340300000006,218.75903217792512L360.3096607857143,54.77862391471865L361.01340521428574,96.05812058448794L361.70966300000003,180.79973537921904L363.1021785714286,190.22012434005737L364.5021807857143,122.09952602386477L365.9096696428572,227.03728561401368L367.30218521428577,252.38204662799836L369.40593185714295,101.59836053848267L370.1021896428572,172.40130729675292L372.19096300000007,235.87485899925233L372.89470742857145,106.43250927925112L373.5984518571429,282.63903844356537L374.30219628571433,115.16874766349792L375.69471185714286,266.4241574406624L376.3984562857143,34.22726731300355L378.5022029285715,91.99463558197021L379.1984607142857,145.07456345558165L380.59097628571436,197.9446396112442L382.68723628571433,72.65151505470277L384.7909829285715,221.4114403247833L385.4947273571429,234.36264488697051L386.1909851428572,96.76964077949526L386.8947295714286,182.23410112857817L387.59847400000007,182.46940793991087L389.01344950000004,195.39909431934356L389.70970728571433,170.0500009059906L390.4059650714286,211.7071983098984L391.1022228571429,135.910675907135L391.8059672857143,192.93288946151733L392.5097117142858,152.9223363876343L393.20596950000004,6.826027774810768L394.6059717142858,166.3308967113495L396.0134605714286,132.59329838752745L396.70223171428574,61.0906781196594L398.8209516428572,19.372332763671864L399.5246960714286,145.9749475002289L402.32470050000006,212.84615194797516L404.4284471428572,146.12897238731387L405.1321915714286,164.3472330570221L406.53219378571436,40.46701898574827L407.2434248571429,204.43228182792663L408.65091371428576,157.80628075599668L410.04342928571435,138.69543795585633L412.1322026428572,232.82937998771666L412.8359470714286,230.4517016887665L414.24343592857144,211.30204706192018L417.050927,252.05495047569275L419.13970035714294,209.57447135448456L419.8434447857143,189.98061995506288L420.5397025714286,139.34490237236025L421.243447,287.7226417064667L421.9397047857143,200.40713226795197L422.6434492142858,181.9193999528885L423.33970700000003,208.72323577404023L424.7322225714286,183.31713805198672L425.435967,208.26950232982637L426.1322247857143,203.94207353591918L426.8359692142858,167.85095767974855L427.53222700000003,88.45702476501464L428.22848478571433,207.84210484027864L428.9322292142857,139.86606664657592L431.7397202857143,250.6102840423584L432.43597807142856,109.62212595939639L436.6434713571429,237.46674611568451L438.02850028571436,-23.415629863739014L438.7247580714286,292.27939329743384L439.42850250000004,236.8865821123123L440.1322469285715,234.35994837284088L440.8359913571429,-104.10766468048098L441.5397357857143,26.088091087341297L442.2434802142858,247.54275653362274L442.93225135714295,164.0182403564453L443.6285091428572,185.02809424400328L444.3322535714286,226.46551675796508L445.0210247142858,78.93678388595583L445.71728250000007,181.19754312038424L446.42102692857145,209.49898693561553L447.11728471428574,251.0723047733307L447.8210291428572,245.53192100524902L448.5172869285715,169.48943157196044L449.228518,214.21699681282044L450.6360068571429,220.33767940998078L451.3397512857143,193.35919036865235L452.0360090714286,197.24063370227813L453.44349792857145,200.26578998565674L454.83601350000004,216.71930799484252L456.22852907142857,192.57466654777528L456.93227350000006,28.23048954010011L459.0435067857143,237.64540815353394L459.74725121428577,264.56137402057647L460.45848228571435,232.84569389820098L461.8435112142858,207.51145827770233L462.5472556428572,250.5433385848999L463.2435134285715,147.21077790260313L464.64351564285715,171.08979473114016L466.0285445714286,285.50042194128036L466.72480235714295,162.0830240726471L468.1173179285715,85.10725312232972L468.8135757142858,144.26197791099548L469.51732014285716,105.07330436706542L470.2210645714286,227.99876368045807L470.90983571428575,159.38828964233397L471.60609350000004,230.75350453853608L472.2948646428572,198.65997087955475L472.9761491428572,105.0428337574005L473.66492028571435,240.0805671453476L475.0499492142858,150.66627087593076L475.73872035714294,114.1537078380585L476.4274915000001,186.61849827766417L478.48631828571433,186.12818212509154L479.16760278571434,228.68176374435424L479.85637392857143,144.33866677284243L481.2189429285715,165.17761559486388L481.9152007142858,132.36197342872617L482.4692122857144,130.9710395336151L482.8809776428572,221.03950114250182L483.6895350714286,72.09227600097654L484.4082527857143,235.86517851352693L484.76761164285716,149.6507097244263L485.1269705,216.43533809185027L485.8232282857143,199.2710908651352L486.5344593571429,114.26714119911196L487.2307171428572,220.87853722572328L487.5825893571429,140.4001382350922L487.9269749285715,165.7469575881958L488.9975648571429,186.47889075279238L490.40505371428577,260.9540583133697L490.7569259285715,160.40663719177246L491.10879814285715,247.51237580776214L491.4531837142858,282.8563909649849L491.81254257142865,206.69136743545533L492.50880035714295,166.45734524726868L492.85318592857146,279.17233246564865L493.87885600000004,199.18757083415986L494.2157549285715,188.33532388210295L494.92698600000006,227.98506538867952L495.63073042857144,161.34189615249636L495.9900892857143,195.2709200143814L497.03073264285723,209.82809648513793L497.72699042857147,250.8195425271988L498.07886264285725,265.0145501852036L498.4307348571429,247.86439673900605L499.1569392142857,55.10587286949158L499.5088114285715,191.8923675775528L499.8606836428572,229.65202345848084L500.2125558571429,150.82245297431945L500.57191471428575,214.22043936252595L500.9163002857144,264.70835201740266L501.28314578571434,116.13877367973328L501.64999128571435,124.50050220489504L501.9943768571429,182.7714894294739L503.40186571428575,182.70086772441863L503.7462512857143,159.168451833725L504.4350224285715,133.6424041748047L505.1237935714286,244.22172074317933L505.4681791428572,245.98822512626649L505.81256471428577,256.0354817152023L506.1644369285715,185.18382692337036L506.51630914285715,188.2287756204605L506.86818135714293,246.41761803627014L507.22005357142865,147.2099509716034L507.56443914285717,207.21004192829133L507.9312846428572,88.10157027244566L508.6275424285715,202.65437119007112L508.97192800000005,134.86112070083618L509.3088269285715,84.6962863922119L509.65321250000005,213.42777206897736L509.9975980714286,182.21525249481203L510.6863692142858,208.48571782112123L511.0532147142858,199.64380304813386L511.38262700000007,134.58746047019957L512.0863714285715,75.81670131683347L512.4382436428572,234.07429764270782L512.7751425714285,160.8733139038086L513.1195281428572,143.11660656929018L513.4863736428572,222.79454534053804L513.8307592142858,116.800444316864L514.1676581428572,245.21725578308104L514.5195303571429,165.6176867008209L514.8639159285715,147.58242945671083L515.8746127142857,238.64253413677216L516.6008170714287,110.7269417285919L517.3045615000001,168.80555963516235L518.3452048571429,152.00787653923032L518.6895904285715,229.04643132686616L519.033976,281.5084844470024L519.3708749285714,246.285470867157L519.7302337857143,185.64789700508118L520.074619357143,212.5082158088684L520.4339782142857,228.8760206222534L520.7858504285715,-107.93114194869997L521.1227493571429,211.65314218997955L521.4746215714287,180.92919502258303L521.8414670714286,189.92539534568786L522.1858526428572,-9.742865085601807L522.5377248571428,218.23209736347198L523.5783682142858,235.64561035633088L523.9302404285714,267.89157795906067L524.9633971428573,274.9768486022949L525.3002960714286,217.6839409828186L526.0040405000001,184.3514130115509L526.3559127142858,271.9174960255623L526.6928116428571,216.89006924629211L527.0371972142858,203.87382476329805L527.3890694285715,93.91322336196902L527.7409416428571,252.57965617179872L528.7890716428572,230.59090473651887L529.1559171428572,175.3234117984772L529.5003027142857,256.4837052822113L530.877845,168.42939591407776L531.2297172142858,114.84620862007142L531.925975,268.30989718437195L532.2703605714286,153.5717468738556L532.6297194285715,265.1475827097893L532.974105,-82.44530830383303L533.6703627857144,252.92337183952333L534.7110061428572,119.58955674171449L535.0553917142859,69.46348032951357L535.7666227857144,237.76800966262817L536.1035217142858,221.38111352920532L536.4479072857143,-60.086424350738525L536.7997795,188.33286106586456L537.1516517142858,186.2651380777359L537.5035239285714,254.74444917440414L537.8628827857144,199.94501266479492L538.214755,127.64677691459656L539.2479117142858,163.81546249389646L539.5997839285715,35.73141884803772L540.2960417142858,172.47066164016724L540.9848128571429,177.2119604110718L541.3366850714286,190.02849206924438L541.6810706428572,214.54412891864777L542.0404295000001,163.33133034706117L542.7366872857143,250.40627477169036L543.0960461428572,133.73140711784362L543.4479183571428,209.1342564344406L543.7997905714286,225.85459451675416L544.1591494285715,203.87136194705963L544.503535,215.6103575706482L544.8554072142857,165.5872700214386L545.2072794285715,264.1581822395325L546.2329495,178.44124727249147L546.5773350714287,241.82835772037507L547.6104917857143,259.3555512547493L547.9698506428572,170.7855380535126L548.321722857143,262.7889867424965L549.0329539285715,242.6761237859726L549.7292117142858,251.61096942424774L550.0735972857143,261.26349679231646L550.4254695000001,194.17985646724702L550.7773417142859,140.07664642333987L551.1217272857143,187.16399409770963L551.4661128571429,84.64032473564146L551.8254717142859,217.39170176982879L552.1848305714286,176.05143465995786L552.8885750000001,128.39306416511533L553.2404472142858,176.77018151283266L553.5923194285715,160.75116181373596L554.2586306428572,183.92848274707796L555.3217339285715,218.50995516777039L555.6736061428572,168.2437319278717L556.0105050714287,204.4657006263733L556.3548906428572,3.5065110206604118L556.6992762142858,185.454305267334L557.4030206428572,227.1818996667862L557.7399195714286,203.3272233724594L558.0917917857143,268.812307202816L558.7805629285714,154.10545892715453L559.1249485000001,238.43132517337799L559.8212062857144,159.72499437332152L560.846876357143,198.2346407175064L561.5581074285715,150.24947967529295L561.9099796428573,175.22730803489685L562.2468785714286,256.68634382486346L563.2875219285716,111.39314250946046L563.6468807857143,199.50846500396727L564.3506252142857,260.71755155324934L564.6950107857143,214.8437925338745L565.3987552142858,179.09201500415804L565.7506274285715,95.98375072479246L566.1099862857144,242.44413368701936L566.8062440714286,-55.59669237136836L567.1581162857143,147.62082781791685L568.2062462857143,141.59891853332522L568.5581185000001,122.21578173637391L569.2618629285714,202.87523367404938L569.6212217857144,224.01628196239471L569.9730940000001,215.34581155776976L570.3249662142857,211.82704038619994L571.021224,180.75740909576416L571.3805828571429,252.31915493011473L571.7399417142857,207.88768491744995L572.0993005714287,171.07212357521058L572.8105316428572,112.40363421440122L573.4918161428573,178.94159445762637L574.210533857143,183.2998713731766L574.5624060714287,158.87575421333315L574.9067916428572,-18.389075851440452L575.2661505,199.89251153469087L575.6180227142858,212.94804422855378L577.0255115714286,216.24985387325287L577.3773837857143,131.83787894248962L577.7142827142858,181.4970719099045L578.0586682857144,208.05064425468444L579.1142849285716,129.38000631332397L579.4586705,71.56311206817628L579.8105427142858,130.0388725757599L580.1624149285715,166.28039999008178L580.5142871428571,160.50818791389463L581.2180315714287,103.010453081131L581.5699037857144,88.98868746757506L581.9068027142857,174.47634682655337L582.2511882857144,187.5354658842087L582.9399594285715,122.47482686042787L583.6511905,213.85192475318908L583.9955760714286,180.02083828449247L584.3474482857143,188.32479848861692L584.7292670714287,241.92666363716125L585.0736526428573,225.23223905563356L585.7399638571429,203.98673679828644L586.0693761428572,197.53165049552916L586.3913017857144,146.5019002914429L587.0276664285715,88.62606024742126L587.372052,220.51567630767823L588.0907697142858,126.73720674514772L588.4351552857144,235.35269701480865L589.8576174285715,105.9127112388611L590.2169762857143,173.66392307281495L590.9282073571429,134.55096764564513L591.295052857143,233.09162497520447L591.6469250714285,125.57993478775023L592.0137705714286,112.95233888626097L592.3806160714287,219.17107751369477L592.7399749285715,255.6599247097969L593.3463930000001,234.3799834728241L594.6640421428573,219.15800840854644L595.3004067857144,240.05132794380188L595.9592313571429,-130.51502304077144L598.0480047142858,248.99002959728242L598.7517491428573,158.9755611896515L599.425547,235.09755284786223L600.0693982857144,98.05400843620299L601.3496142142857,207.3997686624527L605.4747544285715,279.07970720529556L606.1560389285714,218.79576768875123L606.8448100714287,54.7910099029541L607.5335812142857,20.45733814239503L608.2298390000001,130.49406213760375L610.9699502857144,171.3077449798584L613.0362637142857,275.8520516991615L613.7250348571429,215.0620034456253L615.1100637857144,41.64996175765992L617.2212970714287,154.53553495407107L617.9250415000001,210.77494146823884L619.3250437142857,213.96026170253754L620.0287881428573,27.319067764282238L620.7325325714287,264.1012183785439L621.436277,236.7470285177231L622.843765857143,263.28014330863954L623.5475102857143,213.6403472661972L624.258741357143,198.77895007133483L624.9624857857143,103.88836617469786L625.6662302142857,193.31115646362304L626.3699746428573,218.143696641922L627.0737190714286,225.6433316230774L627.7699768571429,204.70297589302064L628.4737212857144,71.2962650299072L629.8812101428572,92.90316309928892L630.5924412142857,204.89272060394288L631.9849567857144,158.77258558273314L633.384959,185.04169366359713L634.0887034285715,227.2927983045578L635.4662457142858,254.40958256721495L636.8437880000001,204.336151099205L637.5325591428572,138.10304975509644L638.2213302857144,238.9023342847824L638.9101014285715,185.5289268016815L640.9689282142858,216.348303604126L641.6576993571429,120.85882391929624L642.3389838571429,170.3644504070282L643.020268357143,216.01521220207215L644.3828373571429,188.81574382781983L645.0716085000001,199.79859194755554L646.4491507857144,200.71405849456787L647.1379219285715,200.82372572422028L650.6117242142858,239.46524059772491L651.307982,-163.50421285629272L652.7004975714286,7.702718448638905L653.4042420000001,192.05379889011382L654.811730857143,205.5718736410141L655.5079886428572,156.2552098751068L656.2192197142857,183.40340852737427L656.9304507857144,190.19750957489015L658.3379396428572,198.37640545368194L659.0341974285715,73.54853744506835L659.737941857143,180.98099505901337L661.1079975000001,87.87423615455629L661.8042552857144,145.85444927215576L662.4855397857144,169.6527144908905L663.1743109285715,223.26607577800752L665.2331377142858,229.51202044487L666.6181666428572,258.98706810474397L668.70694,184.00404806137084L670.0769956428572,188.6682804584503L670.7657667857144,164.4368112564087L671.4620245714286,126.80106019973755L672.1582823571429,228.4155908346176L673.5358246428572,151.87932472229005L674.935826857143,53.78260350227356L675.6395712857143,256.0035190343857L676.3358290714287,101.64551358222963L677.7283446428572,230.7030437707901L678.4320890714287,252.3950977563858L679.1283468571429,127.76794028282166L679.8320912857143,177.2254250049591L680.5283490714287,119.67135100364686L682.6470690000001,217.0361304283142L683.3508134285714,227.01342146396638L684.0470712142858,176.91971220970152L687.5732800000001,228.18073344230652L688.2845110714287,209.88836357593536L688.980768857143,121.6887210845947L689.6845132857143,243.98326799869537L691.0845155000001,170.59257550239562L691.7882599285715,162.47196927070615L692.499491,214.56374156475067L693.1957487857144,178.57170462608337L693.8994932142858,165.85864720344546L697.4032420714286,193.72052326202393L698.1069865000001,188.78284635543824L698.8182175714287,161.83855810165403L699.5144753571429,192.53130660057067L700.2182197857143,169.50286021232603L700.9144775714286,163.50649590492247L702.3069931428573,204.12770156860353L703.0182242142859,123.14381403923034L703.7219686428572,157.48063173294065L704.4182264285714,76.32636046409607L705.1294575000001,109.913529253006L705.8332019285715,299.70900654792786L706.5369463571429,170.4966874599457L707.2406907857144,259.77199190855026L707.9444352142857,253.93958914279938L709.3519240714287,160.95127911567687L710.0556685,254.94667874574662L710.7668995714287,267.0875763177872L711.463157357143,114.7754880428314L712.1594151428573,77.90202355384827L712.8556729285715,223.1444360256195L713.5519307142858,17.597127628326405L714.9594195714286,61.464163303375244L716.3444485000001,205.91317143440247L717.7594240000001,119.55218305587766L718.4631684285715,222.705290722847L720.5669150714286,161.84547915458677L721.9818905714287,226.01804821491243L722.678148357143,143.20036029815674L724.0781505714286,144.45528202056886L725.4931260714286,255.29112696647644L726.1968705,260.5280090808868L726.8931282857144,201.33984751701354L728.2856438571429,210.00185985565184L730.3968771428572,288.3264631271362L731.1006215714286,238.5488302707672L733.2043682142858,158.36354236602784L734.6043704285715,212.43389089107512L736.6931437857144,118.35250391960142L738.8043770714287,63.915528345108044L739.5006348571429,233.2406343460083L740.1968926428572,125.1090874671936L740.9006370714287,235.0436315536499L741.6043815,232.3871696472168L742.3156125714287,166.42851052284243L743.0118703571429,26.63771257400515L743.7231014285715,146.38981518745425L744.426845857143,159.75925807952882L745.1305902857143,208.30161781311034L746.5380791428572,142.44269375801088L747.2343369285716,148.23557910919192L747.9380813571429,92.14510107040405L750.0568012857144,157.6511233329773L750.7530590714287,269.40834918022153L752.1530612857144,129.24151334762576L752.864292357143,169.45856547355652L753.5605501428572,133.53657498359678L754.2642945714286,-143.80499067306516L755.6642967857143,144.5912941932678L757.7830167142857,163.10334906578066L758.4792745000001,193.76996834278106L759.1755322857143,127.60235633850095L759.8792767142858,160.9653908729553L760.5755345000001,155.48255071640017L761.2792789285714,167.54369888305666L761.9830233571429,226.3161298751831L762.6942544285714,203.9941432237625L763.397998857143,138.30368838310244L764.1017432857144,122.61943192481993L764.8054877142857,143.1225748538971L765.5167187857144,69.03381776809692L766.2204632142857,263.47220702171325L766.9316942857145,179.0573288440704L768.3316965,267.99276465177536L769.0354409285715,198.9192407131195L769.7316987142858,232.7831078052521L770.4354431428573,200.91022989749908L777.4803740714286,218.45548558235168L779.5841207142857,216.95423729419707L780.2878651428572,174.89793782234193L780.9841229285715,240.20614380836486L781.6953540000001,246.3646225452423L783.0953562142857,195.18999762535094L783.7991006428573,266.492478120327L784.4953584285715,129.34061923027036L785.1841295714287,136.087207698822L785.8878740000001,119.76499195098876L787.3028495000001,-58.4914901733398L788.0065939285714,135.5785732269287L788.7028517142858,182.61181085109712L789.4065961428572,282.7713878512383L790.1103405714287,263.39868206977843L790.8215716428572,232.86005733013153L791.5253160714287,192.30972504615784L792.221573857143,247.21863553524017L792.9253182857143,166.71371183395388L794.3253205000001,152.2641532421112L795.7328093571429,190.0630164384842L796.4290671428573,69.39326310157776L797.8066094285715,132.31550350189207L798.4953805714287,97.59205961227417L799.191638357143,231.12045516967774L800.5766672857143,232.92633764743806L801.2729250714286,110.60401663780215L801.9616962142858,173.98274092674257L802.6579540000001,176.6681094646454L803.3542117857144,293.66467574834826L804.0429829285715,192.37312009334565L806.8130407857143,259.799941277504L808.1980697142858,49.577659368515015L810.2793564285714,83.24097771644591L810.9756142142858,225.9583114385605L812.3681297857145,75.68058128356932L813.0643875714287,251.8417910337448L813.760645357143,224.1580287218094L815.1456742857143,278.04498732089996L815.8344454285716,229.9782387495041L816.5307032142858,97.64584608078002L817.2269610000001,191.22286806106567L817.9232187857144,144.84586310386658L818.6194765714287,167.39226264953612L819.3307076428572,59.53133792877196L820.0344520714287,189.59843401908876L820.730709857143,222.71851263046264L822.8194832142858,261.28599470853806L823.5307142857143,184.92486269474028L824.2419453571429,185.10375843048098L825.6494342142859,94.46494812965392L826.3531786428572,175.6483956813812L827.0569230714286,205.47480812072754L827.7606675000001,211.68049383163452L828.4569252857144,232.5222380399704L830.5681585714287,252.44067783355712L831.264416357143,269.0856078982353L831.9756474285715,22.658053207397472L832.679391857143,142.3637578010559L833.3831362857143,88.51465826034547L834.0868807142858,255.50592229366302L834.7906251428573,189.8572274684906L836.190627357143,197.96761391162872L836.8868851428573,197.57721259593964L837.5981162142858,272.2535760641098L838.3018606428572,275.61870435476305L838.9981184285715,42.327164316177345L839.7018628571429,139.34571132659914L841.1018650714286,48.2817865848541L843.1831517857144,185.41694955825807L843.8719229285715,43.061622858047485L845.2569518571429,210.00758545398713L848.0270097142858,223.69490242004395L848.7232675,40.80118899345399L850.1082964285715,173.99636731147768L850.7970675714287,220.3978656053543L852.8633810000001,145.11175737380984L854.2484099285715,173.9491243839264L854.9446677142857,145.59811863899233L855.6409255000001,235.05238623619078L857.0184677857144,88.50369243621827L857.7072389285714,54.51934509277345L858.3960100714287,213.43957381248475L859.0847812142857,255.8535164475441L860.4623235,107.23820972442627L861.1585812857144,211.41912970542907L861.8473524285715,253.03707485198976L862.5361235714287,165.97055253982546L863.2248947142858,203.87155969142913L864.6174102857144,115.08048176765442L865.3061814285716,201.8951316833496L865.9949525714287,244.31885817050934L867.3799815000001,133.40352897644044L868.0762392857143,191.1767666578293L870.1425527142858,233.97104811668396L871.5200950000001,268.37157994508743L872.2013795,232.05656802654266L873.5789217857144,186.93897898197173L874.2676929285715,202.64193127155303L874.9564640714287,229.4067215681076L875.652721857143,210.60877327919007L876.3489796428572,130.76975374221803L877.0452374285716,249.33226218223572L877.7414952142858,208.11057877540588L879.8227819285715,193.49246108531952L880.5115530714287,230.95781941413878L881.2078108571429,284.35905042886736L881.8965820000001,210.2653542280197L882.5928397857143,204.0559383392334L883.2890975714287,186.25540366172788L883.9703820714286,234.55215590000154L885.3703842857144,178.0268469810486L886.0816153571429,169.5577612400055L886.7928464285716,194.19023804664613L887.4891042142858,180.80539805889129L888.1928486428571,143.69878396987917L888.9040797142859,210.27858512401582L891.0153130000001,256.0426005125046L892.422801857143,271.0529935956001L893.1265462857144,77.12172427177427L893.837777357143,185.14043102264407L894.5415217857144,209.3627051115036L895.2377795714287,211.9909075498581L895.9415240000001,234.55089752674104L896.6377817857143,194.4813806772232L897.3340395714287,297.34607593417167L898.0302973571429,242.9523636817932L898.7340417857143,272.9189768791199L900.8452750714287,136.8915958404541L901.5415328571429,115.18699407577515L903.6602527857144,225.39573769569398L904.3565105714287,180.7959153175354L905.7565127857143,193.74645473957062L906.4602572142858,226.8634503364563L907.1640016428572,13.29507303237915L908.5714905000001,90.15144233703614L909.2677482857143,143.2833769798279L909.9714927142859,166.36677832603453L911.3864682142859,130.78494410514833L912.0902126428572,231.5182359457016L912.7939570714286,185.90956673622134L914.2014459285715,115.86669540405273L914.8977037142857,217.92492845058442L915.6089347857144,94.55094895362856L917.0164236428573,214.94369838237762L917.7201680714287,150.31500496864317L918.4239125,217.61477539539337L919.831401357143,161.170973110199L920.5351457857143,250.53568947315216L921.9351480000001,208.431778550148L922.6388924285716,172.96536412239072L923.3426368571429,194.07397334575654L924.0463812857143,182.7157974243164L924.7501257142859,236.3307226896286L925.4538701428572,247.53517932891845L926.8463857142857,176.543009185791L927.5501301428573,210.30850744247437L929.6463901428573,204.5547485113144L931.053879,216.45202951431276L933.1651122857144,87.97799801826477L935.9651167142858,183.69732856750488L939.4913255000001,242.6494642496109L941.6100454285715,277.6858475923538L942.3212765000001,159.20341663360597L943.0250209285715,107.34411082267764L943.7212787142857,223.01591117382048L944.4325097857144,221.3096289396286L946.5287697857144,256.8961011648178L947.2325142142859,287.303544986248L948.6325164285715,151.92333183288576L949.336260857143,163.54309659004213L950.7437497142859,112.10460877418518L951.4400075000001,154.2705574989319L952.1512385714287,194.62590484619142L952.8250364285715,277.21184984445574L954.2025787142858,133.90795688629152L954.8988365000001,76.161891078949L955.5876076428572,174.95337815284728L956.2838654285715,267.1329541563988L956.9651499285715,249.62632603645324L958.3352055714287,183.97009894847872L959.031463357143,157.47599372863772L959.7277211428573,272.74183387756347L961.1127500714286,212.53116314411164L962.5052656428572,264.5577606916428L963.2015234285715,-8.314791202545166L964.586552357143,215.17708168029785L966.6902990000001,144.43726930618288L968.0977878571429,205.6087170124054L970.9052789285714,183.75346100330353L971.609023357143,143.63478670120242L972.3127677857144,229.63633873462678L973.0165122142857,162.91809854507449L975.1277455000001,62.44335746765137L975.8389765714287,181.19114339351654L976.542721,209.25219297409058L978.6539542857143,96.36104698181151L979.3576987142858,127.33144655227659L980.7577009285716,148.78604550361632L981.4614453571429,76.78473191261293L982.1577031428571,171.14210710525515L984.2539631428572,133.88127937316892L984.9577075714287,216.63457453250885L987.0539675714288,12.422481060028076L987.7577120000001,175.18646483421327L988.4614564285715,173.97465138435365L989.165200857143,226.7101984500885L989.8764319285715,188.41270484924314L990.580176357143,178.51973381042478L991.2839207857144,227.89692533016205L992.6988962857143,81.9194700717926L993.4026407142858,42.659644508361794L994.1063851428573,220.6993538618088L994.8101295714287,93.10504212379453L995.5213606428572,201.4528314590454L996.2251050714286,141.61759638786316L996.9288495000002,146.67280535697938L997.6400805714287,208.72255265712738L998.3438250000002,173.67896962165833L1001.166289357143,129.65521254539487L1003.2775226428572,268.24893349409103L1003.9812670714288,138.54543986320493L1004.6850115000001,184.05165951251985L1005.3737826428572,94.46715927124023L1006.7962447857144,160.24961018562317L1007.4925025714286,211.05350935459137L1008.1812737142858,147.6747760772705L1008.817638357143,246.25342729091645" style="fill: none;" fill="none"></path></g></g></g></g></g></g><g transform="translate(46, 377)" clip-path="url(#clip_1)"><clipPath id="clip_1"><rect width="1048" height="22"></rect></clipPath><g><g><line x1="0" y1="0" x2="0" y2="5" style="visibility: inherit;" fill="rgb(0, 0, 0)" stroke="rgb(204, 204, 204)" stroke-width="1px"></line><line x1="74.86642857142857" y1="0" x2="74.86642857142857" y2="5" style="visibility: inherit;" fill="rgb(0, 0, 0)" stroke="rgb(204, 204, 204)" stroke-width="1px"></line><line x1="149.73285714285714" y1="0" x2="149.73285714285714" y2="5" style="visibility: inherit;" fill="rgb(0, 0, 0)" stroke="rgb(204, 204, 204)" stroke-width="1px"></line><line x1="224.5992857142857" y1="0" x2="224.5992857142857" y2="5" style="visibility: inherit;" fill="rgb(0, 0, 0)" stroke="rgb(204, 204, 204)" stroke-width="1px"></line><line x1="299.4657142857143" y1="0" x2="299.4657142857143" y2="5" style="visibility: inherit;" fill="rgb(0, 0, 0)" stroke="rgb(204, 204, 204)" stroke-width="1px"></line><line x1="374.3321428571429" y1="0" x2="374.3321428571429" y2="5" style="visibility: inherit;" fill="rgb(0, 0, 0)" stroke="rgb(204, 204, 204)" stroke-width="1px"></line><line x1="449.1985714285714" y1="0" x2="449.1985714285714" y2="5" style="visibility: inherit;" fill="rgb(0, 0, 0)" stroke="rgb(204, 204, 204)" stroke-width="1px"></line><line x1="524.065" y1="0" x2="524.065" y2="5" style="visibility: inherit;" fill="rgb(0, 0, 0)" stroke="rgb(204, 204, 204)" stroke-width="1px"></line><line x1="598.9314285714286" y1="0" x2="598.9314285714286" y2="5" style="visibility: inherit;" fill="rgb(0, 0, 0)" stroke="rgb(204, 204, 204)" stroke-width="1px"></line><line x1="673.7978571428573" y1="0" x2="673.7978571428573" y2="5" style="visibility: inherit;" fill="rgb(0, 0, 0)" stroke="rgb(204, 204, 204)" stroke-width="1px"></line><line x1="748.6642857142858" y1="0" x2="748.6642857142858" y2="5" style="visibility: inherit;" fill="rgb(0, 0, 0)" stroke="rgb(204, 204, 204)" stroke-width="1px"></line><line x1="823.5307142857143" y1="0" x2="823.5307142857143" y2="5" style="visibility: inherit;" fill="rgb(0, 0, 0)" stroke="rgb(204, 204, 204)" stroke-width="1px"></line><line x1="898.3971428571429" y1="0" x2="898.3971428571429" y2="5" style="visibility: inherit;" fill="rgb(0, 0, 0)" stroke="rgb(204, 204, 204)" stroke-width="1px"></line><line x1="973.2635714285716" y1="0" x2="973.2635714285716" y2="5" style="visibility: inherit;" fill="rgb(0, 0, 0)" stroke="rgb(204, 204, 204)" stroke-width="1px"></line><line x1="1048.13" y1="0" x2="1048.13" y2="5" style="visibility: inherit;" fill="rgb(0, 0, 0)" stroke="rgb(204, 204, 204)" stroke-width="1px"></line></g><g transform="translate(0, 8)"><text x="0" y="0" dx="0em" dy="0.95em" style="text-anchor: middle; visibility: hidden; font-family: &quot;Helvetica Neue&quot;, sans-serif; font-size: 12px; font-weight: 200;" fill="rgb(50, 49, 63)" stroke="none" stroke-width="1px">-10k</text><text x="74.86642857142857" y="0" dx="0em" dy="0.95em" style="text-anchor: middle; visibility: inherit; font-family: &quot;Helvetica Neue&quot;, sans-serif; font-size: 12px; font-weight: 200;" fill="rgb(50, 49, 63)" stroke="none" stroke-width="1px">0</text><text x="149.73285714285714" y="0" dx="0em" dy="0.95em" style="text-anchor: middle; visibility: inherit; font-family: &quot;Helvetica Neue&quot;, sans-serif; font-size: 12px; font-weight: 200;" fill="rgb(50, 49, 63)" stroke="none" stroke-width="1px">10k</text><text x="224.5992857142857" y="0" dx="0em" dy="0.95em" style="text-anchor: middle; visibility: inherit; font-family: &quot;Helvetica Neue&quot;, sans-serif; font-size: 12px; font-weight: 200;" fill="rgb(50, 49, 63)" stroke="none" stroke-width="1px">20k</text><text x="299.4657142857143" y="0" dx="0em" dy="0.95em" style="text-anchor: middle; visibility: inherit; font-family: &quot;Helvetica Neue&quot;, sans-serif; font-size: 12px; font-weight: 200;" fill="rgb(50, 49, 63)" stroke="none" stroke-width="1px">30k</text><text x="374.3321428571429" y="0" dx="0em" dy="0.95em" style="text-anchor: middle; visibility: inherit; font-family: &quot;Helvetica Neue&quot;, sans-serif; font-size: 12px; font-weight: 200;" fill="rgb(50, 49, 63)" stroke="none" stroke-width="1px">40k</text><text x="449.1985714285714" y="0" dx="0em" dy="0.95em" style="text-anchor: middle; visibility: inherit; font-family: &quot;Helvetica Neue&quot;, sans-serif; font-size: 12px; font-weight: 200;" fill="rgb(50, 49, 63)" stroke="none" stroke-width="1px">50k</text><text x="524.065" y="0" dx="0em" dy="0.95em" style="text-anchor: middle; visibility: inherit; font-family: &quot;Helvetica Neue&quot;, sans-serif; font-size: 12px; font-weight: 200;" fill="rgb(50, 49, 63)" stroke="none" stroke-width="1px">60k</text><text x="598.9314285714286" y="0" dx="0em" dy="0.95em" style="text-anchor: middle; visibility: inherit; font-family: &quot;Helvetica Neue&quot;, sans-serif; font-size: 12px; font-weight: 200;" fill="rgb(50, 49, 63)" stroke="none" stroke-width="1px">70k</text><text x="673.7978571428573" y="0" dx="0em" dy="0.95em" style="text-anchor: middle; visibility: inherit; font-family: &quot;Helvetica Neue&quot;, sans-serif; font-size: 12px; font-weight: 200;" fill="rgb(50, 49, 63)" stroke="none" stroke-width="1px">80k</text><text x="748.6642857142858" y="0" dx="0em" dy="0.95em" style="text-anchor: middle; visibility: inherit; font-family: &quot;Helvetica Neue&quot;, sans-serif; font-size: 12px; font-weight: 200;" fill="rgb(50, 49, 63)" stroke="none" stroke-width="1px">90k</text><text x="823.5307142857143" y="0" dx="0em" dy="0.95em" style="text-anchor: middle; visibility: inherit; font-family: &quot;Helvetica Neue&quot;, sans-serif; font-size: 12px; font-weight: 200;" fill="rgb(50, 49, 63)" stroke="none" stroke-width="1px">100k</text><text x="898.3971428571429" y="0" dx="0em" dy="0.95em" style="text-anchor: middle; visibility: inherit; font-family: &quot;Helvetica Neue&quot;, sans-serif; font-size: 12px; font-weight: 200;" fill="rgb(50, 49, 63)" stroke="none" stroke-width="1px">110k</text><text x="973.2635714285716" y="0" dx="0em" dy="0.95em" style="text-anchor: middle; visibility: inherit; font-family: &quot;Helvetica Neue&quot;, sans-serif; font-size: 12px; font-weight: 200;" fill="rgb(50, 49, 63)" stroke="none" stroke-width="1px">120k</text><text x="1048.13" y="0" dx="0em" dy="0.95em" style="text-anchor: middle; visibility: hidden; font-family: &quot;Helvetica Neue&quot;, sans-serif; font-size: 12px; font-weight: 200;" fill="rgb(50, 49, 63)" stroke="none" stroke-width="1px">130k</text></g><line x1="0" y1="0" x2="1048.13" y2="0" fill="rgb(0, 0, 0)" stroke="rgb(204, 204, 204)" stroke-width="1px"></line></g></g></g></g></svg>