<svg viewBox="0 0 1094.1319580078125 400.0000305175781" xmlns="http://www.w3.org/2000/svg"><g><g><g><g><g><line x1="46" y1="377" x2="41" y2="377" style="visibility: inherit;" fill="rgb(0, 0, 0)" stroke="rgb(204, 204, 204)" stroke-width="1px"></line><line x1="46" y1="329.875" x2="41" y2="329.875" style="visibility: inherit;" fill="rgb(0, 0, 0)" stroke="rgb(204, 204, 204)" stroke-width="1px"></line><line x1="46" y1="282.75" x2="41" y2="282.75" style="visibility: inherit;" fill="rgb(0, 0, 0)" stroke="rgb(204, 204, 204)" stroke-width="1px"></line><line x1="46" y1="235.625" x2="41" y2="235.625" style="visibility: inherit;" fill="rgb(0, 0, 0)" stroke="rgb(204, 204, 204)" stroke-width="1px"></line><line x1="46" y1="188.5" x2="41" y2="188.5" style="visibility: inherit;" fill="rgb(0, 0, 0)" stroke="rgb(204, 204, 204)" stroke-width="1px"></line><line x1="46" y1="141.375" x2="41" y2="141.375" style="visibility: inherit;" fill="rgb(0, 0, 0)" stroke="rgb(204, 204, 204)" stroke-width="1px"></line><line x1="46" y1="94.25" x2="41" y2="94.25" style="visibility: inherit;" fill="rgb(0, 0, 0)" stroke="rgb(204, 204, 204)" stroke-width="1px"></line><line x1="46" y1="47.125" x2="41" y2="47.125" style="visibility: inherit;" fill="rgb(0, 0, 0)" stroke="rgb(204, 204, 204)" stroke-width="1px"></line><line x1="46" y1="0" x2="41" y2="0" style="visibility: inherit;" fill="rgb(0, 0, 0)" stroke="rgb(204, 204, 204)" stroke-width="1px"></line></g><g transform="translate(36, 0)"><text x="0" y="377" dx="0em" dy="0.3em" style="text-anchor: end; visibility: hidden; font-family: &quot;Helvetica Neue&quot;, sans-serif; font-size: 12px; font-weight: 200;" fill="rgb(50, 49, 63)" stroke="none" stroke-width="1px">-50</text><text x="0" y="329.875" dx="0em" dy="0.3em" style="text-anchor: end; visibility: inherit; font-family: &quot;Helvetica Neue&quot;, sans-serif; font-size: 12px; font-weight: 200;" fill="rgb(50, 49, 63)" stroke="none" stroke-width="1px">0</text><text x="0" y="282.75" dx="0em" dy="0.3em" style="text-anchor: end; visibility: inherit; font-family: &quot;Helvetica Neue&quot;, sans-serif; font-size: 12px; font-weight: 200;" fill="rgb(50, 49, 63)" stroke="none" stroke-width="1px">50</text><text x="0" y="235.625" dx="0em" dy="0.3em" style="text-anchor: end; visibility: inherit; font-family: &quot;Helvetica Neue&quot;, sans-serif; font-size: 12px; font-weight: 200;" fill="rgb(50, 49, 63)" stroke="none" stroke-width="1px">100</text><text x="0" y="188.5" dx="0em" dy="0.3em" style="text-anchor: end; visibility: inherit; font-family: &quot;Helvetica Neue&quot;, sans-serif; font-size: 12px; font-weight: 200;" fill="rgb(50, 49, 63)" stroke="none" stroke-width="1px">150</text><text x="0" y="141.375" dx="0em" dy="0.3em" style="text-anchor: end; visibility: inherit; font-family: &quot;Helvetica Neue&quot;, sans-serif; font-size: 12px; font-weight: 200;" fill="rgb(50, 49, 63)" stroke="none" stroke-width="1px">200</text><text x="0" y="94.25" dx="0em" dy="0.3em" style="text-anchor: end; visibility: inherit; font-family: &quot;Helvetica Neue&quot;, sans-serif; font-size: 12px; font-weight: 200;" fill="rgb(50, 49, 63)" stroke="none" stroke-width="1px">250</text><text x="0" y="47.125" dx="0em" dy="0.3em" style="text-anchor: end; visibility: inherit; font-family: &quot;Helvetica Neue&quot;, sans-serif; font-size: 12px; font-weight: 200;" fill="rgb(50, 49, 63)" stroke="none" stroke-width="1px">300</text><text x="0" y="0" dx="0em" dy="0.3em" style="text-anchor: end; visibility: hidden; font-family: &quot;Helvetica Neue&quot;, sans-serif; font-size: 12px; font-weight: 200;" fill="rgb(50, 49, 63)" stroke="none" stroke-width="1px">350</text></g><line x1="46" y1="0" x2="46" y2="377" fill="rgb(0, 0, 0)" stroke="rgb(204, 204, 204)" stroke-width="1px"></line></g></g><g transform="translate(46, 0)" clip-path="url(#clip_0)"><clipPath id="clip_0"><rect width="1048" height="376"></rect></clipPath><g><g><g><line x1="0" y1="0" x2="0" y2="377" fill="rgb(0, 0, 0)" stroke="rgb(60, 60, 60)" stroke-width="1px" opacity="0.25"></line><line x1="131.01625" y1="0" x2="131.01625" y2="377" fill="rgb(0, 0, 0)" stroke="rgb(60, 60, 60)" stroke-width="1px" opacity="0.25"></line><line x1="262.0325" y1="0" x2="262.0325" y2="377" fill="rgb(0, 0, 0)" stroke="rgb(60, 60, 60)" stroke-width="1px" opacity="0.25"></line><line x1="393.04875000000004" y1="0" x2="393.04875000000004" y2="377" fill="rgb(0, 0, 0)" stroke="rgb(60, 60, 60)" stroke-width="1px" opacity="0.25"></line><line x1="524.065" y1="0" x2="524.065" y2="377" fill="rgb(0, 0, 0)" stroke="rgb(60, 60, 60)" stroke-width="1px" opacity="0.25"></line><line x1="655.0812500000001" y1="0" x2="655.0812500000001" y2="377" fill="rgb(0, 0, 0)" stroke="rgb(60, 60, 60)" stroke-width="1px" opacity="0.25"></line><line x1="786.0975000000001" y1="0" x2="786.0975000000001" y2="377" fill="rgb(0, 0, 0)" stroke="rgb(60, 60, 60)" stroke-width="1px" opacity="0.25"></line><line x1="917.1137500000001" y1="0" x2="917.1137500000001" y2="377" fill="rgb(0, 0, 0)" stroke="rgb(60, 60, 60)" stroke-width="1px" opacity="0.25"></line><line x1="1048.13" y1="0" x2="1048.13" y2="377" fill="rgb(0, 0, 0)" stroke="rgb(60, 60, 60)" stroke-width="1px" opacity="0.25"></line></g><g><line x1="0" y1="377" x2="1048.13" y2="377" fill="rgb(0, 0, 0)" stroke="rgb(60, 60, 60)" stroke-width="1px" opacity="0.25"></line><line x1="0" y1="329.875" x2="1048.13" y2="329.875" fill="rgb(0, 0, 0)" stroke="rgb(60, 60, 60)" stroke-width="1px" opacity="0.25"></line><line x1="0" y1="282.75" x2="1048.13" y2="282.75" fill="rgb(0, 0, 0)" stroke="rgb(60, 60, 60)" stroke-width="1px" opacity="0.25"></line><line x1="0" y1="235.625" x2="1048.13" y2="235.625" fill="rgb(0, 0, 0)" stroke="rgb(60, 60, 60)" stroke-width="1px" opacity="0.25"></line><line x1="0" y1="188.5" x2="1048.13" y2="188.5" fill="rgb(0, 0, 0)" stroke="rgb(60, 60, 60)" stroke-width="1px" opacity="0.25"></line><line x1="0" y1="141.375" x2="1048.13" y2="141.375" fill="rgb(0, 0, 0)" stroke="rgb(60, 60, 60)" stroke-width="1px" opacity="0.25"></line><line x1="0" y1="94.25" x2="1048.13" y2="94.25" fill="rgb(0, 0, 0)" stroke="rgb(60, 60, 60)" stroke-width="1px" opacity="0.25"></line><line x1="0" y1="47.125" x2="1048.13" y2="47.125" fill="rgb(0, 0, 0)" stroke="rgb(60, 60, 60)" stroke-width="1px" opacity="0.25"></line><line x1="0" y1="0" x2="1048.13" y2="0" fill="rgb(0, 0, 0)" stroke="rgb(60, 60, 60)" stroke-width="1px" opacity="0.25"></line></g></g></g><g><g><line x1="0" y1="329.875" x2="1048.13" y2="329.875" fill="rgb(0, 0, 0)" stroke="rgb(153, 153, 153)" stroke-width="1.5px"></line></g></g><g><g><line x1="131.01625" y1="0" x2="131.01625" y2="377" fill="rgb(0, 0, 0)" stroke="rgb(153, 153, 153)" stroke-width="1.5px"></line></g></g><g><g><g><g><g><path stroke="rgb(255, 112, 67)" stroke-width="2px" d="M149.59435425,-95.9864661548092L151.9264435,0.45708569057802606L154.3371425,79.02178555565712L156.695435,36.4888350213032L159.07993075000002,25.399616674206356L161.49062975,102.46870138324931L163.92753200000004,36.85503201099186L166.33823100000004,67.37211533442394L168.74893000000003,74.83196015635627L171.15962900000002,138.08718242950846L173.54412475,92.28099559956996L175.90241725,110.77063025789744L178.31311625,116.77854319892947L180.64520550000003,119.19423963960423L183.05590450000003,4.340882113414125L185.44040025,77.81118858612177L187.77248950000003,125.73599954977536L190.07837550000002,155.036171637485L192.41046475000002,179.78330004250597L194.742554,216.62587380510038L197.07464325,221.38992642903156L199.43293575,227.37279914479774L201.73882175000003,251.49011309819662L204.04470775000001,248.06812724080953L206.35059375,258.1901968122705L208.68268300000003,233.89335088121922L211.06717875,255.32665991451927L213.47787775,229.87108014354936L215.83617025,225.29373840509206L218.22066600000002,238.24917692142253L220.63136500000002,247.76046488376068L223.042064,227.43144595630423L225.45276300000003,231.39635931432835L227.83725875000005,202.17575994099025L230.22175450000003,221.27403042536977L232.580047,227.2094675497682L234.96454275000005,249.31640483635806L237.40144500000002,251.93726342657544L239.81214400000002,265.28994853724936L242.24904625000002,256.908377355804L244.65974525000001,246.7238837131499L247.07044425,240.6916381120575L249.50734650000004,247.82520387556985L251.91804550000003,203.3909848282644L254.38115100000002,242.67512660450097L256.81805325,216.2330714460713L259.22875225,215.138652445584L261.69185775000005,205.08803900152628L264.12876000000006,228.40269088596744L266.59186550000004,237.8221978369406L269.054971,241.03404424995514L271.49187325,235.51562932402067L273.92877550000003,237.98632947582115L276.36567775000003,173.2753793810482L278.80258000000003,207.64151907912978L281.23948225,209.22084194369367L283.67638450000004,228.16111962239304L286.08708350000006,248.14101416158894L288.4977825,243.30680573206078L290.93468475000003,218.08251468313293L293.39779025,204.02667801459168L295.80848925000004,219.60521583890636L298.24539150000004,232.63271647081208L300.6560905,242.33747280088323L303.09299275000006,241.66353672771015L305.55609825,247.31863206927991L307.96679725,263.14146314659723L310.4036995000001,267.7209869844854L312.81439850000004,270.4795491837943L315.30370725000006,248.8895209150007L317.7406095,242.17985408189836L320.12510525000005,244.5730490610775L322.56200750000005,253.56598788391213L324.99890975,229.03687570459044L327.43581200000006,243.13965074471471L329.8989175,231.77205113561055L332.30961650000006,206.93828513998452L334.74651875000006,223.72999935089746L337.183421,229.11868765985486L339.62032325000007,234.27426066872786L342.03102225000004,247.01869460008925L344.38931475000004,256.55637933100695L346.8524202500001,241.72662111667057L349.2893225,212.61412582246817L351.70002150000005,227.62603635316108L354.13692375,246.04213301947723L356.57382600000005,247.25735806638605L358.9845250000001,241.1374133597291L361.39522400000004,248.1221192728565L363.7797197500001,253.1711217452935L366.19041875000005,263.43590054427693L368.62732100000005,270.56762553927365L371.06422325,266.23973834083716L373.52732875000004,272.396169885911L375.96423100000004,266.82076796395626L378.37493,261.94273326219945L380.81183225000007,247.20949209965366L383.22253125000003,254.42691081307586L385.68563675,271.86526966823493L387.99152275,265.64569126566266L390.29740875000005,268.1080586535931L392.60329475000003,257.29245659108165L394.9091807500001,253.1169489607525L397.21506675000006,261.4555587464161L399.52095275000005,259.148802708482L401.80063550000006,260.76682788210826L404.18513125000004,251.99862205122537L406.62203350000004,245.4427993904032L409.00652925,242.9482865373181L411.2338055,225.4306090073518L413.48728500000004,251.33772876576973L415.79317100000003,262.38464793298476L418.12526025,278.52536207827234L420.53595925,258.2405973433989L422.92045500000006,249.8099919967376L424.07339800000005,247.94358532408015L426.1696580000001,252.9046496151634L428.3183245000001,245.89170284740618L430.30977150000007,224.5560423230677L432.53704775000006,218.37453498551542L434.81673050000006,237.04737666147525L437.04400675000005,247.06184846697792L439.32368950000006,253.83445184599486L441.60337225000006,265.94432287151295L443.883055,257.15744961127444L446.18894100000006,194.65689420524123L448.49482700000004,227.9524924687319L450.80071300000003,222.38467433713515L453.0803957500001,243.2695268007674L455.41248500000006,247.90042272261132L457.71837100000005,262.0255854092321L460.02425700000003,254.06068641247043L462.35634625000006,259.86183875025324L464.6884355000001,259.4409603973687L466.99432150000007,233.95164403322104L469.27400425,242.45676885248878L471.60609350000004,247.01854765487707L473.93818275000007,244.13737956948873L476.19166225000004,247.0721726299989L478.47134500000004,252.03988688335824L480.69862125000003,250.2963175975442L482.95210075000006,259.015973705957L485.2317835,271.09393199426506L487.4852630000001,256.8224983261977L489.73874250000006,258.3369328030917L492.01842525,234.908367003022L494.2719047500001,251.6668615638127L496.5777907500001,262.14402675884423L498.8574735,253.67811844788469L500.50827825000005,258.2283244531302L502.55213175000006,255.83144709497384L504.75320475,256.3423783506733L506.84946475000004,260.82707573019155L508.99813125000003,237.76922157336884L511.38262700000007,244.76147818785674L513.7671227500001,255.19588705004315L516.1254152500001,266.2583121525112L518.48370775,230.9793280202665L520.8420002500001,242.77779927340256L523.226496,210.96714547590676L525.5847885000001,221.77772298500696L527.9430810000001,229.13965854838943L530.3013735000001,250.1845499660698L532.6858692500001,250.99701088631912L534.9917552500001,252.59688652446724L537.3762510000001,238.00478818756852L539.7607467500001,259.58311566461634L542.1190392500001,230.66277683895535L544.4773317500001,242.04645454789224L546.8618275000001,233.03717898026122L549.2201200000001,255.60178098663698L551.5784125,272.3997289351523L553.9367050000001,261.9597006118238L556.26879425,271.484094552275L558.62708675,276.09555318980006L561.03778575,282.11308262722844L563.474688,261.6380211309025L565.91159025,278.5995152637618L568.2960860000001,261.51167334587916L570.6805817500001,259.66729176540105L573.0912807500001,258.2291454602416L575.5281830000001,272.58506847197623L577.938882,274.049789404719L580.3233777500001,261.21807722559504L582.7340767500001,258.6243493337091L585.1709790000001,221.88724355713464L587.6078812500001,238.7175998879429L589.992377,236.34400295644738L592.403076,232.9979996284827L594.8137750000001,251.65050356966162L597.1982707500001,265.03536634696667L599.60896975,249.6994473930189L602.01966875,270.18039082693986L604.4303677500001,272.34301493744806L606.8148635,265.5805749231622L609.2255625000001,256.37864804685387L611.6362615,256.48743087828325L614.099367,253.57404621923067L616.510066,244.4248995638138L618.9207650000001,261.24879274655854L621.3314640000001,232.6411198251812L623.7683662500001,247.51812925060798L626.1528620000001,244.8059598867906L628.5373577500001,253.69865297370032L630.9480567500001,257.2689969294839L633.3587557500001,258.4172897668822L635.7432515000002,248.13929658199214L638.1539505000001,249.12719109311615L640.5908527500001,258.3901612707074L642.94914525,245.63387951541512L645.35984425,242.04913158803325L647.7181367500001,230.81240220111096L650.07642925,227.4619954588502L652.4085185,253.70683172431524L654.68820125,251.7717497914251L655.1074532500002,265.10245643384553L657.4919490000001,266.5040520310837L659.6406155000001,237.2116322531961L661.894095,249.43176124278682L664.3047940000001,268.638702978277L666.6892897500001,271.1086667561435L669.1261920000001,265.2990148272456L671.5630942500001,250.49543469895968L673.97379325,236.978069436014L676.4106955000001,239.30443415275832L678.8213945,247.70537100190887L681.20589025,244.83361282178743L683.6427925,207.01512332051388L686.07969475,230.13583442932006L688.4903937500001,238.65891780236743L690.8748895000001,236.3521622811519L693.2593852500002,228.4666250054099L695.6700842500001,209.6546207094227L698.0807832500001,246.28691474056453L700.49148225,251.34863044223908L702.875978,239.4689866454704L705.2866770000002,235.11711137815138L707.6711727500001,257.8522454149951L710.1080750000001,251.11244645401413L712.518774,268.85756613901003L714.9294730000001,250.39760155016629L717.340172,260.1935942095187L719.77707425,255.35756093702716L722.2139765000002,260.8637870810151L724.6508787500001,270.08048209510565L727.0615777500001,266.3108273277421L729.49848,254.28509055100318L731.9353822500001,254.74416642929575L734.3722845000001,251.17299068704523L736.8091867500001,259.30090775832696L739.2460890000001,271.30372510543566L741.68299125,233.59011895913542L744.1460967500001,241.60359440099396L746.6092022500001,251.55387890011787L749.098511,251.7640566872997L751.5354132500001,251.95290944572943L753.9723155000001,264.795831524829L756.3830145000001,253.1061511518359L758.8199167500001,248.35069005023237L761.2044125,246.01256983000513L763.58890825,248.292457196465L765.99960725,259.98056471476013L768.4103062500001,270.4498943822923L770.7948020000001,271.66551297672646L773.17929775,261.43260358529125L775.5899967500002,278.7879896795561L778.0006957500001,264.2400142896062L780.35898825,278.122242113345L782.7434840000001,272.7541801145036L785.1541830000001,274.5836967207407L787.564882,276.704232604588L789.9755810000001,290.7576953034907L792.38628,273.44395001443087L794.7707757500001,240.35407684154427L797.1552715,237.3139496831126L799.5659705000002,252.76478555464905L802.0028727500002,266.0434432055006L804.439775,255.33792461165484L806.8766772500001,263.67237929778514L808.632295,268.81091660760177L810.7023517500002,254.333467467918L813.0868475000001,235.42074355142952L815.4975465000001,226.23610470782305L817.8820422500002,226.0740347881948L820.2403347500001,243.6675592548749L822.59862725,258.15674328989394L824.9831230000001,249.32891610638262L827.3676187500001,247.51257822523095L829.7259112500001,260.62412463670717L832.08420375,260.6947340746268L834.4424962500001,259.5553937666145L836.7745855000001,245.53438199666303L839.1066747500001,243.3676293582151L841.4649672500001,229.05246331134018L843.82325975,238.8189222235595L846.1815522500001,237.27382174081296L848.566048,244.3222822794121L850.9505437500001,213.4466304913045L853.3088362500001,238.70382602351194L855.6671287500001,261.6611764315205L858.0516245000001,250.89587427016716L860.4361202500002,228.76569185946357L862.8206160000001,258.77706359132515L865.1789085000001,257.760553264048L867.5372010000001,273.78912149776596L869.9216967500001,270.9026242124413L872.33239575,271.5622505604848L874.7430947500001,285.7169997827783L877.1013872500001,271.9779222817764L879.4596797500001,286.3563503977981L881.8441755000001,285.3570768936471L884.28107775,288.9042079052923L886.6655735,292.4410031176566L889.0500692500001,297.1631914778327L891.4345650000001,303.25919383071516L893.845264,296.6162816869179L896.2297597500001,286.77089270752424L898.5880522500001,279.28408017254924L900.99875125,287.5928090253893L903.3832470000001,289.85231278034587L905.7677427500001,285.80967428167185L908.1522385000002,272.7014772603483L910.5629375000001,260.70148698792286L912.9474332500001,260.8778007544603L915.227116,266.6656001761869L917.533002,270.7692440015862L919.7078717500001,265.2825265797847L922.0923675000001,270.01868886428315L924.4768632500001,277.8779806296661L926.8613590000001,247.69044342235532L929.2458547500001,271.0902132255781L931.6565537500001,216.50481230729508L933.9886430000001,218.23512178989463L936.1897160000001,241.53855983312258L938.2859760000001,234.53907785543993" style="fill: none;" fill="none"></path></g></g></g></g><g opacity="0.2"><g><g><g><path stroke="rgb(255, 112, 67)" stroke-width="2px" d="M137.9863145,-494.23839416503915L140.344607,107.4586191940308L142.7028995,7.177876129150377L144.82536275,59.24964927673341L147.2098585,48.44460929870604L149.59435425,125.62058383941653L151.9264435,143.66452026367188L154.3371425,196.15625930786132L156.695435,-27.079128341674846L159.07993075000002,8.80199737548827L161.49062975,217.92134208679198L163.92753200000004,-61.488345642089826L166.33823100000004,113.12621730804443L168.74893000000003,86.01857063293454L171.15962900000002,232.95395534515382L173.54412475,23.578693466186564L175.90241725,138.50339221954346L178.31311625,125.7900831222534L180.64520550000003,122.81770481109618L183.05590450000003,-167.93688659667964L185.44040025,188.01577796936033L187.77248950000003,197.62287536621093L190.07837550000002,198.9863048171997L192.41046475000002,216.90392932891845L194.742554,271.8896778869629L197.07464325,228.5360009765625L199.43293575,236.3471049118042L201.73882175000003,287.66607603073123L204.04470775000001,242.9351491355896L206.35059375,273.3732999610901L208.68268300000003,197.4480837249756L211.06717875,287.476622543335L213.47787775,191.68771114349366L215.83617025,218.42772586822508L218.22066600000002,257.6823345756531L220.63136500000002,262.027396774292L223.042064,196.93791763305666L225.45276300000003,237.3437293434143L227.83725875000005,158.34486091613766L230.22175450000003,249.92143613815307L232.580047,236.11262323379518L234.96454275000005,282.47681076049804L237.40144500000002,255.86855131149292L239.81214400000002,285.3189762020111L242.24904625000002,244.33602058410645L244.65974525000001,231.44714324951173L247.07044425,231.64326971054078L249.50734650000004,258.52555252075194L251.91804550000003,136.7396562576294L254.38115100000002,301.6013392686844L256.81805325,176.56998870849608L259.22875225,213.49702394485473L261.69185775000005,190.01211883544923L264.12876000000006,263.37466871261597L266.59186550000004,251.95145826339723L269.054971,245.8518138694763L271.49187325,227.2380069351196L273.92877550000003,241.69237970352174L276.36567775000003,76.20895423889158L278.80258000000003,259.1907286262512L281.23948225,211.58982624053957L283.67638450000004,256.5715361404419L286.08708350000006,278.1108559703827L288.4977825,236.05549308776855L290.93468475000003,180.24607810974123L293.39779025,182.94292301177978L295.80848925000004,242.97302257537842L298.24539150000004,252.17396741867066L300.6560905,256.89460729599L303.09299275000006,240.65263261795045L305.55609825,255.80127508163451L307.96679725,286.87570976257325L310.4036995000001,274.59027274131773L312.81439850000004,274.61739248275757L315.30370725000006,216.5044785118103L317.7406095,232.11535383224486L320.12510525000005,248.1628415298462L322.56200750000005,267.0553961181641L324.99890975,192.2432074356079L327.43581200000006,264.2938133049011L329.8989175,214.72065172195434L332.30961650000006,169.6876361465454L334.74651875000006,248.91757066726683L337.183421,237.201720123291L339.62032325000007,242.00762018203736L342.03102225000004,266.13534549713137L344.38931475000004,270.86290642738345L346.8524202500001,219.48198379516603L349.2893225,168.94538288116456L351.70002150000005,250.14390214920041L354.13692375,273.6662780189514L356.57382600000005,249.08019563674927L358.9845250000001,231.95749629974367L361.39522400000004,258.5991781425476L363.7797197500001,260.74462545394897L366.19041875000005,278.83306874275206L368.62732100000005,281.2652130317688L371.06422325,259.74790754318235L373.52732875000004,281.6308172035217L375.96423100000004,258.4576650810242L378.37493,254.62568120956422L380.81183225000007,225.10963035583495L383.22253125000003,265.25303888320923L385.68563675,298.0228079509735L387.99152275,256.3163236618042L390.29740875000005,271.8016097354889L392.60329475000003,241.06905349731446L394.9091807500001,246.8536875152588L397.21506675000006,273.9634734249115L399.52095275000005,255.68866865158083L401.80063550000006,263.1938656425476L404.18513125000004,238.84631330490112L406.62203350000004,235.6090653991699L409.00652925,239.20651725769045L411.2338055,199.15409271240236L413.48728500000004,290.19840840339657L415.79317100000003,278.9550266838074L418.12526025,302.7364332962036L420.53595925,227.81345024108887L422.92045500000006,237.16408397674562L424.07339800000005,245.143975315094L426.1696580000001,260.34624605178834L428.3183245000001,235.37228269577025L430.30977150000007,192.55255153656006L432.53704775000006,209.10227397918703L434.81673050000006,265.05663917541506L437.04400675000005,262.08355617523193L439.32368950000006,263.9933569145203L441.60337225000006,284.10912940979006L443.883055,243.97713972091674L446.18894100000006,100.90606109619137L448.49482700000004,277.8958898639679L450.80071300000003,214.03294713973997L453.0803957500001,274.59680549621584L455.41248500000006,254.84676660537718L457.71837100000005,283.2133294391632L460.02425700000003,242.1133379173279L462.35634625000006,268.5635672569275L464.6884355000001,258.809642868042L466.99432150000007,195.7176694869995L469.27400425,255.21445608139038L471.60609350000004,253.86121585845947L473.93818275000007,239.81562744140624L476.19166225000004,251.47436222076414L478.47134500000004,259.4914582633972L480.69862125000003,247.68096366882324L482.95210075000006,272.09545786857603L485.2317835,289.2108694267273L487.4852630000001,235.41534782409667L489.73874250000006,260.6085845184326L492.01842525,199.76551830291749L494.2719047500001,276.8046034049988L496.5777907500001,277.8597745513916L498.8574735,240.9792559814453L500.50827825000005,265.0536334609985L502.55213175000006,252.23613105773927L504.75320475,257.10877523422243L506.84946475000004,267.554121799469L508.99813125000003,203.18244033813477L511.38262700000007,255.2498631095886L513.7671227500001,270.84750034332274L516.1254152500001,282.8519498062134L518.48370775,178.0608518218994L520.8420002500001,260.47550615310666L523.226496,163.2511647796631L525.5847885000001,237.99358924865723L527.9430810000001,240.18256189346314L530.3013735000001,281.7518870925903L532.6858692500001,252.2157022666931L534.9917552500001,254.99669998168946L537.3762510000001,216.11664068222046L539.7607467500001,291.950606880188L542.1190392500001,187.28226860046388L544.4773317500001,259.1219711112976L546.8618275000001,219.5232656288147L549.2201200000001,289.44868399620054L551.5784125,297.5966508579254L553.9367050000001,246.29965812683105L556.26879425,285.77068546295163L558.62708675,283.01274114608765L561.03778575,291.13937678337095L563.474688,230.92542888641358L565.91159025,304.04175646305083L568.2960860000001,235.87991046905518L570.6805817500001,256.90071939468385L573.0912807500001,256.07192600250244L575.5281830000001,294.11895298957825L577.938882,276.246870803833L580.3233777500001,241.97050895690919L582.7340767500001,254.73375749588013L585.1709790000001,166.78158489227295L587.6078812500001,263.9631343841553L589.992377,232.78360755920409L592.403076,227.97899463653565L594.8137750000001,279.62925948143004L597.1982707500001,285.1126605129242L599.60896975,226.69556896209718L602.01966875,300.90180597782137L604.4303677500001,275.5869511032104L606.8148635,255.4369149017334L609.2255625000001,242.57575773239137L611.6362615,256.65060512542726L614.099367,249.20396923065186L616.510066,230.70117958068846L618.9207650000001,286.48463252067563L621.3314640000001,189.72961044311523L623.7683662500001,269.83364338874816L626.1528620000001,240.73770584106447L628.5373577500001,267.03769260406494L630.9480567500001,262.62451286315917L633.3587557500001,260.13972902297974L635.7432515000002,232.72230680465697L638.1539505000001,250.60903285980226L640.5908527500001,272.2846165370941L642.94914525,226.4994568824768L645.35984425,236.67200969696046L647.7181367500001,213.95730812072753L650.07642925,222.43638534545897L652.4085185,293.0740861225128L654.68820125,248.86912689208984L655.1074532500002,285.0985163974762L657.4919490000001,268.6064454269409L659.6406155000001,193.27300258636473L661.894095,267.76195472717285L664.3047940000001,297.44911558151244L666.6892897500001,274.8136124229431L669.1261920000001,256.5845369338989L671.5630942500001,228.29006450653077L673.97379325,216.70202154159546L676.4106955000001,242.79398122787475L678.8213945,260.3067762756348L681.20589025,240.52597555160523L683.6427925,150.28738906860352L686.07969475,264.8169010925293L688.4903937500001,251.44354286193848L690.8748895000001,232.8920289993286L693.2593852500002,216.63831909179686L695.6700842500001,181.4366142654419L698.0807832500001,301.23535578727723L700.49148225,258.941203994751L702.875978,221.64952095031737L705.2866770000002,228.58929847717286L707.6711727500001,291.9549464702606L710.1080750000001,241.00274801254272L712.518774,295.4752456665039L714.9294730000001,222.70765466690062L717.340172,274.88758319854736L719.77707425,248.1035110282898L722.2139765000002,269.12312629699704L724.6508787500001,283.90552461624145L727.0615777500001,260.6563451766968L729.49848,236.24648538589477L731.9353822500001,255.4327802467346L734.3722845000001,245.81622707366944L736.8091867500001,271.49278336524964L739.2460890000001,289.3079511260986L741.68299125,177.01970973968506L744.1460967500001,253.62380756378172L746.6092022500001,266.4793056488037L749.098511,252.0793233680725L751.5354132500001,252.23618858337403L753.9723155000001,284.0602146434784L756.3830145000001,235.5716305923462L758.8199167500001,241.21749839782714L761.2044125,242.50538949966432L763.58890825,251.7122882461548L765.99960725,277.5127259922028L768.4103062500001,286.1538888835907L770.7948020000001,273.4889408683777L773.17929775,246.08323949813843L775.5899967500002,304.82106882095337L778.0006957500001,242.41805120468138L780.35898825,298.9455838489532L782.7434840000001,264.70208711624144L785.1541830000001,277.32797163009644L787.564882,279.88503643035887L789.9755810000001,311.83788935184475L792.38628,247.47333208084106L794.7707757500001,190.71926708221434L797.1552715,232.7537589454651L799.5659705000002,275.94103936195376L802.0028727500002,285.961429681778L804.439775,239.27964672088623L806.8766772500001,276.17406132698056L808.632295,276.5187225723267L810.7023517500002,232.61729375839235L813.0868475000001,207.05165767669678L815.4975465000001,212.45914644241333L817.8820422500002,225.83092990875244L820.2403347500001,270.057845954895L822.59862725,279.89051934242246L824.9831230000001,236.0871753311157L827.3676187500001,244.7880714035034L829.7259112500001,280.2914442539215L832.08420375,260.80064823150633L834.4424962500001,257.846383304596L836.7745855000001,224.50286434173583L839.1066747500001,240.1175004005432L841.4649672500001,207.57971424102783L843.82325975,253.46861059188842L846.1815522500001,234.9561710166931L848.566048,254.8949730873108L850.9505437500001,167.13315280914307L853.3088362500001,276.58961932182314L855.6671287500001,296.09720204353334L858.0516245000001,234.74792102813723L860.4361202500002,195.5704182434082L862.8206160000001,303.79412118911745L865.1789085000001,256.2357877731323L867.5372010000001,297.8319738483429L869.9216967500001,266.57287828445436L872.33239575,272.55169008255007L874.7430947500001,306.94912361621857L877.1013872500001,251.36930603027344L879.4596797500001,307.92399257183075L881.8441755000001,283.85816663742065L884.28107775,294.22490442276L886.6655735,297.746195936203L889.0500692500001,304.24647401809693L891.4345650000001,312.40319736003875L893.845264,286.6519134712219L896.2297597500001,272.0028092384338L898.5880522500001,268.0538613700867L900.99875125,300.05590230464935L903.3832470000001,293.2415684127808L905.7677427500001,279.74571653366087L908.1522385000002,253.03918172836305L910.5629375000001,242.70150157928467L912.9474332500001,261.14227140426635L915.227116,275.3472993087769L917.533002,276.92470973968506L919.7078717500001,257.0524504470825L922.0923675000001,277.1229322910309L924.4768632500001,289.6669182777405L926.8613590000001,202.40913761138916L929.2458547500001,306.1898679304123L931.6565537500001,134.62671092987063L933.9886430000001,220.83058601379395L936.1897160000001,276.4937168979645L938.2859760000001,224.039854888916" style="fill: none;" fill="none"></path></g></g></g></g></g></g><g transform="translate(46, 377)" clip-path="url(#clip_1)"><clipPath id="clip_1"><rect width="1048" height="22"></rect></clipPath><g><g><line x1="0" y1="0" x2="0" y2="5" style="visibility: inherit;" fill="rgb(0, 0, 0)" stroke="rgb(204, 204, 204)" stroke-width="1px"></line><line x1="131.01625" y1="0" x2="131.01625" y2="5" style="visibility: inherit;" fill="rgb(0, 0, 0)" stroke="rgb(204, 204, 204)" stroke-width="1px"></line><line x1="262.0325" y1="0" x2="262.0325" y2="5" style="visibility: inherit;" fill="rgb(0, 0, 0)" stroke="rgb(204, 204, 204)" stroke-width="1px"></line><line x1="393.04875000000004" y1="0" x2="393.04875000000004" y2="5" style="visibility: inherit;" fill="rgb(0, 0, 0)" stroke="rgb(204, 204, 204)" stroke-width="1px"></line><line x1="524.065" y1="0" x2="524.065" y2="5" style="visibility: inherit;" fill="rgb(0, 0, 0)" stroke="rgb(204, 204, 204)" stroke-width="1px"></line><line x1="655.0812500000001" y1="0" x2="655.0812500000001" y2="5" style="visibility: inherit;" fill="rgb(0, 0, 0)" stroke="rgb(204, 204, 204)" stroke-width="1px"></line><line x1="786.0975000000001" y1="0" x2="786.0975000000001" y2="5" style="visibility: inherit;" fill="rgb(0, 0, 0)" stroke="rgb(204, 204, 204)" stroke-width="1px"></line><line x1="917.1137500000001" y1="0" x2="917.1137500000001" y2="5" style="visibility: inherit;" fill="rgb(0, 0, 0)" stroke="rgb(204, 204, 204)" stroke-width="1px"></line><line x1="1048.13" y1="0" x2="1048.13" y2="5" style="visibility: inherit;" fill="rgb(0, 0, 0)" stroke="rgb(204, 204, 204)" stroke-width="1px"></line></g><g transform="translate(0, 8)"><text x="0" y="0" dx="0em" dy="0.95em" style="text-anchor: middle; visibility: hidden; font-family: &quot;Helvetica Neue&quot;, sans-serif; font-size: 12px; font-weight: 200;" fill="rgb(50, 49, 63)" stroke="none" stroke-width="1px">-5k</text><text x="131.01625" y="0" dx="0em" dy="0.95em" style="text-anchor: middle; visibility: inherit; font-family: &quot;Helvetica Neue&quot;, sans-serif; font-size: 12px; font-weight: 200;" fill="rgb(50, 49, 63)" stroke="none" stroke-width="1px">0</text><text x="262.0325" y="0" dx="0em" dy="0.95em" style="text-anchor: middle; visibility: inherit; font-family: &quot;Helvetica Neue&quot;, sans-serif; font-size: 12px; font-weight: 200;" fill="rgb(50, 49, 63)" stroke="none" stroke-width="1px">5k</text><text x="393.04875000000004" y="0" dx="0em" dy="0.95em" style="text-anchor: middle; visibility: inherit; font-family: &quot;Helvetica Neue&quot;, sans-serif; font-size: 12px; font-weight: 200;" fill="rgb(50, 49, 63)" stroke="none" stroke-width="1px">10k</text><text x="524.065" y="0" dx="0em" dy="0.95em" style="text-anchor: middle; visibility: inherit; font-family: &quot;Helvetica Neue&quot;, sans-serif; font-size: 12px; font-weight: 200;" fill="rgb(50, 49, 63)" stroke="none" stroke-width="1px">15k</text><text x="655.0812500000001" y="0" dx="0em" dy="0.95em" style="text-anchor: middle; visibility: inherit; font-family: &quot;Helvetica Neue&quot;, sans-serif; font-size: 12px; font-weight: 200;" fill="rgb(50, 49, 63)" stroke="none" stroke-width="1px">20k</text><text x="786.0975000000001" y="0" dx="0em" dy="0.95em" style="text-anchor: middle; visibility: inherit; font-family: &quot;Helvetica Neue&quot;, sans-serif; font-size: 12px; font-weight: 200;" fill="rgb(50, 49, 63)" stroke="none" stroke-width="1px">25k</text><text x="917.1137500000001" y="0" dx="0em" dy="0.95em" style="text-anchor: middle; visibility: inherit; font-family: &quot;Helvetica Neue&quot;, sans-serif; font-size: 12px; font-weight: 200;" fill="rgb(50, 49, 63)" stroke="none" stroke-width="1px">30k</text><text x="1048.13" y="0" dx="0em" dy="0.95em" style="text-anchor: middle; visibility: hidden; font-family: &quot;Helvetica Neue&quot;, sans-serif; font-size: 12px; font-weight: 200;" fill="rgb(50, 49, 63)" stroke="none" stroke-width="1px">35k</text></g><line x1="0" y1="0" x2="1048.13" y2="0" fill="rgb(0, 0, 0)" stroke="rgb(204, 204, 204)" stroke-width="1px"></line></g></g></g></g></svg>